M48
; DRILL file {KiCad 7.0.7} date Mon Dec 11 13:03:39 2023
; FORMAT={-:-/ absolute / inch / decimal}
; #@! TF.CreationDate,2023-12-11T13:03:39+01:00
; #@! TF.GenerationSoftware,Kicad,Pcbnew,7.0.7
; #@! TF.FileFunction,MixedPlating,1,2
FMAT,2
INCH
; #@! TA.AperFunction,Plated,PTH,ViaDrill
T1C0.0157
%
G90
G05
T1
X1.311Y-1.5906
X1.311Y-1.6693
X1.311Y-1.7087
X1.311Y-1.748
X1.3583Y-1.7441
X1.3819Y-1.4724
X1.4094Y-1.8622
X1.4528Y-1.3543
X1.4528Y-1.4724
X1.4528Y-1.5354
X1.5748Y-1.378
X1.6811Y-1.4685
X1.7126Y-1.5748
X1.7126Y-3.4921
X1.7165Y-1.7323
X1.7165Y-2.0354
X1.7165Y-3.5709
X1.7165Y-4.0315
X1.7165Y-4.1811
X1.7205Y-1.811
X1.7205Y-2.5787
X1.7205Y-2.6535
X1.7205Y-2.7323
X1.7205Y-2.8071
X1.7205Y-3.2638
X1.7205Y-3.3504
X1.7205Y-3.4173
X1.7205Y-3.6535
X1.7244Y-2.185
X1.7244Y-2.2717
X1.7244Y-2.3425
X1.7244Y-2.4252
X1.7244Y-2.4921
X1.7244Y-2.8858
X1.7244Y-2.9528
X1.7244Y-3.0394
X1.7244Y-3.7205
X1.7244Y-3.8031
X1.7244Y-3.8701
X1.7244Y-3.9567
X1.7244Y-4.1102
X1.7283Y-1.6614
X1.7283Y-1.878
X1.7283Y-1.9646
X1.7283Y-2.1181
X1.7283Y-3.1102
X1.7283Y-4.3386
X1.7323Y-3.1929
X1.815Y-3.0276
X1.8189Y-1.9567
X1.8189Y-2.1102
X1.8189Y-3.4921
X1.8189Y-3.6417
X1.8228Y-2.2598
X1.8228Y-2.4134
X1.8228Y-2.874
X1.8228Y-3.185
X1.8228Y-3.3346
X1.8228Y-3.7992
X1.8228Y-3.9488
X1.8228Y-4.0984
X1.8268Y-1.6496
X1.8268Y-1.8031
X1.8268Y-2.5669
X1.8268Y-2.7244
X1.8268Y-4.2559
X1.8386Y-1.4685
X1.8661Y-1.8819
X1.8661Y-1.9606
X1.8661Y-2.0354
X1.8661Y-2.1181
X1.8701Y-1.5748
X1.8701Y-1.6575
X1.8701Y-1.7283
X1.8701Y-1.811
X1.8701Y-2.189
X1.8701Y-2.2717
X1.8701Y-2.3465
X1.8701Y-2.4252
X1.8701Y-3.5748
X1.874Y-2.4961
X1.874Y-2.7323
X1.874Y-2.811
X1.874Y-2.9567
X1.874Y-3.0394
X1.874Y-3.2677
X1.874Y-3.3465
X1.874Y-3.4213
X1.874Y-3.8071
X1.874Y-3.874
X1.874Y-3.9606
X1.874Y-4.0354
X1.874Y-4.1142
X1.874Y-4.185
X1.878Y-1.5039
X1.878Y-2.5827
X1.878Y-2.6575
X1.878Y-3.1142
X1.878Y-3.1929
X1.878Y-3.4961
X1.878Y-3.6575
X1.878Y-3.7362
X1.878Y-4.3386
X1.8819Y-2.8898
X1.9724Y-2.1102
X1.9724Y-3.0276
X1.9724Y-3.6457
X1.9724Y-4.2559
X1.9764Y-1.9606
X1.9764Y-2.2598
X1.9764Y-2.5669
X1.9764Y-2.874
X1.9764Y-3.185
X1.9764Y-3.4921
X1.9764Y-3.7992
X1.9764Y-3.9528
X1.9764Y-4.1024
X1.9803Y-1.8031
X1.9803Y-2.4134
X1.9803Y-2.7244
X1.9803Y-3.3346
X1.9882Y-1.6496
X2.0Y-1.4724
X2.0236Y-4.185
X2.0276Y-1.7283
X2.0276Y-1.8071
X2.0276Y-1.8819
X2.0276Y-1.9646
X2.0276Y-2.0394
X2.0276Y-2.1181
X2.0276Y-2.1929
X2.0276Y-2.2717
X2.0276Y-2.3465
X2.0276Y-2.4961
X2.0276Y-2.5827
X2.0276Y-2.6575
X2.0276Y-2.9449
X2.0276Y-3.5748
X2.0276Y-3.7283
X2.0276Y-3.878
X2.0276Y-3.9606
X2.0276Y-4.0354
X2.0276Y-4.1102
X2.0315Y-1.5039
X2.0315Y-1.5787
X2.0315Y-1.6575
X2.0315Y-2.4252
X2.0315Y-2.7323
X2.0315Y-2.8071
X2.0315Y-2.8898
X2.0315Y-3.0394
X2.0315Y-3.1181
X2.0315Y-3.189
X2.0315Y-3.2677
X2.0315Y-3.4173
X2.0315Y-3.4961
X2.0315Y-3.6535
X2.0315Y-3.8071
X2.0315Y-4.3346
X2.0354Y-3.3465
X2.122Y-3.6457
X2.126Y-1.9606
X2.126Y-2.1102
X2.126Y-2.878
X2.1299Y-1.4921
X2.1299Y-2.2598
X2.1299Y-3.0276
X2.1299Y-3.185
X2.1299Y-3.4921
X2.1299Y-3.7992
X2.1299Y-4.1024
X2.1339Y-1.8031
X2.1339Y-2.4134
X2.1339Y-2.5669
X2.1339Y-2.7205
X2.1339Y-3.3386
X2.1339Y-3.9488
X2.1339Y-4.2559
X2.1417Y-1.6496
X2.1772Y-2.5
X2.1772Y-3.9606
X2.1772Y-3.9606
X2.1811Y-1.7323
X2.1811Y-1.9646
X2.1811Y-2.0354
X2.1811Y-2.1142
X2.1811Y-2.3504
X2.1811Y-2.9567
X2.1811Y-3.2717
X2.1811Y-3.7283
X2.1811Y-4.0315
X2.1811Y-4.185
X2.185Y-1.8858
X2.185Y-2.1929
X2.185Y-2.2717
X2.185Y-2.4252
X2.185Y-2.7323
X2.185Y-2.811
X2.185Y-3.1181
X2.185Y-3.189
X2.185Y-3.3465
X2.185Y-3.4173
X2.185Y-3.5
X2.185Y-3.6535
X2.185Y-3.8071
X2.185Y-3.8819
X2.185Y-4.1142
X2.189Y-1.5039
X2.189Y-1.5787
X2.189Y-1.6614
X2.189Y-1.811
X2.189Y-2.5787
X2.189Y-2.6496
X2.189Y-2.8898
X2.189Y-3.0394
X2.189Y-3.5787
X2.189Y-4.3346
X2.2795Y-1.9646
X2.2795Y-3.6417
X2.2835Y-1.8031
X2.2835Y-2.1063
X2.2835Y-2.2559
X2.2835Y-3.0276
X2.2835Y-3.185
X2.2835Y-3.3386
X2.2835Y-3.4882
X2.2835Y-3.7953
X2.2835Y-3.9528
X2.2835Y-4.2598
X2.2874Y-2.4134
X2.2874Y-2.5709
X2.2874Y-2.7205
X2.2874Y-2.878
X2.2874Y-4.1102
X2.2953Y-1.6496
X2.3031Y-1.4764
X2.3346Y-1.9685
X2.3346Y-2.1929
X2.3346Y-2.4961
X2.3346Y-2.9646
X2.3346Y-3.4134
X2.3346Y-3.5709
X2.3346Y-3.878
X2.3346Y-4.0354
X2.3346Y-4.185
X2.3386Y-1.5748
X2.3386Y-1.6535
X2.3386Y-1.7283
X2.3386Y-1.811
X2.3386Y-1.8819
X2.3386Y-2.0394
X2.3386Y-2.1142
X2.3386Y-2.2717
X2.3386Y-2.3465
X2.3386Y-2.4252
X2.3386Y-2.5787
X2.3386Y-2.8071
X2.3386Y-3.0394
X2.3386Y-3.1142
X2.3386Y-3.2717
X2.3386Y-3.5039
X2.3386Y-3.7244
X2.3386Y-3.8071
X2.3386Y-3.9567
X2.3386Y-4.1102
X2.3425Y-1.5079
X2.3425Y-2.6535
X2.3425Y-2.7323
X2.3425Y-2.8898
X2.3425Y-3.1929
X2.3425Y-3.3465
X2.3425Y-4.3346
X2.3465Y-3.6535
X2.437Y-1.9646
X2.437Y-2.1063
X2.437Y-2.2598
X2.437Y-3.185
X2.437Y-3.3386
X2.437Y-3.6457
X2.437Y-3.7953
X2.4409Y-1.6496
X2.4409Y-1.8031
X2.4409Y-2.4134
X2.4409Y-2.5709
X2.4409Y-2.7244
X2.4409Y-2.878
X2.4409Y-3.0276
X2.4409Y-3.4921
X2.4409Y-3.9528
X2.4409Y-4.1063
X2.4409Y-4.2598
X2.4646Y-1.4764
X2.4843Y-1.6575
X2.4843Y-4.189
X2.4882Y-1.5748
X2.4882Y-1.9685
X2.4882Y-2.0394
X2.4882Y-2.2677
X2.4882Y-2.3465
X2.4882Y-2.9646
X2.4882Y-3.2677
X2.4882Y-3.4173
X2.4882Y-3.7283
X2.4882Y-3.878
X2.4921Y-1.7323
X2.4921Y-1.8071
X2.4921Y-1.8819
X2.4921Y-2.1142
X2.4921Y-2.1929
X2.4921Y-2.4252
X2.4921Y-2.4961
X2.4921Y-2.8071
X2.4921Y-3.0354
X2.4921Y-3.1142
X2.4921Y-3.5
X2.4921Y-3.5748
X2.4921Y-3.8071
X2.4921Y-3.9646
X2.4921Y-4.0394
X2.4921Y-4.1102
X2.4961Y-1.5039
X2.4961Y-2.5787
X2.4961Y-2.6535
X2.4961Y-2.7323
X2.4961Y-3.3465
X2.4961Y-4.3346
X2.5Y-2.8858
X2.5Y-3.1929
X2.5Y-3.6575
X2.5866Y-2.1063
X2.5906Y-1.9606
X2.5906Y-2.5709
X2.5906Y-2.874
X2.5906Y-3.0276
X2.5906Y-3.1811
X2.5906Y-3.3346
X2.5906Y-3.4882
X2.5906Y-3.6417
X2.5906Y-3.7992
X2.5906Y-3.9528
X2.5945Y-1.8031
X2.5945Y-2.2638
X2.5945Y-2.4134
X2.5945Y-2.7244
X2.5945Y-4.1142
X2.5945Y-4.2598
X2.6024Y-1.4921
X2.6024Y-1.6496
X2.6378Y-2.1969
X2.6417Y-1.5787
X2.6417Y-1.6614
X2.6417Y-1.811
X2.6417Y-2.0394
X2.6417Y-2.3465
X2.6417Y-2.4252
X2.6417Y-3.1929
X2.6417Y-3.2717
X2.6417Y-3.7244
X2.6417Y-3.8071
X2.6457Y-1.7323
X2.6457Y-1.8819
X2.6457Y-1.9646
X2.6457Y-2.1142
X2.6457Y-2.2717
X2.6457Y-2.4921
X2.6457Y-2.5787
X2.6457Y-2.8071
X2.6457Y-2.9606
X2.6457Y-3.0394
X2.6457Y-3.1142
X2.6457Y-3.3465
X2.6457Y-3.4252
X2.6457Y-3.5748
X2.6457Y-3.878
X2.6457Y-3.9567
X2.6457Y-4.0354
X2.6457Y-4.1102
X2.6457Y-4.185
X2.6496Y-1.5039
X2.6496Y-2.6535
X2.6496Y-2.7323
X2.6496Y-2.8898
X2.6496Y-3.5039
X2.6496Y-3.6535
X2.6496Y-4.3346
X2.7402Y-2.5669
X2.7441Y-1.9646
X2.7441Y-2.1063
X2.7441Y-3.0276
X2.7441Y-3.185
X2.7441Y-3.4921
X2.7441Y-3.6457
X2.748Y-1.8071
X2.748Y-2.2598
X2.748Y-2.4173
X2.748Y-2.7165
X2.748Y-2.874
X2.748Y-3.3346
X2.748Y-3.7992
X2.748Y-3.9528
X2.748Y-4.1142
X2.748Y-4.2638
X2.7559Y-1.6496
X2.7638Y-1.4724
X2.7913Y-1.5748
X2.7913Y-2.1969
X2.7913Y-2.3465
X2.7913Y-2.4961
X2.7913Y-2.5827
X2.7913Y-3.1102
X2.7913Y-3.5748
X2.7913Y-3.8819
X2.7913Y-3.9606
X2.7913Y-4.0354
X2.7953Y-1.5039
X2.7953Y-1.6614
X2.7953Y-1.7323
X2.7953Y-1.8071
X2.7953Y-1.8858
X2.7953Y-1.9606
X2.7953Y-2.0394
X2.7953Y-2.2717
X2.7953Y-2.4252
X2.7953Y-2.6535
X2.7953Y-2.8071
X2.7953Y-2.9606
X2.7953Y-3.0354
X2.7953Y-3.1929
X2.7953Y-3.2677
X2.7953Y-3.3465
X2.7953Y-3.4213
X2.7953Y-3.7283
X2.7953Y-4.1102
X2.7953Y-4.185
X2.7953Y-4.3346
X2.7992Y-2.1181
X2.7992Y-2.7323
X2.7992Y-2.8898
X2.7992Y-3.5
X2.7992Y-3.6575
X2.7992Y-3.8071
X2.8937Y-3.4921
X2.8976Y-3.0276
X2.8976Y-3.3386
X2.8976Y-3.6417
X2.8976Y-3.7992
X2.8976Y-3.9528
X2.9016Y-1.8071
X2.9016Y-2.1024
X2.9016Y-2.2598
X2.9016Y-2.4173
X2.9016Y-2.5709
X2.9016Y-2.7244
X2.9016Y-2.878
X2.9016Y-3.1811
X2.9016Y-4.1142
X2.9016Y-4.2598
X2.9094Y-1.6496
X2.9094Y-1.9646
X2.9173Y-1.5
X2.9449Y-1.6535
X2.9449Y-2.189
X2.9449Y-3.2677
X2.9488Y-1.5748
X2.9488Y-1.7323
X2.9488Y-2.4961
X2.9488Y-2.6535
X2.9488Y-2.9606
X2.9488Y-3.1102
X2.9488Y-3.3425
X2.9488Y-3.4173
X2.9488Y-3.7244
X2.9488Y-3.878
X2.9488Y-3.9567
X2.9488Y-4.0354
X2.9488Y-4.1102
X2.9488Y-4.185
X2.9528Y-1.5039
X2.9528Y-1.8071
X2.9528Y-1.8819
X2.9528Y-1.9685
X2.9528Y-2.0433
X2.9528Y-2.2717
X2.9528Y-2.3425
X2.9528Y-2.4252
X2.9528Y-2.5787
X2.9528Y-2.8071
X2.9528Y-3.0394
X2.9528Y-3.1929
X2.9528Y-3.5039
X2.9528Y-3.5709
X2.9528Y-3.8071
X2.9528Y-4.3346
X2.9567Y-2.1181
X2.9567Y-2.7362
X2.9567Y-2.8858
X2.9567Y-3.6535
X3.0512Y-2.1063
X3.0512Y-2.4134
X3.0512Y-2.5669
X3.0512Y-3.3346
X3.0512Y-3.4921
X3.0512Y-3.7992
X3.0512Y-4.2598
X3.0551Y-1.8071
X3.0551Y-2.2598
X3.0551Y-2.7244
X3.0551Y-2.878
X3.0551Y-3.0276
X3.0551Y-3.1811
X3.0551Y-3.6417
X3.0551Y-3.9567
X3.0551Y-4.1142
X3.063Y-1.6457
X3.063Y-1.9646
X3.0669Y-1.4882
X3.0984Y-3.2677
X3.1024Y-1.5748
X3.1024Y-1.7323
X3.1024Y-1.8858
X3.1024Y-2.0433
X3.1024Y-3.4213
X3.1024Y-4.0394
X3.1024Y-4.189
X3.1063Y-1.6535
X3.1063Y-1.8071
X3.1063Y-1.9646
X3.1063Y-2.1181
X3.1063Y-2.189
X3.1063Y-2.2717
X3.1063Y-2.4961
X3.1063Y-2.5787
X3.1063Y-2.8071
X3.1063Y-2.8898
X3.1063Y-2.9646
X3.1063Y-3.1142
X3.1063Y-3.3465
X3.1063Y-3.5039
X3.1063Y-3.5787
X3.1063Y-3.8858
X3.1063Y-3.9606
X3.1102Y-1.5039
X3.1102Y-2.3465
X3.1102Y-2.4252
X3.1102Y-2.6575
X3.1102Y-2.7323
X3.1102Y-3.0394
X3.1102Y-3.1929
X3.1102Y-3.6535
X3.1102Y-3.7283
X3.1102Y-3.8071
X3.1102Y-4.1142
X3.1102Y-4.3346
X3.2008Y-2.5709
X3.2008Y-3.6417
X3.2047Y-1.8031
X3.2047Y-2.1063
X3.2047Y-2.2598
X3.2047Y-2.7244
X3.2047Y-3.0276
X3.2047Y-3.3386
X3.2047Y-3.4921
X3.2047Y-3.7992
X3.2047Y-3.9567
X3.2047Y-4.1102
X3.2087Y-2.4173
X3.2087Y-2.878
X3.2087Y-3.185
X3.2087Y-4.2598
X3.2165Y-1.4961
X3.2165Y-1.6496
X3.2165Y-1.9646
X3.2441Y-3.2677
X3.252Y-2.0394
X3.252Y-2.2717
X3.252Y-2.3465
X3.252Y-2.4252
X3.252Y-2.4961
X3.252Y-2.5827
X3.252Y-2.6535
X3.252Y-2.7323
X3.252Y-2.8071
X3.2559Y-1.5748
X3.2559Y-1.6457
X3.2559Y-1.7283
X3.2559Y-1.815
X3.2559Y-1.8858
X3.2559Y-1.9646
X3.2559Y-2.1181
X3.2559Y-2.189
X3.2559Y-2.8898
X3.2559Y-2.9646
X3.2559Y-3.0394
X3.2559Y-3.1142
X3.2559Y-3.1929
X3.2559Y-3.3465
X3.2559Y-3.4252
X3.2559Y-3.5
X3.2559Y-3.5748
X3.2559Y-3.8858
X3.2559Y-3.9606
X3.2559Y-4.0394
X3.2559Y-4.1929
X3.2598Y-1.5039
X3.2598Y-3.6535
X3.2598Y-3.7283
X3.2598Y-3.8031
X3.2598Y-4.1102
X3.2638Y-4.3346
X3.3543Y-2.1063
X3.3583Y-2.2598
X3.3583Y-2.5709
X3.3583Y-2.7244
X3.3583Y-3.185
X3.3583Y-3.3386
X3.3583Y-3.4921
X3.3583Y-3.6457
X3.3583Y-3.7992
X3.3583Y-3.9567
X3.3622Y-1.8071
X3.3622Y-2.4173
X3.3622Y-2.874
X3.3622Y-3.0276
X3.3622Y-4.1102
X3.3622Y-4.2598
X3.3701Y-1.4921
X3.3701Y-1.6457
X3.3701Y-1.9646
X3.4055Y-3.3465
X3.4094Y-1.6535
X3.4094Y-1.7323
X3.4094Y-2.0433
X3.4094Y-2.3465
X3.4094Y-2.4961
X3.4094Y-2.6535
X3.4094Y-2.7323
X3.4094Y-3.2677
X3.4094Y-3.4252
X3.4094Y-4.0354
X3.4094Y-4.189
X3.4134Y-1.5748
X3.4134Y-1.8858
X3.4134Y-1.9646
X3.4134Y-2.1929
X3.4134Y-2.8071
X3.4134Y-2.8898
X3.4134Y-2.9528
X3.4134Y-3.1102
X3.4134Y-3.5
X3.4134Y-3.5748
X3.4134Y-3.7244
X3.4134Y-3.8071
X3.4134Y-3.878
X3.4134Y-3.9646
X3.4134Y-4.1142
X3.4173Y-1.5039
X3.4173Y-1.815
X3.4173Y-2.1181
X3.4173Y-2.2717
X3.4173Y-2.4252
X3.4173Y-2.5827
X3.4173Y-3.0394
X3.4173Y-3.1929
X3.4173Y-3.6535
X3.4173Y-4.3346
X3.5118Y-2.1024
X3.5118Y-2.2598
X3.5118Y-2.5709
X3.5118Y-2.7244
X3.5118Y-2.874
X3.5118Y-3.1811
X3.5118Y-3.4921
X3.5118Y-3.7992
X3.5118Y-3.9567
X3.5157Y-1.811
X3.5157Y-1.9646
X3.5157Y-2.4173
X3.5157Y-3.0276
X3.5157Y-3.3386
X3.5157Y-3.6417
X3.5157Y-4.1142
X3.5157Y-4.2598
X3.5236Y-1.4921
X3.5236Y-1.6496
X3.5591Y-3.4213
X3.563Y-2.5787
X3.563Y-3.1181
X3.563Y-4.189
X3.5669Y-1.5748
X3.5669Y-1.6575
X3.5669Y-1.7323
X3.5669Y-1.811
X3.5669Y-1.8898
X3.5669Y-1.9646
X3.5669Y-2.0433
X3.5669Y-2.1181
X3.5669Y-2.1929
X3.5669Y-2.2756
X3.5669Y-2.3465
X3.5669Y-2.4252
X3.5669Y-2.5
X3.5669Y-2.6535
X3.5669Y-2.7323
X3.5669Y-2.8071
X3.5669Y-2.8858
X3.5669Y-2.9646
X3.5669Y-3.0394
X3.5669Y-3.1929
X3.5669Y-3.2677
X3.5669Y-3.7283
X3.5669Y-3.878
X3.5669Y-3.9567
X3.5669Y-4.0394
X3.5709Y-1.5039
X3.5709Y-3.3465
X3.5709Y-3.5
X3.5709Y-3.5748
X3.5709Y-3.6535
X3.5709Y-3.8071
X3.5709Y-4.1142
X3.5709Y-4.3346
X3.6614Y-3.3386
X3.6654Y-2.1024
X3.6654Y-2.7205
X3.6654Y-2.874
X3.6654Y-3.0276
X3.6654Y-3.1811
X3.6654Y-3.4921
X3.6654Y-3.6457
X3.6654Y-3.7953
X3.6693Y-1.811
X3.6693Y-1.9685
X3.6693Y-2.2638
X3.6693Y-2.4173
X3.6693Y-2.5709
X3.6693Y-3.9567
X3.6693Y-4.1142
X3.6693Y-4.2638
X3.6772Y-1.6535
X3.6811Y-1.4921
X3.7087Y-3.4213
X3.7126Y-1.9646
X3.7165Y-1.7323
X3.7165Y-1.8858
X3.7165Y-2.0433
X3.7165Y-2.1929
X3.7165Y-2.2717
X3.7165Y-2.3465
X3.7165Y-2.5748
X3.7165Y-2.9646
X3.7165Y-3.2677
X3.7165Y-3.7283
X3.7165Y-3.8031
X3.7205Y-1.5748
X3.7205Y-1.811
X3.7205Y-2.4252
X3.7205Y-2.5
X3.7205Y-2.6535
X3.7205Y-2.8071
X3.7205Y-2.8898
X3.7205Y-3.0394
X3.7205Y-3.1142
X3.7205Y-3.189
X3.7205Y-3.3465
X3.7205Y-3.5787
X3.7205Y-3.8858
X3.7205Y-3.9567
X3.7205Y-4.0354
X3.7205Y-4.1142
X3.7205Y-4.189
X3.7244Y-1.5039
X3.7244Y-1.6575
X3.7244Y-2.1181
X3.7244Y-2.7323
X3.7244Y-3.5
X3.7244Y-3.6535
X3.7244Y-4.3346
X3.8189Y-2.5709
X3.8189Y-3.0276
X3.8189Y-3.1811
X3.8189Y-3.6417
X3.8189Y-3.7953
X3.8189Y-3.9567
X3.8189Y-4.1142
X3.8228Y-1.815
X3.8228Y-2.1063
X3.8228Y-2.2598
X3.8228Y-2.4173
X3.8228Y-2.7205
X3.8228Y-2.878
X3.8228Y-3.3386
X3.8228Y-3.4921
X3.8228Y-4.2598
X3.8307Y-1.4961
X3.8307Y-1.6535
X3.8346Y-1.9646
X3.8701Y-2.0394
X3.8701Y-2.5
X3.8701Y-3.4173
X3.8701Y-4.189
X3.874Y-1.7323
X3.874Y-1.811
X3.874Y-1.8858
X3.874Y-2.1969
X3.874Y-2.2677
X3.874Y-2.3465
X3.874Y-2.4252
X3.874Y-2.6535
X3.874Y-2.8031
X3.874Y-2.9646
X3.874Y-3.0394
X3.874Y-3.1142
X3.874Y-3.1929
X3.874Y-3.3465
X3.874Y-3.5
X3.874Y-3.5748
X3.874Y-3.7283
X3.874Y-3.8819
X3.874Y-3.9606
X3.874Y-4.0315
X3.874Y-4.1142
X3.878Y-1.5039
X3.878Y-1.5748
X3.878Y-1.6575
X3.878Y-1.9685
X3.878Y-2.1181
X3.878Y-2.5787
X3.878Y-2.7323
X3.878Y-2.8898
X3.878Y-3.2677
X3.878Y-3.6535
X3.878Y-3.8071
X3.878Y-4.3346
X3.9724Y-2.1063
X3.9724Y-2.2638
X3.9724Y-2.5709
X3.9724Y-3.185
X3.9724Y-3.6457
X3.9724Y-3.7953
X3.9724Y-4.1102
X3.9764Y-2.4173
X3.9764Y-2.7205
X3.9764Y-2.878
X3.9764Y-3.0276
X3.9764Y-3.3346
X3.9764Y-3.4921
X3.9764Y-3.9606
X3.9764Y-4.2559
X3.9803Y-1.5
X3.9803Y-1.6575
X3.9843Y-1.8071
X3.9843Y-1.9685
X4.2835Y-1.4567
X4.3031Y-1.5591
X4.4488Y-1.3789
X4.5276Y-1.4173
X4.5276Y-1.4764
X4.626Y-1.3543
X4.6929Y-1.4606
X4.7244Y-1.4606
X4.7559Y-1.4606
X4.7874Y-1.4606
X4.8189Y-1.4606
X4.8504Y-1.4606
T0
M30
