%TF.GenerationSoftware,KiCad,Pcbnew,7.0.7*%
%TF.CreationDate,2023-12-11T13:03:46+01:00*%
%TF.ProjectId,flexAddressLedsV2,666c6578-4164-4647-9265-73734c656473,rev?*%
%TF.SameCoordinates,Original*%
%TF.FileFunction,Other,User*%
%FSLAX46Y46*%
G04 Gerber Fmt 4.6, Leading zero omitted, Abs format (unit mm)*
G04 Created by KiCad (PCBNEW 7.0.7) date 2023-12-11 13:03:46*
%MOMM*%
%LPD*%
G01*
G04 APERTURE LIST*
%ADD10C,0.150000*%
G04 APERTURE END LIST*
D10*
X29900000Y-31300000D02*
X34900000Y-31300000D01*
X34900000Y-48400000D01*
X29900000Y-48400000D01*
X29900000Y-31300000D01*
X18139819Y-43963220D02*
X17139819Y-43963220D01*
X17139819Y-43963220D02*
X17139819Y-43582268D01*
X17139819Y-43582268D02*
X17187438Y-43487030D01*
X17187438Y-43487030D02*
X17235057Y-43439411D01*
X17235057Y-43439411D02*
X17330295Y-43391792D01*
X17330295Y-43391792D02*
X17473152Y-43391792D01*
X17473152Y-43391792D02*
X17568390Y-43439411D01*
X17568390Y-43439411D02*
X17616009Y-43487030D01*
X17616009Y-43487030D02*
X17663628Y-43582268D01*
X17663628Y-43582268D02*
X17663628Y-43963220D01*
X18139819Y-42963220D02*
X17139819Y-42963220D01*
X18092200Y-41772744D02*
X18139819Y-41677506D01*
X18139819Y-41677506D02*
X18139819Y-41487030D01*
X18139819Y-41487030D02*
X18092200Y-41391792D01*
X18092200Y-41391792D02*
X17996961Y-41344173D01*
X17996961Y-41344173D02*
X17949342Y-41344173D01*
X17949342Y-41344173D02*
X17854104Y-41391792D01*
X17854104Y-41391792D02*
X17806485Y-41487030D01*
X17806485Y-41487030D02*
X17806485Y-41629887D01*
X17806485Y-41629887D02*
X17758866Y-41725125D01*
X17758866Y-41725125D02*
X17663628Y-41772744D01*
X17663628Y-41772744D02*
X17616009Y-41772744D01*
X17616009Y-41772744D02*
X17520771Y-41725125D01*
X17520771Y-41725125D02*
X17473152Y-41629887D01*
X17473152Y-41629887D02*
X17473152Y-41487030D01*
X17473152Y-41487030D02*
X17520771Y-41391792D01*
X17473152Y-41058458D02*
X17473152Y-40677506D01*
X17139819Y-40915601D02*
X17996961Y-40915601D01*
X17996961Y-40915601D02*
X18092200Y-40867982D01*
X18092200Y-40867982D02*
X18139819Y-40772744D01*
X18139819Y-40772744D02*
X18139819Y-40677506D01*
X18139819Y-40344172D02*
X17473152Y-40344172D01*
X17139819Y-40344172D02*
X17187438Y-40391791D01*
X17187438Y-40391791D02*
X17235057Y-40344172D01*
X17235057Y-40344172D02*
X17187438Y-40296553D01*
X17187438Y-40296553D02*
X17139819Y-40344172D01*
X17139819Y-40344172D02*
X17235057Y-40344172D01*
X17473152Y-40010839D02*
X17473152Y-39629887D01*
X18139819Y-39867982D02*
X17282676Y-39867982D01*
X17282676Y-39867982D02*
X17187438Y-39820363D01*
X17187438Y-39820363D02*
X17139819Y-39725125D01*
X17139819Y-39725125D02*
X17139819Y-39629887D01*
X17473152Y-39439410D02*
X17473152Y-39058458D01*
X18139819Y-39296553D02*
X17282676Y-39296553D01*
X17282676Y-39296553D02*
X17187438Y-39248934D01*
X17187438Y-39248934D02*
X17139819Y-39153696D01*
X17139819Y-39153696D02*
X17139819Y-39058458D01*
X18092200Y-38344172D02*
X18139819Y-38439410D01*
X18139819Y-38439410D02*
X18139819Y-38629886D01*
X18139819Y-38629886D02*
X18092200Y-38725124D01*
X18092200Y-38725124D02*
X17996961Y-38772743D01*
X17996961Y-38772743D02*
X17616009Y-38772743D01*
X17616009Y-38772743D02*
X17520771Y-38725124D01*
X17520771Y-38725124D02*
X17473152Y-38629886D01*
X17473152Y-38629886D02*
X17473152Y-38439410D01*
X17473152Y-38439410D02*
X17520771Y-38344172D01*
X17520771Y-38344172D02*
X17616009Y-38296553D01*
X17616009Y-38296553D02*
X17711247Y-38296553D01*
X17711247Y-38296553D02*
X17806485Y-38772743D01*
X17473152Y-37867981D02*
X18139819Y-37867981D01*
X17568390Y-37867981D02*
X17520771Y-37820362D01*
X17520771Y-37820362D02*
X17473152Y-37725124D01*
X17473152Y-37725124D02*
X17473152Y-37582267D01*
X17473152Y-37582267D02*
X17520771Y-37487029D01*
X17520771Y-37487029D02*
X17616009Y-37439410D01*
X17616009Y-37439410D02*
X18139819Y-37439410D01*
X18092200Y-36582267D02*
X18139819Y-36677505D01*
X18139819Y-36677505D02*
X18139819Y-36867981D01*
X18139819Y-36867981D02*
X18092200Y-36963219D01*
X18092200Y-36963219D02*
X17996961Y-37010838D01*
X17996961Y-37010838D02*
X17616009Y-37010838D01*
X17616009Y-37010838D02*
X17520771Y-36963219D01*
X17520771Y-36963219D02*
X17473152Y-36867981D01*
X17473152Y-36867981D02*
X17473152Y-36677505D01*
X17473152Y-36677505D02*
X17520771Y-36582267D01*
X17520771Y-36582267D02*
X17616009Y-36534648D01*
X17616009Y-36534648D02*
X17711247Y-36534648D01*
X17711247Y-36534648D02*
X17806485Y-37010838D01*
X18139819Y-36106076D02*
X17473152Y-36106076D01*
X17663628Y-36106076D02*
X17568390Y-36058457D01*
X17568390Y-36058457D02*
X17520771Y-36010838D01*
X17520771Y-36010838D02*
X17473152Y-35915600D01*
X17473152Y-35915600D02*
X17473152Y-35820362D01*
X18092200Y-35439409D02*
X18139819Y-35439409D01*
X18139819Y-35439409D02*
X18235057Y-35487028D01*
X18235057Y-35487028D02*
X18282676Y-35534647D01*
X18749819Y-44106077D02*
X18749819Y-43534649D01*
X19749819Y-43820363D02*
X18749819Y-43820363D01*
X19226009Y-42439410D02*
X19226009Y-41677506D01*
X19511723Y-41677506D02*
X19511723Y-42439410D01*
X18749819Y-40248934D02*
X18749819Y-40153696D01*
X18749819Y-40153696D02*
X18797438Y-40058458D01*
X18797438Y-40058458D02*
X18845057Y-40010839D01*
X18845057Y-40010839D02*
X18940295Y-39963220D01*
X18940295Y-39963220D02*
X19130771Y-39915601D01*
X19130771Y-39915601D02*
X19368866Y-39915601D01*
X19368866Y-39915601D02*
X19559342Y-39963220D01*
X19559342Y-39963220D02*
X19654580Y-40010839D01*
X19654580Y-40010839D02*
X19702200Y-40058458D01*
X19702200Y-40058458D02*
X19749819Y-40153696D01*
X19749819Y-40153696D02*
X19749819Y-40248934D01*
X19749819Y-40248934D02*
X19702200Y-40344172D01*
X19702200Y-40344172D02*
X19654580Y-40391791D01*
X19654580Y-40391791D02*
X19559342Y-40439410D01*
X19559342Y-40439410D02*
X19368866Y-40487029D01*
X19368866Y-40487029D02*
X19130771Y-40487029D01*
X19130771Y-40487029D02*
X18940295Y-40439410D01*
X18940295Y-40439410D02*
X18845057Y-40391791D01*
X18845057Y-40391791D02*
X18797438Y-40344172D01*
X18797438Y-40344172D02*
X18749819Y-40248934D01*
X19654580Y-39487029D02*
X19702200Y-39439410D01*
X19702200Y-39439410D02*
X19749819Y-39487029D01*
X19749819Y-39487029D02*
X19702200Y-39534648D01*
X19702200Y-39534648D02*
X19654580Y-39487029D01*
X19654580Y-39487029D02*
X19749819Y-39487029D01*
X18845057Y-39058458D02*
X18797438Y-39010839D01*
X18797438Y-39010839D02*
X18749819Y-38915601D01*
X18749819Y-38915601D02*
X18749819Y-38677506D01*
X18749819Y-38677506D02*
X18797438Y-38582268D01*
X18797438Y-38582268D02*
X18845057Y-38534649D01*
X18845057Y-38534649D02*
X18940295Y-38487030D01*
X18940295Y-38487030D02*
X19035533Y-38487030D01*
X19035533Y-38487030D02*
X19178390Y-38534649D01*
X19178390Y-38534649D02*
X19749819Y-39106077D01*
X19749819Y-39106077D02*
X19749819Y-38487030D01*
X19749819Y-38058458D02*
X19083152Y-38058458D01*
X19178390Y-38058458D02*
X19130771Y-38010839D01*
X19130771Y-38010839D02*
X19083152Y-37915601D01*
X19083152Y-37915601D02*
X19083152Y-37772744D01*
X19083152Y-37772744D02*
X19130771Y-37677506D01*
X19130771Y-37677506D02*
X19226009Y-37629887D01*
X19226009Y-37629887D02*
X19749819Y-37629887D01*
X19226009Y-37629887D02*
X19130771Y-37582268D01*
X19130771Y-37582268D02*
X19083152Y-37487030D01*
X19083152Y-37487030D02*
X19083152Y-37344173D01*
X19083152Y-37344173D02*
X19130771Y-37248934D01*
X19130771Y-37248934D02*
X19226009Y-37201315D01*
X19226009Y-37201315D02*
X19749819Y-37201315D01*
X19749819Y-36725125D02*
X19083152Y-36725125D01*
X19178390Y-36725125D02*
X19130771Y-36677506D01*
X19130771Y-36677506D02*
X19083152Y-36582268D01*
X19083152Y-36582268D02*
X19083152Y-36439411D01*
X19083152Y-36439411D02*
X19130771Y-36344173D01*
X19130771Y-36344173D02*
X19226009Y-36296554D01*
X19226009Y-36296554D02*
X19749819Y-36296554D01*
X19226009Y-36296554D02*
X19130771Y-36248935D01*
X19130771Y-36248935D02*
X19083152Y-36153697D01*
X19083152Y-36153697D02*
X19083152Y-36010840D01*
X19083152Y-36010840D02*
X19130771Y-35915601D01*
X19130771Y-35915601D02*
X19226009Y-35867982D01*
X19226009Y-35867982D02*
X19749819Y-35867982D01*
X19702200Y-35344173D02*
X19749819Y-35344173D01*
X19749819Y-35344173D02*
X19845057Y-35391792D01*
X19845057Y-35391792D02*
X19892676Y-35439411D01*
X20359819Y-43487030D02*
X20359819Y-43963220D01*
X20359819Y-43963220D02*
X20836009Y-44010839D01*
X20836009Y-44010839D02*
X20788390Y-43963220D01*
X20788390Y-43963220D02*
X20740771Y-43867982D01*
X20740771Y-43867982D02*
X20740771Y-43629887D01*
X20740771Y-43629887D02*
X20788390Y-43534649D01*
X20788390Y-43534649D02*
X20836009Y-43487030D01*
X20836009Y-43487030D02*
X20931247Y-43439411D01*
X20931247Y-43439411D02*
X21169342Y-43439411D01*
X21169342Y-43439411D02*
X21264580Y-43487030D01*
X21264580Y-43487030D02*
X21312200Y-43534649D01*
X21312200Y-43534649D02*
X21359819Y-43629887D01*
X21359819Y-43629887D02*
X21359819Y-43867982D01*
X21359819Y-43867982D02*
X21312200Y-43963220D01*
X21312200Y-43963220D02*
X21264580Y-44010839D01*
X21264580Y-43010839D02*
X21312200Y-42963220D01*
X21312200Y-42963220D02*
X21359819Y-43010839D01*
X21359819Y-43010839D02*
X21312200Y-43058458D01*
X21312200Y-43058458D02*
X21264580Y-43010839D01*
X21264580Y-43010839D02*
X21359819Y-43010839D01*
X20359819Y-42344173D02*
X20359819Y-42248935D01*
X20359819Y-42248935D02*
X20407438Y-42153697D01*
X20407438Y-42153697D02*
X20455057Y-42106078D01*
X20455057Y-42106078D02*
X20550295Y-42058459D01*
X20550295Y-42058459D02*
X20740771Y-42010840D01*
X20740771Y-42010840D02*
X20978866Y-42010840D01*
X20978866Y-42010840D02*
X21169342Y-42058459D01*
X21169342Y-42058459D02*
X21264580Y-42106078D01*
X21264580Y-42106078D02*
X21312200Y-42153697D01*
X21312200Y-42153697D02*
X21359819Y-42248935D01*
X21359819Y-42248935D02*
X21359819Y-42344173D01*
X21359819Y-42344173D02*
X21312200Y-42439411D01*
X21312200Y-42439411D02*
X21264580Y-42487030D01*
X21264580Y-42487030D02*
X21169342Y-42534649D01*
X21169342Y-42534649D02*
X20978866Y-42582268D01*
X20978866Y-42582268D02*
X20740771Y-42582268D01*
X20740771Y-42582268D02*
X20550295Y-42534649D01*
X20550295Y-42534649D02*
X20455057Y-42487030D01*
X20455057Y-42487030D02*
X20407438Y-42439411D01*
X20407438Y-42439411D02*
X20359819Y-42344173D01*
X21359819Y-41582268D02*
X20693152Y-41582268D01*
X20788390Y-41582268D02*
X20740771Y-41534649D01*
X20740771Y-41534649D02*
X20693152Y-41439411D01*
X20693152Y-41439411D02*
X20693152Y-41296554D01*
X20693152Y-41296554D02*
X20740771Y-41201316D01*
X20740771Y-41201316D02*
X20836009Y-41153697D01*
X20836009Y-41153697D02*
X21359819Y-41153697D01*
X20836009Y-41153697D02*
X20740771Y-41106078D01*
X20740771Y-41106078D02*
X20693152Y-41010840D01*
X20693152Y-41010840D02*
X20693152Y-40867983D01*
X20693152Y-40867983D02*
X20740771Y-40772744D01*
X20740771Y-40772744D02*
X20836009Y-40725125D01*
X20836009Y-40725125D02*
X21359819Y-40725125D01*
X21359819Y-40248935D02*
X20693152Y-40248935D01*
X20788390Y-40248935D02*
X20740771Y-40201316D01*
X20740771Y-40201316D02*
X20693152Y-40106078D01*
X20693152Y-40106078D02*
X20693152Y-39963221D01*
X20693152Y-39963221D02*
X20740771Y-39867983D01*
X20740771Y-39867983D02*
X20836009Y-39820364D01*
X20836009Y-39820364D02*
X21359819Y-39820364D01*
X20836009Y-39820364D02*
X20740771Y-39772745D01*
X20740771Y-39772745D02*
X20693152Y-39677507D01*
X20693152Y-39677507D02*
X20693152Y-39534650D01*
X20693152Y-39534650D02*
X20740771Y-39439411D01*
X20740771Y-39439411D02*
X20836009Y-39391792D01*
X20836009Y-39391792D02*
X21359819Y-39391792D01*
X21359819Y-38248935D02*
X20693152Y-37725126D01*
X20693152Y-38248935D02*
X21359819Y-37725126D01*
X21359819Y-36058459D02*
X21359819Y-36629887D01*
X21359819Y-36344173D02*
X20359819Y-36344173D01*
X20359819Y-36344173D02*
X20502676Y-36439411D01*
X20502676Y-36439411D02*
X20597914Y-36534649D01*
X20597914Y-36534649D02*
X20645533Y-36629887D01*
X20359819Y-35725125D02*
X20359819Y-35058459D01*
X20359819Y-35058459D02*
X21359819Y-35487030D01*
X21264580Y-34677506D02*
X21312200Y-34629887D01*
X21312200Y-34629887D02*
X21359819Y-34677506D01*
X21359819Y-34677506D02*
X21312200Y-34725125D01*
X21312200Y-34725125D02*
X21264580Y-34677506D01*
X21264580Y-34677506D02*
X21359819Y-34677506D01*
X21359819Y-33677507D02*
X21359819Y-34248935D01*
X21359819Y-33963221D02*
X20359819Y-33963221D01*
X20359819Y-33963221D02*
X20502676Y-34058459D01*
X20502676Y-34058459D02*
X20597914Y-34153697D01*
X20597914Y-34153697D02*
X20645533Y-34248935D01*
X21359819Y-33248935D02*
X20693152Y-33248935D01*
X20788390Y-33248935D02*
X20740771Y-33201316D01*
X20740771Y-33201316D02*
X20693152Y-33106078D01*
X20693152Y-33106078D02*
X20693152Y-32963221D01*
X20693152Y-32963221D02*
X20740771Y-32867983D01*
X20740771Y-32867983D02*
X20836009Y-32820364D01*
X20836009Y-32820364D02*
X21359819Y-32820364D01*
X20836009Y-32820364D02*
X20740771Y-32772745D01*
X20740771Y-32772745D02*
X20693152Y-32677507D01*
X20693152Y-32677507D02*
X20693152Y-32534650D01*
X20693152Y-32534650D02*
X20740771Y-32439411D01*
X20740771Y-32439411D02*
X20836009Y-32391792D01*
X20836009Y-32391792D02*
X21359819Y-32391792D01*
X21359819Y-31915602D02*
X20693152Y-31915602D01*
X20788390Y-31915602D02*
X20740771Y-31867983D01*
X20740771Y-31867983D02*
X20693152Y-31772745D01*
X20693152Y-31772745D02*
X20693152Y-31629888D01*
X20693152Y-31629888D02*
X20740771Y-31534650D01*
X20740771Y-31534650D02*
X20836009Y-31487031D01*
X20836009Y-31487031D02*
X21359819Y-31487031D01*
X20836009Y-31487031D02*
X20740771Y-31439412D01*
X20740771Y-31439412D02*
X20693152Y-31344174D01*
X20693152Y-31344174D02*
X20693152Y-31201317D01*
X20693152Y-31201317D02*
X20740771Y-31106078D01*
X20740771Y-31106078D02*
X20836009Y-31058459D01*
X20836009Y-31058459D02*
X21359819Y-31058459D01*
X21312200Y-30534650D02*
X21359819Y-30534650D01*
X21359819Y-30534650D02*
X21455057Y-30582269D01*
X21455057Y-30582269D02*
X21502676Y-30629888D01*
X21969819Y-44106077D02*
X21969819Y-43534649D01*
X22969819Y-43820363D02*
X21969819Y-43820363D01*
X22969819Y-43058458D02*
X22922200Y-43153696D01*
X22922200Y-43153696D02*
X22874580Y-43201315D01*
X22874580Y-43201315D02*
X22779342Y-43248934D01*
X22779342Y-43248934D02*
X22493628Y-43248934D01*
X22493628Y-43248934D02*
X22398390Y-43201315D01*
X22398390Y-43201315D02*
X22350771Y-43153696D01*
X22350771Y-43153696D02*
X22303152Y-43058458D01*
X22303152Y-43058458D02*
X22303152Y-42915601D01*
X22303152Y-42915601D02*
X22350771Y-42820363D01*
X22350771Y-42820363D02*
X22398390Y-42772744D01*
X22398390Y-42772744D02*
X22493628Y-42725125D01*
X22493628Y-42725125D02*
X22779342Y-42725125D01*
X22779342Y-42725125D02*
X22874580Y-42772744D01*
X22874580Y-42772744D02*
X22922200Y-42820363D01*
X22922200Y-42820363D02*
X22969819Y-42915601D01*
X22969819Y-42915601D02*
X22969819Y-43058458D01*
X22303152Y-42296553D02*
X23303152Y-42296553D01*
X22350771Y-42296553D02*
X22303152Y-42201315D01*
X22303152Y-42201315D02*
X22303152Y-42010839D01*
X22303152Y-42010839D02*
X22350771Y-41915601D01*
X22350771Y-41915601D02*
X22398390Y-41867982D01*
X22398390Y-41867982D02*
X22493628Y-41820363D01*
X22493628Y-41820363D02*
X22779342Y-41820363D01*
X22779342Y-41820363D02*
X22874580Y-41867982D01*
X22874580Y-41867982D02*
X22922200Y-41915601D01*
X22922200Y-41915601D02*
X22969819Y-42010839D01*
X22969819Y-42010839D02*
X22969819Y-42201315D01*
X22969819Y-42201315D02*
X22922200Y-42296553D01*
X22969819Y-40487029D02*
X22922200Y-40582267D01*
X22922200Y-40582267D02*
X22826961Y-40629886D01*
X22826961Y-40629886D02*
X21969819Y-40629886D01*
X22969819Y-39677505D02*
X22446009Y-39677505D01*
X22446009Y-39677505D02*
X22350771Y-39725124D01*
X22350771Y-39725124D02*
X22303152Y-39820362D01*
X22303152Y-39820362D02*
X22303152Y-40010838D01*
X22303152Y-40010838D02*
X22350771Y-40106076D01*
X22922200Y-39677505D02*
X22969819Y-39772743D01*
X22969819Y-39772743D02*
X22969819Y-40010838D01*
X22969819Y-40010838D02*
X22922200Y-40106076D01*
X22922200Y-40106076D02*
X22826961Y-40153695D01*
X22826961Y-40153695D02*
X22731723Y-40153695D01*
X22731723Y-40153695D02*
X22636485Y-40106076D01*
X22636485Y-40106076D02*
X22588866Y-40010838D01*
X22588866Y-40010838D02*
X22588866Y-39772743D01*
X22588866Y-39772743D02*
X22541247Y-39677505D01*
X22303152Y-39296552D02*
X22969819Y-39058457D01*
X22303152Y-38820362D02*
X22969819Y-39058457D01*
X22969819Y-39058457D02*
X23207914Y-39153695D01*
X23207914Y-39153695D02*
X23255533Y-39201314D01*
X23255533Y-39201314D02*
X23303152Y-39296552D01*
X22922200Y-38058457D02*
X22969819Y-38153695D01*
X22969819Y-38153695D02*
X22969819Y-38344171D01*
X22969819Y-38344171D02*
X22922200Y-38439409D01*
X22922200Y-38439409D02*
X22826961Y-38487028D01*
X22826961Y-38487028D02*
X22446009Y-38487028D01*
X22446009Y-38487028D02*
X22350771Y-38439409D01*
X22350771Y-38439409D02*
X22303152Y-38344171D01*
X22303152Y-38344171D02*
X22303152Y-38153695D01*
X22303152Y-38153695D02*
X22350771Y-38058457D01*
X22350771Y-38058457D02*
X22446009Y-38010838D01*
X22446009Y-38010838D02*
X22541247Y-38010838D01*
X22541247Y-38010838D02*
X22636485Y-38487028D01*
X22969819Y-37582266D02*
X22303152Y-37582266D01*
X22493628Y-37582266D02*
X22398390Y-37534647D01*
X22398390Y-37534647D02*
X22350771Y-37487028D01*
X22350771Y-37487028D02*
X22303152Y-37391790D01*
X22303152Y-37391790D02*
X22303152Y-37296552D01*
X22874580Y-36963218D02*
X22922200Y-36915599D01*
X22922200Y-36915599D02*
X22969819Y-36963218D01*
X22969819Y-36963218D02*
X22922200Y-37010837D01*
X22922200Y-37010837D02*
X22874580Y-36963218D01*
X22874580Y-36963218D02*
X22969819Y-36963218D01*
X25204819Y-43897618D02*
X25204819Y-44469046D01*
X25204819Y-44183332D02*
X24204819Y-44183332D01*
X24204819Y-44183332D02*
X24347676Y-44278570D01*
X24347676Y-44278570D02*
X24442914Y-44373808D01*
X24442914Y-44373808D02*
X24490533Y-44469046D01*
X24204819Y-43564284D02*
X24204819Y-42897618D01*
X24204819Y-42897618D02*
X25204819Y-43326189D01*
X25157200Y-42469046D02*
X25204819Y-42469046D01*
X25204819Y-42469046D02*
X25300057Y-42516665D01*
X25300057Y-42516665D02*
X25347676Y-42564284D01*
X25204819Y-41516666D02*
X25204819Y-42088094D01*
X25204819Y-41802380D02*
X24204819Y-41802380D01*
X24204819Y-41802380D02*
X24347676Y-41897618D01*
X24347676Y-41897618D02*
X24442914Y-41992856D01*
X24442914Y-41992856D02*
X24490533Y-42088094D01*
X24204819Y-40897618D02*
X24204819Y-40802380D01*
X24204819Y-40802380D02*
X24252438Y-40707142D01*
X24252438Y-40707142D02*
X24300057Y-40659523D01*
X24300057Y-40659523D02*
X24395295Y-40611904D01*
X24395295Y-40611904D02*
X24585771Y-40564285D01*
X24585771Y-40564285D02*
X24823866Y-40564285D01*
X24823866Y-40564285D02*
X25014342Y-40611904D01*
X25014342Y-40611904D02*
X25109580Y-40659523D01*
X25109580Y-40659523D02*
X25157200Y-40707142D01*
X25157200Y-40707142D02*
X25204819Y-40802380D01*
X25204819Y-40802380D02*
X25204819Y-40897618D01*
X25204819Y-40897618D02*
X25157200Y-40992856D01*
X25157200Y-40992856D02*
X25109580Y-41040475D01*
X25109580Y-41040475D02*
X25014342Y-41088094D01*
X25014342Y-41088094D02*
X24823866Y-41135713D01*
X24823866Y-41135713D02*
X24585771Y-41135713D01*
X24585771Y-41135713D02*
X24395295Y-41088094D01*
X24395295Y-41088094D02*
X24300057Y-41040475D01*
X24300057Y-41040475D02*
X24252438Y-40992856D01*
X24252438Y-40992856D02*
X24204819Y-40897618D01*
X24204819Y-39945237D02*
X24204819Y-39849999D01*
X24204819Y-39849999D02*
X24252438Y-39754761D01*
X24252438Y-39754761D02*
X24300057Y-39707142D01*
X24300057Y-39707142D02*
X24395295Y-39659523D01*
X24395295Y-39659523D02*
X24585771Y-39611904D01*
X24585771Y-39611904D02*
X24823866Y-39611904D01*
X24823866Y-39611904D02*
X25014342Y-39659523D01*
X25014342Y-39659523D02*
X25109580Y-39707142D01*
X25109580Y-39707142D02*
X25157200Y-39754761D01*
X25157200Y-39754761D02*
X25204819Y-39849999D01*
X25204819Y-39849999D02*
X25204819Y-39945237D01*
X25204819Y-39945237D02*
X25157200Y-40040475D01*
X25157200Y-40040475D02*
X25109580Y-40088094D01*
X25109580Y-40088094D02*
X25014342Y-40135713D01*
X25014342Y-40135713D02*
X24823866Y-40183332D01*
X24823866Y-40183332D02*
X24585771Y-40183332D01*
X24585771Y-40183332D02*
X24395295Y-40135713D01*
X24395295Y-40135713D02*
X24300057Y-40088094D01*
X24300057Y-40088094D02*
X24252438Y-40040475D01*
X24252438Y-40040475D02*
X24204819Y-39945237D01*
X24204819Y-38992856D02*
X24204819Y-38897618D01*
X24204819Y-38897618D02*
X24252438Y-38802380D01*
X24252438Y-38802380D02*
X24300057Y-38754761D01*
X24300057Y-38754761D02*
X24395295Y-38707142D01*
X24395295Y-38707142D02*
X24585771Y-38659523D01*
X24585771Y-38659523D02*
X24823866Y-38659523D01*
X24823866Y-38659523D02*
X25014342Y-38707142D01*
X25014342Y-38707142D02*
X25109580Y-38754761D01*
X25109580Y-38754761D02*
X25157200Y-38802380D01*
X25157200Y-38802380D02*
X25204819Y-38897618D01*
X25204819Y-38897618D02*
X25204819Y-38992856D01*
X25204819Y-38992856D02*
X25157200Y-39088094D01*
X25157200Y-39088094D02*
X25109580Y-39135713D01*
X25109580Y-39135713D02*
X25014342Y-39183332D01*
X25014342Y-39183332D02*
X24823866Y-39230951D01*
X24823866Y-39230951D02*
X24585771Y-39230951D01*
X24585771Y-39230951D02*
X24395295Y-39183332D01*
X24395295Y-39183332D02*
X24300057Y-39135713D01*
X24300057Y-39135713D02*
X24252438Y-39088094D01*
X24252438Y-39088094D02*
X24204819Y-38992856D01*
X25204819Y-37469046D02*
X24538152Y-37469046D01*
X24633390Y-37469046D02*
X24585771Y-37421427D01*
X24585771Y-37421427D02*
X24538152Y-37326189D01*
X24538152Y-37326189D02*
X24538152Y-37183332D01*
X24538152Y-37183332D02*
X24585771Y-37088094D01*
X24585771Y-37088094D02*
X24681009Y-37040475D01*
X24681009Y-37040475D02*
X25204819Y-37040475D01*
X24681009Y-37040475D02*
X24585771Y-36992856D01*
X24585771Y-36992856D02*
X24538152Y-36897618D01*
X24538152Y-36897618D02*
X24538152Y-36754761D01*
X24538152Y-36754761D02*
X24585771Y-36659522D01*
X24585771Y-36659522D02*
X24681009Y-36611903D01*
X24681009Y-36611903D02*
X25204819Y-36611903D01*
X25204819Y-36135713D02*
X24538152Y-36135713D01*
X24633390Y-36135713D02*
X24585771Y-36088094D01*
X24585771Y-36088094D02*
X24538152Y-35992856D01*
X24538152Y-35992856D02*
X24538152Y-35849999D01*
X24538152Y-35849999D02*
X24585771Y-35754761D01*
X24585771Y-35754761D02*
X24681009Y-35707142D01*
X24681009Y-35707142D02*
X25204819Y-35707142D01*
X24681009Y-35707142D02*
X24585771Y-35659523D01*
X24585771Y-35659523D02*
X24538152Y-35564285D01*
X24538152Y-35564285D02*
X24538152Y-35421428D01*
X24538152Y-35421428D02*
X24585771Y-35326189D01*
X24585771Y-35326189D02*
X24681009Y-35278570D01*
X24681009Y-35278570D02*
X25204819Y-35278570D01*
X34400000Y-31300000D02*
X25313580Y-31300000D01*
X34400000Y-48400000D02*
X25313580Y-48400000D01*
X25900000Y-31300000D02*
X25900000Y-48400000D01*
X25900000Y-31300000D02*
X25900000Y-48400000D01*
X25900000Y-31300000D02*
X26486421Y-32426504D01*
X25900000Y-31300000D02*
X25313579Y-32426504D01*
X25900000Y-48400000D02*
X25313579Y-47273496D01*
X25900000Y-48400000D02*
X26486421Y-47273496D01*
X28780952Y-27604819D02*
X28304762Y-27604819D01*
X28304762Y-27604819D02*
X28257143Y-28081009D01*
X28257143Y-28081009D02*
X28304762Y-28033390D01*
X28304762Y-28033390D02*
X28400000Y-27985771D01*
X28400000Y-27985771D02*
X28638095Y-27985771D01*
X28638095Y-27985771D02*
X28733333Y-28033390D01*
X28733333Y-28033390D02*
X28780952Y-28081009D01*
X28780952Y-28081009D02*
X28828571Y-28176247D01*
X28828571Y-28176247D02*
X28828571Y-28414342D01*
X28828571Y-28414342D02*
X28780952Y-28509580D01*
X28780952Y-28509580D02*
X28733333Y-28557200D01*
X28733333Y-28557200D02*
X28638095Y-28604819D01*
X28638095Y-28604819D02*
X28400000Y-28604819D01*
X28400000Y-28604819D02*
X28304762Y-28557200D01*
X28304762Y-28557200D02*
X28257143Y-28509580D01*
X29304762Y-28557200D02*
X29304762Y-28604819D01*
X29304762Y-28604819D02*
X29257143Y-28700057D01*
X29257143Y-28700057D02*
X29209524Y-28747676D01*
X29923809Y-27604819D02*
X30019047Y-27604819D01*
X30019047Y-27604819D02*
X30114285Y-27652438D01*
X30114285Y-27652438D02*
X30161904Y-27700057D01*
X30161904Y-27700057D02*
X30209523Y-27795295D01*
X30209523Y-27795295D02*
X30257142Y-27985771D01*
X30257142Y-27985771D02*
X30257142Y-28223866D01*
X30257142Y-28223866D02*
X30209523Y-28414342D01*
X30209523Y-28414342D02*
X30161904Y-28509580D01*
X30161904Y-28509580D02*
X30114285Y-28557200D01*
X30114285Y-28557200D02*
X30019047Y-28604819D01*
X30019047Y-28604819D02*
X29923809Y-28604819D01*
X29923809Y-28604819D02*
X29828571Y-28557200D01*
X29828571Y-28557200D02*
X29780952Y-28509580D01*
X29780952Y-28509580D02*
X29733333Y-28414342D01*
X29733333Y-28414342D02*
X29685714Y-28223866D01*
X29685714Y-28223866D02*
X29685714Y-27985771D01*
X29685714Y-27985771D02*
X29733333Y-27795295D01*
X29733333Y-27795295D02*
X29780952Y-27700057D01*
X29780952Y-27700057D02*
X29828571Y-27652438D01*
X29828571Y-27652438D02*
X29923809Y-27604819D01*
X30876190Y-27604819D02*
X30971428Y-27604819D01*
X30971428Y-27604819D02*
X31066666Y-27652438D01*
X31066666Y-27652438D02*
X31114285Y-27700057D01*
X31114285Y-27700057D02*
X31161904Y-27795295D01*
X31161904Y-27795295D02*
X31209523Y-27985771D01*
X31209523Y-27985771D02*
X31209523Y-28223866D01*
X31209523Y-28223866D02*
X31161904Y-28414342D01*
X31161904Y-28414342D02*
X31114285Y-28509580D01*
X31114285Y-28509580D02*
X31066666Y-28557200D01*
X31066666Y-28557200D02*
X30971428Y-28604819D01*
X30971428Y-28604819D02*
X30876190Y-28604819D01*
X30876190Y-28604819D02*
X30780952Y-28557200D01*
X30780952Y-28557200D02*
X30733333Y-28509580D01*
X30733333Y-28509580D02*
X30685714Y-28414342D01*
X30685714Y-28414342D02*
X30638095Y-28223866D01*
X30638095Y-28223866D02*
X30638095Y-27985771D01*
X30638095Y-27985771D02*
X30685714Y-27795295D01*
X30685714Y-27795295D02*
X30733333Y-27700057D01*
X30733333Y-27700057D02*
X30780952Y-27652438D01*
X30780952Y-27652438D02*
X30876190Y-27604819D01*
X31828571Y-27604819D02*
X31923809Y-27604819D01*
X31923809Y-27604819D02*
X32019047Y-27652438D01*
X32019047Y-27652438D02*
X32066666Y-27700057D01*
X32066666Y-27700057D02*
X32114285Y-27795295D01*
X32114285Y-27795295D02*
X32161904Y-27985771D01*
X32161904Y-27985771D02*
X32161904Y-28223866D01*
X32161904Y-28223866D02*
X32114285Y-28414342D01*
X32114285Y-28414342D02*
X32066666Y-28509580D01*
X32066666Y-28509580D02*
X32019047Y-28557200D01*
X32019047Y-28557200D02*
X31923809Y-28604819D01*
X31923809Y-28604819D02*
X31828571Y-28604819D01*
X31828571Y-28604819D02*
X31733333Y-28557200D01*
X31733333Y-28557200D02*
X31685714Y-28509580D01*
X31685714Y-28509580D02*
X31638095Y-28414342D01*
X31638095Y-28414342D02*
X31590476Y-28223866D01*
X31590476Y-28223866D02*
X31590476Y-27985771D01*
X31590476Y-27985771D02*
X31638095Y-27795295D01*
X31638095Y-27795295D02*
X31685714Y-27700057D01*
X31685714Y-27700057D02*
X31733333Y-27652438D01*
X31733333Y-27652438D02*
X31828571Y-27604819D01*
X32780952Y-27604819D02*
X32876190Y-27604819D01*
X32876190Y-27604819D02*
X32971428Y-27652438D01*
X32971428Y-27652438D02*
X33019047Y-27700057D01*
X33019047Y-27700057D02*
X33066666Y-27795295D01*
X33066666Y-27795295D02*
X33114285Y-27985771D01*
X33114285Y-27985771D02*
X33114285Y-28223866D01*
X33114285Y-28223866D02*
X33066666Y-28414342D01*
X33066666Y-28414342D02*
X33019047Y-28509580D01*
X33019047Y-28509580D02*
X32971428Y-28557200D01*
X32971428Y-28557200D02*
X32876190Y-28604819D01*
X32876190Y-28604819D02*
X32780952Y-28604819D01*
X32780952Y-28604819D02*
X32685714Y-28557200D01*
X32685714Y-28557200D02*
X32638095Y-28509580D01*
X32638095Y-28509580D02*
X32590476Y-28414342D01*
X32590476Y-28414342D02*
X32542857Y-28223866D01*
X32542857Y-28223866D02*
X32542857Y-27985771D01*
X32542857Y-27985771D02*
X32590476Y-27795295D01*
X32590476Y-27795295D02*
X32638095Y-27700057D01*
X32638095Y-27700057D02*
X32685714Y-27652438D01*
X32685714Y-27652438D02*
X32780952Y-27604819D01*
X34304762Y-28604819D02*
X34304762Y-27938152D01*
X34304762Y-28033390D02*
X34352381Y-27985771D01*
X34352381Y-27985771D02*
X34447619Y-27938152D01*
X34447619Y-27938152D02*
X34590476Y-27938152D01*
X34590476Y-27938152D02*
X34685714Y-27985771D01*
X34685714Y-27985771D02*
X34733333Y-28081009D01*
X34733333Y-28081009D02*
X34733333Y-28604819D01*
X34733333Y-28081009D02*
X34780952Y-27985771D01*
X34780952Y-27985771D02*
X34876190Y-27938152D01*
X34876190Y-27938152D02*
X35019047Y-27938152D01*
X35019047Y-27938152D02*
X35114286Y-27985771D01*
X35114286Y-27985771D02*
X35161905Y-28081009D01*
X35161905Y-28081009D02*
X35161905Y-28604819D01*
X35638095Y-28604819D02*
X35638095Y-27938152D01*
X35638095Y-28033390D02*
X35685714Y-27985771D01*
X35685714Y-27985771D02*
X35780952Y-27938152D01*
X35780952Y-27938152D02*
X35923809Y-27938152D01*
X35923809Y-27938152D02*
X36019047Y-27985771D01*
X36019047Y-27985771D02*
X36066666Y-28081009D01*
X36066666Y-28081009D02*
X36066666Y-28604819D01*
X36066666Y-28081009D02*
X36114285Y-27985771D01*
X36114285Y-27985771D02*
X36209523Y-27938152D01*
X36209523Y-27938152D02*
X36352380Y-27938152D01*
X36352380Y-27938152D02*
X36447619Y-27985771D01*
X36447619Y-27985771D02*
X36495238Y-28081009D01*
X36495238Y-28081009D02*
X36495238Y-28604819D01*
X29900000Y-27900000D02*
X29900000Y-29886420D01*
X34900000Y-27900000D02*
X34900000Y-29886420D01*
X29900000Y-29300000D02*
X34900000Y-29300000D01*
X29900000Y-29300000D02*
X34900000Y-29300000D01*
X29900000Y-29300000D02*
X31026504Y-28713579D01*
X29900000Y-29300000D02*
X31026504Y-29886421D01*
X34900000Y-29300000D02*
X33773496Y-29886421D01*
X34900000Y-29300000D02*
X33773496Y-28713579D01*
M02*
