%TF.GenerationSoftware,KiCad,Pcbnew,7.0.7*%
%TF.CreationDate,2023-12-11T13:03:46+01:00*%
%TF.ProjectId,flexAddressLedsV2,666c6578-4164-4647-9265-73734c656473,rev?*%
%TF.SameCoordinates,Original*%
%TF.FileFunction,Soldermask,Top*%
%TF.FilePolarity,Negative*%
%FSLAX46Y46*%
G04 Gerber Fmt 4.6, Leading zero omitted, Abs format (unit mm)*
G04 Created by KiCad (PCBNEW 7.0.7) date 2023-12-11 13:03:46*
%MOMM*%
%LPD*%
G01*
G04 APERTURE LIST*
G04 Aperture macros list*
%AMRoundRect*
0 Rectangle with rounded corners*
0 $1 Rounding radius*
0 $2 $3 $4 $5 $6 $7 $8 $9 X,Y pos of 4 corners*
0 Add a 4 corners polygon primitive as box body*
4,1,4,$2,$3,$4,$5,$6,$7,$8,$9,$2,$3,0*
0 Add four circle primitives for the rounded corners*
1,1,$1+$1,$2,$3*
1,1,$1+$1,$4,$5*
1,1,$1+$1,$6,$7*
1,1,$1+$1,$8,$9*
0 Add four rect primitives between the rounded corners*
20,1,$1+$1,$2,$3,$4,$5,0*
20,1,$1+$1,$4,$5,$6,$7,0*
20,1,$1+$1,$6,$7,$8,$9,0*
20,1,$1+$1,$8,$9,$2,$3,0*%
%AMFreePoly0*
4,1,14,0.334644,0.085355,0.385355,0.034644,0.400000,-0.000711,0.400000,-0.050000,0.385355,-0.085355,0.350000,-0.100000,-0.350000,-0.100000,-0.385355,-0.085355,-0.400000,-0.050000,-0.400000,0.050000,-0.385355,0.085355,-0.350000,0.100000,0.299289,0.100000,0.334644,0.085355,0.334644,0.085355,$1*%
%AMFreePoly1*
4,1,14,0.385355,0.085355,0.400000,0.050000,0.400000,0.000711,0.385355,-0.034644,0.334644,-0.085355,0.299289,-0.100000,-0.350000,-0.100000,-0.385355,-0.085355,-0.400000,-0.050000,-0.400000,0.050000,-0.385355,0.085355,-0.350000,0.100000,0.350000,0.100000,0.385355,0.085355,0.385355,0.085355,$1*%
%AMFreePoly2*
4,1,14,0.085355,0.385355,0.100000,0.350000,0.100000,-0.350000,0.085355,-0.385355,0.050000,-0.400000,-0.050000,-0.400000,-0.085355,-0.385355,-0.100000,-0.350000,-0.100000,0.299289,-0.085355,0.334644,-0.034644,0.385355,0.000711,0.400000,0.050000,0.400000,0.085355,0.385355,0.085355,0.385355,$1*%
%AMFreePoly3*
4,1,14,0.034644,0.385355,0.085355,0.334644,0.100000,0.299289,0.100000,-0.350000,0.085355,-0.385355,0.050000,-0.400000,-0.050000,-0.400000,-0.085355,-0.385355,-0.100000,-0.350000,-0.100000,0.350000,-0.085355,0.385355,-0.050000,0.400000,-0.000711,0.400000,0.034644,0.385355,0.034644,0.385355,$1*%
%AMFreePoly4*
4,1,14,0.385355,0.085355,0.400000,0.050000,0.400000,-0.050000,0.385355,-0.085355,0.350000,-0.100000,-0.299289,-0.100000,-0.334644,-0.085355,-0.385355,-0.034644,-0.400000,0.000711,-0.400000,0.050000,-0.385355,0.085355,-0.350000,0.100000,0.350000,0.100000,0.385355,0.085355,0.385355,0.085355,$1*%
%AMFreePoly5*
4,1,14,0.385355,0.085355,0.400000,0.050000,0.400000,-0.050000,0.385355,-0.085355,0.350000,-0.100000,-0.350000,-0.100000,-0.385355,-0.085355,-0.400000,-0.050000,-0.400000,-0.000711,-0.385355,0.034644,-0.334644,0.085355,-0.299289,0.100000,0.350000,0.100000,0.385355,0.085355,0.385355,0.085355,$1*%
%AMFreePoly6*
4,1,14,0.085355,0.385355,0.100000,0.350000,0.100000,-0.299289,0.085355,-0.334644,0.034644,-0.385355,-0.000711,-0.400000,-0.050000,-0.400000,-0.085355,-0.385355,-0.100000,-0.350000,-0.100000,0.350000,-0.085355,0.385355,-0.050000,0.400000,0.050000,0.400000,0.085355,0.385355,0.085355,0.385355,$1*%
%AMFreePoly7*
4,1,14,0.085355,0.385355,0.100000,0.350000,0.100000,-0.350000,0.085355,-0.385355,0.050000,-0.400000,0.000711,-0.400000,-0.034644,-0.385355,-0.085355,-0.334644,-0.100000,-0.299289,-0.100000,0.350000,-0.085355,0.385355,-0.050000,0.400000,0.050000,0.400000,0.085355,0.385355,0.085355,0.385355,$1*%
G04 Aperture macros list end*
%ADD10RoundRect,0.100000X-0.217500X-0.100000X0.217500X-0.100000X0.217500X0.100000X-0.217500X0.100000X0*%
%ADD11R,0.700000X0.700000*%
%ADD12RoundRect,0.100000X-0.100000X0.217500X-0.100000X-0.217500X0.100000X-0.217500X0.100000X0.217500X0*%
%ADD13RoundRect,0.100000X0.100000X-0.217500X0.100000X0.217500X-0.100000X0.217500X-0.100000X-0.217500X0*%
%ADD14FreePoly0,0.000000*%
%ADD15RoundRect,0.050000X-0.350000X-0.050000X0.350000X-0.050000X0.350000X0.050000X-0.350000X0.050000X0*%
%ADD16FreePoly1,0.000000*%
%ADD17FreePoly2,0.000000*%
%ADD18RoundRect,0.050000X-0.050000X-0.350000X0.050000X-0.350000X0.050000X0.350000X-0.050000X0.350000X0*%
%ADD19FreePoly3,0.000000*%
%ADD20FreePoly4,0.000000*%
%ADD21FreePoly5,0.000000*%
%ADD22FreePoly6,0.000000*%
%ADD23FreePoly7,0.000000*%
%ADD24R,1.700000X1.700000*%
G04 APERTURE END LIST*
D10*
%TO.C,C33*%
X52642500Y-46050000D03*
X53457500Y-46050000D03*
%TD*%
%TO.C,C166*%
X44842500Y-81150000D03*
X45657500Y-81150000D03*
%TD*%
%TO.C,C115*%
X79942500Y-65550000D03*
X80757500Y-65550000D03*
%TD*%
%TO.C,C210*%
X99442500Y-88950000D03*
X100257500Y-88950000D03*
%TD*%
D11*
%TO.C,IC1*%
X45700000Y-36200000D03*
X45700000Y-37300000D03*
X44600000Y-37300000D03*
X44600000Y-36200000D03*
%TD*%
D10*
%TO.C,C214*%
X56542500Y-92850000D03*
X57357500Y-92850000D03*
%TD*%
%TO.C,C207*%
X87742500Y-88950000D03*
X88557500Y-88950000D03*
%TD*%
D11*
%TO.C,IC225*%
X100300000Y-90800000D03*
X100300000Y-91900000D03*
X99200000Y-91900000D03*
X99200000Y-90800000D03*
%TD*%
D10*
%TO.C,C96*%
X64342500Y-61650000D03*
X65157500Y-61650000D03*
%TD*%
D11*
%TO.C,IC105*%
X100300000Y-59600000D03*
X100300000Y-60700000D03*
X99200000Y-60700000D03*
X99200000Y-59600000D03*
%TD*%
%TO.C,IC170*%
X61300000Y-79100000D03*
X61300000Y-80200000D03*
X60200000Y-80200000D03*
X60200000Y-79100000D03*
%TD*%
D10*
%TO.C,C187*%
X68242500Y-85050000D03*
X69057500Y-85050000D03*
%TD*%
D11*
%TO.C,IC66*%
X65200000Y-51800000D03*
X65200000Y-52900000D03*
X64100000Y-52900000D03*
X64100000Y-51800000D03*
%TD*%
D10*
%TO.C,C195*%
X99442500Y-85050000D03*
X100257500Y-85050000D03*
%TD*%
D11*
%TO.C,IC167*%
X49600000Y-79100000D03*
X49600000Y-80200000D03*
X48500000Y-80200000D03*
X48500000Y-79100000D03*
%TD*%
D10*
%TO.C,C43*%
X91642500Y-46050000D03*
X92457500Y-46050000D03*
%TD*%
%TO.C,C130*%
X79942500Y-69450000D03*
X80757500Y-69450000D03*
%TD*%
%TO.C,C159*%
X76042500Y-77250000D03*
X76857500Y-77250000D03*
%TD*%
D11*
%TO.C,IC226*%
X45700000Y-94700000D03*
X45700000Y-95800000D03*
X44600000Y-95800000D03*
X44600000Y-94700000D03*
%TD*%
%TO.C,IC132*%
X88600000Y-67400000D03*
X88600000Y-68500000D03*
X87500000Y-68500000D03*
X87500000Y-67400000D03*
%TD*%
%TO.C,IC56*%
X84700000Y-47900000D03*
X84700000Y-49000000D03*
X83600000Y-49000000D03*
X83600000Y-47900000D03*
%TD*%
D10*
%TO.C,C53*%
X72142500Y-49950000D03*
X72957500Y-49950000D03*
%TD*%
D11*
%TO.C,IC275*%
X61300000Y-106400000D03*
X61300000Y-107500000D03*
X60200000Y-107500000D03*
X60200000Y-106400000D03*
%TD*%
D10*
%TO.C,C223*%
X91642500Y-92850000D03*
X92457500Y-92850000D03*
%TD*%
%TO.C,C38*%
X72142500Y-46050000D03*
X72957500Y-46050000D03*
%TD*%
D11*
%TO.C,IC121*%
X45700000Y-67400000D03*
X45700000Y-68500000D03*
X44600000Y-68500000D03*
X44600000Y-67400000D03*
%TD*%
D10*
%TO.C,C55*%
X79942500Y-49950000D03*
X80757500Y-49950000D03*
%TD*%
%TO.C,C144*%
X76042500Y-73350000D03*
X76857500Y-73350000D03*
%TD*%
%TO.C,C133*%
X91642500Y-69450000D03*
X92457500Y-69450000D03*
%TD*%
D11*
%TO.C,IC29*%
X96400000Y-40100000D03*
X96400000Y-41200000D03*
X95300000Y-41200000D03*
X95300000Y-40100000D03*
%TD*%
%TO.C,IC189*%
X76900000Y-83000000D03*
X76900000Y-84100000D03*
X75800000Y-84100000D03*
X75800000Y-83000000D03*
%TD*%
%TO.C,IC253*%
X92500000Y-98600000D03*
X92500000Y-99700000D03*
X91400000Y-99700000D03*
X91400000Y-98600000D03*
%TD*%
D10*
%TO.C,C54*%
X76042500Y-49950000D03*
X76857500Y-49950000D03*
%TD*%
D11*
%TO.C,IC123*%
X53500000Y-67400000D03*
X53500000Y-68500000D03*
X52400000Y-68500000D03*
X52400000Y-67400000D03*
%TD*%
D10*
%TO.C,C32*%
X48742500Y-46050000D03*
X49557500Y-46050000D03*
%TD*%
%TO.C,C113*%
X72142500Y-65550000D03*
X72957500Y-65550000D03*
%TD*%
D11*
%TO.C,IC206*%
X84700000Y-86900000D03*
X84700000Y-88000000D03*
X83600000Y-88000000D03*
X83600000Y-86900000D03*
%TD*%
D10*
%TO.C,C6*%
X64342500Y-38250000D03*
X65157500Y-38250000D03*
%TD*%
D11*
%TO.C,IC95*%
X61300000Y-59600000D03*
X61300000Y-60700000D03*
X60200000Y-60700000D03*
X60200000Y-59600000D03*
%TD*%
D10*
%TO.C,C169*%
X56542500Y-81150000D03*
X57357500Y-81150000D03*
%TD*%
%TO.C,C225*%
X99342500Y-92850000D03*
X100157500Y-92850000D03*
%TD*%
D11*
%TO.C,IC37*%
X69100000Y-44000000D03*
X69100000Y-45100000D03*
X68000000Y-45100000D03*
X68000000Y-44000000D03*
%TD*%
%TO.C,IC205*%
X80800000Y-86900000D03*
X80800000Y-88000000D03*
X79700000Y-88000000D03*
X79700000Y-86900000D03*
%TD*%
D10*
%TO.C,C161*%
X83842500Y-77250000D03*
X84657500Y-77250000D03*
%TD*%
%TO.C,C240*%
X99442500Y-96750000D03*
X100257500Y-96750000D03*
%TD*%
D11*
%TO.C,IC185*%
X61300000Y-83000000D03*
X61300000Y-84100000D03*
X60200000Y-84100000D03*
X60200000Y-83000000D03*
%TD*%
D10*
%TO.C,C5*%
X60442500Y-38250000D03*
X61257500Y-38250000D03*
%TD*%
D11*
%TO.C,IC243*%
X53500000Y-98600000D03*
X53500000Y-99700000D03*
X52400000Y-99700000D03*
X52400000Y-98600000D03*
%TD*%
%TO.C,IC166*%
X45700000Y-79100000D03*
X45700000Y-80200000D03*
X44600000Y-80200000D03*
X44600000Y-79100000D03*
%TD*%
D10*
%TO.C,C216*%
X64342500Y-92850000D03*
X65157500Y-92850000D03*
%TD*%
%TO.C,C269*%
X95542500Y-104550000D03*
X96357500Y-104550000D03*
%TD*%
D11*
%TO.C,IC30*%
X100300000Y-40100000D03*
X100300000Y-41200000D03*
X99200000Y-41200000D03*
X99200000Y-40100000D03*
%TD*%
D10*
%TO.C,C24*%
X76042500Y-42150000D03*
X76857500Y-42150000D03*
%TD*%
%TO.C,C12*%
X87742500Y-38250000D03*
X88557500Y-38250000D03*
%TD*%
%TO.C,C188*%
X72142500Y-85050000D03*
X72957500Y-85050000D03*
%TD*%
D11*
%TO.C,IC25*%
X80800000Y-40100000D03*
X80800000Y-41200000D03*
X79700000Y-41200000D03*
X79700000Y-40100000D03*
%TD*%
D10*
%TO.C,C78*%
X52642500Y-57750000D03*
X53457500Y-57750000D03*
%TD*%
D11*
%TO.C,IC198*%
X53500000Y-86900000D03*
X53500000Y-88000000D03*
X52400000Y-88000000D03*
X52400000Y-86900000D03*
%TD*%
D10*
%TO.C,C50*%
X60442500Y-49950000D03*
X61257500Y-49950000D03*
%TD*%
D11*
%TO.C,IC48*%
X53500000Y-47900000D03*
X53500000Y-49000000D03*
X52400000Y-49000000D03*
X52400000Y-47900000D03*
%TD*%
D10*
%TO.C,C41*%
X83842500Y-46050000D03*
X84657500Y-46050000D03*
%TD*%
D11*
%TO.C,IC238*%
X92500000Y-94700000D03*
X92500000Y-95800000D03*
X91400000Y-95800000D03*
X91400000Y-94700000D03*
%TD*%
%TO.C,IC5*%
X61300000Y-36200000D03*
X61300000Y-37300000D03*
X60200000Y-37300000D03*
X60200000Y-36200000D03*
%TD*%
%TO.C,IC143*%
X73000000Y-71300000D03*
X73000000Y-72400000D03*
X71900000Y-72400000D03*
X71900000Y-71300000D03*
%TD*%
D10*
%TO.C,C260*%
X60442500Y-104550000D03*
X61257500Y-104550000D03*
%TD*%
%TO.C,C49*%
X56492500Y-49950000D03*
X57307500Y-49950000D03*
%TD*%
%TO.C,C128*%
X72142500Y-69450000D03*
X72957500Y-69450000D03*
%TD*%
D11*
%TO.C,IC42*%
X88600000Y-44000000D03*
X88600000Y-45100000D03*
X87500000Y-45100000D03*
X87500000Y-44000000D03*
%TD*%
D10*
%TO.C,C44*%
X95542500Y-46050000D03*
X96357500Y-46050000D03*
%TD*%
%TO.C,C99*%
X76042500Y-61650000D03*
X76857500Y-61650000D03*
%TD*%
D11*
%TO.C,IC45*%
X100300000Y-44000000D03*
X100300000Y-45100000D03*
X99200000Y-45100000D03*
X99200000Y-44000000D03*
%TD*%
%TO.C,IC106*%
X45700000Y-63500000D03*
X45700000Y-64600000D03*
X44600000Y-64600000D03*
X44600000Y-63500000D03*
%TD*%
%TO.C,IC193*%
X92500000Y-83000000D03*
X92500000Y-84100000D03*
X91400000Y-84100000D03*
X91400000Y-83000000D03*
%TD*%
%TO.C,IC160*%
X80800000Y-75200000D03*
X80800000Y-76300000D03*
X79700000Y-76300000D03*
X79700000Y-75200000D03*
%TD*%
D10*
%TO.C,C117*%
X87742500Y-65550000D03*
X88557500Y-65550000D03*
%TD*%
%TO.C,C56*%
X83842500Y-49950000D03*
X84657500Y-49950000D03*
%TD*%
D12*
%TO.C,R3*%
X107600000Y-49592500D03*
X107600000Y-50407500D03*
%TD*%
D10*
%TO.C,C237*%
X87742500Y-96750000D03*
X88557500Y-96750000D03*
%TD*%
D11*
%TO.C,IC204*%
X76900000Y-86900000D03*
X76900000Y-88000000D03*
X75800000Y-88000000D03*
X75800000Y-86900000D03*
%TD*%
%TO.C,IC72*%
X88600000Y-51800000D03*
X88600000Y-52900000D03*
X87500000Y-52900000D03*
X87500000Y-51800000D03*
%TD*%
%TO.C,IC212*%
X49600000Y-90800000D03*
X49600000Y-91900000D03*
X48500000Y-91900000D03*
X48500000Y-90800000D03*
%TD*%
%TO.C,IC279*%
X76900000Y-106400000D03*
X76900000Y-107500000D03*
X75800000Y-107500000D03*
X75800000Y-106400000D03*
%TD*%
D10*
%TO.C,C165*%
X99442500Y-77250000D03*
X100257500Y-77250000D03*
%TD*%
%TO.C,C1*%
X44835000Y-38250000D03*
X45650000Y-38250000D03*
%TD*%
%TO.C,C114*%
X76042500Y-65550000D03*
X76857500Y-65550000D03*
%TD*%
%TO.C,C63*%
X52642500Y-53850000D03*
X53457500Y-53850000D03*
%TD*%
%TO.C,C180*%
X99442500Y-81150000D03*
X100257500Y-81150000D03*
%TD*%
D11*
%TO.C,IC161*%
X84700000Y-75200000D03*
X84700000Y-76300000D03*
X83600000Y-76300000D03*
X83600000Y-75200000D03*
%TD*%
D10*
%TO.C,C221*%
X83842500Y-92850000D03*
X84657500Y-92850000D03*
%TD*%
D11*
%TO.C,IC229*%
X57400000Y-94700000D03*
X57400000Y-95800000D03*
X56300000Y-95800000D03*
X56300000Y-94700000D03*
%TD*%
%TO.C,IC165*%
X100300000Y-75200000D03*
X100300000Y-76300000D03*
X99200000Y-76300000D03*
X99200000Y-75200000D03*
%TD*%
%TO.C,IC9*%
X76900000Y-36200000D03*
X76900000Y-37300000D03*
X75800000Y-37300000D03*
X75800000Y-36200000D03*
%TD*%
%TO.C,IC188*%
X73000000Y-83000000D03*
X73000000Y-84100000D03*
X71900000Y-84100000D03*
X71900000Y-83000000D03*
%TD*%
D10*
%TO.C,C217*%
X68242500Y-92850000D03*
X69057500Y-92850000D03*
%TD*%
%TO.C,C57*%
X87742500Y-49950000D03*
X88557500Y-49950000D03*
%TD*%
%TO.C,C88*%
X91642500Y-57750000D03*
X92457500Y-57750000D03*
%TD*%
D11*
%TO.C,IC14*%
X96400000Y-36200000D03*
X96400000Y-37300000D03*
X95300000Y-37300000D03*
X95300000Y-36200000D03*
%TD*%
D10*
%TO.C,C280*%
X79942500Y-108450000D03*
X80757500Y-108450000D03*
%TD*%
%TO.C,C17*%
X48742500Y-42150000D03*
X49557500Y-42150000D03*
%TD*%
D11*
%TO.C,IC111*%
X65200000Y-63500000D03*
X65200000Y-64600000D03*
X64100000Y-64600000D03*
X64100000Y-63500000D03*
%TD*%
D10*
%TO.C,C4*%
X56542500Y-38250000D03*
X57357500Y-38250000D03*
%TD*%
D11*
%TO.C,IC218*%
X73000000Y-90800000D03*
X73000000Y-91900000D03*
X71900000Y-91900000D03*
X71900000Y-90800000D03*
%TD*%
D10*
%TO.C,C192*%
X87742500Y-85050000D03*
X88557500Y-85050000D03*
%TD*%
D11*
%TO.C,IC171*%
X65200000Y-79100000D03*
X65200000Y-80200000D03*
X64100000Y-80200000D03*
X64100000Y-79100000D03*
%TD*%
%TO.C,IC85*%
X80800000Y-55700000D03*
X80800000Y-56800000D03*
X79700000Y-56800000D03*
X79700000Y-55700000D03*
%TD*%
D10*
%TO.C,C125*%
X60442500Y-69450000D03*
X61257500Y-69450000D03*
%TD*%
%TO.C,C40*%
X79942500Y-46050000D03*
X80757500Y-46050000D03*
%TD*%
D11*
%TO.C,IC269*%
X96400000Y-102500000D03*
X96400000Y-103600000D03*
X95300000Y-103600000D03*
X95300000Y-102500000D03*
%TD*%
%TO.C,IC277*%
X69100000Y-106400000D03*
X69100000Y-107500000D03*
X68000000Y-107500000D03*
X68000000Y-106400000D03*
%TD*%
%TO.C,IC264*%
X76900000Y-102500000D03*
X76900000Y-103600000D03*
X75800000Y-103600000D03*
X75800000Y-102500000D03*
%TD*%
D10*
%TO.C,C176*%
X83842500Y-81150000D03*
X84657500Y-81150000D03*
%TD*%
%TO.C,C116*%
X83842500Y-65550000D03*
X84657500Y-65550000D03*
%TD*%
%TO.C,C126*%
X64342500Y-69450000D03*
X65157500Y-69450000D03*
%TD*%
D11*
%TO.C,IC129*%
X76900000Y-67400000D03*
X76900000Y-68500000D03*
X75800000Y-68500000D03*
X75800000Y-67400000D03*
%TD*%
D10*
%TO.C,C111*%
X64342500Y-65550000D03*
X65157500Y-65550000D03*
%TD*%
D11*
%TO.C,IC93*%
X53500000Y-59600000D03*
X53500000Y-60700000D03*
X52400000Y-60700000D03*
X52400000Y-59600000D03*
%TD*%
D10*
%TO.C,C106*%
X44842500Y-65550000D03*
X45657500Y-65550000D03*
%TD*%
D11*
%TO.C,IC146*%
X84700000Y-71300000D03*
X84700000Y-72400000D03*
X83600000Y-72400000D03*
X83600000Y-71300000D03*
%TD*%
%TO.C,IC281*%
X84700000Y-106400000D03*
X84700000Y-107500000D03*
X83600000Y-107500000D03*
X83600000Y-106400000D03*
%TD*%
%TO.C,IC190*%
X80800000Y-83000000D03*
X80800000Y-84100000D03*
X79700000Y-84100000D03*
X79700000Y-83000000D03*
%TD*%
D10*
%TO.C,C82*%
X68242500Y-57750000D03*
X69057500Y-57750000D03*
%TD*%
%TO.C,C84*%
X76042500Y-57750000D03*
X76857500Y-57750000D03*
%TD*%
D11*
%TO.C,IC112*%
X69100000Y-63500000D03*
X69100000Y-64600000D03*
X68000000Y-64600000D03*
X68000000Y-63500000D03*
%TD*%
%TO.C,IC35*%
X61300000Y-44000000D03*
X61300000Y-45100000D03*
X60200000Y-45100000D03*
X60200000Y-44000000D03*
%TD*%
%TO.C,IC71*%
X84700000Y-51800000D03*
X84700000Y-52900000D03*
X83600000Y-52900000D03*
X83600000Y-51800000D03*
%TD*%
%TO.C,IC195*%
X100300000Y-83000000D03*
X100300000Y-84100000D03*
X99200000Y-84100000D03*
X99200000Y-83000000D03*
%TD*%
D10*
%TO.C,C168*%
X52642500Y-81150000D03*
X53457500Y-81150000D03*
%TD*%
D11*
%TO.C,IC59*%
X96400000Y-47900000D03*
X96400000Y-49000000D03*
X95300000Y-49000000D03*
X95300000Y-47900000D03*
%TD*%
D10*
%TO.C,C81*%
X64342500Y-57750000D03*
X65157500Y-57750000D03*
%TD*%
%TO.C,C263*%
X72142500Y-104550000D03*
X72957500Y-104550000D03*
%TD*%
D11*
%TO.C,IC33*%
X53500000Y-44000000D03*
X53500000Y-45100000D03*
X52400000Y-45100000D03*
X52400000Y-44000000D03*
%TD*%
D10*
%TO.C,C270*%
X99442500Y-104550000D03*
X100257500Y-104550000D03*
%TD*%
D11*
%TO.C,IC154*%
X57400000Y-75200000D03*
X57400000Y-76300000D03*
X56300000Y-76300000D03*
X56300000Y-75200000D03*
%TD*%
%TO.C,IC136*%
X45700000Y-71300000D03*
X45700000Y-72400000D03*
X44600000Y-72400000D03*
X44600000Y-71300000D03*
%TD*%
D10*
%TO.C,C235*%
X79942500Y-96750000D03*
X80757500Y-96750000D03*
%TD*%
%TO.C,C148*%
X91642500Y-73350000D03*
X92457500Y-73350000D03*
%TD*%
%TO.C,C124*%
X56542500Y-69450000D03*
X57357500Y-69450000D03*
%TD*%
%TO.C,C222*%
X87742500Y-92850000D03*
X88557500Y-92850000D03*
%TD*%
%TO.C,C89*%
X95542500Y-57750000D03*
X96357500Y-57750000D03*
%TD*%
%TO.C,C179*%
X95542500Y-81150000D03*
X96357500Y-81150000D03*
%TD*%
%TO.C,C215*%
X60442500Y-92850000D03*
X61257500Y-92850000D03*
%TD*%
D11*
%TO.C,IC3*%
X53500000Y-36200000D03*
X53500000Y-37300000D03*
X52400000Y-37300000D03*
X52400000Y-36200000D03*
%TD*%
D10*
%TO.C,C256*%
X44842500Y-104550000D03*
X45657500Y-104550000D03*
%TD*%
%TO.C,C183*%
X52642500Y-85050000D03*
X53457500Y-85050000D03*
%TD*%
%TO.C,C110*%
X60442500Y-65550000D03*
X61257500Y-65550000D03*
%TD*%
%TO.C,C227*%
X48742500Y-96750000D03*
X49557500Y-96750000D03*
%TD*%
D11*
%TO.C,IC192*%
X88600000Y-83000000D03*
X88600000Y-84100000D03*
X87500000Y-84100000D03*
X87500000Y-83000000D03*
%TD*%
D10*
%TO.C,C232*%
X68242500Y-96750000D03*
X69057500Y-96750000D03*
%TD*%
%TO.C,C15*%
X99435000Y-38250000D03*
X100250000Y-38250000D03*
%TD*%
%TO.C,C59*%
X95542500Y-49950000D03*
X96357500Y-49950000D03*
%TD*%
D11*
%TO.C,IC180*%
X100300000Y-79100000D03*
X100300000Y-80200000D03*
X99200000Y-80200000D03*
X99200000Y-79100000D03*
%TD*%
D10*
%TO.C,C220*%
X79942500Y-92850000D03*
X80757500Y-92850000D03*
%TD*%
%TO.C,C14*%
X95542500Y-38250000D03*
X96357500Y-38250000D03*
%TD*%
D11*
%TO.C,IC262*%
X69100000Y-102500000D03*
X69100000Y-103600000D03*
X68000000Y-103600000D03*
X68000000Y-102500000D03*
%TD*%
D10*
%TO.C,C275*%
X60442500Y-108450000D03*
X61257500Y-108450000D03*
%TD*%
D11*
%TO.C,IC202*%
X69100000Y-86900000D03*
X69100000Y-88000000D03*
X68000000Y-88000000D03*
X68000000Y-86900000D03*
%TD*%
D10*
%TO.C,C242*%
X48742500Y-100650000D03*
X49557500Y-100650000D03*
%TD*%
%TO.C,C139*%
X56542500Y-73350000D03*
X57357500Y-73350000D03*
%TD*%
%TO.C,C258*%
X52642500Y-104550000D03*
X53457500Y-104550000D03*
%TD*%
%TO.C,C219*%
X76042500Y-92850000D03*
X76857500Y-92850000D03*
%TD*%
%TO.C,C98*%
X72142500Y-61650000D03*
X72957500Y-61650000D03*
%TD*%
D11*
%TO.C,IC133*%
X92500000Y-67400000D03*
X92500000Y-68500000D03*
X91400000Y-68500000D03*
X91400000Y-67400000D03*
%TD*%
D10*
%TO.C,C271*%
X44842500Y-108450000D03*
X45657500Y-108450000D03*
%TD*%
%TO.C,C267*%
X87742500Y-104550000D03*
X88557500Y-104550000D03*
%TD*%
%TO.C,C95*%
X60442500Y-61650000D03*
X61257500Y-61650000D03*
%TD*%
%TO.C,C146*%
X83842500Y-73350000D03*
X84657500Y-73350000D03*
%TD*%
D11*
%TO.C,IC175*%
X80800000Y-79100000D03*
X80800000Y-80200000D03*
X79700000Y-80200000D03*
X79700000Y-79100000D03*
%TD*%
D10*
%TO.C,C74*%
X95542500Y-53850000D03*
X96357500Y-53850000D03*
%TD*%
D11*
%TO.C,IC259*%
X57400000Y-102500000D03*
X57400000Y-103600000D03*
X56300000Y-103600000D03*
X56300000Y-102500000D03*
%TD*%
%TO.C,IC87*%
X88600000Y-55700000D03*
X88600000Y-56800000D03*
X87500000Y-56800000D03*
X87500000Y-55700000D03*
%TD*%
%TO.C,IC62*%
X49600000Y-51800000D03*
X49600000Y-52900000D03*
X48500000Y-52900000D03*
X48500000Y-51800000D03*
%TD*%
D10*
%TO.C,C129*%
X76042500Y-69450000D03*
X76857500Y-69450000D03*
%TD*%
D11*
%TO.C,IC51*%
X65200000Y-47900000D03*
X65200000Y-49000000D03*
X64100000Y-49000000D03*
X64100000Y-47900000D03*
%TD*%
%TO.C,IC124*%
X57400000Y-67400000D03*
X57400000Y-68500000D03*
X56300000Y-68500000D03*
X56300000Y-67400000D03*
%TD*%
%TO.C,IC250*%
X80800000Y-98600000D03*
X80800000Y-99700000D03*
X79700000Y-99700000D03*
X79700000Y-98600000D03*
%TD*%
D10*
%TO.C,C107*%
X48742500Y-65550000D03*
X49557500Y-65550000D03*
%TD*%
D11*
%TO.C,IC158*%
X73000000Y-75200000D03*
X73000000Y-76300000D03*
X71900000Y-76300000D03*
X71900000Y-75200000D03*
%TD*%
%TO.C,IC50*%
X61300000Y-47900000D03*
X61300000Y-49000000D03*
X60200000Y-49000000D03*
X60200000Y-47900000D03*
%TD*%
D10*
%TO.C,C264*%
X76042500Y-104550000D03*
X76857500Y-104550000D03*
%TD*%
D11*
%TO.C,IC64*%
X57400000Y-51800000D03*
X57400000Y-52900000D03*
X56300000Y-52900000D03*
X56300000Y-51800000D03*
%TD*%
%TO.C,IC191*%
X84700000Y-83000000D03*
X84700000Y-84100000D03*
X83600000Y-84100000D03*
X83600000Y-83000000D03*
%TD*%
D10*
%TO.C,C157*%
X68242500Y-77250000D03*
X69057500Y-77250000D03*
%TD*%
D11*
%TO.C,IC88*%
X92500000Y-55700000D03*
X92500000Y-56800000D03*
X91400000Y-56800000D03*
X91400000Y-55700000D03*
%TD*%
D10*
%TO.C,C147*%
X87742500Y-73350000D03*
X88557500Y-73350000D03*
%TD*%
%TO.C,C135*%
X99442500Y-69450000D03*
X100257500Y-69450000D03*
%TD*%
%TO.C,C23*%
X72142500Y-42150000D03*
X72957500Y-42150000D03*
%TD*%
%TO.C,C200*%
X60442500Y-88950000D03*
X61257500Y-88950000D03*
%TD*%
D11*
%TO.C,IC174*%
X76900000Y-79100000D03*
X76900000Y-80200000D03*
X75800000Y-80200000D03*
X75800000Y-79100000D03*
%TD*%
%TO.C,IC122*%
X49600000Y-67400000D03*
X49600000Y-68500000D03*
X48500000Y-68500000D03*
X48500000Y-67400000D03*
%TD*%
D10*
%TO.C,C118*%
X91642500Y-65550000D03*
X92457500Y-65550000D03*
%TD*%
D11*
%TO.C,IC141*%
X65200000Y-71300000D03*
X65200000Y-72400000D03*
X64100000Y-72400000D03*
X64100000Y-71300000D03*
%TD*%
%TO.C,IC103*%
X92500000Y-59600000D03*
X92500000Y-60700000D03*
X91400000Y-60700000D03*
X91400000Y-59600000D03*
%TD*%
D10*
%TO.C,C201*%
X64342500Y-88950000D03*
X65157500Y-88950000D03*
%TD*%
%TO.C,C91*%
X44842500Y-61650000D03*
X45657500Y-61650000D03*
%TD*%
%TO.C,C90*%
X99442500Y-57750000D03*
X100257500Y-57750000D03*
%TD*%
%TO.C,C138*%
X52600000Y-73400000D03*
X53415000Y-73400000D03*
%TD*%
%TO.C,C25*%
X79942500Y-42150000D03*
X80757500Y-42150000D03*
%TD*%
%TO.C,C85*%
X79942500Y-57750000D03*
X80757500Y-57750000D03*
%TD*%
%TO.C,C163*%
X91642500Y-77250000D03*
X92457500Y-77250000D03*
%TD*%
D11*
%TO.C,IC249*%
X76900000Y-98600000D03*
X76900000Y-99700000D03*
X75800000Y-99700000D03*
X75800000Y-98600000D03*
%TD*%
D10*
%TO.C,C236*%
X83842500Y-96750000D03*
X84657500Y-96750000D03*
%TD*%
D11*
%TO.C,IC92*%
X49600000Y-59600000D03*
X49600000Y-60700000D03*
X48500000Y-60700000D03*
X48500000Y-59600000D03*
%TD*%
D10*
%TO.C,C79*%
X56542500Y-57750000D03*
X57357500Y-57750000D03*
%TD*%
D11*
%TO.C,IC82*%
X69100000Y-55700000D03*
X69100000Y-56800000D03*
X68000000Y-56800000D03*
X68000000Y-55700000D03*
%TD*%
%TO.C,IC184*%
X57400000Y-83000000D03*
X57400000Y-84100000D03*
X56300000Y-84100000D03*
X56300000Y-83000000D03*
%TD*%
%TO.C,IC84*%
X76900000Y-55700000D03*
X76900000Y-56800000D03*
X75800000Y-56800000D03*
X75800000Y-55700000D03*
%TD*%
%TO.C,IC131*%
X84700000Y-67400000D03*
X84700000Y-68500000D03*
X83600000Y-68500000D03*
X83600000Y-67400000D03*
%TD*%
D10*
%TO.C,C272*%
X48742500Y-108450000D03*
X49557500Y-108450000D03*
%TD*%
D11*
%TO.C,IC18*%
X53500000Y-40100000D03*
X53500000Y-41200000D03*
X52400000Y-41200000D03*
X52400000Y-40100000D03*
%TD*%
%TO.C,IC68*%
X73000000Y-51800000D03*
X73000000Y-52900000D03*
X71900000Y-52900000D03*
X71900000Y-51800000D03*
%TD*%
%TO.C,IC43*%
X92500000Y-44000000D03*
X92500000Y-45100000D03*
X91400000Y-45100000D03*
X91400000Y-44000000D03*
%TD*%
D10*
%TO.C,C10*%
X79942500Y-38250000D03*
X80757500Y-38250000D03*
%TD*%
%TO.C,C194*%
X95542500Y-85050000D03*
X96357500Y-85050000D03*
%TD*%
D11*
%TO.C,IC266*%
X84700000Y-102500000D03*
X84700000Y-103600000D03*
X83600000Y-103600000D03*
X83600000Y-102500000D03*
%TD*%
%TO.C,IC245*%
X61300000Y-98600000D03*
X61300000Y-99700000D03*
X60200000Y-99700000D03*
X60200000Y-98600000D03*
%TD*%
D10*
%TO.C,C284*%
X95542500Y-108450000D03*
X96357500Y-108450000D03*
%TD*%
D11*
%TO.C,IC224*%
X96400000Y-90800000D03*
X96400000Y-91900000D03*
X95300000Y-91900000D03*
X95300000Y-90800000D03*
%TD*%
%TO.C,IC251*%
X84700000Y-98600000D03*
X84700000Y-99700000D03*
X83600000Y-99700000D03*
X83600000Y-98600000D03*
%TD*%
%TO.C,IC282*%
X88600000Y-106400000D03*
X88600000Y-107500000D03*
X87500000Y-107500000D03*
X87500000Y-106400000D03*
%TD*%
D10*
%TO.C,C155*%
X60442500Y-77250000D03*
X61257500Y-77250000D03*
%TD*%
D11*
%TO.C,IC213*%
X53500000Y-90800000D03*
X53500000Y-91900000D03*
X52400000Y-91900000D03*
X52400000Y-90800000D03*
%TD*%
%TO.C,IC73*%
X92500000Y-51800000D03*
X92500000Y-52900000D03*
X91400000Y-52900000D03*
X91400000Y-51800000D03*
%TD*%
D10*
%TO.C,C212*%
X48742500Y-92850000D03*
X49557500Y-92850000D03*
%TD*%
D11*
%TO.C,IC100*%
X80800000Y-59600000D03*
X80800000Y-60700000D03*
X79700000Y-60700000D03*
X79700000Y-59600000D03*
%TD*%
%TO.C,IC215*%
X61300000Y-90800000D03*
X61300000Y-91900000D03*
X60200000Y-91900000D03*
X60200000Y-90800000D03*
%TD*%
D10*
%TO.C,C151*%
X44842500Y-77250000D03*
X45657500Y-77250000D03*
%TD*%
D11*
%TO.C,IC285*%
X100300000Y-106400000D03*
X100300000Y-107500000D03*
X99200000Y-107500000D03*
X99200000Y-106400000D03*
%TD*%
%TO.C,IC183*%
X53500000Y-83000000D03*
X53500000Y-84100000D03*
X52400000Y-84100000D03*
X52400000Y-83000000D03*
%TD*%
D10*
%TO.C,C3*%
X52642500Y-38250000D03*
X53457500Y-38250000D03*
%TD*%
%TO.C,C19*%
X56542500Y-42150000D03*
X57357500Y-42150000D03*
%TD*%
%TO.C,C39*%
X76042500Y-46050000D03*
X76857500Y-46050000D03*
%TD*%
D12*
%TO.C,R6*%
X109400000Y-47725000D03*
X109400000Y-48540000D03*
%TD*%
D10*
%TO.C,C252*%
X87742500Y-100650000D03*
X88557500Y-100650000D03*
%TD*%
D11*
%TO.C,IC57*%
X88600000Y-47900000D03*
X88600000Y-49000000D03*
X87500000Y-49000000D03*
X87500000Y-47900000D03*
%TD*%
D10*
%TO.C,C279*%
X76042500Y-108450000D03*
X76857500Y-108450000D03*
%TD*%
D11*
%TO.C,IC128*%
X73000000Y-67400000D03*
X73000000Y-68500000D03*
X71900000Y-68500000D03*
X71900000Y-67400000D03*
%TD*%
D10*
%TO.C,C121*%
X44842500Y-69450000D03*
X45657500Y-69450000D03*
%TD*%
D11*
%TO.C,IC211*%
X45700000Y-90800000D03*
X45700000Y-91900000D03*
X44600000Y-91900000D03*
X44600000Y-90800000D03*
%TD*%
D10*
%TO.C,C60*%
X99442500Y-49950000D03*
X100257500Y-49950000D03*
%TD*%
D11*
%TO.C,IC179*%
X96400000Y-79100000D03*
X96400000Y-80200000D03*
X95300000Y-80200000D03*
X95300000Y-79100000D03*
%TD*%
D10*
%TO.C,C193*%
X91642500Y-85050000D03*
X92457500Y-85050000D03*
%TD*%
D11*
%TO.C,IC79*%
X57400000Y-55700000D03*
X57400000Y-56800000D03*
X56300000Y-56800000D03*
X56300000Y-55700000D03*
%TD*%
%TO.C,IC233*%
X73000000Y-94700000D03*
X73000000Y-95800000D03*
X71900000Y-95800000D03*
X71900000Y-94700000D03*
%TD*%
D10*
%TO.C,C143*%
X72142500Y-73350000D03*
X72957500Y-73350000D03*
%TD*%
%TO.C,C170*%
X60442500Y-81150000D03*
X61257500Y-81150000D03*
%TD*%
%TO.C,C150*%
X99442500Y-73350000D03*
X100257500Y-73350000D03*
%TD*%
%TO.C,C21*%
X64342500Y-42150000D03*
X65157500Y-42150000D03*
%TD*%
D11*
%TO.C,IC97*%
X69100000Y-59600000D03*
X69100000Y-60700000D03*
X68000000Y-60700000D03*
X68000000Y-59600000D03*
%TD*%
D10*
%TO.C,C226*%
X44842500Y-96750000D03*
X45657500Y-96750000D03*
%TD*%
D11*
%TO.C,IC49*%
X57400000Y-47900000D03*
X57400000Y-49000000D03*
X56300000Y-49000000D03*
X56300000Y-47900000D03*
%TD*%
D10*
%TO.C,C175*%
X79942500Y-81150000D03*
X80757500Y-81150000D03*
%TD*%
D11*
%TO.C,IC107*%
X49600000Y-63500000D03*
X49600000Y-64600000D03*
X48500000Y-64600000D03*
X48500000Y-63500000D03*
%TD*%
D10*
%TO.C,C184*%
X56542500Y-85050000D03*
X57357500Y-85050000D03*
%TD*%
%TO.C,C13*%
X91642500Y-38250000D03*
X92457500Y-38250000D03*
%TD*%
D11*
%TO.C,IC227*%
X49600000Y-94700000D03*
X49600000Y-95800000D03*
X48500000Y-95800000D03*
X48500000Y-94700000D03*
%TD*%
D10*
%TO.C,C257*%
X48742500Y-104550000D03*
X49557500Y-104550000D03*
%TD*%
D11*
%TO.C,IC153*%
X53500000Y-75200000D03*
X53500000Y-76300000D03*
X52400000Y-76300000D03*
X52400000Y-75200000D03*
%TD*%
D10*
%TO.C,C77*%
X48742500Y-57750000D03*
X49557500Y-57750000D03*
%TD*%
D11*
%TO.C,IC182*%
X49600000Y-83000000D03*
X49600000Y-84100000D03*
X48500000Y-84100000D03*
X48500000Y-83000000D03*
%TD*%
%TO.C,IC173*%
X73000000Y-79100000D03*
X73000000Y-80200000D03*
X71900000Y-80200000D03*
X71900000Y-79100000D03*
%TD*%
D10*
%TO.C,C171*%
X64342500Y-81150000D03*
X65157500Y-81150000D03*
%TD*%
%TO.C,C229*%
X56542500Y-96750000D03*
X57357500Y-96750000D03*
%TD*%
D11*
%TO.C,IC89*%
X96400000Y-55700000D03*
X96400000Y-56800000D03*
X95300000Y-56800000D03*
X95300000Y-55700000D03*
%TD*%
D10*
%TO.C,C206*%
X83842500Y-88950000D03*
X84657500Y-88950000D03*
%TD*%
%TO.C,C197*%
X48742500Y-88950000D03*
X49557500Y-88950000D03*
%TD*%
%TO.C,C255*%
X99442500Y-100650000D03*
X100257500Y-100650000D03*
%TD*%
D11*
%TO.C,IC19*%
X57400000Y-40100000D03*
X57400000Y-41200000D03*
X56300000Y-41200000D03*
X56300000Y-40100000D03*
%TD*%
D10*
%TO.C,C132*%
X87725000Y-69450000D03*
X88540000Y-69450000D03*
%TD*%
%TO.C,C87*%
X87742500Y-57750000D03*
X88557500Y-57750000D03*
%TD*%
%TO.C,C152*%
X48742500Y-77250000D03*
X49557500Y-77250000D03*
%TD*%
%TO.C,C137*%
X48742500Y-73350000D03*
X49557500Y-73350000D03*
%TD*%
D11*
%TO.C,IC4*%
X57400000Y-36200000D03*
X57400000Y-37300000D03*
X56300000Y-37300000D03*
X56300000Y-36200000D03*
%TD*%
%TO.C,IC13*%
X92500000Y-36200000D03*
X92500000Y-37300000D03*
X91400000Y-37300000D03*
X91400000Y-36200000D03*
%TD*%
%TO.C,IC163*%
X92500000Y-75200000D03*
X92500000Y-76300000D03*
X91400000Y-76300000D03*
X91400000Y-75200000D03*
%TD*%
%TO.C,IC265*%
X80800000Y-102500000D03*
X80800000Y-103600000D03*
X79700000Y-103600000D03*
X79700000Y-102500000D03*
%TD*%
%TO.C,IC86*%
X84700000Y-55700000D03*
X84700000Y-56800000D03*
X83600000Y-56800000D03*
X83600000Y-55700000D03*
%TD*%
%TO.C,IC55*%
X80800000Y-47900000D03*
X80800000Y-49000000D03*
X79700000Y-49000000D03*
X79700000Y-47900000D03*
%TD*%
D10*
%TO.C,C94*%
X56542500Y-61650000D03*
X57357500Y-61650000D03*
%TD*%
%TO.C,C277*%
X68242500Y-108450000D03*
X69057500Y-108450000D03*
%TD*%
%TO.C,C191*%
X83842500Y-85050000D03*
X84657500Y-85050000D03*
%TD*%
%TO.C,C92*%
X48742500Y-61650000D03*
X49557500Y-61650000D03*
%TD*%
%TO.C,C16*%
X44842500Y-42150000D03*
X45657500Y-42150000D03*
%TD*%
%TO.C,C251*%
X83842500Y-100650000D03*
X84657500Y-100650000D03*
%TD*%
D11*
%TO.C,IC242*%
X49600000Y-98600000D03*
X49600000Y-99700000D03*
X48500000Y-99700000D03*
X48500000Y-98600000D03*
%TD*%
%TO.C,IC69*%
X76900000Y-51800000D03*
X76900000Y-52900000D03*
X75800000Y-52900000D03*
X75800000Y-51800000D03*
%TD*%
%TO.C,IC283*%
X92500000Y-106400000D03*
X92500000Y-107500000D03*
X91400000Y-107500000D03*
X91400000Y-106400000D03*
%TD*%
%TO.C,IC270*%
X100300000Y-102500000D03*
X100300000Y-103600000D03*
X99200000Y-103600000D03*
X99200000Y-102500000D03*
%TD*%
D10*
%TO.C,C36*%
X64342500Y-46050000D03*
X65157500Y-46050000D03*
%TD*%
D11*
%TO.C,IC231*%
X65200000Y-94700000D03*
X65200000Y-95800000D03*
X64100000Y-95800000D03*
X64100000Y-94700000D03*
%TD*%
D10*
%TO.C,C241*%
X44842500Y-100650000D03*
X45657500Y-100650000D03*
%TD*%
%TO.C,C205*%
X79942500Y-88950000D03*
X80757500Y-88950000D03*
%TD*%
D11*
%TO.C,IC54*%
X76900000Y-47900000D03*
X76900000Y-49000000D03*
X75800000Y-49000000D03*
X75800000Y-47900000D03*
%TD*%
%TO.C,IC99*%
X76900000Y-59600000D03*
X76900000Y-60700000D03*
X75800000Y-60700000D03*
X75800000Y-59600000D03*
%TD*%
%TO.C,IC38*%
X73000000Y-44000000D03*
X73000000Y-45100000D03*
X71900000Y-45100000D03*
X71900000Y-44000000D03*
%TD*%
D10*
%TO.C,C7*%
X68242500Y-38250000D03*
X69057500Y-38250000D03*
%TD*%
D11*
%TO.C,IC164*%
X96400000Y-75200000D03*
X96400000Y-76300000D03*
X95300000Y-76300000D03*
X95300000Y-75200000D03*
%TD*%
D10*
%TO.C,C100*%
X79942500Y-61650000D03*
X80757500Y-61650000D03*
%TD*%
D11*
%TO.C,IC228*%
X53500000Y-94700000D03*
X53500000Y-95800000D03*
X52400000Y-95800000D03*
X52400000Y-94700000D03*
%TD*%
%TO.C,IC94*%
X57400000Y-59600000D03*
X57400000Y-60700000D03*
X56300000Y-60700000D03*
X56300000Y-59600000D03*
%TD*%
D10*
%TO.C,C18*%
X52642500Y-42150000D03*
X53457500Y-42150000D03*
%TD*%
%TO.C,C164*%
X95542500Y-77250000D03*
X96357500Y-77250000D03*
%TD*%
%TO.C,C29*%
X95535000Y-42150000D03*
X96350000Y-42150000D03*
%TD*%
D11*
%TO.C,IC101*%
X84700000Y-59600000D03*
X84700000Y-60700000D03*
X83600000Y-60700000D03*
X83600000Y-59600000D03*
%TD*%
%TO.C,IC241*%
X45700000Y-98600000D03*
X45700000Y-99700000D03*
X44600000Y-99700000D03*
X44600000Y-98600000D03*
%TD*%
D10*
%TO.C,C274*%
X56542500Y-108450000D03*
X57357500Y-108450000D03*
%TD*%
D11*
%TO.C,IC273*%
X53500000Y-106400000D03*
X53500000Y-107500000D03*
X52400000Y-107500000D03*
X52400000Y-106400000D03*
%TD*%
%TO.C,IC104*%
X96400000Y-59600000D03*
X96400000Y-60700000D03*
X95300000Y-60700000D03*
X95300000Y-59600000D03*
%TD*%
%TO.C,IC263*%
X73000000Y-102500000D03*
X73000000Y-103600000D03*
X71900000Y-103600000D03*
X71900000Y-102500000D03*
%TD*%
%TO.C,IC236*%
X84700000Y-94700000D03*
X84700000Y-95800000D03*
X83600000Y-95800000D03*
X83600000Y-94700000D03*
%TD*%
%TO.C,IC194*%
X96400000Y-83000000D03*
X96400000Y-84100000D03*
X95300000Y-84100000D03*
X95300000Y-83000000D03*
%TD*%
%TO.C,IC220*%
X80800000Y-90800000D03*
X80800000Y-91900000D03*
X79700000Y-91900000D03*
X79700000Y-90800000D03*
%TD*%
D10*
%TO.C,C254*%
X95542500Y-100650000D03*
X96357500Y-100650000D03*
%TD*%
%TO.C,C127*%
X68242500Y-69450000D03*
X69057500Y-69450000D03*
%TD*%
D11*
%TO.C,IC221*%
X84700000Y-90800000D03*
X84700000Y-91900000D03*
X83600000Y-91900000D03*
X83600000Y-90800000D03*
%TD*%
%TO.C,IC201*%
X65200000Y-86900000D03*
X65200000Y-88000000D03*
X64100000Y-88000000D03*
X64100000Y-86900000D03*
%TD*%
D10*
%TO.C,C153*%
X52642500Y-77250000D03*
X53457500Y-77250000D03*
%TD*%
D11*
%TO.C,IC219*%
X76900000Y-90800000D03*
X76900000Y-91900000D03*
X75800000Y-91900000D03*
X75800000Y-90800000D03*
%TD*%
D10*
%TO.C,C248*%
X72142500Y-100650000D03*
X72957500Y-100650000D03*
%TD*%
%TO.C,C276*%
X64342500Y-108450000D03*
X65157500Y-108450000D03*
%TD*%
%TO.C,C230*%
X60442500Y-96750000D03*
X61257500Y-96750000D03*
%TD*%
%TO.C,C178*%
X91642500Y-81150000D03*
X92457500Y-81150000D03*
%TD*%
%TO.C,C69*%
X76042500Y-53850000D03*
X76857500Y-53850000D03*
%TD*%
%TO.C,C266*%
X83842500Y-104550000D03*
X84657500Y-104550000D03*
%TD*%
%TO.C,C131*%
X83842500Y-69450000D03*
X84657500Y-69450000D03*
%TD*%
%TO.C,C28*%
X91642500Y-42150000D03*
X92457500Y-42150000D03*
%TD*%
D11*
%TO.C,IC274*%
X57400000Y-106400000D03*
X57400000Y-107500000D03*
X56300000Y-107500000D03*
X56300000Y-106400000D03*
%TD*%
%TO.C,IC187*%
X69100000Y-83000000D03*
X69100000Y-84100000D03*
X68000000Y-84100000D03*
X68000000Y-83000000D03*
%TD*%
%TO.C,IC214*%
X57400000Y-90800000D03*
X57400000Y-91900000D03*
X56300000Y-91900000D03*
X56300000Y-90800000D03*
%TD*%
%TO.C,IC83*%
X73000000Y-55700000D03*
X73000000Y-56800000D03*
X71900000Y-56800000D03*
X71900000Y-55700000D03*
%TD*%
%TO.C,IC41*%
X84700000Y-44000000D03*
X84700000Y-45100000D03*
X83600000Y-45100000D03*
X83600000Y-44000000D03*
%TD*%
D10*
%TO.C,C136*%
X44842500Y-73350000D03*
X45657500Y-73350000D03*
%TD*%
D11*
%TO.C,IC137*%
X49600000Y-71300000D03*
X49600000Y-72400000D03*
X48500000Y-72400000D03*
X48500000Y-71300000D03*
%TD*%
D10*
%TO.C,C8*%
X72142500Y-38250000D03*
X72957500Y-38250000D03*
%TD*%
%TO.C,C213*%
X52642500Y-92850000D03*
X53457500Y-92850000D03*
%TD*%
%TO.C,C47*%
X48692500Y-49950000D03*
X49507500Y-49950000D03*
%TD*%
D11*
%TO.C,IC148*%
X92500000Y-71300000D03*
X92500000Y-72400000D03*
X91400000Y-72400000D03*
X91400000Y-71300000D03*
%TD*%
%TO.C,IC230*%
X61300000Y-94700000D03*
X61300000Y-95800000D03*
X60200000Y-95800000D03*
X60200000Y-94700000D03*
%TD*%
D10*
%TO.C,C45*%
X99442500Y-46050000D03*
X100257500Y-46050000D03*
%TD*%
%TO.C,C173*%
X72142500Y-81150000D03*
X72957500Y-81150000D03*
%TD*%
%TO.C,C103*%
X91642500Y-61650000D03*
X92457500Y-61650000D03*
%TD*%
%TO.C,C102*%
X87742500Y-61650000D03*
X88557500Y-61650000D03*
%TD*%
D11*
%TO.C,IC15*%
X100300000Y-36200000D03*
X100300000Y-37300000D03*
X99200000Y-37300000D03*
X99200000Y-36200000D03*
%TD*%
%TO.C,IC256*%
X45700000Y-102500000D03*
X45700000Y-103600000D03*
X44600000Y-103600000D03*
X44600000Y-102500000D03*
%TD*%
%TO.C,IC169*%
X57400000Y-79100000D03*
X57400000Y-80200000D03*
X56300000Y-80200000D03*
X56300000Y-79100000D03*
%TD*%
D10*
%TO.C,C228*%
X52642500Y-96750000D03*
X53457500Y-96750000D03*
%TD*%
%TO.C,C211*%
X44842500Y-92850000D03*
X45657500Y-92850000D03*
%TD*%
D13*
%TO.C,C286*%
X109300000Y-41357500D03*
X109300000Y-40542500D03*
%TD*%
D11*
%TO.C,IC117*%
X88600000Y-63500000D03*
X88600000Y-64600000D03*
X87500000Y-64600000D03*
X87500000Y-63500000D03*
%TD*%
%TO.C,IC135*%
X100300000Y-67400000D03*
X100300000Y-68500000D03*
X99200000Y-68500000D03*
X99200000Y-67400000D03*
%TD*%
%TO.C,IC255*%
X100300000Y-98600000D03*
X100300000Y-99700000D03*
X99200000Y-99700000D03*
X99200000Y-98600000D03*
%TD*%
%TO.C,IC258*%
X53500000Y-102500000D03*
X53500000Y-103600000D03*
X52400000Y-103600000D03*
X52400000Y-102500000D03*
%TD*%
D10*
%TO.C,C27*%
X87742500Y-42150000D03*
X88557500Y-42150000D03*
%TD*%
%TO.C,C105*%
X99392500Y-61600000D03*
X100207500Y-61600000D03*
%TD*%
D11*
%TO.C,IC246*%
X65200000Y-98600000D03*
X65200000Y-99700000D03*
X64100000Y-99700000D03*
X64100000Y-98600000D03*
%TD*%
D10*
%TO.C,C273*%
X52642500Y-108450000D03*
X53457500Y-108450000D03*
%TD*%
D11*
%TO.C,IC172*%
X69100000Y-79100000D03*
X69100000Y-80200000D03*
X68000000Y-80200000D03*
X68000000Y-79100000D03*
%TD*%
%TO.C,IC90*%
X100300000Y-55700000D03*
X100300000Y-56800000D03*
X99200000Y-56800000D03*
X99200000Y-55700000D03*
%TD*%
D10*
%TO.C,C196*%
X44842500Y-88950000D03*
X45657500Y-88950000D03*
%TD*%
D11*
%TO.C,IC159*%
X76900000Y-75200000D03*
X76900000Y-76300000D03*
X75800000Y-76300000D03*
X75800000Y-75200000D03*
%TD*%
%TO.C,IC177*%
X88600000Y-79100000D03*
X88600000Y-80200000D03*
X87500000Y-80200000D03*
X87500000Y-79100000D03*
%TD*%
%TO.C,IC60*%
X100300000Y-47900000D03*
X100300000Y-49000000D03*
X99200000Y-49000000D03*
X99200000Y-47900000D03*
%TD*%
%TO.C,IC67*%
X69100000Y-51800000D03*
X69100000Y-52900000D03*
X68000000Y-52900000D03*
X68000000Y-51800000D03*
%TD*%
D10*
%TO.C,C224*%
X95542500Y-92850000D03*
X96357500Y-92850000D03*
%TD*%
%TO.C,C73*%
X91642500Y-53850000D03*
X92457500Y-53850000D03*
%TD*%
D11*
%TO.C,IC257*%
X49600000Y-102500000D03*
X49600000Y-103600000D03*
X48500000Y-103600000D03*
X48500000Y-102500000D03*
%TD*%
%TO.C,IC27*%
X88600000Y-40100000D03*
X88600000Y-41200000D03*
X87500000Y-41200000D03*
X87500000Y-40100000D03*
%TD*%
%TO.C,IC144*%
X76900000Y-71300000D03*
X76900000Y-72400000D03*
X75800000Y-72400000D03*
X75800000Y-71300000D03*
%TD*%
D10*
%TO.C,C149*%
X95542500Y-73350000D03*
X96357500Y-73350000D03*
%TD*%
%TO.C,C61*%
X44842500Y-53850000D03*
X45657500Y-53850000D03*
%TD*%
%TO.C,C158*%
X72142500Y-77250000D03*
X72957500Y-77250000D03*
%TD*%
D11*
%TO.C,IC232*%
X69100000Y-94700000D03*
X69100000Y-95800000D03*
X68000000Y-95800000D03*
X68000000Y-94700000D03*
%TD*%
%TO.C,IC223*%
X92500000Y-90800000D03*
X92500000Y-91900000D03*
X91400000Y-91900000D03*
X91400000Y-90800000D03*
%TD*%
D10*
%TO.C,C80*%
X60442500Y-57750000D03*
X61257500Y-57750000D03*
%TD*%
%TO.C,C46*%
X44842500Y-49950000D03*
X45657500Y-49950000D03*
%TD*%
D11*
%TO.C,IC11*%
X84700000Y-36200000D03*
X84700000Y-37300000D03*
X83600000Y-37300000D03*
X83600000Y-36200000D03*
%TD*%
D10*
%TO.C,C75*%
X99442500Y-53850000D03*
X100257500Y-53850000D03*
%TD*%
D11*
%TO.C,IC61*%
X45700000Y-51800000D03*
X45700000Y-52900000D03*
X44600000Y-52900000D03*
X44600000Y-51800000D03*
%TD*%
%TO.C,IC151*%
X45700000Y-75200000D03*
X45700000Y-76300000D03*
X44600000Y-76300000D03*
X44600000Y-75200000D03*
%TD*%
D10*
%TO.C,C141*%
X64342500Y-73300000D03*
X65157500Y-73300000D03*
%TD*%
D11*
%TO.C,IC142*%
X69100000Y-71300000D03*
X69100000Y-72400000D03*
X68000000Y-72400000D03*
X68000000Y-71300000D03*
%TD*%
%TO.C,IC199*%
X57400000Y-86900000D03*
X57400000Y-88000000D03*
X56300000Y-88000000D03*
X56300000Y-86900000D03*
%TD*%
D10*
%TO.C,C97*%
X68242500Y-61650000D03*
X69057500Y-61650000D03*
%TD*%
D11*
%TO.C,IC134*%
X96400000Y-67400000D03*
X96400000Y-68500000D03*
X95300000Y-68500000D03*
X95300000Y-67400000D03*
%TD*%
D10*
%TO.C,C104*%
X95542500Y-61650000D03*
X96357500Y-61650000D03*
%TD*%
D11*
%TO.C,IC115*%
X80800000Y-63500000D03*
X80800000Y-64600000D03*
X79700000Y-64600000D03*
X79700000Y-63500000D03*
%TD*%
D10*
%TO.C,C22*%
X68242500Y-42150000D03*
X69057500Y-42150000D03*
%TD*%
D11*
%TO.C,IC91*%
X45700000Y-59600000D03*
X45700000Y-60700000D03*
X44600000Y-60700000D03*
X44600000Y-59600000D03*
%TD*%
D10*
%TO.C,C123*%
X52642500Y-69450000D03*
X53457500Y-69450000D03*
%TD*%
D11*
%TO.C,IC102*%
X88600000Y-59600000D03*
X88600000Y-60700000D03*
X87500000Y-60700000D03*
X87500000Y-59600000D03*
%TD*%
D10*
%TO.C,C244*%
X56542500Y-100650000D03*
X57357500Y-100650000D03*
%TD*%
%TO.C,C250*%
X79942500Y-100650000D03*
X80757500Y-100650000D03*
%TD*%
D11*
%TO.C,IC98*%
X73000000Y-59600000D03*
X73000000Y-60700000D03*
X71900000Y-60700000D03*
X71900000Y-59600000D03*
%TD*%
D10*
%TO.C,C177*%
X87742500Y-81150000D03*
X88557500Y-81150000D03*
%TD*%
%TO.C,C9*%
X76042500Y-38250000D03*
X76857500Y-38250000D03*
%TD*%
D11*
%TO.C,IC150*%
X100300000Y-71300000D03*
X100300000Y-72400000D03*
X99200000Y-72400000D03*
X99200000Y-71300000D03*
%TD*%
D10*
%TO.C,C265*%
X79942500Y-104550000D03*
X80757500Y-104550000D03*
%TD*%
D11*
%TO.C,IC239*%
X96400000Y-94700000D03*
X96400000Y-95800000D03*
X95300000Y-95800000D03*
X95300000Y-94700000D03*
%TD*%
D10*
%TO.C,C62*%
X48742500Y-53850000D03*
X49557500Y-53850000D03*
%TD*%
%TO.C,C65*%
X60442500Y-53850000D03*
X61257500Y-53850000D03*
%TD*%
%TO.C,C120*%
X99442500Y-65550000D03*
X100257500Y-65550000D03*
%TD*%
D11*
%TO.C,IC23*%
X73000000Y-40100000D03*
X73000000Y-41200000D03*
X71900000Y-41200000D03*
X71900000Y-40100000D03*
%TD*%
%TO.C,IC235*%
X80800000Y-94700000D03*
X80800000Y-95800000D03*
X79700000Y-95800000D03*
X79700000Y-94700000D03*
%TD*%
D10*
%TO.C,C203*%
X72142500Y-88950000D03*
X72957500Y-88950000D03*
%TD*%
D11*
%TO.C,IC46*%
X45700000Y-47900000D03*
X45700000Y-49000000D03*
X44600000Y-49000000D03*
X44600000Y-47900000D03*
%TD*%
D10*
%TO.C,C189*%
X76042500Y-85050000D03*
X76857500Y-85050000D03*
%TD*%
%TO.C,C186*%
X64342500Y-85050000D03*
X65157500Y-85050000D03*
%TD*%
%TO.C,C70*%
X79942500Y-53850000D03*
X80757500Y-53850000D03*
%TD*%
%TO.C,C67*%
X68242500Y-53850000D03*
X69057500Y-53850000D03*
%TD*%
D11*
%TO.C,IC109*%
X57400000Y-63500000D03*
X57400000Y-64600000D03*
X56300000Y-64600000D03*
X56300000Y-63500000D03*
%TD*%
%TO.C,IC156*%
X65200000Y-75200000D03*
X65200000Y-76300000D03*
X64100000Y-76300000D03*
X64100000Y-75200000D03*
%TD*%
%TO.C,IC7*%
X69100000Y-36200000D03*
X69100000Y-37300000D03*
X68000000Y-37300000D03*
X68000000Y-36200000D03*
%TD*%
%TO.C,IC32*%
X49600000Y-44000000D03*
X49600000Y-45100000D03*
X48500000Y-45100000D03*
X48500000Y-44000000D03*
%TD*%
%TO.C,IC17*%
X49600000Y-40100000D03*
X49600000Y-41200000D03*
X48500000Y-41200000D03*
X48500000Y-40100000D03*
%TD*%
%TO.C,IC2*%
X49600000Y-36200000D03*
X49600000Y-37300000D03*
X48500000Y-37300000D03*
X48500000Y-36200000D03*
%TD*%
D10*
%TO.C,C190*%
X79942500Y-85050000D03*
X80757500Y-85050000D03*
%TD*%
D11*
%TO.C,IC197*%
X49600000Y-86900000D03*
X49600000Y-88000000D03*
X48500000Y-88000000D03*
X48500000Y-86900000D03*
%TD*%
D10*
%TO.C,C247*%
X68242500Y-100650000D03*
X69057500Y-100650000D03*
%TD*%
D11*
%TO.C,IC254*%
X96400000Y-98600000D03*
X96400000Y-99700000D03*
X95300000Y-99700000D03*
X95300000Y-98600000D03*
%TD*%
%TO.C,IC76*%
X45700000Y-55700000D03*
X45700000Y-56800000D03*
X44600000Y-56800000D03*
X44600000Y-55700000D03*
%TD*%
%TO.C,IC155*%
X61300000Y-75200000D03*
X61300000Y-76300000D03*
X60200000Y-76300000D03*
X60200000Y-75200000D03*
%TD*%
%TO.C,IC248*%
X73000000Y-98600000D03*
X73000000Y-99700000D03*
X71900000Y-99700000D03*
X71900000Y-98600000D03*
%TD*%
D10*
%TO.C,C209*%
X95542500Y-88950000D03*
X96357500Y-88950000D03*
%TD*%
D11*
%TO.C,IC40*%
X80800000Y-44000000D03*
X80800000Y-45100000D03*
X79700000Y-45100000D03*
X79700000Y-44000000D03*
%TD*%
%TO.C,IC77*%
X49600000Y-55700000D03*
X49600000Y-56800000D03*
X48500000Y-56800000D03*
X48500000Y-55700000D03*
%TD*%
%TO.C,IC130*%
X80800000Y-67400000D03*
X80800000Y-68500000D03*
X79700000Y-68500000D03*
X79700000Y-67400000D03*
%TD*%
D10*
%TO.C,C282*%
X87742500Y-108450000D03*
X88557500Y-108450000D03*
%TD*%
D11*
%TO.C,IC200*%
X61300000Y-86900000D03*
X61300000Y-88000000D03*
X60200000Y-88000000D03*
X60200000Y-86900000D03*
%TD*%
%TO.C,IC139*%
X57400000Y-71300000D03*
X57400000Y-72400000D03*
X56300000Y-72400000D03*
X56300000Y-71300000D03*
%TD*%
D10*
%TO.C,C278*%
X72142500Y-108450000D03*
X72957500Y-108450000D03*
%TD*%
D11*
%TO.C,IC247*%
X69100000Y-98600000D03*
X69100000Y-99700000D03*
X68000000Y-99700000D03*
X68000000Y-98600000D03*
%TD*%
D10*
%TO.C,C172*%
X68242500Y-81150000D03*
X69057500Y-81150000D03*
%TD*%
D11*
%TO.C,IC10*%
X80800000Y-36200000D03*
X80800000Y-37300000D03*
X79700000Y-37300000D03*
X79700000Y-36200000D03*
%TD*%
D10*
%TO.C,C30*%
X99442500Y-42150000D03*
X100257500Y-42150000D03*
%TD*%
%TO.C,C182*%
X48742500Y-85050000D03*
X49557500Y-85050000D03*
%TD*%
D11*
%TO.C,IC268*%
X92500000Y-102500000D03*
X92500000Y-103600000D03*
X91400000Y-103600000D03*
X91400000Y-102500000D03*
%TD*%
%TO.C,IC81*%
X65200000Y-55700000D03*
X65200000Y-56800000D03*
X64100000Y-56800000D03*
X64100000Y-55700000D03*
%TD*%
D10*
%TO.C,C154*%
X56542500Y-77250000D03*
X57357500Y-77250000D03*
%TD*%
%TO.C,C71*%
X83842500Y-53850000D03*
X84657500Y-53850000D03*
%TD*%
D12*
%TO.C,R2*%
X107000000Y-47692500D03*
X107000000Y-48507500D03*
%TD*%
D11*
%TO.C,IC108*%
X53500000Y-63500000D03*
X53500000Y-64600000D03*
X52400000Y-64600000D03*
X52400000Y-63500000D03*
%TD*%
%TO.C,IC118*%
X92500000Y-63500000D03*
X92500000Y-64600000D03*
X91400000Y-64600000D03*
X91400000Y-63500000D03*
%TD*%
D10*
%TO.C,C51*%
X64342500Y-49950000D03*
X65157500Y-49950000D03*
%TD*%
%TO.C,C68*%
X72142500Y-53850000D03*
X72957500Y-53850000D03*
%TD*%
%TO.C,C134*%
X95542500Y-69450000D03*
X96357500Y-69450000D03*
%TD*%
%TO.C,C20*%
X60442500Y-42050000D03*
X61257500Y-42050000D03*
%TD*%
%TO.C,C48*%
X52592500Y-49950000D03*
X53407500Y-49950000D03*
%TD*%
%TO.C,C112*%
X68242500Y-65550000D03*
X69057500Y-65550000D03*
%TD*%
D11*
%TO.C,IC31*%
X45700000Y-44000000D03*
X45700000Y-45100000D03*
X44600000Y-45100000D03*
X44600000Y-44000000D03*
%TD*%
D10*
%TO.C,C218*%
X72142500Y-92850000D03*
X72957500Y-92850000D03*
%TD*%
D11*
%TO.C,IC272*%
X49600000Y-106400000D03*
X49600000Y-107500000D03*
X48500000Y-107500000D03*
X48500000Y-106400000D03*
%TD*%
%TO.C,IC196*%
X45700000Y-86900000D03*
X45700000Y-88000000D03*
X44600000Y-88000000D03*
X44600000Y-86900000D03*
%TD*%
%TO.C,IC162*%
X88600000Y-75200000D03*
X88600000Y-76300000D03*
X87500000Y-76300000D03*
X87500000Y-75200000D03*
%TD*%
%TO.C,IC237*%
X88600000Y-94700000D03*
X88600000Y-95800000D03*
X87500000Y-95800000D03*
X87500000Y-94700000D03*
%TD*%
D10*
%TO.C,C37*%
X68242500Y-46050000D03*
X69057500Y-46050000D03*
%TD*%
%TO.C,C262*%
X68242500Y-104550000D03*
X69057500Y-104550000D03*
%TD*%
D11*
%TO.C,IC21*%
X65200000Y-40100000D03*
X65200000Y-41200000D03*
X64100000Y-41200000D03*
X64100000Y-40100000D03*
%TD*%
D10*
%TO.C,C199*%
X56542500Y-88950000D03*
X57357500Y-88950000D03*
%TD*%
%TO.C,C101*%
X83842500Y-61650000D03*
X84657500Y-61650000D03*
%TD*%
%TO.C,C66*%
X64342500Y-53850000D03*
X65157500Y-53850000D03*
%TD*%
%TO.C,R1*%
X112992500Y-36050000D03*
X113807500Y-36050000D03*
%TD*%
%TO.C,C83*%
X72142500Y-57750000D03*
X72957500Y-57750000D03*
%TD*%
D11*
%TO.C,IC203*%
X73000000Y-86900000D03*
X73000000Y-88000000D03*
X71900000Y-88000000D03*
X71900000Y-86900000D03*
%TD*%
%TO.C,IC116*%
X84700000Y-63500000D03*
X84700000Y-64600000D03*
X83600000Y-64600000D03*
X83600000Y-63500000D03*
%TD*%
%TO.C,IC113*%
X73000000Y-63500000D03*
X73000000Y-64600000D03*
X71900000Y-64600000D03*
X71900000Y-63500000D03*
%TD*%
%TO.C,IC20*%
X61300000Y-40100000D03*
X61300000Y-41200000D03*
X60200000Y-41200000D03*
X60200000Y-40100000D03*
%TD*%
%TO.C,IC284*%
X96400000Y-106400000D03*
X96400000Y-107500000D03*
X95300000Y-107500000D03*
X95300000Y-106400000D03*
%TD*%
D10*
%TO.C,C2*%
X48742500Y-38250000D03*
X49557500Y-38250000D03*
%TD*%
D12*
%TO.C,R5*%
X108800000Y-49592500D03*
X108800000Y-50407500D03*
%TD*%
D11*
%TO.C,IC178*%
X92500000Y-79100000D03*
X92500000Y-80200000D03*
X91400000Y-80200000D03*
X91400000Y-79100000D03*
%TD*%
%TO.C,IC217*%
X69100000Y-90800000D03*
X69100000Y-91900000D03*
X68000000Y-91900000D03*
X68000000Y-90800000D03*
%TD*%
%TO.C,IC74*%
X96400000Y-51800000D03*
X96400000Y-52900000D03*
X95300000Y-52900000D03*
X95300000Y-51800000D03*
%TD*%
%TO.C,IC125*%
X61300000Y-67400000D03*
X61300000Y-68500000D03*
X60200000Y-68500000D03*
X60200000Y-67400000D03*
%TD*%
D10*
%TO.C,C246*%
X64342500Y-100650000D03*
X65157500Y-100650000D03*
%TD*%
D11*
%TO.C,IC207*%
X88600000Y-86900000D03*
X88600000Y-88000000D03*
X87500000Y-88000000D03*
X87500000Y-86900000D03*
%TD*%
%TO.C,IC145*%
X80800000Y-71300000D03*
X80800000Y-72400000D03*
X79700000Y-72400000D03*
X79700000Y-71300000D03*
%TD*%
%TO.C,IC234*%
X76900000Y-94700000D03*
X76900000Y-95800000D03*
X75800000Y-95800000D03*
X75800000Y-94700000D03*
%TD*%
%TO.C,IC127*%
X69100000Y-67400000D03*
X69100000Y-68500000D03*
X68000000Y-68500000D03*
X68000000Y-67400000D03*
%TD*%
%TO.C,IC152*%
X49600000Y-75200000D03*
X49600000Y-76300000D03*
X48500000Y-76300000D03*
X48500000Y-75200000D03*
%TD*%
D10*
%TO.C,C72*%
X87792500Y-53900000D03*
X88607500Y-53900000D03*
%TD*%
D11*
%TO.C,IC96*%
X65200000Y-59600000D03*
X65200000Y-60700000D03*
X64100000Y-60700000D03*
X64100000Y-59600000D03*
%TD*%
%TO.C,IC149*%
X96400000Y-71300000D03*
X96400000Y-72400000D03*
X95300000Y-72400000D03*
X95300000Y-71300000D03*
%TD*%
%TO.C,IC22*%
X69100000Y-40100000D03*
X69100000Y-41200000D03*
X68000000Y-41200000D03*
X68000000Y-40100000D03*
%TD*%
D10*
%TO.C,C285*%
X99442500Y-108450000D03*
X100257500Y-108450000D03*
%TD*%
%TO.C,C253*%
X91642500Y-100650000D03*
X92457500Y-100650000D03*
%TD*%
%TO.C,C268*%
X91642500Y-104550000D03*
X92457500Y-104550000D03*
%TD*%
D11*
%TO.C,IC209*%
X96400000Y-86900000D03*
X96400000Y-88000000D03*
X95300000Y-88000000D03*
X95300000Y-86900000D03*
%TD*%
D10*
%TO.C,C198*%
X52642500Y-88950000D03*
X53457500Y-88950000D03*
%TD*%
%TO.C,C204*%
X76042500Y-88950000D03*
X76857500Y-88950000D03*
%TD*%
D11*
%TO.C,IC176*%
X84700000Y-79100000D03*
X84700000Y-80200000D03*
X83600000Y-80200000D03*
X83600000Y-79100000D03*
%TD*%
%TO.C,IC80*%
X61300000Y-55700000D03*
X61300000Y-56800000D03*
X60200000Y-56800000D03*
X60200000Y-55700000D03*
%TD*%
%TO.C,IC126*%
X65200000Y-67400000D03*
X65200000Y-68500000D03*
X64100000Y-68500000D03*
X64100000Y-67400000D03*
%TD*%
D10*
%TO.C,C76*%
X44842500Y-57750000D03*
X45657500Y-57750000D03*
%TD*%
D11*
%TO.C,IC44*%
X96400000Y-44000000D03*
X96400000Y-45100000D03*
X95300000Y-45100000D03*
X95300000Y-44000000D03*
%TD*%
D10*
%TO.C,C231*%
X64342500Y-96750000D03*
X65157500Y-96750000D03*
%TD*%
D11*
%TO.C,IC276*%
X65200000Y-106400000D03*
X65200000Y-107500000D03*
X64100000Y-107500000D03*
X64100000Y-106400000D03*
%TD*%
D10*
%TO.C,C140*%
X60435000Y-73350000D03*
X61250000Y-73350000D03*
%TD*%
%TO.C,C174*%
X76042500Y-81150000D03*
X76857500Y-81150000D03*
%TD*%
D11*
%TO.C,IC120*%
X100300000Y-63500000D03*
X100300000Y-64600000D03*
X99200000Y-64600000D03*
X99200000Y-63500000D03*
%TD*%
%TO.C,IC78*%
X53500000Y-55700000D03*
X53500000Y-56800000D03*
X52400000Y-56800000D03*
X52400000Y-55700000D03*
%TD*%
D10*
%TO.C,C162*%
X87742500Y-77250000D03*
X88557500Y-77250000D03*
%TD*%
D11*
%TO.C,IC216*%
X65200000Y-90800000D03*
X65200000Y-91900000D03*
X64100000Y-91900000D03*
X64100000Y-90800000D03*
%TD*%
%TO.C,IC75*%
X100300000Y-51800000D03*
X100300000Y-52900000D03*
X99200000Y-52900000D03*
X99200000Y-51800000D03*
%TD*%
%TO.C,IC208*%
X92500000Y-86900000D03*
X92500000Y-88000000D03*
X91400000Y-88000000D03*
X91400000Y-86900000D03*
%TD*%
D10*
%TO.C,C142*%
X68192500Y-73300000D03*
X69007500Y-73300000D03*
%TD*%
%TO.C,C93*%
X52642500Y-61650000D03*
X53457500Y-61650000D03*
%TD*%
D11*
%TO.C,IC261*%
X65200000Y-102500000D03*
X65200000Y-103600000D03*
X64100000Y-103600000D03*
X64100000Y-102500000D03*
%TD*%
%TO.C,IC210*%
X100300000Y-86900000D03*
X100300000Y-88000000D03*
X99200000Y-88000000D03*
X99200000Y-86900000D03*
%TD*%
D10*
%TO.C,C243*%
X52642500Y-100650000D03*
X53457500Y-100650000D03*
%TD*%
D11*
%TO.C,IC110*%
X61300000Y-63500000D03*
X61300000Y-64600000D03*
X60200000Y-64600000D03*
X60200000Y-63500000D03*
%TD*%
%TO.C,IC28*%
X92500000Y-40100000D03*
X92500000Y-41200000D03*
X91400000Y-41200000D03*
X91400000Y-40100000D03*
%TD*%
D10*
%TO.C,C11*%
X83842500Y-38250000D03*
X84657500Y-38250000D03*
%TD*%
D11*
%TO.C,IC147*%
X88600000Y-71300000D03*
X88600000Y-72400000D03*
X87500000Y-72400000D03*
X87500000Y-71300000D03*
%TD*%
%TO.C,IC12*%
X88600000Y-36200000D03*
X88600000Y-37300000D03*
X87500000Y-37300000D03*
X87500000Y-36200000D03*
%TD*%
%TO.C,IC280*%
X80800000Y-106400000D03*
X80800000Y-107500000D03*
X79700000Y-107500000D03*
X79700000Y-106400000D03*
%TD*%
D10*
%TO.C,C160*%
X79942500Y-77250000D03*
X80757500Y-77250000D03*
%TD*%
%TO.C,R7*%
X112992500Y-37450000D03*
X113807500Y-37450000D03*
%TD*%
D11*
%TO.C,IC157*%
X69100000Y-75200000D03*
X69100000Y-76300000D03*
X68000000Y-76300000D03*
X68000000Y-75200000D03*
%TD*%
%TO.C,IC53*%
X73000000Y-47900000D03*
X73000000Y-49000000D03*
X71900000Y-49000000D03*
X71900000Y-47900000D03*
%TD*%
%TO.C,IC181*%
X45700000Y-83000000D03*
X45700000Y-84100000D03*
X44600000Y-84100000D03*
X44600000Y-83000000D03*
%TD*%
D10*
%TO.C,C259*%
X56542500Y-104550000D03*
X57357500Y-104550000D03*
%TD*%
%TO.C,C249*%
X76042500Y-100650000D03*
X76857500Y-100650000D03*
%TD*%
D11*
%TO.C,IC65*%
X61300000Y-51800000D03*
X61300000Y-52900000D03*
X60200000Y-52900000D03*
X60200000Y-51800000D03*
%TD*%
D10*
%TO.C,C261*%
X64342500Y-104550000D03*
X65157500Y-104550000D03*
%TD*%
%TO.C,C234*%
X76042500Y-96750000D03*
X76857500Y-96750000D03*
%TD*%
%TO.C,C145*%
X79942500Y-73350000D03*
X80757500Y-73350000D03*
%TD*%
D11*
%TO.C,IC119*%
X96400000Y-63500000D03*
X96400000Y-64600000D03*
X95300000Y-64600000D03*
X95300000Y-63500000D03*
%TD*%
D10*
%TO.C,C35*%
X60442500Y-46050000D03*
X61257500Y-46050000D03*
%TD*%
%TO.C,C52*%
X68242500Y-49950000D03*
X69057500Y-49950000D03*
%TD*%
%TO.C,C208*%
X91642500Y-88950000D03*
X92457500Y-88950000D03*
%TD*%
D11*
%TO.C,IC244*%
X57400000Y-98600000D03*
X57400000Y-99700000D03*
X56300000Y-99700000D03*
X56300000Y-98600000D03*
%TD*%
%TO.C,IC240*%
X100300000Y-94700000D03*
X100300000Y-95800000D03*
X99200000Y-95800000D03*
X99200000Y-94700000D03*
%TD*%
D10*
%TO.C,C185*%
X60442500Y-85050000D03*
X61257500Y-85050000D03*
%TD*%
%TO.C,C156*%
X64342500Y-77250000D03*
X65157500Y-77250000D03*
%TD*%
D11*
%TO.C,IC260*%
X61300000Y-102500000D03*
X61300000Y-103600000D03*
X60200000Y-103600000D03*
X60200000Y-102500000D03*
%TD*%
D10*
%TO.C,C58*%
X91642500Y-49950000D03*
X92457500Y-49950000D03*
%TD*%
%TO.C,C42*%
X87742500Y-46050000D03*
X88557500Y-46050000D03*
%TD*%
D11*
%TO.C,IC140*%
X61300000Y-71300000D03*
X61300000Y-72400000D03*
X60200000Y-72400000D03*
X60200000Y-71300000D03*
%TD*%
D10*
%TO.C,C34*%
X56542500Y-46050000D03*
X57357500Y-46050000D03*
%TD*%
D11*
%TO.C,IC114*%
X76900000Y-63500000D03*
X76900000Y-64600000D03*
X75800000Y-64600000D03*
X75800000Y-63500000D03*
%TD*%
D14*
%TO.C,IC286*%
X107400000Y-36150000D03*
D15*
X107400000Y-36550000D03*
X107400000Y-36950000D03*
X107400000Y-37350000D03*
D16*
X107400000Y-37750000D03*
D17*
X108050000Y-38400000D03*
D18*
X108450000Y-38400000D03*
X108850000Y-38400000D03*
X109250000Y-38400000D03*
D19*
X109650000Y-38400000D03*
D20*
X110300000Y-37750000D03*
D15*
X110300000Y-37350000D03*
X110300000Y-36950000D03*
X110300000Y-36550000D03*
D21*
X110300000Y-36150000D03*
D22*
X109650000Y-35500000D03*
D18*
X109250000Y-35500000D03*
X108850000Y-35500000D03*
X108450000Y-35500000D03*
D23*
X108050000Y-35500000D03*
D24*
X108850000Y-36950000D03*
%TD*%
D11*
%TO.C,IC267*%
X88600000Y-102500000D03*
X88600000Y-103600000D03*
X87500000Y-103600000D03*
X87500000Y-102500000D03*
%TD*%
%TO.C,IC34*%
X57400000Y-44000000D03*
X57400000Y-45100000D03*
X56300000Y-45100000D03*
X56300000Y-44000000D03*
%TD*%
D10*
%TO.C,C281*%
X83842500Y-108450000D03*
X84657500Y-108450000D03*
%TD*%
%TO.C,C64*%
X56542500Y-53750000D03*
X57357500Y-53750000D03*
%TD*%
%TO.C,C167*%
X48742500Y-81150000D03*
X49557500Y-81150000D03*
%TD*%
D11*
%TO.C,IC16*%
X45700000Y-40100000D03*
X45700000Y-41200000D03*
X44600000Y-41200000D03*
X44600000Y-40100000D03*
%TD*%
D10*
%TO.C,C26*%
X83842500Y-42150000D03*
X84657500Y-42150000D03*
%TD*%
D11*
%TO.C,IC252*%
X88600000Y-98600000D03*
X88600000Y-99700000D03*
X87500000Y-99700000D03*
X87500000Y-98600000D03*
%TD*%
%TO.C,IC47*%
X49600000Y-47900000D03*
X49600000Y-49000000D03*
X48500000Y-49000000D03*
X48500000Y-47900000D03*
%TD*%
D10*
%TO.C,C122*%
X48725000Y-69450000D03*
X49540000Y-69450000D03*
%TD*%
D11*
%TO.C,IC8*%
X73000000Y-36200000D03*
X73000000Y-37300000D03*
X71900000Y-37300000D03*
X71900000Y-36200000D03*
%TD*%
%TO.C,IC70*%
X80800000Y-51800000D03*
X80800000Y-52900000D03*
X79700000Y-52900000D03*
X79700000Y-51800000D03*
%TD*%
%TO.C,IC52*%
X69100000Y-47900000D03*
X69100000Y-49000000D03*
X68000000Y-49000000D03*
X68000000Y-47900000D03*
%TD*%
%TO.C,IC271*%
X45700000Y-106400000D03*
X45700000Y-107500000D03*
X44600000Y-107500000D03*
X44600000Y-106400000D03*
%TD*%
%TO.C,IC58*%
X92500000Y-47900000D03*
X92500000Y-49000000D03*
X91400000Y-49000000D03*
X91400000Y-47900000D03*
%TD*%
%TO.C,IC222*%
X88600000Y-90800000D03*
X88600000Y-91900000D03*
X87500000Y-91900000D03*
X87500000Y-90800000D03*
%TD*%
D10*
%TO.C,C31*%
X44842500Y-46050000D03*
X45657500Y-46050000D03*
%TD*%
D11*
%TO.C,IC24*%
X76900000Y-40100000D03*
X76900000Y-41200000D03*
X75800000Y-41200000D03*
X75800000Y-40100000D03*
%TD*%
%TO.C,IC6*%
X65200000Y-36200000D03*
X65200000Y-37300000D03*
X64100000Y-37300000D03*
X64100000Y-36200000D03*
%TD*%
%TO.C,IC63*%
X53500000Y-51800000D03*
X53500000Y-52900000D03*
X52400000Y-52900000D03*
X52400000Y-51800000D03*
%TD*%
D12*
%TO.C,R4*%
X108200000Y-47692500D03*
X108200000Y-48507500D03*
%TD*%
D10*
%TO.C,C86*%
X83842500Y-57750000D03*
X84657500Y-57750000D03*
%TD*%
D11*
%TO.C,IC39*%
X76900000Y-44000000D03*
X76900000Y-45100000D03*
X75800000Y-45100000D03*
X75800000Y-44000000D03*
%TD*%
D10*
%TO.C,C239*%
X95542500Y-96750000D03*
X96357500Y-96750000D03*
%TD*%
%TO.C,C181*%
X44842500Y-85050000D03*
X45657500Y-85050000D03*
%TD*%
D11*
%TO.C,IC186*%
X65200000Y-83000000D03*
X65200000Y-84100000D03*
X64100000Y-84100000D03*
X64100000Y-83000000D03*
%TD*%
D10*
%TO.C,C109*%
X56542500Y-65550000D03*
X57357500Y-65550000D03*
%TD*%
D11*
%TO.C,IC138*%
X53500000Y-71300000D03*
X53500000Y-72400000D03*
X52400000Y-72400000D03*
X52400000Y-71300000D03*
%TD*%
D10*
%TO.C,C202*%
X68242500Y-88950000D03*
X69057500Y-88950000D03*
%TD*%
%TO.C,C283*%
X91642500Y-108450000D03*
X92457500Y-108450000D03*
%TD*%
%TO.C,C238*%
X91642500Y-96750000D03*
X92457500Y-96750000D03*
%TD*%
%TO.C,C108*%
X52642500Y-65550000D03*
X53457500Y-65550000D03*
%TD*%
D11*
%TO.C,IC26*%
X84700000Y-40100000D03*
X84700000Y-41200000D03*
X83600000Y-41200000D03*
X83600000Y-40100000D03*
%TD*%
%TO.C,IC168*%
X53500000Y-79100000D03*
X53500000Y-80200000D03*
X52400000Y-80200000D03*
X52400000Y-79100000D03*
%TD*%
%TO.C,IC278*%
X73000000Y-106400000D03*
X73000000Y-107500000D03*
X71900000Y-107500000D03*
X71900000Y-106400000D03*
%TD*%
D10*
%TO.C,C245*%
X60442500Y-100650000D03*
X61257500Y-100650000D03*
%TD*%
D11*
%TO.C,IC36*%
X65200000Y-44000000D03*
X65200000Y-45100000D03*
X64100000Y-45100000D03*
X64100000Y-44000000D03*
%TD*%
D10*
%TO.C,C119*%
X95542500Y-65550000D03*
X96357500Y-65550000D03*
%TD*%
%TO.C,C233*%
X72142500Y-96750000D03*
X72957500Y-96750000D03*
%TD*%
M02*
