%TF.GenerationSoftware,KiCad,Pcbnew,7.0.9*%
%TF.CreationDate,2023-12-18T15:10:47+01:00*%
%TF.ProjectId,flexAddressLedsV2,666c6578-4164-4647-9265-73734c656473,rev?*%
%TF.SameCoordinates,Original*%
%TF.FileFunction,Paste,Top*%
%TF.FilePolarity,Positive*%
%FSLAX46Y46*%
G04 Gerber Fmt 4.6, Leading zero omitted, Abs format (unit mm)*
G04 Created by KiCad (PCBNEW 7.0.9) date 2023-12-18 15:10:47*
%MOMM*%
%LPD*%
G01*
G04 APERTURE LIST*
G04 Aperture macros list*
%AMRoundRect*
0 Rectangle with rounded corners*
0 $1 Rounding radius*
0 $2 $3 $4 $5 $6 $7 $8 $9 X,Y pos of 4 corners*
0 Add a 4 corners polygon primitive as box body*
4,1,4,$2,$3,$4,$5,$6,$7,$8,$9,$2,$3,0*
0 Add four circle primitives for the rounded corners*
1,1,$1+$1,$2,$3*
1,1,$1+$1,$4,$5*
1,1,$1+$1,$6,$7*
1,1,$1+$1,$8,$9*
0 Add four rect primitives between the rounded corners*
20,1,$1+$1,$2,$3,$4,$5,0*
20,1,$1+$1,$4,$5,$6,$7,0*
20,1,$1+$1,$6,$7,$8,$9,0*
20,1,$1+$1,$8,$9,$2,$3,0*%
%AMFreePoly0*
4,1,14,0.085355,0.385355,0.100000,0.350000,0.100000,-0.350000,0.085355,-0.385355,0.050000,-0.400000,0.000711,-0.400000,-0.034644,-0.385355,-0.085355,-0.334644,-0.100000,-0.299289,-0.100000,0.350000,-0.085355,0.385355,-0.050000,0.400000,0.050000,0.400000,0.085355,0.385355,0.085355,0.385355,$1*%
%AMFreePoly1*
4,1,14,0.085355,0.385355,0.100000,0.350000,0.100000,-0.299289,0.085355,-0.334644,0.034644,-0.385355,-0.000711,-0.400000,-0.050000,-0.400000,-0.085355,-0.385355,-0.100000,-0.350000,-0.100000,0.350000,-0.085355,0.385355,-0.050000,0.400000,0.050000,0.400000,0.085355,0.385355,0.085355,0.385355,$1*%
%AMFreePoly2*
4,1,14,0.385355,0.085355,0.400000,0.050000,0.400000,-0.050000,0.385355,-0.085355,0.350000,-0.100000,-0.350000,-0.100000,-0.385355,-0.085355,-0.400000,-0.050000,-0.400000,-0.000711,-0.385355,0.034644,-0.334644,0.085355,-0.299289,0.100000,0.350000,0.100000,0.385355,0.085355,0.385355,0.085355,$1*%
%AMFreePoly3*
4,1,14,0.385355,0.085355,0.400000,0.050000,0.400000,-0.050000,0.385355,-0.085355,0.350000,-0.100000,-0.299289,-0.100000,-0.334644,-0.085355,-0.385355,-0.034644,-0.400000,0.000711,-0.400000,0.050000,-0.385355,0.085355,-0.350000,0.100000,0.350000,0.100000,0.385355,0.085355,0.385355,0.085355,$1*%
%AMFreePoly4*
4,1,14,0.034644,0.385355,0.085355,0.334644,0.100000,0.299289,0.100000,-0.350000,0.085355,-0.385355,0.050000,-0.400000,-0.050000,-0.400000,-0.085355,-0.385355,-0.100000,-0.350000,-0.100000,0.350000,-0.085355,0.385355,-0.050000,0.400000,-0.000711,0.400000,0.034644,0.385355,0.034644,0.385355,$1*%
%AMFreePoly5*
4,1,14,0.085355,0.385355,0.100000,0.350000,0.100000,-0.350000,0.085355,-0.385355,0.050000,-0.400000,-0.050000,-0.400000,-0.085355,-0.385355,-0.100000,-0.350000,-0.100000,0.299289,-0.085355,0.334644,-0.034644,0.385355,0.000711,0.400000,0.050000,0.400000,0.085355,0.385355,0.085355,0.385355,$1*%
%AMFreePoly6*
4,1,14,0.385355,0.085355,0.400000,0.050000,0.400000,0.000711,0.385355,-0.034644,0.334644,-0.085355,0.299289,-0.100000,-0.350000,-0.100000,-0.385355,-0.085355,-0.400000,-0.050000,-0.400000,0.050000,-0.385355,0.085355,-0.350000,0.100000,0.350000,0.100000,0.385355,0.085355,0.385355,0.085355,$1*%
%AMFreePoly7*
4,1,14,0.334644,0.085355,0.385355,0.034644,0.400000,-0.000711,0.400000,-0.050000,0.385355,-0.085355,0.350000,-0.100000,-0.350000,-0.100000,-0.385355,-0.085355,-0.400000,-0.050000,-0.400000,0.050000,-0.385355,0.085355,-0.350000,0.100000,0.299289,0.100000,0.334644,0.085355,0.334644,0.085355,$1*%
G04 Aperture macros list end*
%ADD10R,0.700000X0.700000*%
%ADD11RoundRect,0.237500X-0.300000X-0.237500X0.300000X-0.237500X0.300000X0.237500X-0.300000X0.237500X0*%
%ADD12RoundRect,0.237500X-0.237500X0.250000X-0.237500X-0.250000X0.237500X-0.250000X0.237500X0.250000X0*%
%ADD13RoundRect,0.237500X0.300000X0.237500X-0.300000X0.237500X-0.300000X-0.237500X0.300000X-0.237500X0*%
%ADD14RoundRect,0.237500X0.237500X-0.250000X0.237500X0.250000X-0.237500X0.250000X-0.237500X-0.250000X0*%
%ADD15FreePoly0,90.000000*%
%ADD16RoundRect,0.050000X0.350000X-0.050000X0.350000X0.050000X-0.350000X0.050000X-0.350000X-0.050000X0*%
%ADD17FreePoly1,90.000000*%
%ADD18FreePoly2,90.000000*%
%ADD19RoundRect,0.050000X0.050000X-0.350000X0.050000X0.350000X-0.050000X0.350000X-0.050000X-0.350000X0*%
%ADD20FreePoly3,90.000000*%
%ADD21FreePoly4,90.000000*%
%ADD22FreePoly5,90.000000*%
%ADD23FreePoly6,90.000000*%
%ADD24FreePoly7,90.000000*%
%ADD25RoundRect,0.172500X0.172500X-0.172500X0.172500X0.172500X-0.172500X0.172500X-0.172500X-0.172500X0*%
G04 APERTURE END LIST*
D10*
%TO.C,U285*%
X100300000Y-106400000D03*
X100300000Y-107500000D03*
X99200000Y-107500000D03*
X99200000Y-106400000D03*
%TD*%
%TO.C,U284*%
X96399999Y-106400000D03*
X96399999Y-107500000D03*
X95299999Y-107500000D03*
X95299999Y-106400000D03*
%TD*%
%TO.C,U283*%
X92500000Y-106400000D03*
X92500000Y-107500000D03*
X91400000Y-107500000D03*
X91400000Y-106400000D03*
%TD*%
%TO.C,U282*%
X88600000Y-106400000D03*
X88600000Y-107500000D03*
X87500000Y-107500000D03*
X87500000Y-106400000D03*
%TD*%
%TO.C,U281*%
X84700000Y-106400000D03*
X84700000Y-107500000D03*
X83600000Y-107500000D03*
X83600000Y-106400000D03*
%TD*%
%TO.C,U280*%
X80800000Y-106400000D03*
X80800000Y-107500000D03*
X79700000Y-107500000D03*
X79700000Y-106400000D03*
%TD*%
%TO.C,U279*%
X76900000Y-106400000D03*
X76900000Y-107500000D03*
X75800000Y-107500000D03*
X75800000Y-106400000D03*
%TD*%
%TO.C,U278*%
X73000000Y-106400000D03*
X73000000Y-107500000D03*
X71900000Y-107500000D03*
X71900000Y-106400000D03*
%TD*%
%TO.C,U277*%
X69100000Y-106400000D03*
X69100000Y-107500000D03*
X68000000Y-107500000D03*
X68000000Y-106400000D03*
%TD*%
%TO.C,U276*%
X65200000Y-106400000D03*
X65200000Y-107500000D03*
X64100000Y-107500000D03*
X64100000Y-106400000D03*
%TD*%
%TO.C,U275*%
X61300000Y-106400000D03*
X61300000Y-107500000D03*
X60200000Y-107500000D03*
X60200000Y-106400000D03*
%TD*%
%TO.C,U274*%
X57400000Y-106400000D03*
X57400000Y-107500000D03*
X56300000Y-107500000D03*
X56300000Y-106400000D03*
%TD*%
%TO.C,U273*%
X53500000Y-106400000D03*
X53500000Y-107500000D03*
X52400000Y-107500000D03*
X52400000Y-106400000D03*
%TD*%
%TO.C,U272*%
X49600000Y-106400000D03*
X49600000Y-107500000D03*
X48500000Y-107500000D03*
X48500000Y-106400000D03*
%TD*%
%TO.C,U271*%
X45700000Y-106400000D03*
X45700000Y-107500000D03*
X44600000Y-107500000D03*
X44600000Y-106400000D03*
%TD*%
%TO.C,U270*%
X100300000Y-102500000D03*
X100300000Y-103600000D03*
X99200000Y-103600000D03*
X99200000Y-102500000D03*
%TD*%
%TO.C,U269*%
X96399999Y-102500000D03*
X96399999Y-103600000D03*
X95299999Y-103600000D03*
X95299999Y-102500000D03*
%TD*%
%TO.C,U268*%
X92500000Y-102500000D03*
X92500000Y-103600000D03*
X91400000Y-103600000D03*
X91400000Y-102500000D03*
%TD*%
%TO.C,U267*%
X88600000Y-102500000D03*
X88600000Y-103600000D03*
X87500000Y-103600000D03*
X87500000Y-102500000D03*
%TD*%
%TO.C,U266*%
X84700000Y-102500000D03*
X84700000Y-103600000D03*
X83600000Y-103600000D03*
X83600000Y-102500000D03*
%TD*%
%TO.C,U265*%
X80800000Y-102500000D03*
X80800000Y-103600000D03*
X79700000Y-103600000D03*
X79700000Y-102500000D03*
%TD*%
%TO.C,U264*%
X76900000Y-102500000D03*
X76900000Y-103600000D03*
X75800000Y-103600000D03*
X75800000Y-102500000D03*
%TD*%
%TO.C,U263*%
X73000000Y-102500000D03*
X73000000Y-103600000D03*
X71900000Y-103600000D03*
X71900000Y-102500000D03*
%TD*%
%TO.C,U262*%
X69100000Y-102500000D03*
X69100000Y-103600000D03*
X68000000Y-103600000D03*
X68000000Y-102500000D03*
%TD*%
%TO.C,U261*%
X65200000Y-102500000D03*
X65200000Y-103600000D03*
X64100000Y-103600000D03*
X64100000Y-102500000D03*
%TD*%
%TO.C,U260*%
X61300000Y-102500000D03*
X61300000Y-103600000D03*
X60200000Y-103600000D03*
X60200000Y-102500000D03*
%TD*%
%TO.C,U259*%
X57400000Y-102500000D03*
X57400000Y-103600000D03*
X56300000Y-103600000D03*
X56300000Y-102500000D03*
%TD*%
%TO.C,U258*%
X53500000Y-102500000D03*
X53500000Y-103600000D03*
X52400000Y-103600000D03*
X52400000Y-102500000D03*
%TD*%
%TO.C,U257*%
X49600000Y-102500000D03*
X49600000Y-103600000D03*
X48500000Y-103600000D03*
X48500000Y-102500000D03*
%TD*%
%TO.C,U256*%
X45700000Y-102500000D03*
X45700000Y-103600000D03*
X44600000Y-103600000D03*
X44600000Y-102500000D03*
%TD*%
%TO.C,U255*%
X100300000Y-98600000D03*
X100300000Y-99700000D03*
X99200000Y-99700000D03*
X99200000Y-98600000D03*
%TD*%
%TO.C,U254*%
X96399999Y-98600000D03*
X96399999Y-99700000D03*
X95299999Y-99700000D03*
X95299999Y-98600000D03*
%TD*%
%TO.C,U253*%
X92500000Y-98600000D03*
X92500000Y-99700000D03*
X91400000Y-99700000D03*
X91400000Y-98600000D03*
%TD*%
%TO.C,U252*%
X88600000Y-98600000D03*
X88600000Y-99700000D03*
X87500000Y-99700000D03*
X87500000Y-98600000D03*
%TD*%
%TO.C,U251*%
X84700000Y-98600000D03*
X84700000Y-99700000D03*
X83600000Y-99700000D03*
X83600000Y-98600000D03*
%TD*%
%TO.C,U250*%
X80800000Y-98600000D03*
X80800000Y-99700000D03*
X79700000Y-99700000D03*
X79700000Y-98600000D03*
%TD*%
%TO.C,U249*%
X76900000Y-98600000D03*
X76900000Y-99700000D03*
X75800000Y-99700000D03*
X75800000Y-98600000D03*
%TD*%
%TO.C,U248*%
X73000000Y-98600000D03*
X73000000Y-99700000D03*
X71900000Y-99700000D03*
X71900000Y-98600000D03*
%TD*%
%TO.C,U247*%
X69100000Y-98600000D03*
X69100000Y-99700000D03*
X68000000Y-99700000D03*
X68000000Y-98600000D03*
%TD*%
%TO.C,U246*%
X65200000Y-98600000D03*
X65200000Y-99700000D03*
X64100000Y-99700000D03*
X64100000Y-98600000D03*
%TD*%
%TO.C,U245*%
X61300000Y-98600000D03*
X61300000Y-99700000D03*
X60200000Y-99700000D03*
X60200000Y-98600000D03*
%TD*%
%TO.C,U244*%
X57400000Y-98600000D03*
X57400000Y-99700000D03*
X56300000Y-99700000D03*
X56300000Y-98600000D03*
%TD*%
%TO.C,U243*%
X53500000Y-98600000D03*
X53500000Y-99700000D03*
X52400000Y-99700000D03*
X52400000Y-98600000D03*
%TD*%
%TO.C,U242*%
X49600000Y-98600000D03*
X49600000Y-99700000D03*
X48500000Y-99700000D03*
X48500000Y-98600000D03*
%TD*%
%TO.C,U241*%
X45700000Y-98600000D03*
X45700000Y-99700000D03*
X44600000Y-99700000D03*
X44600000Y-98600000D03*
%TD*%
%TO.C,U240*%
X100300000Y-94700000D03*
X100300000Y-95800000D03*
X99200000Y-95800000D03*
X99200000Y-94700000D03*
%TD*%
%TO.C,U239*%
X96399999Y-94700000D03*
X96399999Y-95800000D03*
X95299999Y-95800000D03*
X95299999Y-94700000D03*
%TD*%
%TO.C,U238*%
X92500000Y-94700000D03*
X92500000Y-95800000D03*
X91400000Y-95800000D03*
X91400000Y-94700000D03*
%TD*%
%TO.C,U237*%
X88600000Y-94700000D03*
X88600000Y-95800000D03*
X87500000Y-95800000D03*
X87500000Y-94700000D03*
%TD*%
%TO.C,U236*%
X84700000Y-94700000D03*
X84700000Y-95800000D03*
X83600000Y-95800000D03*
X83600000Y-94700000D03*
%TD*%
%TO.C,U235*%
X80800000Y-94700000D03*
X80800000Y-95800000D03*
X79700000Y-95800000D03*
X79700000Y-94700000D03*
%TD*%
%TO.C,U234*%
X76900000Y-94700000D03*
X76900000Y-95800000D03*
X75800000Y-95800000D03*
X75800000Y-94700000D03*
%TD*%
%TO.C,U233*%
X73000000Y-94700000D03*
X73000000Y-95800000D03*
X71900000Y-95800000D03*
X71900000Y-94700000D03*
%TD*%
%TO.C,U232*%
X69100000Y-94700000D03*
X69100000Y-95800000D03*
X68000000Y-95800000D03*
X68000000Y-94700000D03*
%TD*%
%TO.C,U231*%
X65200000Y-94700000D03*
X65200000Y-95800000D03*
X64100000Y-95800000D03*
X64100000Y-94700000D03*
%TD*%
%TO.C,U230*%
X61300000Y-94700000D03*
X61300000Y-95800000D03*
X60200000Y-95800000D03*
X60200000Y-94700000D03*
%TD*%
%TO.C,U229*%
X57400000Y-94700000D03*
X57400000Y-95800000D03*
X56300000Y-95800000D03*
X56300000Y-94700000D03*
%TD*%
%TO.C,U228*%
X53500000Y-94700000D03*
X53500000Y-95800000D03*
X52400000Y-95800000D03*
X52400000Y-94700000D03*
%TD*%
%TO.C,U227*%
X49600000Y-94700000D03*
X49600000Y-95800000D03*
X48500000Y-95800000D03*
X48500000Y-94700000D03*
%TD*%
%TO.C,U226*%
X45700000Y-94700000D03*
X45700000Y-95800000D03*
X44600000Y-95800000D03*
X44600000Y-94700000D03*
%TD*%
%TO.C,U225*%
X100300000Y-90800000D03*
X100300000Y-91900000D03*
X99200000Y-91900000D03*
X99200000Y-90800000D03*
%TD*%
%TO.C,U224*%
X96399999Y-90800000D03*
X96399999Y-91900000D03*
X95299999Y-91900000D03*
X95299999Y-90800000D03*
%TD*%
%TO.C,U223*%
X92500000Y-90800000D03*
X92500000Y-91900000D03*
X91400000Y-91900000D03*
X91400000Y-90800000D03*
%TD*%
%TO.C,U222*%
X88600000Y-90800000D03*
X88600000Y-91900000D03*
X87500000Y-91900000D03*
X87500000Y-90800000D03*
%TD*%
%TO.C,U221*%
X84700000Y-90800000D03*
X84700000Y-91900000D03*
X83600000Y-91900000D03*
X83600000Y-90800000D03*
%TD*%
%TO.C,U220*%
X80800000Y-90800000D03*
X80800000Y-91900000D03*
X79700000Y-91900000D03*
X79700000Y-90800000D03*
%TD*%
%TO.C,U219*%
X76900000Y-90800000D03*
X76900000Y-91900000D03*
X75800000Y-91900000D03*
X75800000Y-90800000D03*
%TD*%
%TO.C,U218*%
X73000000Y-90800000D03*
X73000000Y-91900000D03*
X71900000Y-91900000D03*
X71900000Y-90800000D03*
%TD*%
%TO.C,U217*%
X69100000Y-90800000D03*
X69100000Y-91900000D03*
X68000000Y-91900000D03*
X68000000Y-90800000D03*
%TD*%
%TO.C,U216*%
X65200000Y-90800000D03*
X65200000Y-91900000D03*
X64100000Y-91900000D03*
X64100000Y-90800000D03*
%TD*%
%TO.C,U215*%
X61300000Y-90800000D03*
X61300000Y-91900000D03*
X60200000Y-91900000D03*
X60200000Y-90800000D03*
%TD*%
%TO.C,U214*%
X57400000Y-90800000D03*
X57400000Y-91900000D03*
X56300000Y-91900000D03*
X56300000Y-90800000D03*
%TD*%
%TO.C,U213*%
X53500000Y-90800000D03*
X53500000Y-91900000D03*
X52400000Y-91900000D03*
X52400000Y-90800000D03*
%TD*%
%TO.C,U212*%
X49600000Y-90800000D03*
X49600000Y-91900000D03*
X48500000Y-91900000D03*
X48500000Y-90800000D03*
%TD*%
%TO.C,U211*%
X45700000Y-90800000D03*
X45700000Y-91900000D03*
X44600000Y-91900000D03*
X44600000Y-90800000D03*
%TD*%
%TO.C,U210*%
X100300000Y-86900000D03*
X100300000Y-88000000D03*
X99200000Y-88000000D03*
X99200000Y-86900000D03*
%TD*%
%TO.C,U209*%
X96399999Y-86900000D03*
X96399999Y-88000000D03*
X95299999Y-88000000D03*
X95299999Y-86900000D03*
%TD*%
%TO.C,U208*%
X92500000Y-86900000D03*
X92500000Y-88000000D03*
X91400000Y-88000000D03*
X91400000Y-86900000D03*
%TD*%
%TO.C,U207*%
X88600000Y-86900000D03*
X88600000Y-88000000D03*
X87500000Y-88000000D03*
X87500000Y-86900000D03*
%TD*%
%TO.C,U206*%
X84700000Y-86900000D03*
X84700000Y-88000000D03*
X83600000Y-88000000D03*
X83600000Y-86900000D03*
%TD*%
%TO.C,U205*%
X80800000Y-86900000D03*
X80800000Y-88000000D03*
X79700000Y-88000000D03*
X79700000Y-86900000D03*
%TD*%
%TO.C,U204*%
X76900000Y-86900000D03*
X76900000Y-88000000D03*
X75800000Y-88000000D03*
X75800000Y-86900000D03*
%TD*%
%TO.C,U203*%
X73000000Y-86900000D03*
X73000000Y-88000000D03*
X71900000Y-88000000D03*
X71900000Y-86900000D03*
%TD*%
%TO.C,U202*%
X69100000Y-86900000D03*
X69100000Y-88000000D03*
X68000000Y-88000000D03*
X68000000Y-86900000D03*
%TD*%
%TO.C,U201*%
X65200000Y-86900000D03*
X65200000Y-88000000D03*
X64100000Y-88000000D03*
X64100000Y-86900000D03*
%TD*%
%TO.C,U200*%
X61300000Y-86900000D03*
X61300000Y-88000000D03*
X60200000Y-88000000D03*
X60200000Y-86900000D03*
%TD*%
%TO.C,U199*%
X57400000Y-86900000D03*
X57400000Y-88000000D03*
X56300000Y-88000000D03*
X56300000Y-86900000D03*
%TD*%
%TO.C,U198*%
X53500000Y-86900000D03*
X53500000Y-88000000D03*
X52400000Y-88000000D03*
X52400000Y-86900000D03*
%TD*%
%TO.C,U197*%
X49600000Y-86900000D03*
X49600000Y-88000000D03*
X48500000Y-88000000D03*
X48500000Y-86900000D03*
%TD*%
%TO.C,U196*%
X45700000Y-86900000D03*
X45700000Y-88000000D03*
X44600000Y-88000000D03*
X44600000Y-86900000D03*
%TD*%
%TO.C,U195*%
X100300000Y-83000000D03*
X100300000Y-84100000D03*
X99200000Y-84100000D03*
X99200000Y-83000000D03*
%TD*%
%TO.C,U194*%
X96399999Y-83000000D03*
X96399999Y-84100000D03*
X95299999Y-84100000D03*
X95299999Y-83000000D03*
%TD*%
%TO.C,U193*%
X92500000Y-83000000D03*
X92500000Y-84100000D03*
X91400000Y-84100000D03*
X91400000Y-83000000D03*
%TD*%
%TO.C,U192*%
X88600000Y-83000000D03*
X88600000Y-84100000D03*
X87500000Y-84100000D03*
X87500000Y-83000000D03*
%TD*%
%TO.C,U191*%
X84700000Y-83000000D03*
X84700000Y-84100000D03*
X83600000Y-84100000D03*
X83600000Y-83000000D03*
%TD*%
%TO.C,U190*%
X80800000Y-83000000D03*
X80800000Y-84100000D03*
X79700000Y-84100000D03*
X79700000Y-83000000D03*
%TD*%
%TO.C,U189*%
X76900000Y-83000000D03*
X76900000Y-84100000D03*
X75800000Y-84100000D03*
X75800000Y-83000000D03*
%TD*%
%TO.C,U188*%
X73000000Y-83000000D03*
X73000000Y-84100000D03*
X71900000Y-84100000D03*
X71900000Y-83000000D03*
%TD*%
%TO.C,U187*%
X69100000Y-83000000D03*
X69100000Y-84100000D03*
X68000000Y-84100000D03*
X68000000Y-83000000D03*
%TD*%
%TO.C,U186*%
X65200000Y-83000000D03*
X65200000Y-84100000D03*
X64100000Y-84100000D03*
X64100000Y-83000000D03*
%TD*%
%TO.C,U185*%
X61300000Y-83000000D03*
X61300000Y-84100000D03*
X60200000Y-84100000D03*
X60200000Y-83000000D03*
%TD*%
%TO.C,U184*%
X57400000Y-83000000D03*
X57400000Y-84100000D03*
X56300000Y-84100000D03*
X56300000Y-83000000D03*
%TD*%
%TO.C,U183*%
X53500000Y-83000000D03*
X53500000Y-84100000D03*
X52400000Y-84100000D03*
X52400000Y-83000000D03*
%TD*%
%TO.C,U182*%
X49600000Y-83000000D03*
X49600000Y-84100000D03*
X48500000Y-84100000D03*
X48500000Y-83000000D03*
%TD*%
%TO.C,U181*%
X45700000Y-83000000D03*
X45700000Y-84100000D03*
X44600000Y-84100000D03*
X44600000Y-83000000D03*
%TD*%
%TO.C,U180*%
X100300000Y-79100000D03*
X100300000Y-80200000D03*
X99200000Y-80200000D03*
X99200000Y-79100000D03*
%TD*%
%TO.C,U179*%
X96399999Y-79100000D03*
X96399999Y-80200000D03*
X95299999Y-80200000D03*
X95299999Y-79100000D03*
%TD*%
%TO.C,U178*%
X92500000Y-79100000D03*
X92500000Y-80200000D03*
X91400000Y-80200000D03*
X91400000Y-79100000D03*
%TD*%
%TO.C,U177*%
X88600000Y-79100000D03*
X88600000Y-80200000D03*
X87500000Y-80200000D03*
X87500000Y-79100000D03*
%TD*%
%TO.C,U176*%
X84700000Y-79100000D03*
X84700000Y-80200000D03*
X83600000Y-80200000D03*
X83600000Y-79100000D03*
%TD*%
%TO.C,U175*%
X80800000Y-79100000D03*
X80800000Y-80200000D03*
X79700000Y-80200000D03*
X79700000Y-79100000D03*
%TD*%
%TO.C,U174*%
X76900000Y-79100000D03*
X76900000Y-80200000D03*
X75800000Y-80200000D03*
X75800000Y-79100000D03*
%TD*%
%TO.C,U173*%
X73000000Y-79100000D03*
X73000000Y-80200000D03*
X71900000Y-80200000D03*
X71900000Y-79100000D03*
%TD*%
%TO.C,U172*%
X69100000Y-79100000D03*
X69100000Y-80200000D03*
X68000000Y-80200000D03*
X68000000Y-79100000D03*
%TD*%
%TO.C,U171*%
X65200000Y-79100000D03*
X65200000Y-80200000D03*
X64100000Y-80200000D03*
X64100000Y-79100000D03*
%TD*%
%TO.C,U170*%
X61300000Y-79100000D03*
X61300000Y-80200000D03*
X60200000Y-80200000D03*
X60200000Y-79100000D03*
%TD*%
%TO.C,U169*%
X57400000Y-79100000D03*
X57400000Y-80200000D03*
X56300000Y-80200000D03*
X56300000Y-79100000D03*
%TD*%
%TO.C,U168*%
X53500000Y-79100000D03*
X53500000Y-80200000D03*
X52400000Y-80200000D03*
X52400000Y-79100000D03*
%TD*%
%TO.C,U167*%
X49600000Y-79100000D03*
X49600000Y-80200000D03*
X48500000Y-80200000D03*
X48500000Y-79100000D03*
%TD*%
%TO.C,U166*%
X45700000Y-79100000D03*
X45700000Y-80200000D03*
X44600000Y-80200000D03*
X44600000Y-79100000D03*
%TD*%
%TO.C,U165*%
X100300000Y-75200000D03*
X100300000Y-76300000D03*
X99200000Y-76300000D03*
X99200000Y-75200000D03*
%TD*%
%TO.C,U164*%
X96399999Y-75200000D03*
X96399999Y-76300000D03*
X95299999Y-76300000D03*
X95299999Y-75200000D03*
%TD*%
%TO.C,U163*%
X92500000Y-75200000D03*
X92500000Y-76300000D03*
X91400000Y-76300000D03*
X91400000Y-75200000D03*
%TD*%
%TO.C,U162*%
X88600000Y-75200000D03*
X88600000Y-76300000D03*
X87500000Y-76300000D03*
X87500000Y-75200000D03*
%TD*%
%TO.C,U161*%
X84700000Y-75200000D03*
X84700000Y-76300000D03*
X83600000Y-76300000D03*
X83600000Y-75200000D03*
%TD*%
%TO.C,U160*%
X80800000Y-75200000D03*
X80800000Y-76300000D03*
X79700000Y-76300000D03*
X79700000Y-75200000D03*
%TD*%
%TO.C,U159*%
X76900000Y-75200000D03*
X76900000Y-76300000D03*
X75800000Y-76300000D03*
X75800000Y-75200000D03*
%TD*%
%TO.C,U158*%
X73000000Y-75200000D03*
X73000000Y-76300000D03*
X71900000Y-76300000D03*
X71900000Y-75200000D03*
%TD*%
%TO.C,U157*%
X69100000Y-75200000D03*
X69100000Y-76300000D03*
X68000000Y-76300000D03*
X68000000Y-75200000D03*
%TD*%
%TO.C,U156*%
X65200000Y-75200000D03*
X65200000Y-76300000D03*
X64100000Y-76300000D03*
X64100000Y-75200000D03*
%TD*%
%TO.C,U155*%
X61300000Y-75200000D03*
X61300000Y-76300000D03*
X60200000Y-76300000D03*
X60200000Y-75200000D03*
%TD*%
%TO.C,U154*%
X57400000Y-75200000D03*
X57400000Y-76300000D03*
X56300000Y-76300000D03*
X56300000Y-75200000D03*
%TD*%
%TO.C,U153*%
X53500000Y-75200000D03*
X53500000Y-76300000D03*
X52400000Y-76300000D03*
X52400000Y-75200000D03*
%TD*%
%TO.C,U152*%
X49600000Y-75200000D03*
X49600000Y-76300000D03*
X48500000Y-76300000D03*
X48500000Y-75200000D03*
%TD*%
%TO.C,U151*%
X45700000Y-75200000D03*
X45700000Y-76300000D03*
X44600000Y-76300000D03*
X44600000Y-75200000D03*
%TD*%
%TO.C,U150*%
X100300000Y-71300000D03*
X100300000Y-72400000D03*
X99200000Y-72400000D03*
X99200000Y-71300000D03*
%TD*%
%TO.C,U149*%
X96400000Y-71300000D03*
X96400000Y-72400000D03*
X95300000Y-72400000D03*
X95300000Y-71300000D03*
%TD*%
%TO.C,U148*%
X92500000Y-71300000D03*
X92500000Y-72400000D03*
X91400000Y-72400000D03*
X91400000Y-71300000D03*
%TD*%
%TO.C,U147*%
X88600000Y-71300000D03*
X88600000Y-72400000D03*
X87500000Y-72400000D03*
X87500000Y-71300000D03*
%TD*%
%TO.C,U146*%
X84700000Y-71300000D03*
X84700000Y-72400000D03*
X83600000Y-72400000D03*
X83600000Y-71300000D03*
%TD*%
%TO.C,U145*%
X80800000Y-71300000D03*
X80800000Y-72400000D03*
X79700000Y-72400000D03*
X79700000Y-71300000D03*
%TD*%
%TO.C,U144*%
X76900000Y-71300000D03*
X76900000Y-72400000D03*
X75800000Y-72400000D03*
X75800000Y-71300000D03*
%TD*%
%TO.C,U143*%
X73000000Y-71300000D03*
X73000000Y-72400000D03*
X71900000Y-72400000D03*
X71900000Y-71300000D03*
%TD*%
%TO.C,U142*%
X69100000Y-71300000D03*
X69100000Y-72400000D03*
X68000000Y-72400000D03*
X68000000Y-71300000D03*
%TD*%
%TO.C,U141*%
X65200000Y-71300000D03*
X65200000Y-72400000D03*
X64100000Y-72400000D03*
X64100000Y-71300000D03*
%TD*%
%TO.C,U140*%
X61300000Y-71300000D03*
X61300000Y-72400000D03*
X60200000Y-72400000D03*
X60200000Y-71300000D03*
%TD*%
%TO.C,U139*%
X57400000Y-71300000D03*
X57400000Y-72400000D03*
X56300000Y-72400000D03*
X56300000Y-71300000D03*
%TD*%
%TO.C,U138*%
X53500000Y-71300000D03*
X53500000Y-72400000D03*
X52400000Y-72400000D03*
X52400000Y-71300000D03*
%TD*%
%TO.C,U137*%
X49600000Y-71300000D03*
X49600000Y-72400000D03*
X48500000Y-72400000D03*
X48500000Y-71300000D03*
%TD*%
%TO.C,U136*%
X45700000Y-71300000D03*
X45700000Y-72400000D03*
X44600000Y-72400000D03*
X44600000Y-71300000D03*
%TD*%
%TO.C,U135*%
X100300000Y-67400000D03*
X100300000Y-68500000D03*
X99200000Y-68500000D03*
X99200000Y-67400000D03*
%TD*%
%TO.C,U134*%
X96400000Y-67400000D03*
X96400000Y-68500000D03*
X95300000Y-68500000D03*
X95300000Y-67400000D03*
%TD*%
%TO.C,U133*%
X92500000Y-67400000D03*
X92500000Y-68500000D03*
X91400000Y-68500000D03*
X91400000Y-67400000D03*
%TD*%
%TO.C,U132*%
X88600000Y-67400000D03*
X88600000Y-68500000D03*
X87500000Y-68500000D03*
X87500000Y-67400000D03*
%TD*%
%TO.C,U131*%
X84700000Y-67400000D03*
X84700000Y-68500000D03*
X83600000Y-68500000D03*
X83600000Y-67400000D03*
%TD*%
%TO.C,U130*%
X80800000Y-67400000D03*
X80800000Y-68500000D03*
X79700000Y-68500000D03*
X79700000Y-67400000D03*
%TD*%
%TO.C,U129*%
X76900000Y-67400000D03*
X76900000Y-68500000D03*
X75800000Y-68500000D03*
X75800000Y-67400000D03*
%TD*%
%TO.C,U128*%
X73000000Y-67400000D03*
X73000000Y-68500000D03*
X71900000Y-68500000D03*
X71900000Y-67400000D03*
%TD*%
%TO.C,U127*%
X69100000Y-67400000D03*
X69100000Y-68500000D03*
X68000000Y-68500000D03*
X68000000Y-67400000D03*
%TD*%
%TO.C,U126*%
X65200000Y-67400000D03*
X65200000Y-68500000D03*
X64100000Y-68500000D03*
X64100000Y-67400000D03*
%TD*%
%TO.C,U125*%
X61300000Y-67400000D03*
X61300000Y-68500000D03*
X60200000Y-68500000D03*
X60200000Y-67400000D03*
%TD*%
%TO.C,U124*%
X57400000Y-67400000D03*
X57400000Y-68500000D03*
X56300000Y-68500000D03*
X56300000Y-67400000D03*
%TD*%
%TO.C,U123*%
X53500000Y-67400000D03*
X53500000Y-68500000D03*
X52400000Y-68500000D03*
X52400000Y-67400000D03*
%TD*%
%TO.C,U122*%
X49600000Y-67400000D03*
X49600000Y-68500000D03*
X48500000Y-68500000D03*
X48500000Y-67400000D03*
%TD*%
%TO.C,U121*%
X45700000Y-67400000D03*
X45700000Y-68500000D03*
X44600000Y-68500000D03*
X44600000Y-67400000D03*
%TD*%
%TO.C,U120*%
X100300000Y-63500000D03*
X100300000Y-64600000D03*
X99200000Y-64600000D03*
X99200000Y-63500000D03*
%TD*%
%TO.C,U119*%
X96400000Y-63500000D03*
X96400000Y-64600000D03*
X95300000Y-64600000D03*
X95300000Y-63500000D03*
%TD*%
%TO.C,U118*%
X92500000Y-63500000D03*
X92500000Y-64600000D03*
X91400000Y-64600000D03*
X91400000Y-63500000D03*
%TD*%
%TO.C,U117*%
X88600000Y-63500000D03*
X88600000Y-64600000D03*
X87500000Y-64600000D03*
X87500000Y-63500000D03*
%TD*%
%TO.C,U116*%
X84700000Y-63500000D03*
X84700000Y-64600000D03*
X83600000Y-64600000D03*
X83600000Y-63500000D03*
%TD*%
%TO.C,U115*%
X80800000Y-63500000D03*
X80800000Y-64600000D03*
X79700000Y-64600000D03*
X79700000Y-63500000D03*
%TD*%
%TO.C,U114*%
X76900000Y-63500000D03*
X76900000Y-64600000D03*
X75800000Y-64600000D03*
X75800000Y-63500000D03*
%TD*%
%TO.C,U113*%
X73000000Y-63500000D03*
X73000000Y-64600000D03*
X71900000Y-64600000D03*
X71900000Y-63500000D03*
%TD*%
%TO.C,U112*%
X69100000Y-63500000D03*
X69100000Y-64600000D03*
X68000000Y-64600000D03*
X68000000Y-63500000D03*
%TD*%
%TO.C,U111*%
X65200000Y-63500000D03*
X65200000Y-64600000D03*
X64100000Y-64600000D03*
X64100000Y-63500000D03*
%TD*%
%TO.C,U110*%
X61300000Y-63500000D03*
X61300000Y-64600000D03*
X60200000Y-64600000D03*
X60200000Y-63500000D03*
%TD*%
%TO.C,U109*%
X57400000Y-63500000D03*
X57400000Y-64600000D03*
X56300000Y-64600000D03*
X56300000Y-63500000D03*
%TD*%
%TO.C,U108*%
X53500000Y-63500000D03*
X53500000Y-64600000D03*
X52400000Y-64600000D03*
X52400000Y-63500000D03*
%TD*%
%TO.C,U107*%
X49600000Y-63500000D03*
X49600000Y-64600000D03*
X48500000Y-64600000D03*
X48500000Y-63500000D03*
%TD*%
%TO.C,U106*%
X45700000Y-63500000D03*
X45700000Y-64600000D03*
X44600000Y-64600000D03*
X44600000Y-63500000D03*
%TD*%
%TO.C,U105*%
X100300000Y-59600000D03*
X100300000Y-60700000D03*
X99200000Y-60700000D03*
X99200000Y-59600000D03*
%TD*%
%TO.C,U104*%
X96400000Y-59600000D03*
X96400000Y-60700000D03*
X95300000Y-60700000D03*
X95300000Y-59600000D03*
%TD*%
%TO.C,U103*%
X92500000Y-59600000D03*
X92500000Y-60700000D03*
X91400000Y-60700000D03*
X91400000Y-59600000D03*
%TD*%
%TO.C,U102*%
X88600000Y-59600000D03*
X88600000Y-60700000D03*
X87500000Y-60700000D03*
X87500000Y-59600000D03*
%TD*%
%TO.C,U101*%
X84700000Y-59600000D03*
X84700000Y-60700000D03*
X83600000Y-60700000D03*
X83600000Y-59600000D03*
%TD*%
%TO.C,U100*%
X80800000Y-59600000D03*
X80800000Y-60700000D03*
X79700000Y-60700000D03*
X79700000Y-59600000D03*
%TD*%
%TO.C,U99*%
X76900000Y-59600000D03*
X76900000Y-60700000D03*
X75800000Y-60700000D03*
X75800000Y-59600000D03*
%TD*%
%TO.C,U98*%
X73000000Y-59600000D03*
X73000000Y-60700000D03*
X71900000Y-60700000D03*
X71900000Y-59600000D03*
%TD*%
%TO.C,U97*%
X69100000Y-59600000D03*
X69100000Y-60700000D03*
X68000000Y-60700000D03*
X68000000Y-59600000D03*
%TD*%
%TO.C,U96*%
X65200000Y-59600000D03*
X65200000Y-60700000D03*
X64100000Y-60700000D03*
X64100000Y-59600000D03*
%TD*%
%TO.C,U95*%
X61300000Y-59600000D03*
X61300000Y-60700000D03*
X60200000Y-60700000D03*
X60200000Y-59600000D03*
%TD*%
%TO.C,U94*%
X57400000Y-59600000D03*
X57400000Y-60700000D03*
X56300000Y-60700000D03*
X56300000Y-59600000D03*
%TD*%
%TO.C,U93*%
X53500000Y-59600000D03*
X53500000Y-60700000D03*
X52400000Y-60700000D03*
X52400000Y-59600000D03*
%TD*%
%TO.C,U92*%
X49600000Y-59600000D03*
X49600000Y-60700000D03*
X48500000Y-60700000D03*
X48500000Y-59600000D03*
%TD*%
%TO.C,U91*%
X45700000Y-59600000D03*
X45700000Y-60700000D03*
X44600000Y-60700000D03*
X44600000Y-59600000D03*
%TD*%
%TO.C,U90*%
X100300000Y-55700000D03*
X100300000Y-56800000D03*
X99200000Y-56800000D03*
X99200000Y-55700000D03*
%TD*%
%TO.C,U89*%
X96400000Y-55700000D03*
X96400000Y-56800000D03*
X95300000Y-56800000D03*
X95300000Y-55700000D03*
%TD*%
%TO.C,U88*%
X92500000Y-55700000D03*
X92500000Y-56800000D03*
X91400000Y-56800000D03*
X91400000Y-55700000D03*
%TD*%
%TO.C,U87*%
X88600000Y-55700000D03*
X88600000Y-56800000D03*
X87500000Y-56800000D03*
X87500000Y-55700000D03*
%TD*%
%TO.C,U86*%
X84700000Y-55700000D03*
X84700000Y-56800000D03*
X83600000Y-56800000D03*
X83600000Y-55700000D03*
%TD*%
%TO.C,U85*%
X80800000Y-55700000D03*
X80800000Y-56800000D03*
X79700000Y-56800000D03*
X79700000Y-55700000D03*
%TD*%
%TO.C,U84*%
X76900000Y-55700000D03*
X76900000Y-56800000D03*
X75800000Y-56800000D03*
X75800000Y-55700000D03*
%TD*%
%TO.C,U83*%
X73000000Y-55700000D03*
X73000000Y-56800000D03*
X71900000Y-56800000D03*
X71900000Y-55700000D03*
%TD*%
%TO.C,U82*%
X69100000Y-55700000D03*
X69100000Y-56800000D03*
X68000000Y-56800000D03*
X68000000Y-55700000D03*
%TD*%
%TO.C,U81*%
X65200000Y-55700000D03*
X65200000Y-56800000D03*
X64100000Y-56800000D03*
X64100000Y-55700000D03*
%TD*%
%TO.C,U80*%
X61300000Y-55700000D03*
X61300000Y-56800000D03*
X60200000Y-56800000D03*
X60200000Y-55700000D03*
%TD*%
%TO.C,U79*%
X57400000Y-55700000D03*
X57400000Y-56800000D03*
X56300000Y-56800000D03*
X56300000Y-55700000D03*
%TD*%
%TO.C,U78*%
X53500000Y-55700000D03*
X53500000Y-56800000D03*
X52400000Y-56800000D03*
X52400000Y-55700000D03*
%TD*%
%TO.C,U77*%
X49600000Y-55700000D03*
X49600000Y-56800000D03*
X48500000Y-56800000D03*
X48500000Y-55700000D03*
%TD*%
%TO.C,U76*%
X45700000Y-55700000D03*
X45700000Y-56800000D03*
X44600000Y-56800000D03*
X44600000Y-55700000D03*
%TD*%
%TO.C,U75*%
X100300000Y-51800000D03*
X100300000Y-52900000D03*
X99200000Y-52900000D03*
X99200000Y-51800000D03*
%TD*%
%TO.C,U74*%
X96400000Y-51800000D03*
X96400000Y-52900000D03*
X95300000Y-52900000D03*
X95300000Y-51800000D03*
%TD*%
%TO.C,U73*%
X92500000Y-51800000D03*
X92500000Y-52900000D03*
X91400000Y-52900000D03*
X91400000Y-51800000D03*
%TD*%
%TO.C,U72*%
X88600000Y-51800000D03*
X88600000Y-52900000D03*
X87500000Y-52900000D03*
X87500000Y-51800000D03*
%TD*%
%TO.C,U71*%
X84700000Y-51800000D03*
X84700000Y-52900000D03*
X83600000Y-52900000D03*
X83600000Y-51800000D03*
%TD*%
%TO.C,U70*%
X80800000Y-51800000D03*
X80800000Y-52900000D03*
X79700000Y-52900000D03*
X79700000Y-51800000D03*
%TD*%
%TO.C,U69*%
X76900000Y-51800000D03*
X76900000Y-52900000D03*
X75800000Y-52900000D03*
X75800000Y-51800000D03*
%TD*%
%TO.C,U68*%
X73000000Y-51800000D03*
X73000000Y-52900000D03*
X71900000Y-52900000D03*
X71900000Y-51800000D03*
%TD*%
%TO.C,U67*%
X69100000Y-51800000D03*
X69100000Y-52900000D03*
X68000000Y-52900000D03*
X68000000Y-51800000D03*
%TD*%
%TO.C,U66*%
X65200000Y-51800000D03*
X65200000Y-52900000D03*
X64100000Y-52900000D03*
X64100000Y-51800000D03*
%TD*%
%TO.C,U65*%
X61300000Y-51800000D03*
X61300000Y-52900000D03*
X60200000Y-52900000D03*
X60200000Y-51800000D03*
%TD*%
%TO.C,U64*%
X57400000Y-51800000D03*
X57400000Y-52900000D03*
X56300000Y-52900000D03*
X56300000Y-51800000D03*
%TD*%
%TO.C,U63*%
X53500000Y-51800000D03*
X53500000Y-52900000D03*
X52400000Y-52900000D03*
X52400000Y-51800000D03*
%TD*%
%TO.C,U62*%
X49600000Y-51800000D03*
X49600000Y-52900000D03*
X48500000Y-52900000D03*
X48500000Y-51800000D03*
%TD*%
%TO.C,U61*%
X45700000Y-51800000D03*
X45700000Y-52900000D03*
X44600000Y-52900000D03*
X44600000Y-51800000D03*
%TD*%
%TO.C,U60*%
X100300000Y-47900000D03*
X100300000Y-49000000D03*
X99200000Y-49000000D03*
X99200000Y-47900000D03*
%TD*%
%TO.C,U59*%
X96400000Y-47900000D03*
X96400000Y-49000000D03*
X95300000Y-49000000D03*
X95300000Y-47900000D03*
%TD*%
%TO.C,U58*%
X92500000Y-47900000D03*
X92500000Y-49000000D03*
X91400000Y-49000000D03*
X91400000Y-47900000D03*
%TD*%
%TO.C,U57*%
X88600000Y-47900000D03*
X88600000Y-49000000D03*
X87500000Y-49000000D03*
X87500000Y-47900000D03*
%TD*%
%TO.C,U56*%
X84700000Y-47900000D03*
X84700000Y-49000000D03*
X83600000Y-49000000D03*
X83600000Y-47900000D03*
%TD*%
%TO.C,U55*%
X80800000Y-47900000D03*
X80800000Y-49000000D03*
X79700000Y-49000000D03*
X79700000Y-47900000D03*
%TD*%
%TO.C,U54*%
X76900000Y-47900000D03*
X76900000Y-49000000D03*
X75800000Y-49000000D03*
X75800000Y-47900000D03*
%TD*%
%TO.C,U53*%
X73000000Y-47900000D03*
X73000000Y-49000000D03*
X71900000Y-49000000D03*
X71900000Y-47900000D03*
%TD*%
%TO.C,U52*%
X69100000Y-47900000D03*
X69100000Y-49000000D03*
X68000000Y-49000000D03*
X68000000Y-47900000D03*
%TD*%
%TO.C,U51*%
X65200000Y-47900000D03*
X65200000Y-49000000D03*
X64100000Y-49000000D03*
X64100000Y-47900000D03*
%TD*%
%TO.C,U50*%
X61300000Y-47900000D03*
X61300000Y-49000000D03*
X60200000Y-49000000D03*
X60200000Y-47900000D03*
%TD*%
%TO.C,U49*%
X57400000Y-47900000D03*
X57400000Y-49000000D03*
X56300000Y-49000000D03*
X56300000Y-47900000D03*
%TD*%
%TO.C,U48*%
X53500000Y-47900000D03*
X53500000Y-49000000D03*
X52400000Y-49000000D03*
X52400000Y-47900000D03*
%TD*%
%TO.C,U47*%
X49600000Y-47900000D03*
X49600000Y-49000000D03*
X48500000Y-49000000D03*
X48500000Y-47900000D03*
%TD*%
%TO.C,U46*%
X45700000Y-47900000D03*
X45700000Y-49000000D03*
X44600000Y-49000000D03*
X44600000Y-47900000D03*
%TD*%
%TO.C,U45*%
X100300000Y-44000000D03*
X100300000Y-45100000D03*
X99200000Y-45100000D03*
X99200000Y-44000000D03*
%TD*%
%TO.C,U44*%
X96400000Y-44000000D03*
X96400000Y-45100000D03*
X95300000Y-45100000D03*
X95300000Y-44000000D03*
%TD*%
%TO.C,U43*%
X92500000Y-44000000D03*
X92500000Y-45100000D03*
X91400000Y-45100000D03*
X91400000Y-44000000D03*
%TD*%
%TO.C,U42*%
X88600000Y-44000000D03*
X88600000Y-45100000D03*
X87500000Y-45100000D03*
X87500000Y-44000000D03*
%TD*%
%TO.C,U41*%
X84700000Y-44000000D03*
X84700000Y-45100000D03*
X83600000Y-45100000D03*
X83600000Y-44000000D03*
%TD*%
%TO.C,U40*%
X80800000Y-44000000D03*
X80800000Y-45100000D03*
X79700000Y-45100000D03*
X79700000Y-44000000D03*
%TD*%
%TO.C,U39*%
X76900000Y-44000000D03*
X76900000Y-45100000D03*
X75800000Y-45100000D03*
X75800000Y-44000000D03*
%TD*%
%TO.C,U38*%
X73000000Y-44000000D03*
X73000000Y-45100000D03*
X71900000Y-45100000D03*
X71900000Y-44000000D03*
%TD*%
%TO.C,U37*%
X69100000Y-44000000D03*
X69100000Y-45100000D03*
X68000000Y-45100000D03*
X68000000Y-44000000D03*
%TD*%
%TO.C,U36*%
X65200000Y-44000000D03*
X65200000Y-45100000D03*
X64100000Y-45100000D03*
X64100000Y-44000000D03*
%TD*%
%TO.C,U35*%
X61300000Y-44000000D03*
X61300000Y-45100000D03*
X60200000Y-45100000D03*
X60200000Y-44000000D03*
%TD*%
%TO.C,U34*%
X57400000Y-44000000D03*
X57400000Y-45100000D03*
X56300000Y-45100000D03*
X56300000Y-44000000D03*
%TD*%
%TO.C,U33*%
X53500000Y-44000000D03*
X53500000Y-45100000D03*
X52400000Y-45100000D03*
X52400000Y-44000000D03*
%TD*%
%TO.C,U32*%
X49600000Y-44000000D03*
X49600000Y-45100000D03*
X48500000Y-45100000D03*
X48500000Y-44000000D03*
%TD*%
%TO.C,U31*%
X45700000Y-44000000D03*
X45700000Y-45100000D03*
X44600000Y-45100000D03*
X44600000Y-44000000D03*
%TD*%
%TO.C,U30*%
X100300000Y-40100000D03*
X100300000Y-41200000D03*
X99200000Y-41200000D03*
X99200000Y-40100000D03*
%TD*%
%TO.C,U29*%
X96400000Y-40100000D03*
X96400000Y-41200000D03*
X95300000Y-41200000D03*
X95300000Y-40100000D03*
%TD*%
%TO.C,U28*%
X92500000Y-40100000D03*
X92500000Y-41200000D03*
X91400000Y-41200000D03*
X91400000Y-40100000D03*
%TD*%
%TO.C,U27*%
X88600000Y-40100000D03*
X88600000Y-41200000D03*
X87500000Y-41200000D03*
X87500000Y-40100000D03*
%TD*%
%TO.C,U26*%
X84700000Y-40100000D03*
X84700000Y-41200000D03*
X83600000Y-41200000D03*
X83600000Y-40100000D03*
%TD*%
%TO.C,U25*%
X80800000Y-40100000D03*
X80800000Y-41200000D03*
X79700000Y-41200000D03*
X79700000Y-40100000D03*
%TD*%
%TO.C,U24*%
X76900000Y-40100000D03*
X76900000Y-41200000D03*
X75800000Y-41200000D03*
X75800000Y-40100000D03*
%TD*%
%TO.C,U23*%
X73000000Y-40100000D03*
X73000000Y-41200000D03*
X71900000Y-41200000D03*
X71900000Y-40100000D03*
%TD*%
%TO.C,U22*%
X69100000Y-40100000D03*
X69100000Y-41200000D03*
X68000000Y-41200000D03*
X68000000Y-40100000D03*
%TD*%
%TO.C,U21*%
X65200000Y-40100000D03*
X65200000Y-41200000D03*
X64100000Y-41200000D03*
X64100000Y-40100000D03*
%TD*%
%TO.C,U20*%
X61300000Y-40100000D03*
X61300000Y-41200000D03*
X60200000Y-41200000D03*
X60200000Y-40100000D03*
%TD*%
%TO.C,U19*%
X57400000Y-40100000D03*
X57400000Y-41200000D03*
X56300000Y-41200000D03*
X56300000Y-40100000D03*
%TD*%
%TO.C,U18*%
X53500000Y-40100000D03*
X53500000Y-41200000D03*
X52400000Y-41200000D03*
X52400000Y-40100000D03*
%TD*%
%TO.C,U17*%
X49600000Y-40100000D03*
X49600000Y-41200000D03*
X48500000Y-41200000D03*
X48500000Y-40100000D03*
%TD*%
%TO.C,U16*%
X45700000Y-40100000D03*
X45700000Y-41200000D03*
X44600000Y-41200000D03*
X44600000Y-40100000D03*
%TD*%
%TO.C,U15*%
X100300000Y-36200000D03*
X100300000Y-37300000D03*
X99200000Y-37300000D03*
X99200000Y-36200000D03*
%TD*%
%TO.C,U14*%
X96400000Y-36200000D03*
X96400000Y-37300000D03*
X95300000Y-37300000D03*
X95300000Y-36200000D03*
%TD*%
%TO.C,U13*%
X92500000Y-36200000D03*
X92500000Y-37300000D03*
X91400000Y-37300000D03*
X91400000Y-36200000D03*
%TD*%
%TO.C,U12*%
X88600000Y-36200000D03*
X88600000Y-37300000D03*
X87500000Y-37300000D03*
X87500000Y-36200000D03*
%TD*%
%TO.C,U11*%
X84700000Y-36200000D03*
X84700000Y-37300000D03*
X83600000Y-37300000D03*
X83600000Y-36200000D03*
%TD*%
%TO.C,U10*%
X80800000Y-36200000D03*
X80800000Y-37300000D03*
X79700000Y-37300000D03*
X79700000Y-36200000D03*
%TD*%
%TO.C,U9*%
X76900000Y-36200000D03*
X76900000Y-37300000D03*
X75800000Y-37300000D03*
X75800000Y-36200000D03*
%TD*%
%TO.C,U8*%
X73000000Y-36200000D03*
X73000000Y-37300000D03*
X71900000Y-37300000D03*
X71900000Y-36200000D03*
%TD*%
%TO.C,U7*%
X69100000Y-36200000D03*
X69100000Y-37300000D03*
X68000000Y-37300000D03*
X68000000Y-36200000D03*
%TD*%
%TO.C,U6*%
X65200000Y-36200000D03*
X65200000Y-37300000D03*
X64100000Y-37300000D03*
X64100000Y-36200000D03*
%TD*%
%TO.C,U5*%
X61300000Y-36200000D03*
X61300000Y-37300000D03*
X60200000Y-37300000D03*
X60200000Y-36200000D03*
%TD*%
%TO.C,U4*%
X57400000Y-36200000D03*
X57400000Y-37300000D03*
X56300000Y-37300000D03*
X56300000Y-36200000D03*
%TD*%
%TO.C,U3*%
X53500000Y-36200000D03*
X53500000Y-37300000D03*
X52400000Y-37300000D03*
X52400000Y-36200000D03*
%TD*%
%TO.C,U2*%
X49600000Y-36200000D03*
X49600000Y-37300000D03*
X48500000Y-37300000D03*
X48500000Y-36200000D03*
%TD*%
%TO.C,U1*%
X45700000Y-36200000D03*
X45700000Y-37300000D03*
X44600000Y-37300000D03*
X44600000Y-36200000D03*
%TD*%
D11*
%TO.C,C229*%
X57712500Y-97200000D03*
X55987500Y-97200000D03*
%TD*%
%TO.C,C231*%
X65512500Y-97200000D03*
X63787500Y-97200000D03*
%TD*%
%TO.C,C232*%
X69412500Y-97200000D03*
X67687500Y-97200000D03*
%TD*%
%TO.C,C33*%
X53812500Y-46500000D03*
X52087500Y-46500000D03*
%TD*%
%TO.C,C166*%
X46012500Y-81600000D03*
X44287500Y-81600000D03*
%TD*%
%TO.C,C115*%
X81112500Y-66000000D03*
X79387500Y-66000000D03*
%TD*%
%TO.C,C210*%
X100612500Y-89400000D03*
X98887500Y-89400000D03*
%TD*%
%TO.C,C214*%
X57712500Y-93300000D03*
X55987500Y-93300000D03*
%TD*%
%TO.C,C207*%
X88912500Y-89400000D03*
X87187500Y-89400000D03*
%TD*%
%TO.C,C96*%
X65512500Y-62100000D03*
X63787500Y-62100000D03*
%TD*%
%TO.C,C187*%
X69412500Y-85500000D03*
X67687500Y-85500000D03*
%TD*%
%TO.C,C195*%
X100612500Y-85500000D03*
X98887500Y-85500000D03*
%TD*%
%TO.C,C43*%
X92812500Y-46500000D03*
X91087500Y-46500000D03*
%TD*%
%TO.C,C130*%
X81112500Y-69900000D03*
X79387500Y-69900000D03*
%TD*%
%TO.C,C159*%
X77212500Y-77700000D03*
X75487500Y-77700000D03*
%TD*%
%TO.C,C53*%
X73312500Y-50400000D03*
X71587500Y-50400000D03*
%TD*%
%TO.C,C223*%
X92812500Y-93300000D03*
X91087500Y-93300000D03*
%TD*%
%TO.C,C38*%
X73312500Y-46500000D03*
X71587500Y-46500000D03*
%TD*%
%TO.C,C55*%
X81112500Y-50400000D03*
X79387500Y-50400000D03*
%TD*%
%TO.C,C144*%
X77212500Y-73800000D03*
X75487500Y-73800000D03*
%TD*%
%TO.C,C133*%
X92812500Y-69900000D03*
X91087500Y-69900000D03*
%TD*%
%TO.C,C54*%
X77212500Y-50400000D03*
X75487500Y-50400000D03*
%TD*%
%TO.C,C32*%
X49912500Y-46500000D03*
X48187500Y-46500000D03*
%TD*%
%TO.C,C113*%
X73312500Y-66000000D03*
X71587500Y-66000000D03*
%TD*%
%TO.C,C6*%
X65502500Y-38700000D03*
X63777500Y-38700000D03*
%TD*%
%TO.C,C169*%
X57712500Y-81600000D03*
X55987500Y-81600000D03*
%TD*%
%TO.C,C225*%
X100612500Y-93300000D03*
X98887500Y-93300000D03*
%TD*%
%TO.C,C161*%
X85012500Y-77700000D03*
X83287500Y-77700000D03*
%TD*%
%TO.C,C240*%
X100587500Y-97200000D03*
X98862500Y-97200000D03*
%TD*%
%TO.C,C5*%
X61612500Y-38710000D03*
X59887500Y-38710000D03*
%TD*%
%TO.C,C216*%
X65512500Y-93300000D03*
X63787500Y-93300000D03*
%TD*%
%TO.C,C269*%
X96712500Y-105000000D03*
X94987500Y-105000000D03*
%TD*%
%TO.C,C24*%
X77212500Y-42600000D03*
X75487500Y-42600000D03*
%TD*%
%TO.C,C12*%
X88912500Y-38710000D03*
X87187500Y-38710000D03*
%TD*%
%TO.C,C188*%
X73312500Y-85500000D03*
X71587500Y-85500000D03*
%TD*%
%TO.C,C78*%
X53812500Y-58200000D03*
X52087500Y-58200000D03*
%TD*%
%TO.C,C50*%
X61612500Y-50400000D03*
X59887500Y-50400000D03*
%TD*%
%TO.C,C41*%
X85012500Y-46500000D03*
X83287500Y-46500000D03*
%TD*%
%TO.C,C260*%
X61612500Y-105000000D03*
X59887500Y-105000000D03*
%TD*%
%TO.C,C49*%
X57712500Y-50400000D03*
X55987500Y-50400000D03*
%TD*%
%TO.C,C128*%
X73312500Y-69900000D03*
X71587500Y-69900000D03*
%TD*%
%TO.C,C44*%
X96712500Y-46500000D03*
X94987500Y-46500000D03*
%TD*%
%TO.C,C99*%
X77212500Y-62100000D03*
X75487500Y-62100000D03*
%TD*%
%TO.C,C117*%
X88912500Y-66000000D03*
X87187500Y-66000000D03*
%TD*%
%TO.C,C56*%
X85012500Y-50400000D03*
X83287500Y-50400000D03*
%TD*%
D12*
%TO.C,R4*%
X107730000Y-52492500D03*
X107730000Y-50667500D03*
%TD*%
D11*
%TO.C,C237*%
X88912500Y-97200000D03*
X87187500Y-97200000D03*
%TD*%
%TO.C,C165*%
X100612500Y-77700000D03*
X98887500Y-77700000D03*
%TD*%
%TO.C,C1*%
X46022500Y-38690000D03*
X44297500Y-38690000D03*
%TD*%
%TO.C,C114*%
X77212500Y-66000000D03*
X75487500Y-66000000D03*
%TD*%
%TO.C,C63*%
X53812500Y-54300000D03*
X52087500Y-54300000D03*
%TD*%
%TO.C,C180*%
X100612500Y-81600000D03*
X98887500Y-81600000D03*
%TD*%
%TO.C,C221*%
X85012500Y-93300000D03*
X83287500Y-93300000D03*
%TD*%
%TO.C,C217*%
X69412500Y-93300000D03*
X67687500Y-93300000D03*
%TD*%
%TO.C,C57*%
X88912500Y-50400000D03*
X87187500Y-50400000D03*
%TD*%
%TO.C,C88*%
X92812500Y-58200000D03*
X91087500Y-58200000D03*
%TD*%
%TO.C,C280*%
X81112500Y-108900000D03*
X79387500Y-108900000D03*
%TD*%
%TO.C,C17*%
X49912500Y-42600000D03*
X48187500Y-42600000D03*
%TD*%
%TO.C,C4*%
X57722500Y-38690000D03*
X55997500Y-38690000D03*
%TD*%
%TO.C,C192*%
X88912500Y-85500000D03*
X87187500Y-85500000D03*
%TD*%
%TO.C,C125*%
X61612500Y-69900000D03*
X59887500Y-69900000D03*
%TD*%
%TO.C,C40*%
X81112500Y-46500000D03*
X79387500Y-46500000D03*
%TD*%
%TO.C,C176*%
X85012500Y-81600000D03*
X83287500Y-81600000D03*
%TD*%
%TO.C,C116*%
X85012500Y-66000000D03*
X83287500Y-66000000D03*
%TD*%
%TO.C,C126*%
X65512500Y-69900000D03*
X63787500Y-69900000D03*
%TD*%
%TO.C,C111*%
X65512500Y-66000000D03*
X63787500Y-66000000D03*
%TD*%
%TO.C,C106*%
X46012500Y-66000000D03*
X44287500Y-66000000D03*
%TD*%
%TO.C,C82*%
X69412500Y-58200000D03*
X67687500Y-58200000D03*
%TD*%
%TO.C,C84*%
X77212500Y-58200000D03*
X75487500Y-58200000D03*
%TD*%
%TO.C,C168*%
X53812500Y-81600000D03*
X52087500Y-81600000D03*
%TD*%
%TO.C,C81*%
X65512500Y-58200000D03*
X63787500Y-58200000D03*
%TD*%
%TO.C,C263*%
X73312500Y-105000000D03*
X71587500Y-105000000D03*
%TD*%
%TO.C,C270*%
X100612500Y-105000000D03*
X98887500Y-105000000D03*
%TD*%
%TO.C,C235*%
X81112500Y-97200000D03*
X79387500Y-97200000D03*
%TD*%
%TO.C,C148*%
X92812500Y-73800000D03*
X91087500Y-73800000D03*
%TD*%
%TO.C,C124*%
X57712500Y-69900000D03*
X55987500Y-69900000D03*
%TD*%
%TO.C,C222*%
X88912500Y-93300000D03*
X87187500Y-93300000D03*
%TD*%
%TO.C,C89*%
X96712500Y-58200000D03*
X94987500Y-58200000D03*
%TD*%
%TO.C,C179*%
X96687500Y-81600000D03*
X94962500Y-81600000D03*
%TD*%
%TO.C,C215*%
X61612500Y-93300000D03*
X59887500Y-93300000D03*
%TD*%
%TO.C,C256*%
X46012500Y-105000000D03*
X44287500Y-105000000D03*
%TD*%
%TO.C,C183*%
X53812500Y-85500000D03*
X52087500Y-85500000D03*
%TD*%
%TO.C,C110*%
X61612500Y-66000000D03*
X59887500Y-66000000D03*
%TD*%
%TO.C,C227*%
X49912500Y-97200000D03*
X48187500Y-97200000D03*
%TD*%
%TO.C,C15*%
X100612500Y-38690000D03*
X98887500Y-38690000D03*
%TD*%
%TO.C,C59*%
X96712500Y-50400000D03*
X94987500Y-50400000D03*
%TD*%
%TO.C,C220*%
X81112500Y-93300000D03*
X79387500Y-93300000D03*
%TD*%
%TO.C,C14*%
X96712500Y-38710000D03*
X94987500Y-38710000D03*
%TD*%
%TO.C,C275*%
X61612500Y-108900000D03*
X59887500Y-108900000D03*
%TD*%
%TO.C,C242*%
X49912500Y-101100000D03*
X48187500Y-101100000D03*
%TD*%
%TO.C,C139*%
X57712500Y-73800000D03*
X55987500Y-73800000D03*
%TD*%
%TO.C,C258*%
X53812500Y-105000000D03*
X52087500Y-105000000D03*
%TD*%
%TO.C,C219*%
X77212500Y-93300000D03*
X75487500Y-93300000D03*
%TD*%
%TO.C,C98*%
X73312500Y-62100000D03*
X71587500Y-62100000D03*
%TD*%
%TO.C,C271*%
X46012500Y-108900000D03*
X44287500Y-108900000D03*
%TD*%
%TO.C,C267*%
X88912500Y-105000000D03*
X87187500Y-105000000D03*
%TD*%
%TO.C,C95*%
X61612500Y-62100000D03*
X59887500Y-62100000D03*
%TD*%
%TO.C,C146*%
X85012500Y-73800000D03*
X83287500Y-73800000D03*
%TD*%
%TO.C,C74*%
X96712500Y-54300000D03*
X94987500Y-54300000D03*
%TD*%
%TO.C,C129*%
X77212500Y-69900000D03*
X75487500Y-69900000D03*
%TD*%
%TO.C,C107*%
X49912500Y-65975000D03*
X48187500Y-65975000D03*
%TD*%
%TO.C,C264*%
X77212500Y-105000000D03*
X75487500Y-105000000D03*
%TD*%
%TO.C,C157*%
X69412500Y-77700000D03*
X67687500Y-77700000D03*
%TD*%
%TO.C,C147*%
X88912500Y-73800000D03*
X87187500Y-73800000D03*
%TD*%
%TO.C,C135*%
X100612500Y-69900000D03*
X98887500Y-69900000D03*
%TD*%
%TO.C,C23*%
X73312500Y-42600000D03*
X71587500Y-42600000D03*
%TD*%
%TO.C,C200*%
X61612500Y-89400000D03*
X59887500Y-89400000D03*
%TD*%
%TO.C,C118*%
X92812500Y-66000000D03*
X91087500Y-66000000D03*
%TD*%
%TO.C,C201*%
X65512500Y-89400000D03*
X63787500Y-89400000D03*
%TD*%
%TO.C,C91*%
X46012500Y-62100000D03*
X44287500Y-62100000D03*
%TD*%
%TO.C,C90*%
X100612500Y-58200000D03*
X98887500Y-58200000D03*
%TD*%
%TO.C,C138*%
X53812500Y-73800000D03*
X52087500Y-73800000D03*
%TD*%
%TO.C,C25*%
X81112500Y-42600000D03*
X79387500Y-42600000D03*
%TD*%
%TO.C,C85*%
X81112500Y-58200000D03*
X79387500Y-58200000D03*
%TD*%
%TO.C,C163*%
X92837500Y-77700000D03*
X91112500Y-77700000D03*
%TD*%
%TO.C,C236*%
X85012500Y-97200000D03*
X83287500Y-97200000D03*
%TD*%
%TO.C,C79*%
X57712500Y-58200000D03*
X55987500Y-58200000D03*
%TD*%
%TO.C,C272*%
X49912500Y-108900000D03*
X48187500Y-108900000D03*
%TD*%
%TO.C,C10*%
X81122500Y-38690000D03*
X79397500Y-38690000D03*
%TD*%
%TO.C,C194*%
X96712500Y-85500000D03*
X94987500Y-85500000D03*
%TD*%
%TO.C,C284*%
X96712500Y-108900000D03*
X94987500Y-108900000D03*
%TD*%
%TO.C,C155*%
X61612500Y-77700000D03*
X59887500Y-77700000D03*
%TD*%
%TO.C,C212*%
X49912500Y-93300000D03*
X48187500Y-93300000D03*
%TD*%
%TO.C,C151*%
X46012500Y-77700000D03*
X44287500Y-77700000D03*
%TD*%
%TO.C,C3*%
X53812500Y-38680000D03*
X52087500Y-38680000D03*
%TD*%
%TO.C,C19*%
X57712500Y-42600000D03*
X55987500Y-42600000D03*
%TD*%
%TO.C,C39*%
X77212500Y-46500000D03*
X75487500Y-46500000D03*
%TD*%
D12*
%TO.C,R7*%
X109990000Y-48985000D03*
X109990000Y-47160000D03*
%TD*%
D11*
%TO.C,C252*%
X88912500Y-101100000D03*
X87187500Y-101100000D03*
%TD*%
%TO.C,C279*%
X77212500Y-108900000D03*
X75487500Y-108900000D03*
%TD*%
%TO.C,C121*%
X46012500Y-69900000D03*
X44287500Y-69900000D03*
%TD*%
%TO.C,C60*%
X100612500Y-50400000D03*
X98887500Y-50400000D03*
%TD*%
%TO.C,C193*%
X92812500Y-85500000D03*
X91087500Y-85500000D03*
%TD*%
%TO.C,C143*%
X71587500Y-73800000D03*
X73312500Y-73800000D03*
%TD*%
%TO.C,C170*%
X61612500Y-81600000D03*
X59887500Y-81600000D03*
%TD*%
%TO.C,C150*%
X100612500Y-73800000D03*
X98887500Y-73800000D03*
%TD*%
%TO.C,C21*%
X65512500Y-42600000D03*
X63787500Y-42600000D03*
%TD*%
%TO.C,C226*%
X46012500Y-97200000D03*
X44287500Y-97200000D03*
%TD*%
%TO.C,C175*%
X81112500Y-81600000D03*
X79387500Y-81600000D03*
%TD*%
%TO.C,C184*%
X57712500Y-85500000D03*
X55987500Y-85500000D03*
%TD*%
%TO.C,C13*%
X92822500Y-38710000D03*
X91097500Y-38710000D03*
%TD*%
%TO.C,C257*%
X49912500Y-105000000D03*
X48187500Y-105000000D03*
%TD*%
%TO.C,C77*%
X49912500Y-58200000D03*
X48187500Y-58200000D03*
%TD*%
%TO.C,C171*%
X65537500Y-81600000D03*
X63812500Y-81600000D03*
%TD*%
%TO.C,C206*%
X85012500Y-89400000D03*
X83287500Y-89400000D03*
%TD*%
%TO.C,C197*%
X49912500Y-89400000D03*
X48187500Y-89400000D03*
%TD*%
%TO.C,C255*%
X100612500Y-101100000D03*
X98887500Y-101100000D03*
%TD*%
%TO.C,C132*%
X88912500Y-69900000D03*
X87187500Y-69900000D03*
%TD*%
%TO.C,C87*%
X88912500Y-58200000D03*
X87187500Y-58200000D03*
%TD*%
%TO.C,C152*%
X49912500Y-77700000D03*
X48187500Y-77700000D03*
%TD*%
%TO.C,C137*%
X49912500Y-73800000D03*
X48187500Y-73800000D03*
%TD*%
%TO.C,C94*%
X57712500Y-62100000D03*
X55987500Y-62100000D03*
%TD*%
%TO.C,C277*%
X69412500Y-108900000D03*
X67687500Y-108900000D03*
%TD*%
%TO.C,C191*%
X85012500Y-85500000D03*
X83287500Y-85500000D03*
%TD*%
%TO.C,C92*%
X49912500Y-62100000D03*
X48187500Y-62100000D03*
%TD*%
%TO.C,C16*%
X46012500Y-42600000D03*
X44287500Y-42600000D03*
%TD*%
%TO.C,C251*%
X85012500Y-101100000D03*
X83287500Y-101100000D03*
%TD*%
%TO.C,C36*%
X65512500Y-46500000D03*
X63787500Y-46500000D03*
%TD*%
%TO.C,C241*%
X46012500Y-101100000D03*
X44287500Y-101100000D03*
%TD*%
%TO.C,C205*%
X81112500Y-89400000D03*
X79387500Y-89400000D03*
%TD*%
%TO.C,C7*%
X69412500Y-38700000D03*
X67687500Y-38700000D03*
%TD*%
%TO.C,C100*%
X81112500Y-62100000D03*
X79387500Y-62100000D03*
%TD*%
%TO.C,C18*%
X53812500Y-42600000D03*
X52087500Y-42600000D03*
%TD*%
%TO.C,C164*%
X96712500Y-77700000D03*
X94987500Y-77700000D03*
%TD*%
%TO.C,C29*%
X96712500Y-42600000D03*
X94987500Y-42600000D03*
%TD*%
%TO.C,C274*%
X57712500Y-108900000D03*
X55987500Y-108900000D03*
%TD*%
%TO.C,C254*%
X96712500Y-101100000D03*
X94987500Y-101100000D03*
%TD*%
%TO.C,C127*%
X69412500Y-69900000D03*
X67687500Y-69900000D03*
%TD*%
%TO.C,C153*%
X53812500Y-77700000D03*
X52087500Y-77700000D03*
%TD*%
%TO.C,C248*%
X73312500Y-101100000D03*
X71587500Y-101100000D03*
%TD*%
%TO.C,C276*%
X65512500Y-108900000D03*
X63787500Y-108900000D03*
%TD*%
%TO.C,C230*%
X61612500Y-97200000D03*
X59887500Y-97200000D03*
%TD*%
%TO.C,C178*%
X92812500Y-81600000D03*
X91087500Y-81600000D03*
%TD*%
%TO.C,C69*%
X77212500Y-54300000D03*
X75487500Y-54300000D03*
%TD*%
%TO.C,C266*%
X85012500Y-105000000D03*
X83287500Y-105000000D03*
%TD*%
%TO.C,C131*%
X85012500Y-69900000D03*
X83287500Y-69900000D03*
%TD*%
%TO.C,C28*%
X92812500Y-42600000D03*
X91087500Y-42600000D03*
%TD*%
%TO.C,C136*%
X46012500Y-73800000D03*
X44287500Y-73800000D03*
%TD*%
%TO.C,C8*%
X73312500Y-38690000D03*
X71587500Y-38690000D03*
%TD*%
%TO.C,C213*%
X53812500Y-93300000D03*
X52087500Y-93300000D03*
%TD*%
%TO.C,C47*%
X49912500Y-50400000D03*
X48187500Y-50400000D03*
%TD*%
%TO.C,C45*%
X100612500Y-46500000D03*
X98887500Y-46500000D03*
%TD*%
%TO.C,C173*%
X73312500Y-81600000D03*
X71587500Y-81600000D03*
%TD*%
%TO.C,C103*%
X92812500Y-62100000D03*
X91087500Y-62100000D03*
%TD*%
%TO.C,C102*%
X88912500Y-62100000D03*
X87187500Y-62100000D03*
%TD*%
%TO.C,C228*%
X53812500Y-97200000D03*
X52087500Y-97200000D03*
%TD*%
%TO.C,C211*%
X46012500Y-93300000D03*
X44287500Y-93300000D03*
%TD*%
D13*
%TO.C,C286*%
X110487500Y-38000000D03*
X112212500Y-38000000D03*
%TD*%
D11*
%TO.C,C27*%
X88912500Y-42600000D03*
X87187500Y-42600000D03*
%TD*%
%TO.C,C105*%
X100612500Y-62125000D03*
X98887500Y-62125000D03*
%TD*%
%TO.C,C273*%
X53812500Y-108900000D03*
X52087500Y-108900000D03*
%TD*%
%TO.C,C196*%
X46012500Y-89400000D03*
X44287500Y-89400000D03*
%TD*%
%TO.C,C224*%
X96712500Y-93300000D03*
X94987500Y-93300000D03*
%TD*%
%TO.C,C73*%
X92812500Y-54300000D03*
X91087500Y-54300000D03*
%TD*%
%TO.C,C149*%
X96712500Y-73800000D03*
X94987500Y-73800000D03*
%TD*%
%TO.C,C61*%
X46012500Y-54300000D03*
X44287500Y-54300000D03*
%TD*%
%TO.C,C158*%
X73312500Y-77700000D03*
X71587500Y-77700000D03*
%TD*%
%TO.C,C80*%
X61612500Y-58200000D03*
X59887500Y-58200000D03*
%TD*%
%TO.C,C46*%
X46012500Y-50400000D03*
X44287500Y-50400000D03*
%TD*%
%TO.C,C75*%
X100612500Y-54300000D03*
X98887500Y-54300000D03*
%TD*%
%TO.C,C141*%
X65537500Y-73800000D03*
X63812500Y-73800000D03*
%TD*%
%TO.C,C97*%
X69412500Y-62100000D03*
X67687500Y-62100000D03*
%TD*%
%TO.C,C104*%
X96712500Y-62100000D03*
X94987500Y-62100000D03*
%TD*%
%TO.C,C22*%
X69412500Y-42600000D03*
X67687500Y-42600000D03*
%TD*%
%TO.C,C123*%
X53812500Y-69900000D03*
X52087500Y-69900000D03*
%TD*%
%TO.C,C244*%
X57712500Y-101100000D03*
X55987500Y-101100000D03*
%TD*%
%TO.C,C250*%
X81112500Y-101100000D03*
X79387500Y-101100000D03*
%TD*%
%TO.C,C177*%
X88912500Y-81600000D03*
X87187500Y-81600000D03*
%TD*%
%TO.C,C9*%
X77212500Y-38700000D03*
X75487500Y-38700000D03*
%TD*%
%TO.C,C265*%
X81112500Y-105000000D03*
X79387500Y-105000000D03*
%TD*%
%TO.C,C62*%
X49912500Y-54300000D03*
X48187500Y-54300000D03*
%TD*%
%TO.C,C65*%
X61612500Y-54300000D03*
X59887500Y-54300000D03*
%TD*%
%TO.C,C120*%
X100612500Y-66000000D03*
X98887500Y-66000000D03*
%TD*%
%TO.C,C203*%
X73312500Y-89400000D03*
X71587500Y-89400000D03*
%TD*%
%TO.C,C189*%
X77212500Y-85500000D03*
X75487500Y-85500000D03*
%TD*%
%TO.C,C186*%
X65512500Y-85500000D03*
X63787500Y-85500000D03*
%TD*%
%TO.C,C70*%
X81112500Y-54300000D03*
X79387500Y-54300000D03*
%TD*%
%TO.C,C67*%
X69412500Y-54300000D03*
X67687500Y-54300000D03*
%TD*%
%TO.C,C190*%
X81112500Y-85500000D03*
X79387500Y-85500000D03*
%TD*%
%TO.C,C247*%
X69412500Y-101100000D03*
X67687500Y-101100000D03*
%TD*%
%TO.C,C209*%
X96712500Y-89400000D03*
X94987500Y-89400000D03*
%TD*%
%TO.C,C282*%
X88912500Y-108900000D03*
X87187500Y-108900000D03*
%TD*%
%TO.C,C278*%
X73312500Y-108900000D03*
X71587500Y-108900000D03*
%TD*%
%TO.C,C172*%
X69412500Y-81600000D03*
X67687500Y-81600000D03*
%TD*%
%TO.C,C30*%
X100612500Y-42600000D03*
X98887500Y-42600000D03*
%TD*%
%TO.C,C182*%
X49912500Y-85500000D03*
X48187500Y-85500000D03*
%TD*%
%TO.C,C154*%
X57712500Y-77700000D03*
X55987500Y-77700000D03*
%TD*%
%TO.C,C71*%
X85012500Y-54300000D03*
X83287500Y-54300000D03*
%TD*%
D12*
%TO.C,R3*%
X106970000Y-48985000D03*
X106970000Y-47160000D03*
%TD*%
D11*
%TO.C,C51*%
X65512500Y-50400000D03*
X63787500Y-50400000D03*
%TD*%
%TO.C,C68*%
X73312500Y-54300000D03*
X71587500Y-54300000D03*
%TD*%
%TO.C,C134*%
X96712500Y-69900000D03*
X94987500Y-69900000D03*
%TD*%
%TO.C,C20*%
X61612500Y-42600000D03*
X59887500Y-42600000D03*
%TD*%
%TO.C,C48*%
X53812500Y-50400000D03*
X52087500Y-50400000D03*
%TD*%
%TO.C,C112*%
X69412500Y-66000000D03*
X67687500Y-66000000D03*
%TD*%
%TO.C,C218*%
X73312500Y-93300000D03*
X71587500Y-93300000D03*
%TD*%
%TO.C,C37*%
X69412500Y-46500000D03*
X67687500Y-46500000D03*
%TD*%
%TO.C,C262*%
X69412500Y-105000000D03*
X67687500Y-105000000D03*
%TD*%
%TO.C,C199*%
X57712500Y-89400000D03*
X55987500Y-89400000D03*
%TD*%
%TO.C,C101*%
X85012500Y-62100000D03*
X83287500Y-62100000D03*
%TD*%
%TO.C,C66*%
X65512500Y-54300000D03*
X63787500Y-54300000D03*
%TD*%
D14*
%TO.C,R1*%
X106450000Y-32987500D03*
X106450000Y-34812500D03*
%TD*%
D11*
%TO.C,C83*%
X73312500Y-58200000D03*
X71587500Y-58200000D03*
%TD*%
%TO.C,C2*%
X49922500Y-38690000D03*
X48197500Y-38690000D03*
%TD*%
D12*
%TO.C,R6*%
X109240000Y-52492500D03*
X109240000Y-50667500D03*
%TD*%
D11*
%TO.C,C246*%
X65512500Y-101100000D03*
X63787500Y-101100000D03*
%TD*%
%TO.C,C72*%
X88912500Y-54300000D03*
X87187500Y-54300000D03*
%TD*%
%TO.C,C285*%
X100612500Y-108900000D03*
X98887500Y-108900000D03*
%TD*%
%TO.C,C253*%
X92812500Y-101100000D03*
X91087500Y-101100000D03*
%TD*%
%TO.C,C268*%
X92812500Y-105000000D03*
X91087500Y-105000000D03*
%TD*%
%TO.C,C198*%
X53812500Y-89400000D03*
X52087500Y-89400000D03*
%TD*%
%TO.C,C204*%
X77212500Y-89400000D03*
X75487500Y-89400000D03*
%TD*%
%TO.C,C76*%
X46012500Y-58200000D03*
X44287500Y-58200000D03*
%TD*%
%TO.C,C140*%
X61612500Y-73800000D03*
X59887500Y-73800000D03*
%TD*%
%TO.C,C174*%
X77212500Y-81600000D03*
X75487500Y-81600000D03*
%TD*%
%TO.C,C162*%
X88912500Y-77700000D03*
X87187500Y-77700000D03*
%TD*%
%TO.C,C142*%
X69412500Y-73800000D03*
X67687500Y-73800000D03*
%TD*%
%TO.C,C93*%
X53812500Y-62100000D03*
X52087500Y-62100000D03*
%TD*%
%TO.C,C243*%
X53812500Y-101100000D03*
X52087500Y-101100000D03*
%TD*%
%TO.C,C11*%
X85012500Y-38710000D03*
X83287500Y-38710000D03*
%TD*%
%TO.C,C160*%
X81112500Y-77700000D03*
X79387500Y-77700000D03*
%TD*%
D14*
%TO.C,R2*%
X107850000Y-32987500D03*
X107850000Y-34812500D03*
%TD*%
D11*
%TO.C,C259*%
X57712500Y-105000000D03*
X55987500Y-105000000D03*
%TD*%
%TO.C,C249*%
X77212500Y-101125000D03*
X75487500Y-101125000D03*
%TD*%
%TO.C,C261*%
X65512500Y-105000000D03*
X63787500Y-105000000D03*
%TD*%
%TO.C,C234*%
X77212500Y-97200000D03*
X75487500Y-97200000D03*
%TD*%
%TO.C,C145*%
X81112500Y-73800000D03*
X79387500Y-73800000D03*
%TD*%
%TO.C,C35*%
X61612500Y-46500000D03*
X59887500Y-46500000D03*
%TD*%
%TO.C,C52*%
X69412500Y-50400000D03*
X67687500Y-50400000D03*
%TD*%
%TO.C,C208*%
X92812500Y-89400000D03*
X91087500Y-89400000D03*
%TD*%
%TO.C,C185*%
X61612500Y-85500000D03*
X59887500Y-85500000D03*
%TD*%
%TO.C,C156*%
X65512500Y-77700000D03*
X63787500Y-77700000D03*
%TD*%
%TO.C,C58*%
X92812500Y-50400000D03*
X91087500Y-50400000D03*
%TD*%
%TO.C,C42*%
X88912500Y-46500000D03*
X87187500Y-46500000D03*
%TD*%
%TO.C,C34*%
X57712500Y-46500000D03*
X55987500Y-46500000D03*
%TD*%
D15*
%TO.C,U286*%
X105900000Y-39250000D03*
D16*
X105900000Y-38850000D03*
X105900000Y-38450000D03*
X105900000Y-38050000D03*
D17*
X105900000Y-37650000D03*
D18*
X106550000Y-37000000D03*
D19*
X106950000Y-37000000D03*
X107350000Y-37000000D03*
X107750000Y-37000000D03*
D20*
X108150000Y-37000000D03*
D21*
X108800000Y-37650000D03*
D16*
X108800000Y-38050000D03*
X108800000Y-38450000D03*
X108800000Y-38850000D03*
D22*
X108800000Y-39250000D03*
D23*
X108150000Y-39900000D03*
D19*
X107750000Y-39900000D03*
X107350000Y-39900000D03*
X106950000Y-39900000D03*
D24*
X106550000Y-39900000D03*
D25*
X107775000Y-38025000D03*
X106925000Y-38025000D03*
X107775000Y-38875000D03*
X106925000Y-38875000D03*
%TD*%
D11*
%TO.C,C281*%
X85012500Y-108900000D03*
X83287500Y-108900000D03*
%TD*%
%TO.C,C64*%
X57712500Y-54300000D03*
X55987500Y-54300000D03*
%TD*%
%TO.C,C167*%
X49937500Y-81600000D03*
X48212500Y-81600000D03*
%TD*%
%TO.C,C26*%
X85012500Y-42600000D03*
X83287500Y-42600000D03*
%TD*%
%TO.C,C122*%
X49912500Y-69900000D03*
X48187500Y-69900000D03*
%TD*%
%TO.C,C31*%
X46012500Y-46500000D03*
X44287500Y-46500000D03*
%TD*%
D12*
%TO.C,R5*%
X108480000Y-48985000D03*
X108480000Y-47160000D03*
%TD*%
D11*
%TO.C,C86*%
X85012500Y-58200000D03*
X83287500Y-58200000D03*
%TD*%
%TO.C,C239*%
X96712500Y-97200000D03*
X94987500Y-97200000D03*
%TD*%
%TO.C,C181*%
X46012500Y-85500000D03*
X44287500Y-85500000D03*
%TD*%
%TO.C,C109*%
X57712500Y-66000000D03*
X55987500Y-66000000D03*
%TD*%
%TO.C,C202*%
X69412500Y-89400000D03*
X67687500Y-89400000D03*
%TD*%
%TO.C,C283*%
X92812500Y-108900000D03*
X91087500Y-108900000D03*
%TD*%
%TO.C,C238*%
X92812500Y-97200000D03*
X91087500Y-97200000D03*
%TD*%
%TO.C,C108*%
X53812500Y-66000000D03*
X52087500Y-66000000D03*
%TD*%
%TO.C,C245*%
X61612500Y-101100000D03*
X59887500Y-101100000D03*
%TD*%
%TO.C,C119*%
X96712500Y-66000000D03*
X94987500Y-66000000D03*
%TD*%
%TO.C,C233*%
X73312500Y-97200000D03*
X71587500Y-97200000D03*
%TD*%
M02*
