M48
; DRILL file {KiCad 7.0.9} date Mon Dec 18 15:10:40 2023
; FORMAT={-:-/ absolute / inch / decimal}
; #@! TF.CreationDate,2023-12-18T15:10:40+01:00
; #@! TF.GenerationSoftware,Kicad,Pcbnew,7.0.9
; #@! TF.FileFunction,MixedPlating,1,2
FMAT,2
INCH
; #@! TA.AperFunction,Plated,PTH,ViaDrill
T1C0.0157
%
G90
G05
T1
X1.311Y-1.6693
X1.311Y-1.7087
X1.311Y-1.748
X1.311Y-1.8272
X1.3114Y-1.4724
X1.3114Y-1.5118
X1.3114Y-1.6299
X1.3114Y-1.7874
X1.3118Y-1.3547
X1.3122Y-1.4008
X1.4071Y-1.8661
X1.7126Y-3.4921
X1.7146Y-1.6486
X1.7205Y-1.5803
X1.7205Y-1.811
X1.7205Y-2.5787
X1.7205Y-2.6535
X1.7205Y-2.7323
X1.7205Y-2.8071
X1.7205Y-3.3504
X1.7205Y-3.4222
X1.7205Y-3.6535
X1.7215Y-1.7323
X1.7215Y-3.2736
X1.7219Y-3.5763
X1.7226Y-3.8839
X1.7234Y-1.8878
X1.7234Y-4.1959
X1.7238Y-3.1191
X1.7244Y-2.4998
X1.7244Y-2.2717
X1.7244Y-2.3524
X1.7244Y-2.4252
X1.7244Y-2.8858
X1.7244Y-2.9528
X1.7244Y-3.0394
X1.7244Y-3.8031
X1.7244Y-3.9567
X1.7244Y-4.1102
X1.7283Y-1.9646
X1.7283Y-2.0482
X1.7283Y-2.1181
X1.7283Y-2.1969
X1.7283Y-3.7323
X1.7283Y-4.0404
X1.7283Y-4.3386
X1.7323Y-3.1929
X1.815Y-3.0276
X1.8189Y-1.9567
X1.8189Y-2.1102
X1.8189Y-3.4921
X1.8189Y-3.6417
X1.8228Y-2.2598
X1.8228Y-2.4134
X1.8228Y-2.874
X1.8228Y-3.185
X1.8228Y-3.3346
X1.8228Y-3.7992
X1.8228Y-3.9488
X1.8228Y-4.0984
X1.8268Y-1.8031
X1.8268Y-2.5669
X1.8268Y-2.7244
X1.8268Y-4.2559
X1.8297Y-1.6319
X1.8386Y-1.4685
X1.8622Y-1.4951
X1.8622Y-2.503
X1.8652Y-2.3494
X1.8661Y-1.8907
X1.8661Y-1.9606
X1.8661Y-2.0463
X1.8661Y-2.1181
X1.8668Y-3.273
X1.8671Y-2.1939
X1.8681Y-3.5817
X1.8701Y-1.5835
X1.8701Y-1.6467
X1.8701Y-1.811
X1.8701Y-2.2717
X1.8701Y-2.4252
X1.8711Y-1.7352
X1.872Y-3.122
X1.872Y-3.8839
X1.873Y-4.0423
X1.874Y-2.7323
X1.874Y-2.811
X1.874Y-2.9567
X1.874Y-3.0394
X1.874Y-3.3465
X1.874Y-3.4213
X1.874Y-3.8071
X1.874Y-3.9606
X1.874Y-4.1142
X1.874Y-4.1919
X1.878Y-2.5827
X1.878Y-2.6575
X1.878Y-3.1929
X1.878Y-3.4961
X1.878Y-3.6575
X1.878Y-3.7362
X1.878Y-4.3386
X1.8819Y-2.8898
X1.9724Y-2.1102
X1.9724Y-3.0276
X1.9724Y-3.6457
X1.9724Y-4.2559
X1.9764Y-1.9606
X1.9764Y-2.2598
X1.9764Y-2.5669
X1.9764Y-2.874
X1.9764Y-3.185
X1.9764Y-3.4921
X1.9764Y-3.7992
X1.9764Y-3.9528
X1.9764Y-4.1024
X1.9803Y-1.8031
X1.9803Y-2.4134
X1.9803Y-2.7244
X1.9803Y-3.3346
X1.9862Y-1.6407
X1.9872Y-1.4587
X2.0177Y-1.4902
X2.0187Y-2.503
X2.0197Y-3.5797
X2.0207Y-3.4252
X2.0217Y-2.3484
X2.0217Y-4.0404
X2.0226Y-4.1919
X2.0236Y-3.127
X2.0256Y-2.813
X2.0256Y-3.7333
X2.0256Y-3.8858
X2.0266Y-1.8907
X2.0276Y-1.8071
X2.0276Y-1.9646
X2.0276Y-2.1181
X2.0276Y-2.1929
X2.0276Y-2.2717
X2.0276Y-2.5827
X2.0276Y-2.6575
X2.0276Y-2.9449
X2.0276Y-3.2736
X2.0276Y-3.9606
X2.0276Y-4.1102
X2.0285Y-1.7343
X2.0315Y-1.5787
X2.0315Y-1.6466
X2.0315Y-2.0472
X2.0315Y-2.4252
X2.0315Y-2.7323
X2.0315Y-2.8898
X2.0315Y-3.0394
X2.0315Y-3.189
X2.0315Y-3.4961
X2.0315Y-3.6535
X2.0315Y-3.8071
X2.0315Y-4.3346
X2.0354Y-3.3465
X2.122Y-3.6457
X2.126Y-1.9606
X2.126Y-2.1102
X2.126Y-2.878
X2.1299Y-1.4921
X2.1299Y-2.2598
X2.1299Y-3.0276
X2.1299Y-3.185
X2.1299Y-3.4921
X2.1299Y-3.7992
X2.1299Y-4.1024
X2.1339Y-1.8031
X2.1339Y-2.4134
X2.1339Y-2.5669
X2.1339Y-2.7205
X2.1339Y-3.3386
X2.1339Y-3.9488
X2.1339Y-4.2559
X2.1388Y-1.6407
X2.1702Y-1.4929
X2.1713Y-2.5039
X2.1732Y-3.4242
X2.1742Y-2.814
X2.1762Y-3.5768
X2.1772Y-3.7333
X2.1772Y-3.9606
X2.1781Y-4.0374
X2.1801Y-3.8868
X2.1811Y-1.7323
X2.1811Y-1.9646
X2.1811Y-2.0463
X2.1811Y-2.1142
X2.1811Y-2.3504
X2.1811Y-2.9567
X2.1811Y-3.124
X2.1811Y-3.2717
X2.1811Y-4.1909
X2.1831Y-1.5783
X2.1831Y-1.8917
X2.1831Y-2.6565
X2.185Y-2.1929
X2.185Y-2.2717
X2.185Y-2.4252
X2.185Y-2.7323
X2.185Y-3.189
X2.185Y-3.3465
X2.185Y-3.5
X2.185Y-3.6535
X2.185Y-3.8071
X2.185Y-4.1142
X2.1852Y-1.6466
X2.189Y-1.811
X2.189Y-2.5787
X2.189Y-2.8898
X2.189Y-3.0394
X2.189Y-4.3346
X2.2795Y-1.9646
X2.2795Y-3.6417
X2.2835Y-1.8031
X2.2835Y-2.1063
X2.2835Y-2.2559
X2.2835Y-3.0276
X2.2835Y-3.185
X2.2835Y-3.3386
X2.2835Y-3.4882
X2.2835Y-3.7953
X2.2835Y-3.9528
X2.2835Y-4.2598
X2.2874Y-2.4134
X2.2874Y-2.5709
X2.2874Y-2.7205
X2.2874Y-2.878
X2.2874Y-4.1102
X2.2923Y-1.6427
X2.2943Y-1.4705
X2.32Y-2.5018
X2.3278Y-3.5797
X2.3287Y-1.4892
X2.3297Y-2.813
X2.3297Y-3.7293
X2.3317Y-3.2746
X2.3317Y-3.4252
X2.3327Y-2.6555
X2.3337Y-2.1978
X2.3337Y-3.8839
X2.3337Y-4.0443
X2.3346Y-1.9685
X2.3346Y-2.3504
X2.3346Y-2.9646
X2.3346Y-3.122
X2.3354Y-1.5799
X2.3356Y-1.7333
X2.3366Y-1.8888
X2.3366Y-2.0482
X2.3366Y-4.1969
X2.3378Y-1.6466
X2.3386Y-1.811
X2.3386Y-2.1142
X2.3386Y-2.2717
X2.3386Y-2.4252
X2.3386Y-2.5787
X2.3386Y-3.0394
X2.3386Y-3.5039
X2.3386Y-3.8071
X2.3386Y-3.9567
X2.3386Y-4.1102
X2.3425Y-2.7323
X2.3425Y-2.8898
X2.3425Y-3.1929
X2.3425Y-3.3465
X2.3425Y-4.3346
X2.3465Y-3.6535
X2.437Y-1.9646
X2.437Y-2.1063
X2.437Y-2.2598
X2.437Y-3.185
X2.437Y-3.3386
X2.437Y-3.6457
X2.437Y-3.7953
X2.4409Y-1.6496
X2.4409Y-1.8031
X2.4409Y-2.4134
X2.4409Y-2.5709
X2.4409Y-2.7244
X2.4409Y-2.878
X2.4409Y-3.0276
X2.4409Y-3.4921
X2.4409Y-3.9528
X2.4409Y-4.1063
X2.4409Y-4.2598
X2.4478Y-1.4685
X2.4741Y-2.5023
X2.4803Y-3.2736
X2.4813Y-3.4262
X2.4823Y-2.8091
X2.4834Y-3.1219
X2.4843Y-3.8829
X2.4852Y-1.4882
X2.4852Y-3.5797
X2.4862Y-2.1959
X2.487Y-1.5815
X2.4882Y-1.6466
X2.4882Y-1.9685
X2.4882Y-2.2677
X2.4882Y-2.9646
X2.4882Y-3.7283
X2.4892Y-2.3524
X2.4902Y-2.0463
X2.4902Y-2.6575
X2.4902Y-4.1939
X2.4921Y-1.7323
X2.4921Y-1.8071
X2.4921Y-2.1142
X2.4921Y-2.4252
X2.4921Y-3.0354
X2.4921Y-3.5
X2.4921Y-3.8071
X2.4921Y-3.9646
X2.4921Y-4.0394
X2.4921Y-4.1102
X2.4941Y-1.8888
X2.4961Y-2.5787
X2.4961Y-2.7323
X2.4961Y-3.3465
X2.4961Y-4.3346
X2.5Y-2.8858
X2.5Y-3.1929
X2.5Y-3.6575
X2.5866Y-2.1063
X2.5906Y-1.9606
X2.5906Y-2.5709
X2.5906Y-2.874
X2.5906Y-3.0276
X2.5906Y-3.1811
X2.5906Y-3.3346
X2.5906Y-3.4882
X2.5906Y-3.6417
X2.5906Y-3.7992
X2.5906Y-3.9528
X2.5945Y-1.8031
X2.5945Y-2.2638
X2.5945Y-2.4134
X2.5945Y-2.7244
X2.5945Y-4.1142
X2.5945Y-4.2598
X2.5965Y-1.4902
X2.6024Y-1.6496
X2.6299Y-2.503
X2.6358Y-1.4882
X2.6358Y-2.3504
X2.6358Y-2.813
X2.6378Y-2.1969
X2.6378Y-3.7303
X2.6384Y-3.5761
X2.6388Y-3.2776
X2.6388Y-3.8829
X2.6398Y-3.4281
X2.6417Y-1.5787
X2.6417Y-1.811
X2.6417Y-2.4252
X2.6417Y-3.1201
X2.6417Y-3.1929
X2.6417Y-3.8071
X2.6447Y-4.1929
X2.6457Y-1.7323
X2.6457Y-1.8898
X2.6457Y-1.9646
X2.6457Y-2.1142
X2.6457Y-2.2717
X2.6457Y-2.5787
X2.6457Y-2.9606
X2.6457Y-3.0394
X2.6457Y-3.3465
X2.6457Y-3.9567
X2.6457Y-4.0354
X2.6457Y-4.1102
X2.6467Y-2.6585
X2.6471Y-2.0448
X2.6479Y-1.648
X2.6496Y-2.7323
X2.6496Y-2.8898
X2.6496Y-3.5039
X2.6496Y-3.6535
X2.6496Y-4.3346
X2.7402Y-2.5669
X2.7441Y-1.9646
X2.7441Y-2.1063
X2.7441Y-3.0276
X2.7441Y-3.185
X2.7441Y-3.4921
X2.7441Y-3.6457
X2.748Y-1.8071
X2.748Y-2.2598
X2.748Y-2.4173
X2.748Y-2.7165
X2.748Y-2.874
X2.748Y-3.3346
X2.748Y-3.7992
X2.748Y-3.9528
X2.748Y-4.1142
X2.748Y-4.2638
X2.7559Y-1.6496
X2.7589Y-1.4852
X2.7864Y-2.3494
X2.7874Y-3.8878
X2.7884Y-2.814
X2.7902Y-1.5807
X2.7913Y-2.1969
X2.7913Y-2.5827
X2.7913Y-3.7333
X2.7913Y-3.9606
X2.7913Y-4.0354
X2.7923Y-3.123
X2.7923Y-3.5797
X2.7933Y-2.503
X2.7933Y-4.1919
X2.7941Y-1.4887
X2.7943Y-2.6594
X2.7943Y-3.4291
X2.7953Y-1.6467
X2.7953Y-1.7323
X2.7953Y-1.8071
X2.7953Y-1.9606
X2.7953Y-2.0482
X2.7953Y-2.2717
X2.7953Y-2.4252
X2.7953Y-2.9606
X2.7953Y-3.0354
X2.7953Y-3.1929
X2.7953Y-3.2766
X2.7953Y-3.3465
X2.7953Y-4.1102
X2.7953Y-4.3346
X2.7963Y-1.8907
X2.7992Y-2.1181
X2.7992Y-2.7323
X2.7992Y-2.8898
X2.7992Y-3.5
X2.7992Y-3.6575
X2.7992Y-3.8071
X2.874Y-1.9567
X2.8937Y-3.4921
X2.8976Y-3.0276
X2.8976Y-3.3386
X2.8976Y-3.6417
X2.8976Y-3.7992
X2.8976Y-3.9528
X2.9016Y-1.8071
X2.9016Y-2.1024
X2.9016Y-2.2598
X2.9016Y-2.4173
X2.9016Y-2.5709
X2.9016Y-2.7244
X2.9016Y-2.878
X2.9016Y-3.1811
X2.9016Y-4.1142
X2.9016Y-4.2598
X2.9065Y-1.6407
X2.9075Y-1.4882
X2.9409Y-3.2736
X2.9419Y-2.1949
X2.9439Y-3.1171
X2.9449Y-2.815
X2.9459Y-1.6476
X2.9459Y-3.7323
X2.9459Y-3.8848
X2.946Y-2.5018
X2.9469Y-3.4262
X2.9469Y-3.5768
X2.9478Y-1.4941
X2.9488Y-1.5815
X2.9488Y-1.7323
X2.9488Y-2.3494
X2.9488Y-2.9606
X2.9488Y-3.3425
X2.9488Y-3.9567
X2.9488Y-4.0354
X2.9488Y-4.1102
X2.9488Y-4.1919
X2.9498Y-2.6604
X2.9518Y-2.0482
X2.9528Y-1.8071
X2.9528Y-1.8888
X2.9528Y-1.9685
X2.9528Y-2.2717
X2.9528Y-2.4252
X2.9528Y-2.5787
X2.9528Y-3.0394
X2.9528Y-3.1929
X2.9528Y-3.5039
X2.9528Y-3.8071
X2.9528Y-4.3346
X2.9567Y-2.1181
X2.9567Y-2.7362
X2.9567Y-2.8858
X2.9567Y-3.6535
X3.0512Y-2.1063
X3.0512Y-2.4134
X3.0512Y-2.5669
X3.0512Y-3.3346
X3.0512Y-3.4921
X3.0512Y-3.7992
X3.0512Y-4.2598
X3.0551Y-1.8071
X3.0551Y-2.2598
X3.0551Y-2.7244
X3.0551Y-2.878
X3.0551Y-3.0276
X3.0551Y-3.1811
X3.0551Y-3.6417
X3.0551Y-3.9567
X3.0551Y-4.1142
X3.0571Y-1.6457
X3.06Y-1.4862
X3.063Y-1.9646
X3.0945Y-3.2736
X3.0974Y-2.503
X3.0974Y-3.4262
X3.0993Y-1.4929
X3.0994Y-3.8868
X3.0994Y-4.1988
X3.0995Y-1.5804
X3.1014Y-2.811
X3.1014Y-3.7313
X3.1021Y-1.6463
X3.1024Y-1.7323
X3.1024Y-1.8858
X3.1024Y-3.122
X3.1024Y-4.0394
X3.1043Y-2.1949
X3.1043Y-2.3494
X3.1043Y-2.6575
X3.1063Y-1.8071
X3.1063Y-1.9646
X3.1063Y-2.1181
X3.1063Y-2.2717
X3.1063Y-2.5787
X3.1063Y-2.8898
X3.1063Y-2.9646
X3.1063Y-3.3465
X3.1063Y-3.5039
X3.1063Y-3.5787
X3.1063Y-3.9606
X3.1073Y-2.0433
X3.1102Y-2.4252
X3.1102Y-2.7323
X3.1102Y-3.0394
X3.1102Y-3.1929
X3.1102Y-3.6535
X3.1102Y-3.8071
X3.1102Y-4.1142
X3.1102Y-4.3346
X3.2008Y-2.5709
X3.2008Y-3.6417
X3.2047Y-1.8031
X3.2047Y-2.1063
X3.2047Y-2.2598
X3.2047Y-2.7244
X3.2047Y-3.0276
X3.2047Y-3.3386
X3.2047Y-3.4921
X3.2047Y-3.7992
X3.2047Y-3.9567
X3.2047Y-4.1102
X3.2087Y-2.4173
X3.2087Y-2.878
X3.2087Y-3.185
X3.2087Y-4.2598
X3.2116Y-1.6427
X3.2156Y-1.4744
X3.2165Y-1.9646
X3.2441Y-3.2736
X3.2446Y-1.4946
X3.25Y-2.3514
X3.25Y-2.502
X3.25Y-3.1201
X3.25Y-3.4272
X3.25Y-3.8878
X3.252Y-2.1969
X3.252Y-2.2717
X3.252Y-2.4252
X3.252Y-2.5827
X3.252Y-2.6594
X3.252Y-2.7323
X3.2529Y-2.8165
X3.2539Y-3.7323
X3.2549Y-1.7343
X3.2551Y-1.5815
X3.2559Y-1.6457
X3.2559Y-1.815
X3.2559Y-1.8858
X3.2559Y-1.9646
X3.2559Y-2.0433
X3.2559Y-2.1181
X3.2559Y-2.8898
X3.2559Y-2.9646
X3.2559Y-3.0394
X3.2559Y-3.1929
X3.2559Y-3.3465
X3.2559Y-3.5
X3.2559Y-3.5748
X3.2559Y-3.9606
X3.2559Y-4.0394
X3.2559Y-4.1929
X3.2598Y-3.6535
X3.2598Y-3.8031
X3.2598Y-4.1102
X3.2638Y-4.3346
X3.3543Y-2.1063
X3.3583Y-2.2598
X3.3583Y-2.5709
X3.3583Y-2.7244
X3.3583Y-3.185
X3.3583Y-3.3386
X3.3583Y-3.4921
X3.3583Y-3.6457
X3.3583Y-3.7992
X3.3583Y-3.9567
X3.3622Y-1.8071
X3.3622Y-2.4173
X3.3622Y-2.874
X3.3622Y-3.0276
X3.3622Y-4.1102
X3.3622Y-4.2598
X3.3691Y-1.4774
X3.3701Y-1.6457
X3.3701Y-1.9646
X3.4001Y-1.4944
X3.4026Y-2.5039
X3.4035Y-3.4311
X3.4035Y-4.1969
X3.4045Y-3.2726
X3.4055Y-2.8159
X3.4055Y-3.3465
X3.4055Y-3.7303
X3.4065Y-2.3514
X3.4075Y-4.0404
X3.4085Y-3.1152
X3.4085Y-3.8858
X3.4094Y-1.7323
X3.4094Y-2.0433
X3.4094Y-2.7323
X3.4114Y-2.6594
X3.4118Y-1.5807
X3.4124Y-1.6476
X3.4134Y-1.8858
X3.4134Y-1.9646
X3.4134Y-2.1929
X3.4134Y-2.8898
X3.4134Y-2.9528
X3.4134Y-3.5
X3.4134Y-3.5748
X3.4134Y-3.8071
X3.4134Y-3.9646
X3.4134Y-4.1142
X3.4173Y-1.815
X3.4173Y-2.1181
X3.4173Y-2.2717
X3.4173Y-2.4252
X3.4173Y-2.5827
X3.4173Y-3.0394
X3.4173Y-3.1929
X3.4173Y-3.6535
X3.4173Y-4.3346
X3.5118Y-2.1024
X3.5118Y-2.2598
X3.5118Y-2.5709
X3.5118Y-2.7244
X3.5118Y-2.874
X3.5118Y-3.1811
X3.5118Y-3.4921
X3.5118Y-3.7992
X3.5118Y-3.9567
X3.5157Y-1.811
X3.5157Y-1.9646
X3.5157Y-2.4173
X3.5157Y-3.0276
X3.5157Y-3.3386
X3.5157Y-3.6417
X3.5157Y-4.1142
X3.5157Y-4.2598
X3.5187Y-1.4872
X3.5236Y-1.6496
X3.554Y-1.4841
X3.5541Y-3.4291
X3.5591Y-2.5049
X3.56Y-2.8169
X3.56Y-3.2726
X3.56Y-3.8878
X3.56Y-4.1939
X3.563Y-2.5787
X3.563Y-3.1181
X3.5659Y-2.3533
X3.5659Y-2.6604
X3.5669Y-1.7323
X3.5669Y-1.811
X3.5669Y-1.8898
X3.5669Y-1.9646
X3.5669Y-2.0433
X3.5669Y-2.1181
X3.5669Y-2.1929
X3.5669Y-2.2756
X3.5669Y-2.4252
X3.5669Y-2.7323
X3.5669Y-2.8858
X3.5669Y-2.9646
X3.5669Y-3.0394
X3.5669Y-3.1929
X3.5669Y-3.7283
X3.5669Y-3.9567
X3.5669Y-4.0394
X3.5681Y-1.5819
X3.5702Y-1.6492
X3.5709Y-3.3465
X3.5709Y-3.5
X3.5709Y-3.5748
X3.5709Y-3.6535
X3.5709Y-3.8071
X3.5709Y-4.1142
X3.5709Y-4.3346
X3.6614Y-3.3386
X3.6654Y-2.1024
X3.6654Y-2.7205
X3.6654Y-2.874
X3.6654Y-3.0276
X3.6654Y-3.1811
X3.6654Y-3.4921
X3.6654Y-3.6457
X3.6654Y-3.7953
X3.6693Y-1.811
X3.6693Y-1.9685
X3.6693Y-2.2638
X3.6693Y-2.4173
X3.6693Y-2.5709
X3.6693Y-3.9567
X3.6693Y-4.1142
X3.6693Y-4.2638
X3.6752Y-1.4715
X3.6791Y-1.6427
X3.7067Y-1.4951
X3.7096Y-3.4291
X3.7126Y-1.9646
X3.7126Y-3.2707
X3.7136Y-2.5059
X3.7146Y-2.3524
X3.7156Y-2.813
X3.7165Y-1.7323
X3.7165Y-2.0433
X3.7165Y-2.1929
X3.7165Y-2.2717
X3.7165Y-2.5748
X3.7165Y-2.6604
X3.7165Y-2.9646
X3.7165Y-3.7283
X3.7165Y-3.8031
X3.7165Y-4.1959
X3.7175Y-1.8907
X3.7201Y-1.5803
X3.7203Y-1.6463
X3.7205Y-1.811
X3.7205Y-2.4252
X3.7205Y-2.8898
X3.7205Y-3.0394
X3.7205Y-3.1142
X3.7205Y-3.189
X3.7205Y-3.3465
X3.7205Y-3.5787
X3.7205Y-3.8858
X3.7205Y-3.9567
X3.7205Y-4.0354
X3.7205Y-4.1142
X3.7244Y-2.1181
X3.7244Y-2.7323
X3.7244Y-3.5
X3.7244Y-3.6535
X3.7244Y-4.3346
X3.8189Y-2.5709
X3.8189Y-3.0276
X3.8189Y-3.1811
X3.8189Y-3.6417
X3.8189Y-3.7953
X3.8189Y-3.9567
X3.8189Y-4.1142
X3.8228Y-1.815
X3.8228Y-2.1063
X3.8228Y-2.2598
X3.8228Y-2.4173
X3.8228Y-2.7205
X3.8228Y-2.878
X3.8228Y-3.3386
X3.8228Y-3.4921
X3.8228Y-4.2598
X3.8287Y-1.4783
X3.8327Y-1.6457
X3.8346Y-1.9646
X3.8616Y-1.4931
X3.8671Y-2.81
X3.8681Y-2.5059
X3.8681Y-3.2697
X3.8681Y-4.1978
X3.8691Y-1.8917
X3.8691Y-3.4252
X3.873Y-2.0492
X3.873Y-2.6614
X3.873Y-4.0374
X3.874Y-1.7323
X3.874Y-1.811
X3.874Y-2.1969
X3.874Y-2.2677
X3.874Y-2.4252
X3.874Y-2.9646
X3.874Y-3.0394
X3.874Y-3.1142
X3.874Y-3.1929
X3.874Y-3.3465
X3.874Y-3.5
X3.874Y-3.5748
X3.874Y-3.7283
X3.874Y-3.8819
X3.874Y-3.9606
X3.874Y-4.1142
X3.875Y-2.3543
X3.8768Y-1.6486
X3.878Y-1.9685
X3.878Y-2.1181
X3.878Y-2.5787
X3.878Y-2.7323
X3.878Y-2.8898
X3.878Y-3.6535
X3.878Y-3.8071
X3.878Y-4.3346
X3.8795Y-1.5811
X3.9724Y-2.1063
X3.9724Y-2.2638
X3.9724Y-2.5709
X3.9724Y-3.185
X3.9724Y-3.6457
X3.9724Y-3.7953
X3.9724Y-4.1102
X3.9764Y-2.4173
X3.9764Y-2.7205
X3.9764Y-2.878
X3.9764Y-3.0276
X3.9764Y-3.3346
X3.9764Y-3.4921
X3.9764Y-3.9606
X3.9764Y-4.2559
X3.9833Y-1.6447
X3.9843Y-1.8071
X3.9843Y-1.9685
X3.988Y-1.4844
X4.0846Y-1.5157
X4.1366Y-1.374
X4.2283Y-1.5157
X4.5161Y-1.515
X4.5161Y-1.7035
X4.6929Y-1.4606
X4.7244Y-1.4606
X4.7559Y-1.4606
X4.7874Y-1.4606
X4.8189Y-1.4606
X4.8504Y-1.4606
T0
M30
