%TF.GenerationSoftware,KiCad,Pcbnew,7.0.9*%
%TF.CreationDate,2023-12-19T13:26:28+01:00*%
%TF.ProjectId,flexAddressLedsV2,666c6578-4164-4647-9265-73734c656473,rev?*%
%TF.SameCoordinates,Original*%
%TF.FileFunction,Soldermask,Top*%
%TF.FilePolarity,Negative*%
%FSLAX46Y46*%
G04 Gerber Fmt 4.6, Leading zero omitted, Abs format (unit mm)*
G04 Created by KiCad (PCBNEW 7.0.9) date 2023-12-19 13:26:28*
%MOMM*%
%LPD*%
G01*
G04 APERTURE LIST*
G04 Aperture macros list*
%AMRoundRect*
0 Rectangle with rounded corners*
0 $1 Rounding radius*
0 $2 $3 $4 $5 $6 $7 $8 $9 X,Y pos of 4 corners*
0 Add a 4 corners polygon primitive as box body*
4,1,4,$2,$3,$4,$5,$6,$7,$8,$9,$2,$3,0*
0 Add four circle primitives for the rounded corners*
1,1,$1+$1,$2,$3*
1,1,$1+$1,$4,$5*
1,1,$1+$1,$6,$7*
1,1,$1+$1,$8,$9*
0 Add four rect primitives between the rounded corners*
20,1,$1+$1,$2,$3,$4,$5,0*
20,1,$1+$1,$4,$5,$6,$7,0*
20,1,$1+$1,$6,$7,$8,$9,0*
20,1,$1+$1,$8,$9,$2,$3,0*%
%AMFreePoly0*
4,1,14,0.334644,0.085355,0.385355,0.034644,0.400000,-0.000711,0.400000,-0.050000,0.385355,-0.085355,0.350000,-0.100000,-0.350000,-0.100000,-0.385355,-0.085355,-0.400000,-0.050000,-0.400000,0.050000,-0.385355,0.085355,-0.350000,0.100000,0.299289,0.100000,0.334644,0.085355,0.334644,0.085355,$1*%
%AMFreePoly1*
4,1,14,0.385355,0.085355,0.400000,0.050000,0.400000,0.000711,0.385355,-0.034644,0.334644,-0.085355,0.299289,-0.100000,-0.350000,-0.100000,-0.385355,-0.085355,-0.400000,-0.050000,-0.400000,0.050000,-0.385355,0.085355,-0.350000,0.100000,0.350000,0.100000,0.385355,0.085355,0.385355,0.085355,$1*%
%AMFreePoly2*
4,1,14,0.085355,0.385355,0.100000,0.350000,0.100000,-0.350000,0.085355,-0.385355,0.050000,-0.400000,-0.050000,-0.400000,-0.085355,-0.385355,-0.100000,-0.350000,-0.100000,0.299289,-0.085355,0.334644,-0.034644,0.385355,0.000711,0.400000,0.050000,0.400000,0.085355,0.385355,0.085355,0.385355,$1*%
%AMFreePoly3*
4,1,14,0.034644,0.385355,0.085355,0.334644,0.100000,0.299289,0.100000,-0.350000,0.085355,-0.385355,0.050000,-0.400000,-0.050000,-0.400000,-0.085355,-0.385355,-0.100000,-0.350000,-0.100000,0.350000,-0.085355,0.385355,-0.050000,0.400000,-0.000711,0.400000,0.034644,0.385355,0.034644,0.385355,$1*%
%AMFreePoly4*
4,1,14,0.385355,0.085355,0.400000,0.050000,0.400000,-0.050000,0.385355,-0.085355,0.350000,-0.100000,-0.299289,-0.100000,-0.334644,-0.085355,-0.385355,-0.034644,-0.400000,0.000711,-0.400000,0.050000,-0.385355,0.085355,-0.350000,0.100000,0.350000,0.100000,0.385355,0.085355,0.385355,0.085355,$1*%
%AMFreePoly5*
4,1,14,0.385355,0.085355,0.400000,0.050000,0.400000,-0.050000,0.385355,-0.085355,0.350000,-0.100000,-0.350000,-0.100000,-0.385355,-0.085355,-0.400000,-0.050000,-0.400000,-0.000711,-0.385355,0.034644,-0.334644,0.085355,-0.299289,0.100000,0.350000,0.100000,0.385355,0.085355,0.385355,0.085355,$1*%
%AMFreePoly6*
4,1,14,0.085355,0.385355,0.100000,0.350000,0.100000,-0.299289,0.085355,-0.334644,0.034644,-0.385355,-0.000711,-0.400000,-0.050000,-0.400000,-0.085355,-0.385355,-0.100000,-0.350000,-0.100000,0.350000,-0.085355,0.385355,-0.050000,0.400000,0.050000,0.400000,0.085355,0.385355,0.085355,0.385355,$1*%
%AMFreePoly7*
4,1,14,0.085355,0.385355,0.100000,0.350000,0.100000,-0.350000,0.085355,-0.385355,0.050000,-0.400000,0.000711,-0.400000,-0.034644,-0.385355,-0.085355,-0.334644,-0.100000,-0.299289,-0.100000,0.350000,-0.085355,0.385355,-0.050000,0.400000,0.050000,0.400000,0.085355,0.385355,0.085355,0.385355,$1*%
G04 Aperture macros list end*
%ADD10R,0.700000X0.700000*%
%ADD11RoundRect,0.237500X-0.300000X-0.237500X0.300000X-0.237500X0.300000X0.237500X-0.300000X0.237500X0*%
%ADD12RoundRect,0.237500X-0.237500X0.250000X-0.237500X-0.250000X0.237500X-0.250000X0.237500X0.250000X0*%
%ADD13RoundRect,0.237500X0.300000X0.237500X-0.300000X0.237500X-0.300000X-0.237500X0.300000X-0.237500X0*%
%ADD14RoundRect,0.237500X0.237500X-0.250000X0.237500X0.250000X-0.237500X0.250000X-0.237500X-0.250000X0*%
%ADD15FreePoly0,90.000000*%
%ADD16RoundRect,0.050000X0.050000X-0.350000X0.050000X0.350000X-0.050000X0.350000X-0.050000X-0.350000X0*%
%ADD17FreePoly1,90.000000*%
%ADD18FreePoly2,90.000000*%
%ADD19RoundRect,0.050000X0.350000X-0.050000X0.350000X0.050000X-0.350000X0.050000X-0.350000X-0.050000X0*%
%ADD20FreePoly3,90.000000*%
%ADD21FreePoly4,90.000000*%
%ADD22FreePoly5,90.000000*%
%ADD23FreePoly6,90.000000*%
%ADD24FreePoly7,90.000000*%
%ADD25R,1.700000X1.700000*%
G04 APERTURE END LIST*
D10*
%TO.C,U261*%
X134825000Y-133350000D03*
X134825000Y-134450000D03*
X133725000Y-134450000D03*
X133725000Y-133350000D03*
%TD*%
D11*
%TO.C,C33*%
X121712500Y-77350000D03*
X123437500Y-77350000D03*
%TD*%
%TO.C,C166*%
X113912500Y-112450000D03*
X115637500Y-112450000D03*
%TD*%
D10*
%TO.C,U66*%
X134825000Y-82650000D03*
X134825000Y-83750000D03*
X133725000Y-83750000D03*
X133725000Y-82650000D03*
%TD*%
D11*
%TO.C,C115*%
X149012500Y-96850000D03*
X150737500Y-96850000D03*
%TD*%
D10*
%TO.C,U106*%
X115325000Y-94350000D03*
X115325000Y-95450000D03*
X114225000Y-95450000D03*
X114225000Y-94350000D03*
%TD*%
D11*
%TO.C,C210*%
X168512500Y-120250000D03*
X170237500Y-120250000D03*
%TD*%
D10*
%TO.C,U4*%
X127025000Y-67050000D03*
X127025000Y-68150000D03*
X125925000Y-68150000D03*
X125925000Y-67050000D03*
%TD*%
%TO.C,U84*%
X146525000Y-86550000D03*
X146525000Y-87650000D03*
X145425000Y-87650000D03*
X145425000Y-86550000D03*
%TD*%
D11*
%TO.C,C214*%
X125612500Y-124150000D03*
X127337500Y-124150000D03*
%TD*%
%TO.C,C207*%
X156812500Y-120250000D03*
X158537500Y-120250000D03*
%TD*%
D10*
%TO.C,U225*%
X169925000Y-121650000D03*
X169925000Y-122750000D03*
X168825000Y-122750000D03*
X168825000Y-121650000D03*
%TD*%
%TO.C,U156*%
X134825000Y-106050000D03*
X134825000Y-107150000D03*
X133725000Y-107150000D03*
X133725000Y-106050000D03*
%TD*%
%TO.C,U94*%
X127025000Y-90450000D03*
X127025000Y-91550000D03*
X125925000Y-91550000D03*
X125925000Y-90450000D03*
%TD*%
D11*
%TO.C,C96*%
X133412500Y-92950000D03*
X135137500Y-92950000D03*
%TD*%
%TO.C,C187*%
X137312500Y-116350000D03*
X139037500Y-116350000D03*
%TD*%
D10*
%TO.C,U71*%
X154325000Y-82650000D03*
X154325000Y-83750000D03*
X153225000Y-83750000D03*
X153225000Y-82650000D03*
%TD*%
%TO.C,U217*%
X138725000Y-121650000D03*
X138725000Y-122750000D03*
X137625000Y-122750000D03*
X137625000Y-121650000D03*
%TD*%
%TO.C,U83*%
X142625000Y-86550000D03*
X142625000Y-87650000D03*
X141525000Y-87650000D03*
X141525000Y-86550000D03*
%TD*%
%TO.C,U280*%
X150425000Y-137250000D03*
X150425000Y-138350000D03*
X149325000Y-138350000D03*
X149325000Y-137250000D03*
%TD*%
%TO.C,U206*%
X154325000Y-117750000D03*
X154325000Y-118850000D03*
X153225000Y-118850000D03*
X153225000Y-117750000D03*
%TD*%
D11*
%TO.C,C195*%
X168512500Y-116350000D03*
X170237500Y-116350000D03*
%TD*%
D10*
%TO.C,U197*%
X119225000Y-117750000D03*
X119225000Y-118850000D03*
X118125000Y-118850000D03*
X118125000Y-117750000D03*
%TD*%
D11*
%TO.C,C43*%
X160712500Y-77350000D03*
X162437500Y-77350000D03*
%TD*%
D10*
%TO.C,U269*%
X166024999Y-133350000D03*
X166024999Y-134450000D03*
X164924999Y-134450000D03*
X164924999Y-133350000D03*
%TD*%
D11*
%TO.C,C130*%
X149012500Y-100750000D03*
X150737500Y-100750000D03*
%TD*%
%TO.C,C159*%
X145112500Y-108550000D03*
X146837500Y-108550000D03*
%TD*%
D10*
%TO.C,U191*%
X154325000Y-113850000D03*
X154325000Y-114950000D03*
X153225000Y-114950000D03*
X153225000Y-113850000D03*
%TD*%
D11*
%TO.C,C53*%
X141212500Y-81250000D03*
X142937500Y-81250000D03*
%TD*%
D10*
%TO.C,U172*%
X138725000Y-109950000D03*
X138725000Y-111050000D03*
X137625000Y-111050000D03*
X137625000Y-109950000D03*
%TD*%
%TO.C,U29*%
X166025000Y-70950000D03*
X166025000Y-72050000D03*
X164925000Y-72050000D03*
X164925000Y-70950000D03*
%TD*%
D11*
%TO.C,C223*%
X160712500Y-124150000D03*
X162437500Y-124150000D03*
%TD*%
D10*
%TO.C,U258*%
X123125000Y-133350000D03*
X123125000Y-134450000D03*
X122025000Y-134450000D03*
X122025000Y-133350000D03*
%TD*%
%TO.C,U224*%
X166024999Y-121650000D03*
X166024999Y-122750000D03*
X164924999Y-122750000D03*
X164924999Y-121650000D03*
%TD*%
%TO.C,U227*%
X119225000Y-125550000D03*
X119225000Y-126650000D03*
X118125000Y-126650000D03*
X118125000Y-125550000D03*
%TD*%
%TO.C,U136*%
X115325000Y-102150000D03*
X115325000Y-103250000D03*
X114225000Y-103250000D03*
X114225000Y-102150000D03*
%TD*%
D11*
%TO.C,C38*%
X141212500Y-77350000D03*
X142937500Y-77350000D03*
%TD*%
D10*
%TO.C,U260*%
X130925000Y-133350000D03*
X130925000Y-134450000D03*
X129825000Y-134450000D03*
X129825000Y-133350000D03*
%TD*%
D11*
%TO.C,C55*%
X149012500Y-81250000D03*
X150737500Y-81250000D03*
%TD*%
D10*
%TO.C,U281*%
X154325000Y-137250000D03*
X154325000Y-138350000D03*
X153225000Y-138350000D03*
X153225000Y-137250000D03*
%TD*%
D11*
%TO.C,C144*%
X145112500Y-104650000D03*
X146837500Y-104650000D03*
%TD*%
%TO.C,C133*%
X160712500Y-100750000D03*
X162437500Y-100750000D03*
%TD*%
D10*
%TO.C,U21*%
X134825000Y-70950000D03*
X134825000Y-72050000D03*
X133725000Y-72050000D03*
X133725000Y-70950000D03*
%TD*%
%TO.C,U11*%
X154325000Y-67050000D03*
X154325000Y-68150000D03*
X153225000Y-68150000D03*
X153225000Y-67050000D03*
%TD*%
D11*
%TO.C,C54*%
X145112500Y-81250000D03*
X146837500Y-81250000D03*
%TD*%
D10*
%TO.C,U249*%
X146525000Y-129450000D03*
X146525000Y-130550000D03*
X145425000Y-130550000D03*
X145425000Y-129450000D03*
%TD*%
D11*
%TO.C,C32*%
X117812500Y-77350000D03*
X119537500Y-77350000D03*
%TD*%
%TO.C,C113*%
X141212500Y-96850000D03*
X142937500Y-96850000D03*
%TD*%
D10*
%TO.C,U44*%
X166025000Y-74850000D03*
X166025000Y-75950000D03*
X164925000Y-75950000D03*
X164925000Y-74850000D03*
%TD*%
D11*
%TO.C,C6*%
X133402500Y-69550000D03*
X135127500Y-69550000D03*
%TD*%
D10*
%TO.C,U192*%
X158225000Y-113850000D03*
X158225000Y-114950000D03*
X157125000Y-114950000D03*
X157125000Y-113850000D03*
%TD*%
D11*
%TO.C,C169*%
X125612500Y-112450000D03*
X127337500Y-112450000D03*
%TD*%
%TO.C,C225*%
X168512500Y-124150000D03*
X170237500Y-124150000D03*
%TD*%
%TO.C,C161*%
X152912500Y-108550000D03*
X154637500Y-108550000D03*
%TD*%
D10*
%TO.C,U268*%
X162125000Y-133350000D03*
X162125000Y-134450000D03*
X161025000Y-134450000D03*
X161025000Y-133350000D03*
%TD*%
D11*
%TO.C,C240*%
X168487500Y-128050000D03*
X170212500Y-128050000D03*
%TD*%
D10*
%TO.C,U117*%
X158225000Y-94350000D03*
X158225000Y-95450000D03*
X157125000Y-95450000D03*
X157125000Y-94350000D03*
%TD*%
%TO.C,U77*%
X119225000Y-86550000D03*
X119225000Y-87650000D03*
X118125000Y-87650000D03*
X118125000Y-86550000D03*
%TD*%
%TO.C,U179*%
X166024999Y-109950000D03*
X166024999Y-111050000D03*
X164924999Y-111050000D03*
X164924999Y-109950000D03*
%TD*%
%TO.C,U251*%
X154325000Y-129450000D03*
X154325000Y-130550000D03*
X153225000Y-130550000D03*
X153225000Y-129450000D03*
%TD*%
%TO.C,U143*%
X142625000Y-102150000D03*
X142625000Y-103250000D03*
X141525000Y-103250000D03*
X141525000Y-102150000D03*
%TD*%
D11*
%TO.C,C5*%
X129512500Y-69560000D03*
X131237500Y-69560000D03*
%TD*%
D10*
%TO.C,U47*%
X119225000Y-78750000D03*
X119225000Y-79850000D03*
X118125000Y-79850000D03*
X118125000Y-78750000D03*
%TD*%
%TO.C,U9*%
X146525000Y-67050000D03*
X146525000Y-68150000D03*
X145425000Y-68150000D03*
X145425000Y-67050000D03*
%TD*%
D11*
%TO.C,C216*%
X133412500Y-124150000D03*
X135137500Y-124150000D03*
%TD*%
D10*
%TO.C,U52*%
X138725000Y-78750000D03*
X138725000Y-79850000D03*
X137625000Y-79850000D03*
X137625000Y-78750000D03*
%TD*%
D11*
%TO.C,C269*%
X164612500Y-135850000D03*
X166337500Y-135850000D03*
%TD*%
D10*
%TO.C,U48*%
X123125000Y-78750000D03*
X123125000Y-79850000D03*
X122025000Y-79850000D03*
X122025000Y-78750000D03*
%TD*%
D11*
%TO.C,C24*%
X145112500Y-73450000D03*
X146837500Y-73450000D03*
%TD*%
%TO.C,C12*%
X156812500Y-69560000D03*
X158537500Y-69560000D03*
%TD*%
%TO.C,C188*%
X141212500Y-116350000D03*
X142937500Y-116350000D03*
%TD*%
%TO.C,C78*%
X121712500Y-89050000D03*
X123437500Y-89050000D03*
%TD*%
D10*
%TO.C,U12*%
X158225000Y-67050000D03*
X158225000Y-68150000D03*
X157125000Y-68150000D03*
X157125000Y-67050000D03*
%TD*%
D11*
%TO.C,C50*%
X129512500Y-81250000D03*
X131237500Y-81250000D03*
%TD*%
D10*
%TO.C,U270*%
X169925000Y-133350000D03*
X169925000Y-134450000D03*
X168825000Y-134450000D03*
X168825000Y-133350000D03*
%TD*%
D11*
%TO.C,C41*%
X152912500Y-77350000D03*
X154637500Y-77350000D03*
%TD*%
%TO.C,C260*%
X129512500Y-135850000D03*
X131237500Y-135850000D03*
%TD*%
%TO.C,C49*%
X125612500Y-81250000D03*
X127337500Y-81250000D03*
%TD*%
%TO.C,C128*%
X141212500Y-100750000D03*
X142937500Y-100750000D03*
%TD*%
D10*
%TO.C,U252*%
X158225000Y-129450000D03*
X158225000Y-130550000D03*
X157125000Y-130550000D03*
X157125000Y-129450000D03*
%TD*%
%TO.C,U187*%
X138725000Y-113850000D03*
X138725000Y-114950000D03*
X137625000Y-114950000D03*
X137625000Y-113850000D03*
%TD*%
D11*
%TO.C,C44*%
X164612500Y-77350000D03*
X166337500Y-77350000D03*
%TD*%
%TO.C,C99*%
X145112500Y-92950000D03*
X146837500Y-92950000D03*
%TD*%
%TO.C,C117*%
X156812500Y-96850000D03*
X158537500Y-96850000D03*
%TD*%
%TO.C,C56*%
X152912500Y-81250000D03*
X154637500Y-81250000D03*
%TD*%
D12*
%TO.C,R4*%
X177355000Y-81517500D03*
X177355000Y-83342500D03*
%TD*%
D11*
%TO.C,C237*%
X156812500Y-128050000D03*
X158537500Y-128050000D03*
%TD*%
D10*
%TO.C,U175*%
X150425000Y-109950000D03*
X150425000Y-111050000D03*
X149325000Y-111050000D03*
X149325000Y-109950000D03*
%TD*%
%TO.C,U234*%
X146525000Y-125550000D03*
X146525000Y-126650000D03*
X145425000Y-126650000D03*
X145425000Y-125550000D03*
%TD*%
%TO.C,U236*%
X154325000Y-125550000D03*
X154325000Y-126650000D03*
X153225000Y-126650000D03*
X153225000Y-125550000D03*
%TD*%
%TO.C,U14*%
X166025000Y-67050000D03*
X166025000Y-68150000D03*
X164925000Y-68150000D03*
X164925000Y-67050000D03*
%TD*%
%TO.C,U211*%
X115325000Y-121650000D03*
X115325000Y-122750000D03*
X114225000Y-122750000D03*
X114225000Y-121650000D03*
%TD*%
D11*
%TO.C,C165*%
X168512500Y-108550000D03*
X170237500Y-108550000D03*
%TD*%
%TO.C,C1*%
X113922500Y-69540000D03*
X115647500Y-69540000D03*
%TD*%
%TO.C,C114*%
X145112500Y-96850000D03*
X146837500Y-96850000D03*
%TD*%
%TO.C,C63*%
X121712500Y-85150000D03*
X123437500Y-85150000D03*
%TD*%
%TO.C,C180*%
X168512500Y-112450000D03*
X170237500Y-112450000D03*
%TD*%
D10*
%TO.C,U255*%
X169925000Y-129450000D03*
X169925000Y-130550000D03*
X168825000Y-130550000D03*
X168825000Y-129450000D03*
%TD*%
D11*
%TO.C,C221*%
X152912500Y-124150000D03*
X154637500Y-124150000D03*
%TD*%
D10*
%TO.C,U212*%
X119225000Y-121650000D03*
X119225000Y-122750000D03*
X118125000Y-122750000D03*
X118125000Y-121650000D03*
%TD*%
%TO.C,U5*%
X130925000Y-67050000D03*
X130925000Y-68150000D03*
X129825000Y-68150000D03*
X129825000Y-67050000D03*
%TD*%
%TO.C,U53*%
X142625000Y-78750000D03*
X142625000Y-79850000D03*
X141525000Y-79850000D03*
X141525000Y-78750000D03*
%TD*%
%TO.C,U144*%
X146525000Y-102150000D03*
X146525000Y-103250000D03*
X145425000Y-103250000D03*
X145425000Y-102150000D03*
%TD*%
%TO.C,U36*%
X134825000Y-74850000D03*
X134825000Y-75950000D03*
X133725000Y-75950000D03*
X133725000Y-74850000D03*
%TD*%
%TO.C,U129*%
X146525000Y-98250000D03*
X146525000Y-99350000D03*
X145425000Y-99350000D03*
X145425000Y-98250000D03*
%TD*%
%TO.C,U46*%
X115325000Y-78750000D03*
X115325000Y-79850000D03*
X114225000Y-79850000D03*
X114225000Y-78750000D03*
%TD*%
%TO.C,U216*%
X134825000Y-121650000D03*
X134825000Y-122750000D03*
X133725000Y-122750000D03*
X133725000Y-121650000D03*
%TD*%
D11*
%TO.C,C217*%
X137312500Y-124150000D03*
X139037500Y-124150000D03*
%TD*%
%TO.C,C57*%
X156812500Y-81250000D03*
X158537500Y-81250000D03*
%TD*%
D10*
%TO.C,U271*%
X115325000Y-137250000D03*
X115325000Y-138350000D03*
X114225000Y-138350000D03*
X114225000Y-137250000D03*
%TD*%
D11*
%TO.C,C88*%
X160712500Y-89050000D03*
X162437500Y-89050000D03*
%TD*%
%TO.C,C280*%
X149012500Y-139750000D03*
X150737500Y-139750000D03*
%TD*%
%TO.C,C17*%
X117812500Y-73450000D03*
X119537500Y-73450000D03*
%TD*%
D10*
%TO.C,U199*%
X127025000Y-117750000D03*
X127025000Y-118850000D03*
X125925000Y-118850000D03*
X125925000Y-117750000D03*
%TD*%
%TO.C,U121*%
X115325000Y-98250000D03*
X115325000Y-99350000D03*
X114225000Y-99350000D03*
X114225000Y-98250000D03*
%TD*%
D11*
%TO.C,C4*%
X125622500Y-69540000D03*
X127347500Y-69540000D03*
%TD*%
%TO.C,C192*%
X156812500Y-116350000D03*
X158537500Y-116350000D03*
%TD*%
%TO.C,C125*%
X129512500Y-100750000D03*
X131237500Y-100750000D03*
%TD*%
%TO.C,C40*%
X149012500Y-77350000D03*
X150737500Y-77350000D03*
%TD*%
D10*
%TO.C,U35*%
X130925000Y-74850000D03*
X130925000Y-75950000D03*
X129825000Y-75950000D03*
X129825000Y-74850000D03*
%TD*%
%TO.C,U214*%
X127025000Y-121650000D03*
X127025000Y-122750000D03*
X125925000Y-122750000D03*
X125925000Y-121650000D03*
%TD*%
D11*
%TO.C,C176*%
X152912500Y-112450000D03*
X154637500Y-112450000D03*
%TD*%
D10*
%TO.C,U230*%
X130925000Y-125550000D03*
X130925000Y-126650000D03*
X129825000Y-126650000D03*
X129825000Y-125550000D03*
%TD*%
D11*
%TO.C,C116*%
X152912500Y-96850000D03*
X154637500Y-96850000D03*
%TD*%
D10*
%TO.C,U124*%
X127025000Y-98250000D03*
X127025000Y-99350000D03*
X125925000Y-99350000D03*
X125925000Y-98250000D03*
%TD*%
D11*
%TO.C,C126*%
X133412500Y-100750000D03*
X135137500Y-100750000D03*
%TD*%
%TO.C,C111*%
X133412500Y-96850000D03*
X135137500Y-96850000D03*
%TD*%
D10*
%TO.C,U273*%
X123125000Y-137250000D03*
X123125000Y-138350000D03*
X122025000Y-138350000D03*
X122025000Y-137250000D03*
%TD*%
%TO.C,U277*%
X138725000Y-137250000D03*
X138725000Y-138350000D03*
X137625000Y-138350000D03*
X137625000Y-137250000D03*
%TD*%
%TO.C,U142*%
X138725000Y-102150000D03*
X138725000Y-103250000D03*
X137625000Y-103250000D03*
X137625000Y-102150000D03*
%TD*%
%TO.C,U10*%
X150425000Y-67050000D03*
X150425000Y-68150000D03*
X149325000Y-68150000D03*
X149325000Y-67050000D03*
%TD*%
D11*
%TO.C,C106*%
X113912500Y-96850000D03*
X115637500Y-96850000D03*
%TD*%
D10*
%TO.C,U147*%
X158225000Y-102150000D03*
X158225000Y-103250000D03*
X157125000Y-103250000D03*
X157125000Y-102150000D03*
%TD*%
%TO.C,U57*%
X158225000Y-78750000D03*
X158225000Y-79850000D03*
X157125000Y-79850000D03*
X157125000Y-78750000D03*
%TD*%
%TO.C,U171*%
X134825000Y-109950000D03*
X134825000Y-111050000D03*
X133725000Y-111050000D03*
X133725000Y-109950000D03*
%TD*%
%TO.C,U111*%
X134825000Y-94350000D03*
X134825000Y-95450000D03*
X133725000Y-95450000D03*
X133725000Y-94350000D03*
%TD*%
D11*
%TO.C,C82*%
X137312500Y-89050000D03*
X139037500Y-89050000D03*
%TD*%
%TO.C,C84*%
X145112500Y-89050000D03*
X146837500Y-89050000D03*
%TD*%
D10*
%TO.C,U103*%
X162125000Y-90450000D03*
X162125000Y-91550000D03*
X161025000Y-91550000D03*
X161025000Y-90450000D03*
%TD*%
%TO.C,U170*%
X130925000Y-109950000D03*
X130925000Y-111050000D03*
X129825000Y-111050000D03*
X129825000Y-109950000D03*
%TD*%
%TO.C,U17*%
X119225000Y-70950000D03*
X119225000Y-72050000D03*
X118125000Y-72050000D03*
X118125000Y-70950000D03*
%TD*%
%TO.C,U82*%
X138725000Y-86550000D03*
X138725000Y-87650000D03*
X137625000Y-87650000D03*
X137625000Y-86550000D03*
%TD*%
%TO.C,U186*%
X134825000Y-113850000D03*
X134825000Y-114950000D03*
X133725000Y-114950000D03*
X133725000Y-113850000D03*
%TD*%
%TO.C,U132*%
X158225000Y-98250000D03*
X158225000Y-99350000D03*
X157125000Y-99350000D03*
X157125000Y-98250000D03*
%TD*%
D11*
%TO.C,C168*%
X121712500Y-112450000D03*
X123437500Y-112450000D03*
%TD*%
%TO.C,C81*%
X133412500Y-89050000D03*
X135137500Y-89050000D03*
%TD*%
%TO.C,C263*%
X141212500Y-135850000D03*
X142937500Y-135850000D03*
%TD*%
D10*
%TO.C,U189*%
X146525000Y-113850000D03*
X146525000Y-114950000D03*
X145425000Y-114950000D03*
X145425000Y-113850000D03*
%TD*%
%TO.C,U145*%
X150425000Y-102150000D03*
X150425000Y-103250000D03*
X149325000Y-103250000D03*
X149325000Y-102150000D03*
%TD*%
D11*
%TO.C,C270*%
X168512500Y-135850000D03*
X170237500Y-135850000D03*
%TD*%
D10*
%TO.C,U7*%
X138725000Y-67050000D03*
X138725000Y-68150000D03*
X137625000Y-68150000D03*
X137625000Y-67050000D03*
%TD*%
%TO.C,U222*%
X158225000Y-121650000D03*
X158225000Y-122750000D03*
X157125000Y-122750000D03*
X157125000Y-121650000D03*
%TD*%
%TO.C,U59*%
X166025000Y-78750000D03*
X166025000Y-79850000D03*
X164925000Y-79850000D03*
X164925000Y-78750000D03*
%TD*%
D11*
%TO.C,C235*%
X149012500Y-128050000D03*
X150737500Y-128050000D03*
%TD*%
%TO.C,C148*%
X160712500Y-104650000D03*
X162437500Y-104650000D03*
%TD*%
%TO.C,C124*%
X125612500Y-100750000D03*
X127337500Y-100750000D03*
%TD*%
%TO.C,C222*%
X156812500Y-124150000D03*
X158537500Y-124150000D03*
%TD*%
%TO.C,C89*%
X164612500Y-89050000D03*
X166337500Y-89050000D03*
%TD*%
%TO.C,C179*%
X164587500Y-112450000D03*
X166312500Y-112450000D03*
%TD*%
%TO.C,C215*%
X129512500Y-124150000D03*
X131237500Y-124150000D03*
%TD*%
%TO.C,C256*%
X113912500Y-135850000D03*
X115637500Y-135850000D03*
%TD*%
%TO.C,C183*%
X121712500Y-116350000D03*
X123437500Y-116350000D03*
%TD*%
%TO.C,C110*%
X129512500Y-96850000D03*
X131237500Y-96850000D03*
%TD*%
%TO.C,C227*%
X117812500Y-128050000D03*
X119537500Y-128050000D03*
%TD*%
%TO.C,C232*%
X137312500Y-128050000D03*
X139037500Y-128050000D03*
%TD*%
D10*
%TO.C,U67*%
X138725000Y-82650000D03*
X138725000Y-83750000D03*
X137625000Y-83750000D03*
X137625000Y-82650000D03*
%TD*%
D11*
%TO.C,C15*%
X168512500Y-69540000D03*
X170237500Y-69540000D03*
%TD*%
D10*
%TO.C,U193*%
X162125000Y-113850000D03*
X162125000Y-114950000D03*
X161025000Y-114950000D03*
X161025000Y-113850000D03*
%TD*%
D11*
%TO.C,C59*%
X164612500Y-81250000D03*
X166337500Y-81250000D03*
%TD*%
D10*
%TO.C,U85*%
X150425000Y-86550000D03*
X150425000Y-87650000D03*
X149325000Y-87650000D03*
X149325000Y-86550000D03*
%TD*%
D11*
%TO.C,C220*%
X149012500Y-124150000D03*
X150737500Y-124150000D03*
%TD*%
%TO.C,C14*%
X164612500Y-69560000D03*
X166337500Y-69560000D03*
%TD*%
%TO.C,C275*%
X129512500Y-139750000D03*
X131237500Y-139750000D03*
%TD*%
%TO.C,C242*%
X117812500Y-131950000D03*
X119537500Y-131950000D03*
%TD*%
D10*
%TO.C,U213*%
X123125000Y-121650000D03*
X123125000Y-122750000D03*
X122025000Y-122750000D03*
X122025000Y-121650000D03*
%TD*%
D11*
%TO.C,C139*%
X125612500Y-104650000D03*
X127337500Y-104650000D03*
%TD*%
D10*
%TO.C,U15*%
X169925000Y-67050000D03*
X169925000Y-68150000D03*
X168825000Y-68150000D03*
X168825000Y-67050000D03*
%TD*%
D11*
%TO.C,C258*%
X121712500Y-135850000D03*
X123437500Y-135850000D03*
%TD*%
%TO.C,C219*%
X145112500Y-124150000D03*
X146837500Y-124150000D03*
%TD*%
%TO.C,C98*%
X141212500Y-92950000D03*
X142937500Y-92950000D03*
%TD*%
%TO.C,C271*%
X113912500Y-139750000D03*
X115637500Y-139750000D03*
%TD*%
%TO.C,C267*%
X156812500Y-135850000D03*
X158537500Y-135850000D03*
%TD*%
%TO.C,C95*%
X129512500Y-92950000D03*
X131237500Y-92950000D03*
%TD*%
D10*
%TO.C,U195*%
X169925000Y-113850000D03*
X169925000Y-114950000D03*
X168825000Y-114950000D03*
X168825000Y-113850000D03*
%TD*%
D11*
%TO.C,C146*%
X152912500Y-104650000D03*
X154637500Y-104650000D03*
%TD*%
D10*
%TO.C,U207*%
X158225000Y-117750000D03*
X158225000Y-118850000D03*
X157125000Y-118850000D03*
X157125000Y-117750000D03*
%TD*%
D11*
%TO.C,C74*%
X164612500Y-85150000D03*
X166337500Y-85150000D03*
%TD*%
D10*
%TO.C,U264*%
X146525000Y-133350000D03*
X146525000Y-134450000D03*
X145425000Y-134450000D03*
X145425000Y-133350000D03*
%TD*%
%TO.C,U164*%
X166024999Y-106050000D03*
X166024999Y-107150000D03*
X164924999Y-107150000D03*
X164924999Y-106050000D03*
%TD*%
D11*
%TO.C,C129*%
X145112500Y-100750000D03*
X146837500Y-100750000D03*
%TD*%
D10*
%TO.C,U238*%
X162125000Y-125550000D03*
X162125000Y-126650000D03*
X161025000Y-126650000D03*
X161025000Y-125550000D03*
%TD*%
D11*
%TO.C,C107*%
X117812500Y-96825000D03*
X119537500Y-96825000D03*
%TD*%
D10*
%TO.C,U39*%
X146525000Y-74850000D03*
X146525000Y-75950000D03*
X145425000Y-75950000D03*
X145425000Y-74850000D03*
%TD*%
D11*
%TO.C,C264*%
X145112500Y-135850000D03*
X146837500Y-135850000D03*
%TD*%
D10*
%TO.C,U118*%
X162125000Y-94350000D03*
X162125000Y-95450000D03*
X161025000Y-95450000D03*
X161025000Y-94350000D03*
%TD*%
%TO.C,U168*%
X123125000Y-109950000D03*
X123125000Y-111050000D03*
X122025000Y-111050000D03*
X122025000Y-109950000D03*
%TD*%
D11*
%TO.C,C157*%
X137312500Y-108550000D03*
X139037500Y-108550000D03*
%TD*%
D10*
%TO.C,U155*%
X130925000Y-106050000D03*
X130925000Y-107150000D03*
X129825000Y-107150000D03*
X129825000Y-106050000D03*
%TD*%
%TO.C,U149*%
X166025000Y-102150000D03*
X166025000Y-103250000D03*
X164925000Y-103250000D03*
X164925000Y-102150000D03*
%TD*%
%TO.C,U112*%
X138725000Y-94350000D03*
X138725000Y-95450000D03*
X137625000Y-95450000D03*
X137625000Y-94350000D03*
%TD*%
D11*
%TO.C,C147*%
X156812500Y-104650000D03*
X158537500Y-104650000D03*
%TD*%
D10*
%TO.C,U259*%
X127025000Y-133350000D03*
X127025000Y-134450000D03*
X125925000Y-134450000D03*
X125925000Y-133350000D03*
%TD*%
%TO.C,U188*%
X142625000Y-113850000D03*
X142625000Y-114950000D03*
X141525000Y-114950000D03*
X141525000Y-113850000D03*
%TD*%
D11*
%TO.C,C135*%
X168512500Y-100750000D03*
X170237500Y-100750000D03*
%TD*%
%TO.C,C23*%
X141212500Y-73450000D03*
X142937500Y-73450000D03*
%TD*%
D10*
%TO.C,U246*%
X134825000Y-129450000D03*
X134825000Y-130550000D03*
X133725000Y-130550000D03*
X133725000Y-129450000D03*
%TD*%
D11*
%TO.C,C200*%
X129512500Y-120250000D03*
X131237500Y-120250000D03*
%TD*%
D10*
%TO.C,U282*%
X158225000Y-137250000D03*
X158225000Y-138350000D03*
X157125000Y-138350000D03*
X157125000Y-137250000D03*
%TD*%
%TO.C,U176*%
X154325000Y-109950000D03*
X154325000Y-111050000D03*
X153225000Y-111050000D03*
X153225000Y-109950000D03*
%TD*%
D11*
%TO.C,C118*%
X160712500Y-96850000D03*
X162437500Y-96850000D03*
%TD*%
D10*
%TO.C,U182*%
X119225000Y-113850000D03*
X119225000Y-114950000D03*
X118125000Y-114950000D03*
X118125000Y-113850000D03*
%TD*%
D11*
%TO.C,C201*%
X133412500Y-120250000D03*
X135137500Y-120250000D03*
%TD*%
D10*
%TO.C,U69*%
X146525000Y-82650000D03*
X146525000Y-83750000D03*
X145425000Y-83750000D03*
X145425000Y-82650000D03*
%TD*%
%TO.C,U226*%
X115325000Y-125550000D03*
X115325000Y-126650000D03*
X114225000Y-126650000D03*
X114225000Y-125550000D03*
%TD*%
%TO.C,U28*%
X162125000Y-70950000D03*
X162125000Y-72050000D03*
X161025000Y-72050000D03*
X161025000Y-70950000D03*
%TD*%
D11*
%TO.C,C91*%
X113912500Y-92950000D03*
X115637500Y-92950000D03*
%TD*%
%TO.C,C90*%
X168512500Y-89050000D03*
X170237500Y-89050000D03*
%TD*%
D10*
%TO.C,U104*%
X166025000Y-90450000D03*
X166025000Y-91550000D03*
X164925000Y-91550000D03*
X164925000Y-90450000D03*
%TD*%
D11*
%TO.C,C138*%
X121712500Y-104650000D03*
X123437500Y-104650000D03*
%TD*%
D10*
%TO.C,U16*%
X115325000Y-70950000D03*
X115325000Y-72050000D03*
X114225000Y-72050000D03*
X114225000Y-70950000D03*
%TD*%
D11*
%TO.C,C25*%
X149012500Y-73450000D03*
X150737500Y-73450000D03*
%TD*%
%TO.C,C85*%
X149012500Y-89050000D03*
X150737500Y-89050000D03*
%TD*%
%TO.C,C163*%
X160737500Y-108550000D03*
X162462500Y-108550000D03*
%TD*%
%TO.C,C236*%
X152912500Y-128050000D03*
X154637500Y-128050000D03*
%TD*%
%TO.C,C79*%
X125612500Y-89050000D03*
X127337500Y-89050000D03*
%TD*%
%TO.C,C272*%
X117812500Y-139750000D03*
X119537500Y-139750000D03*
%TD*%
D10*
%TO.C,U174*%
X146525000Y-109950000D03*
X146525000Y-111050000D03*
X145425000Y-111050000D03*
X145425000Y-109950000D03*
%TD*%
D11*
%TO.C,C10*%
X149022500Y-69540000D03*
X150747500Y-69540000D03*
%TD*%
%TO.C,C194*%
X164612500Y-116350000D03*
X166337500Y-116350000D03*
%TD*%
%TO.C,C284*%
X164612500Y-139750000D03*
X166337500Y-139750000D03*
%TD*%
%TO.C,C155*%
X129512500Y-108550000D03*
X131237500Y-108550000D03*
%TD*%
D10*
%TO.C,U2*%
X119225000Y-67050000D03*
X119225000Y-68150000D03*
X118125000Y-68150000D03*
X118125000Y-67050000D03*
%TD*%
%TO.C,U202*%
X138725000Y-117750000D03*
X138725000Y-118850000D03*
X137625000Y-118850000D03*
X137625000Y-117750000D03*
%TD*%
D11*
%TO.C,C212*%
X117812500Y-124150000D03*
X119537500Y-124150000D03*
%TD*%
D10*
%TO.C,U233*%
X142625000Y-125550000D03*
X142625000Y-126650000D03*
X141525000Y-126650000D03*
X141525000Y-125550000D03*
%TD*%
D11*
%TO.C,C151*%
X113912500Y-108550000D03*
X115637500Y-108550000D03*
%TD*%
D10*
%TO.C,U190*%
X150425000Y-113850000D03*
X150425000Y-114950000D03*
X149325000Y-114950000D03*
X149325000Y-113850000D03*
%TD*%
D11*
%TO.C,C3*%
X121712500Y-69530000D03*
X123437500Y-69530000D03*
%TD*%
%TO.C,C19*%
X125612500Y-73450000D03*
X127337500Y-73450000D03*
%TD*%
%TO.C,C39*%
X145112500Y-77350000D03*
X146837500Y-77350000D03*
%TD*%
D12*
%TO.C,R7*%
X179615000Y-78010000D03*
X179615000Y-79835000D03*
%TD*%
D11*
%TO.C,C252*%
X156812500Y-131950000D03*
X158537500Y-131950000D03*
%TD*%
%TO.C,C279*%
X145112500Y-139750000D03*
X146837500Y-139750000D03*
%TD*%
D10*
%TO.C,U275*%
X130925000Y-137250000D03*
X130925000Y-138350000D03*
X129825000Y-138350000D03*
X129825000Y-137250000D03*
%TD*%
%TO.C,U20*%
X130925000Y-70950000D03*
X130925000Y-72050000D03*
X129825000Y-72050000D03*
X129825000Y-70950000D03*
%TD*%
%TO.C,U34*%
X127025000Y-74850000D03*
X127025000Y-75950000D03*
X125925000Y-75950000D03*
X125925000Y-74850000D03*
%TD*%
%TO.C,U201*%
X134825000Y-117750000D03*
X134825000Y-118850000D03*
X133725000Y-118850000D03*
X133725000Y-117750000D03*
%TD*%
%TO.C,U160*%
X150425000Y-106050000D03*
X150425000Y-107150000D03*
X149325000Y-107150000D03*
X149325000Y-106050000D03*
%TD*%
D11*
%TO.C,C121*%
X113912500Y-100750000D03*
X115637500Y-100750000D03*
%TD*%
%TO.C,C60*%
X168512500Y-81250000D03*
X170237500Y-81250000D03*
%TD*%
D10*
%TO.C,U248*%
X142625000Y-129450000D03*
X142625000Y-130550000D03*
X141525000Y-130550000D03*
X141525000Y-129450000D03*
%TD*%
D11*
%TO.C,C193*%
X160712500Y-116350000D03*
X162437500Y-116350000D03*
%TD*%
D10*
%TO.C,U73*%
X162125000Y-82650000D03*
X162125000Y-83750000D03*
X161025000Y-83750000D03*
X161025000Y-82650000D03*
%TD*%
%TO.C,U204*%
X146525000Y-117750000D03*
X146525000Y-118850000D03*
X145425000Y-118850000D03*
X145425000Y-117750000D03*
%TD*%
%TO.C,U32*%
X119225000Y-74850000D03*
X119225000Y-75950000D03*
X118125000Y-75950000D03*
X118125000Y-74850000D03*
%TD*%
%TO.C,U113*%
X142625000Y-94350000D03*
X142625000Y-95450000D03*
X141525000Y-95450000D03*
X141525000Y-94350000D03*
%TD*%
D11*
%TO.C,C143*%
X141212500Y-104650000D03*
X142937500Y-104650000D03*
%TD*%
D10*
%TO.C,U141*%
X134825000Y-102150000D03*
X134825000Y-103250000D03*
X133725000Y-103250000D03*
X133725000Y-102150000D03*
%TD*%
D11*
%TO.C,C170*%
X129512500Y-112450000D03*
X131237500Y-112450000D03*
%TD*%
%TO.C,C150*%
X168512500Y-104650000D03*
X170237500Y-104650000D03*
%TD*%
%TO.C,C21*%
X133412500Y-73450000D03*
X135137500Y-73450000D03*
%TD*%
%TO.C,C226*%
X113912500Y-128050000D03*
X115637500Y-128050000D03*
%TD*%
D10*
%TO.C,U283*%
X162125000Y-137250000D03*
X162125000Y-138350000D03*
X161025000Y-138350000D03*
X161025000Y-137250000D03*
%TD*%
D11*
%TO.C,C175*%
X149012500Y-112450000D03*
X150737500Y-112450000D03*
%TD*%
D10*
%TO.C,U109*%
X127025000Y-94350000D03*
X127025000Y-95450000D03*
X125925000Y-95450000D03*
X125925000Y-94350000D03*
%TD*%
D11*
%TO.C,C184*%
X125612500Y-116350000D03*
X127337500Y-116350000D03*
%TD*%
%TO.C,C13*%
X160722500Y-69560000D03*
X162447500Y-69560000D03*
%TD*%
%TO.C,C257*%
X117812500Y-135850000D03*
X119537500Y-135850000D03*
%TD*%
D10*
%TO.C,U125*%
X130925000Y-98250000D03*
X130925000Y-99350000D03*
X129825000Y-99350000D03*
X129825000Y-98250000D03*
%TD*%
D11*
%TO.C,C77*%
X117812500Y-89050000D03*
X119537500Y-89050000D03*
%TD*%
%TO.C,C171*%
X133437500Y-112450000D03*
X135162500Y-112450000D03*
%TD*%
%TO.C,C229*%
X125612500Y-128050000D03*
X127337500Y-128050000D03*
%TD*%
D10*
%TO.C,U165*%
X169925000Y-106050000D03*
X169925000Y-107150000D03*
X168825000Y-107150000D03*
X168825000Y-106050000D03*
%TD*%
%TO.C,U151*%
X115325000Y-106050000D03*
X115325000Y-107150000D03*
X114225000Y-107150000D03*
X114225000Y-106050000D03*
%TD*%
%TO.C,U178*%
X162125000Y-109950000D03*
X162125000Y-111050000D03*
X161025000Y-111050000D03*
X161025000Y-109950000D03*
%TD*%
D11*
%TO.C,C206*%
X152912500Y-120250000D03*
X154637500Y-120250000D03*
%TD*%
%TO.C,C197*%
X117812500Y-120250000D03*
X119537500Y-120250000D03*
%TD*%
%TO.C,C255*%
X168512500Y-131950000D03*
X170237500Y-131950000D03*
%TD*%
%TO.C,C132*%
X156812500Y-100750000D03*
X158537500Y-100750000D03*
%TD*%
%TO.C,C87*%
X156812500Y-89050000D03*
X158537500Y-89050000D03*
%TD*%
%TO.C,C152*%
X117812500Y-108550000D03*
X119537500Y-108550000D03*
%TD*%
%TO.C,C137*%
X117812500Y-104650000D03*
X119537500Y-104650000D03*
%TD*%
D10*
%TO.C,U93*%
X123125000Y-90450000D03*
X123125000Y-91550000D03*
X122025000Y-91550000D03*
X122025000Y-90450000D03*
%TD*%
%TO.C,U157*%
X138725000Y-106050000D03*
X138725000Y-107150000D03*
X137625000Y-107150000D03*
X137625000Y-106050000D03*
%TD*%
D11*
%TO.C,C94*%
X125612500Y-92950000D03*
X127337500Y-92950000D03*
%TD*%
%TO.C,C277*%
X137312500Y-139750000D03*
X139037500Y-139750000D03*
%TD*%
%TO.C,C191*%
X152912500Y-116350000D03*
X154637500Y-116350000D03*
%TD*%
%TO.C,C92*%
X117812500Y-92950000D03*
X119537500Y-92950000D03*
%TD*%
D10*
%TO.C,U19*%
X127025000Y-70950000D03*
X127025000Y-72050000D03*
X125925000Y-72050000D03*
X125925000Y-70950000D03*
%TD*%
D11*
%TO.C,C16*%
X113912500Y-73450000D03*
X115637500Y-73450000D03*
%TD*%
D10*
%TO.C,U208*%
X162125000Y-117750000D03*
X162125000Y-118850000D03*
X161025000Y-118850000D03*
X161025000Y-117750000D03*
%TD*%
%TO.C,U13*%
X162125000Y-67050000D03*
X162125000Y-68150000D03*
X161025000Y-68150000D03*
X161025000Y-67050000D03*
%TD*%
D11*
%TO.C,C251*%
X152912500Y-131950000D03*
X154637500Y-131950000D03*
%TD*%
D10*
%TO.C,U184*%
X127025000Y-113850000D03*
X127025000Y-114950000D03*
X125925000Y-114950000D03*
X125925000Y-113850000D03*
%TD*%
%TO.C,U215*%
X130925000Y-121650000D03*
X130925000Y-122750000D03*
X129825000Y-122750000D03*
X129825000Y-121650000D03*
%TD*%
%TO.C,U122*%
X119225000Y-98250000D03*
X119225000Y-99350000D03*
X118125000Y-99350000D03*
X118125000Y-98250000D03*
%TD*%
D11*
%TO.C,C36*%
X133412500Y-77350000D03*
X135137500Y-77350000D03*
%TD*%
D10*
%TO.C,U159*%
X146525000Y-106050000D03*
X146525000Y-107150000D03*
X145425000Y-107150000D03*
X145425000Y-106050000D03*
%TD*%
D11*
%TO.C,C241*%
X113912500Y-131950000D03*
X115637500Y-131950000D03*
%TD*%
%TO.C,C205*%
X149012500Y-120250000D03*
X150737500Y-120250000D03*
%TD*%
D10*
%TO.C,U55*%
X150425000Y-78750000D03*
X150425000Y-79850000D03*
X149325000Y-79850000D03*
X149325000Y-78750000D03*
%TD*%
%TO.C,U107*%
X119225000Y-94350000D03*
X119225000Y-95450000D03*
X118125000Y-95450000D03*
X118125000Y-94350000D03*
%TD*%
%TO.C,U115*%
X150425000Y-94350000D03*
X150425000Y-95450000D03*
X149325000Y-95450000D03*
X149325000Y-94350000D03*
%TD*%
D11*
%TO.C,C7*%
X137312500Y-69550000D03*
X139037500Y-69550000D03*
%TD*%
D10*
%TO.C,U237*%
X158225000Y-125550000D03*
X158225000Y-126650000D03*
X157125000Y-126650000D03*
X157125000Y-125550000D03*
%TD*%
%TO.C,U75*%
X169925000Y-82650000D03*
X169925000Y-83750000D03*
X168825000Y-83750000D03*
X168825000Y-82650000D03*
%TD*%
%TO.C,U241*%
X115325000Y-129450000D03*
X115325000Y-130550000D03*
X114225000Y-130550000D03*
X114225000Y-129450000D03*
%TD*%
%TO.C,U31*%
X115325000Y-74850000D03*
X115325000Y-75950000D03*
X114225000Y-75950000D03*
X114225000Y-74850000D03*
%TD*%
%TO.C,U49*%
X127025000Y-78750000D03*
X127025000Y-79850000D03*
X125925000Y-79850000D03*
X125925000Y-78750000D03*
%TD*%
D11*
%TO.C,C100*%
X149012500Y-92950000D03*
X150737500Y-92950000D03*
%TD*%
%TO.C,C18*%
X121712500Y-73450000D03*
X123437500Y-73450000D03*
%TD*%
%TO.C,C164*%
X164612500Y-108550000D03*
X166337500Y-108550000D03*
%TD*%
D10*
%TO.C,U1*%
X115325000Y-67050000D03*
X115325000Y-68150000D03*
X114225000Y-68150000D03*
X114225000Y-67050000D03*
%TD*%
D11*
%TO.C,C29*%
X164612500Y-73450000D03*
X166337500Y-73450000D03*
%TD*%
D10*
%TO.C,U203*%
X142625000Y-117750000D03*
X142625000Y-118850000D03*
X141525000Y-118850000D03*
X141525000Y-117750000D03*
%TD*%
%TO.C,U88*%
X162125000Y-86550000D03*
X162125000Y-87650000D03*
X161025000Y-87650000D03*
X161025000Y-86550000D03*
%TD*%
D11*
%TO.C,C274*%
X125612500Y-139750000D03*
X127337500Y-139750000D03*
%TD*%
%TO.C,C254*%
X164612500Y-131950000D03*
X166337500Y-131950000D03*
%TD*%
%TO.C,C127*%
X137312500Y-100750000D03*
X139037500Y-100750000D03*
%TD*%
D10*
%TO.C,U276*%
X134825000Y-137250000D03*
X134825000Y-138350000D03*
X133725000Y-138350000D03*
X133725000Y-137250000D03*
%TD*%
D11*
%TO.C,C153*%
X121712500Y-108550000D03*
X123437500Y-108550000D03*
%TD*%
%TO.C,C248*%
X141212500Y-131950000D03*
X142937500Y-131950000D03*
%TD*%
%TO.C,C276*%
X133412500Y-139750000D03*
X135137500Y-139750000D03*
%TD*%
%TO.C,C230*%
X129512500Y-128050000D03*
X131237500Y-128050000D03*
%TD*%
D10*
%TO.C,U152*%
X119225000Y-106050000D03*
X119225000Y-107150000D03*
X118125000Y-107150000D03*
X118125000Y-106050000D03*
%TD*%
D11*
%TO.C,C178*%
X160712500Y-112450000D03*
X162437500Y-112450000D03*
%TD*%
%TO.C,C69*%
X145112500Y-85150000D03*
X146837500Y-85150000D03*
%TD*%
D10*
%TO.C,U60*%
X169925000Y-78750000D03*
X169925000Y-79850000D03*
X168825000Y-79850000D03*
X168825000Y-78750000D03*
%TD*%
D11*
%TO.C,C266*%
X152912500Y-135850000D03*
X154637500Y-135850000D03*
%TD*%
%TO.C,C131*%
X152912500Y-100750000D03*
X154637500Y-100750000D03*
%TD*%
%TO.C,C28*%
X160712500Y-73450000D03*
X162437500Y-73450000D03*
%TD*%
D10*
%TO.C,U218*%
X142625000Y-121650000D03*
X142625000Y-122750000D03*
X141525000Y-122750000D03*
X141525000Y-121650000D03*
%TD*%
%TO.C,U167*%
X119225000Y-109950000D03*
X119225000Y-111050000D03*
X118125000Y-111050000D03*
X118125000Y-109950000D03*
%TD*%
%TO.C,U134*%
X166025000Y-98250000D03*
X166025000Y-99350000D03*
X164925000Y-99350000D03*
X164925000Y-98250000D03*
%TD*%
D11*
%TO.C,C136*%
X113912500Y-104650000D03*
X115637500Y-104650000D03*
%TD*%
%TO.C,C8*%
X141212500Y-69540000D03*
X142937500Y-69540000D03*
%TD*%
D10*
%TO.C,U154*%
X127025000Y-106050000D03*
X127025000Y-107150000D03*
X125925000Y-107150000D03*
X125925000Y-106050000D03*
%TD*%
%TO.C,U140*%
X130925000Y-102150000D03*
X130925000Y-103250000D03*
X129825000Y-103250000D03*
X129825000Y-102150000D03*
%TD*%
%TO.C,U40*%
X150425000Y-74850000D03*
X150425000Y-75950000D03*
X149325000Y-75950000D03*
X149325000Y-74850000D03*
%TD*%
D11*
%TO.C,C213*%
X121712500Y-124150000D03*
X123437500Y-124150000D03*
%TD*%
%TO.C,C47*%
X117812500Y-81250000D03*
X119537500Y-81250000D03*
%TD*%
D10*
%TO.C,U30*%
X169925000Y-70950000D03*
X169925000Y-72050000D03*
X168825000Y-72050000D03*
X168825000Y-70950000D03*
%TD*%
D11*
%TO.C,C45*%
X168512500Y-77350000D03*
X170237500Y-77350000D03*
%TD*%
%TO.C,C173*%
X141212500Y-112450000D03*
X142937500Y-112450000D03*
%TD*%
%TO.C,C103*%
X160712500Y-92950000D03*
X162437500Y-92950000D03*
%TD*%
D10*
%TO.C,U209*%
X166024999Y-117750000D03*
X166024999Y-118850000D03*
X164924999Y-118850000D03*
X164924999Y-117750000D03*
%TD*%
D11*
%TO.C,C102*%
X156812500Y-92950000D03*
X158537500Y-92950000D03*
%TD*%
D10*
%TO.C,U43*%
X162125000Y-74850000D03*
X162125000Y-75950000D03*
X161025000Y-75950000D03*
X161025000Y-74850000D03*
%TD*%
%TO.C,U25*%
X150425000Y-70950000D03*
X150425000Y-72050000D03*
X149325000Y-72050000D03*
X149325000Y-70950000D03*
%TD*%
%TO.C,U173*%
X142625000Y-109950000D03*
X142625000Y-111050000D03*
X141525000Y-111050000D03*
X141525000Y-109950000D03*
%TD*%
%TO.C,U127*%
X138725000Y-98250000D03*
X138725000Y-99350000D03*
X137625000Y-99350000D03*
X137625000Y-98250000D03*
%TD*%
%TO.C,U220*%
X150425000Y-121650000D03*
X150425000Y-122750000D03*
X149325000Y-122750000D03*
X149325000Y-121650000D03*
%TD*%
D11*
%TO.C,C228*%
X121712500Y-128050000D03*
X123437500Y-128050000D03*
%TD*%
D10*
%TO.C,U79*%
X127025000Y-86550000D03*
X127025000Y-87650000D03*
X125925000Y-87650000D03*
X125925000Y-86550000D03*
%TD*%
D11*
%TO.C,C211*%
X113912500Y-124150000D03*
X115637500Y-124150000D03*
%TD*%
D13*
%TO.C,C286*%
X181837500Y-68850000D03*
X180112500Y-68850000D03*
%TD*%
D10*
%TO.C,U177*%
X158225000Y-109950000D03*
X158225000Y-111050000D03*
X157125000Y-111050000D03*
X157125000Y-109950000D03*
%TD*%
%TO.C,U80*%
X130925000Y-86550000D03*
X130925000Y-87650000D03*
X129825000Y-87650000D03*
X129825000Y-86550000D03*
%TD*%
D11*
%TO.C,C27*%
X156812500Y-73450000D03*
X158537500Y-73450000D03*
%TD*%
D10*
%TO.C,U100*%
X150425000Y-90450000D03*
X150425000Y-91550000D03*
X149325000Y-91550000D03*
X149325000Y-90450000D03*
%TD*%
%TO.C,U232*%
X138725000Y-125550000D03*
X138725000Y-126650000D03*
X137625000Y-126650000D03*
X137625000Y-125550000D03*
%TD*%
D11*
%TO.C,C105*%
X168512500Y-92975000D03*
X170237500Y-92975000D03*
%TD*%
D10*
%TO.C,U123*%
X123125000Y-98250000D03*
X123125000Y-99350000D03*
X122025000Y-99350000D03*
X122025000Y-98250000D03*
%TD*%
D11*
%TO.C,C273*%
X121712500Y-139750000D03*
X123437500Y-139750000D03*
%TD*%
%TO.C,C196*%
X113912500Y-120250000D03*
X115637500Y-120250000D03*
%TD*%
D10*
%TO.C,U244*%
X127025000Y-129450000D03*
X127025000Y-130550000D03*
X125925000Y-130550000D03*
X125925000Y-129450000D03*
%TD*%
%TO.C,U198*%
X123125000Y-117750000D03*
X123125000Y-118850000D03*
X122025000Y-118850000D03*
X122025000Y-117750000D03*
%TD*%
%TO.C,U70*%
X150425000Y-82650000D03*
X150425000Y-83750000D03*
X149325000Y-83750000D03*
X149325000Y-82650000D03*
%TD*%
%TO.C,U105*%
X169925000Y-90450000D03*
X169925000Y-91550000D03*
X168825000Y-91550000D03*
X168825000Y-90450000D03*
%TD*%
D11*
%TO.C,C224*%
X164612500Y-124150000D03*
X166337500Y-124150000D03*
%TD*%
%TO.C,C73*%
X160712500Y-85150000D03*
X162437500Y-85150000D03*
%TD*%
D10*
%TO.C,U42*%
X158225000Y-74850000D03*
X158225000Y-75950000D03*
X157125000Y-75950000D03*
X157125000Y-74850000D03*
%TD*%
D11*
%TO.C,C149*%
X164612500Y-104650000D03*
X166337500Y-104650000D03*
%TD*%
%TO.C,C61*%
X113912500Y-85150000D03*
X115637500Y-85150000D03*
%TD*%
%TO.C,C158*%
X141212500Y-108550000D03*
X142937500Y-108550000D03*
%TD*%
%TO.C,C80*%
X129512500Y-89050000D03*
X131237500Y-89050000D03*
%TD*%
%TO.C,C46*%
X113912500Y-81250000D03*
X115637500Y-81250000D03*
%TD*%
%TO.C,C75*%
X168512500Y-85150000D03*
X170237500Y-85150000D03*
%TD*%
D10*
%TO.C,U196*%
X115325000Y-117750000D03*
X115325000Y-118850000D03*
X114225000Y-118850000D03*
X114225000Y-117750000D03*
%TD*%
D11*
%TO.C,C141*%
X133437500Y-104650000D03*
X135162500Y-104650000D03*
%TD*%
D10*
%TO.C,U274*%
X127025000Y-137250000D03*
X127025000Y-138350000D03*
X125925000Y-138350000D03*
X125925000Y-137250000D03*
%TD*%
D11*
%TO.C,C97*%
X137312500Y-92950000D03*
X139037500Y-92950000D03*
%TD*%
%TO.C,C104*%
X164612500Y-92950000D03*
X166337500Y-92950000D03*
%TD*%
D10*
%TO.C,U96*%
X134825000Y-90450000D03*
X134825000Y-91550000D03*
X133725000Y-91550000D03*
X133725000Y-90450000D03*
%TD*%
%TO.C,U114*%
X146525000Y-94350000D03*
X146525000Y-95450000D03*
X145425000Y-95450000D03*
X145425000Y-94350000D03*
%TD*%
D11*
%TO.C,C22*%
X137312500Y-73450000D03*
X139037500Y-73450000D03*
%TD*%
D10*
%TO.C,U231*%
X134825000Y-125550000D03*
X134825000Y-126650000D03*
X133725000Y-126650000D03*
X133725000Y-125550000D03*
%TD*%
%TO.C,U279*%
X146525000Y-137250000D03*
X146525000Y-138350000D03*
X145425000Y-138350000D03*
X145425000Y-137250000D03*
%TD*%
%TO.C,U161*%
X154325000Y-106050000D03*
X154325000Y-107150000D03*
X153225000Y-107150000D03*
X153225000Y-106050000D03*
%TD*%
D11*
%TO.C,C123*%
X121712500Y-100750000D03*
X123437500Y-100750000D03*
%TD*%
D10*
%TO.C,U247*%
X138725000Y-129450000D03*
X138725000Y-130550000D03*
X137625000Y-130550000D03*
X137625000Y-129450000D03*
%TD*%
%TO.C,U62*%
X119225000Y-82650000D03*
X119225000Y-83750000D03*
X118125000Y-83750000D03*
X118125000Y-82650000D03*
%TD*%
D11*
%TO.C,C244*%
X125612500Y-131950000D03*
X127337500Y-131950000D03*
%TD*%
%TO.C,C250*%
X149012500Y-131950000D03*
X150737500Y-131950000D03*
%TD*%
D10*
%TO.C,U41*%
X154325000Y-74850000D03*
X154325000Y-75950000D03*
X153225000Y-75950000D03*
X153225000Y-74850000D03*
%TD*%
D11*
%TO.C,C177*%
X156812500Y-112450000D03*
X158537500Y-112450000D03*
%TD*%
%TO.C,C9*%
X145112500Y-69550000D03*
X146837500Y-69550000D03*
%TD*%
%TO.C,C265*%
X149012500Y-135850000D03*
X150737500Y-135850000D03*
%TD*%
%TO.C,C62*%
X117812500Y-85150000D03*
X119537500Y-85150000D03*
%TD*%
%TO.C,C65*%
X129512500Y-85150000D03*
X131237500Y-85150000D03*
%TD*%
D10*
%TO.C,U8*%
X142625000Y-67050000D03*
X142625000Y-68150000D03*
X141525000Y-68150000D03*
X141525000Y-67050000D03*
%TD*%
D11*
%TO.C,C120*%
X168512500Y-96850000D03*
X170237500Y-96850000D03*
%TD*%
%TO.C,C203*%
X141212500Y-120250000D03*
X142937500Y-120250000D03*
%TD*%
D10*
%TO.C,U148*%
X162125000Y-102150000D03*
X162125000Y-103250000D03*
X161025000Y-103250000D03*
X161025000Y-102150000D03*
%TD*%
%TO.C,U150*%
X169925000Y-102150000D03*
X169925000Y-103250000D03*
X168825000Y-103250000D03*
X168825000Y-102150000D03*
%TD*%
D11*
%TO.C,C189*%
X145112500Y-116350000D03*
X146837500Y-116350000D03*
%TD*%
%TO.C,C186*%
X133412500Y-116350000D03*
X135137500Y-116350000D03*
%TD*%
%TO.C,C70*%
X149012500Y-85150000D03*
X150737500Y-85150000D03*
%TD*%
D10*
%TO.C,U181*%
X115325000Y-113850000D03*
X115325000Y-114950000D03*
X114225000Y-114950000D03*
X114225000Y-113850000D03*
%TD*%
%TO.C,U267*%
X158225000Y-133350000D03*
X158225000Y-134450000D03*
X157125000Y-134450000D03*
X157125000Y-133350000D03*
%TD*%
%TO.C,U27*%
X158225000Y-70950000D03*
X158225000Y-72050000D03*
X157125000Y-72050000D03*
X157125000Y-70950000D03*
%TD*%
%TO.C,U81*%
X134825000Y-86550000D03*
X134825000Y-87650000D03*
X133725000Y-87650000D03*
X133725000Y-86550000D03*
%TD*%
D11*
%TO.C,C67*%
X137312500Y-85150000D03*
X139037500Y-85150000D03*
%TD*%
D10*
%TO.C,U278*%
X142625000Y-137250000D03*
X142625000Y-138350000D03*
X141525000Y-138350000D03*
X141525000Y-137250000D03*
%TD*%
%TO.C,U194*%
X166024999Y-113850000D03*
X166024999Y-114950000D03*
X164924999Y-114950000D03*
X164924999Y-113850000D03*
%TD*%
%TO.C,U110*%
X130925000Y-94350000D03*
X130925000Y-95450000D03*
X129825000Y-95450000D03*
X129825000Y-94350000D03*
%TD*%
%TO.C,U185*%
X130925000Y-113850000D03*
X130925000Y-114950000D03*
X129825000Y-114950000D03*
X129825000Y-113850000D03*
%TD*%
D11*
%TO.C,C190*%
X149012500Y-116350000D03*
X150737500Y-116350000D03*
%TD*%
D10*
%TO.C,U91*%
X115325000Y-90450000D03*
X115325000Y-91550000D03*
X114225000Y-91550000D03*
X114225000Y-90450000D03*
%TD*%
D11*
%TO.C,C247*%
X137312500Y-131950000D03*
X139037500Y-131950000D03*
%TD*%
D10*
%TO.C,U101*%
X154325000Y-90450000D03*
X154325000Y-91550000D03*
X153225000Y-91550000D03*
X153225000Y-90450000D03*
%TD*%
%TO.C,U146*%
X154325000Y-102150000D03*
X154325000Y-103250000D03*
X153225000Y-103250000D03*
X153225000Y-102150000D03*
%TD*%
%TO.C,U163*%
X162125000Y-106050000D03*
X162125000Y-107150000D03*
X161025000Y-107150000D03*
X161025000Y-106050000D03*
%TD*%
%TO.C,U138*%
X123125000Y-102150000D03*
X123125000Y-103250000D03*
X122025000Y-103250000D03*
X122025000Y-102150000D03*
%TD*%
D11*
%TO.C,C209*%
X164612500Y-120250000D03*
X166337500Y-120250000D03*
%TD*%
D10*
%TO.C,U22*%
X138725000Y-70950000D03*
X138725000Y-72050000D03*
X137625000Y-72050000D03*
X137625000Y-70950000D03*
%TD*%
%TO.C,U24*%
X146525000Y-70950000D03*
X146525000Y-72050000D03*
X145425000Y-72050000D03*
X145425000Y-70950000D03*
%TD*%
D11*
%TO.C,C282*%
X156812500Y-139750000D03*
X158537500Y-139750000D03*
%TD*%
D10*
%TO.C,U169*%
X127025000Y-109950000D03*
X127025000Y-111050000D03*
X125925000Y-111050000D03*
X125925000Y-109950000D03*
%TD*%
D11*
%TO.C,C278*%
X141212500Y-139750000D03*
X142937500Y-139750000D03*
%TD*%
%TO.C,C172*%
X137312500Y-112450000D03*
X139037500Y-112450000D03*
%TD*%
D10*
%TO.C,U86*%
X154325000Y-86550000D03*
X154325000Y-87650000D03*
X153225000Y-87650000D03*
X153225000Y-86550000D03*
%TD*%
D11*
%TO.C,C30*%
X168512500Y-73450000D03*
X170237500Y-73450000D03*
%TD*%
%TO.C,C182*%
X117812500Y-116350000D03*
X119537500Y-116350000D03*
%TD*%
D10*
%TO.C,U200*%
X130925000Y-117750000D03*
X130925000Y-118850000D03*
X129825000Y-118850000D03*
X129825000Y-117750000D03*
%TD*%
%TO.C,U266*%
X154325000Y-133350000D03*
X154325000Y-134450000D03*
X153225000Y-134450000D03*
X153225000Y-133350000D03*
%TD*%
%TO.C,U38*%
X142625000Y-74850000D03*
X142625000Y-75950000D03*
X141525000Y-75950000D03*
X141525000Y-74850000D03*
%TD*%
%TO.C,U229*%
X127025000Y-125550000D03*
X127025000Y-126650000D03*
X125925000Y-126650000D03*
X125925000Y-125550000D03*
%TD*%
%TO.C,U50*%
X130925000Y-78750000D03*
X130925000Y-79850000D03*
X129825000Y-79850000D03*
X129825000Y-78750000D03*
%TD*%
D11*
%TO.C,C154*%
X125612500Y-108550000D03*
X127337500Y-108550000D03*
%TD*%
D10*
%TO.C,U72*%
X158225000Y-82650000D03*
X158225000Y-83750000D03*
X157125000Y-83750000D03*
X157125000Y-82650000D03*
%TD*%
%TO.C,U180*%
X169925000Y-109950000D03*
X169925000Y-111050000D03*
X168825000Y-111050000D03*
X168825000Y-109950000D03*
%TD*%
%TO.C,U210*%
X169925000Y-117750000D03*
X169925000Y-118850000D03*
X168825000Y-118850000D03*
X168825000Y-117750000D03*
%TD*%
%TO.C,U263*%
X142625000Y-133350000D03*
X142625000Y-134450000D03*
X141525000Y-134450000D03*
X141525000Y-133350000D03*
%TD*%
D11*
%TO.C,C71*%
X152912500Y-85150000D03*
X154637500Y-85150000D03*
%TD*%
D12*
%TO.C,R3*%
X176595000Y-78010000D03*
X176595000Y-79835000D03*
%TD*%
D10*
%TO.C,U128*%
X142625000Y-98250000D03*
X142625000Y-99350000D03*
X141525000Y-99350000D03*
X141525000Y-98250000D03*
%TD*%
D11*
%TO.C,C51*%
X133412500Y-81250000D03*
X135137500Y-81250000D03*
%TD*%
%TO.C,C68*%
X141212500Y-85150000D03*
X142937500Y-85150000D03*
%TD*%
D10*
%TO.C,U54*%
X146525000Y-78750000D03*
X146525000Y-79850000D03*
X145425000Y-79850000D03*
X145425000Y-78750000D03*
%TD*%
%TO.C,U95*%
X130925000Y-90450000D03*
X130925000Y-91550000D03*
X129825000Y-91550000D03*
X129825000Y-90450000D03*
%TD*%
D11*
%TO.C,C134*%
X164612500Y-100750000D03*
X166337500Y-100750000D03*
%TD*%
%TO.C,C20*%
X129512500Y-73450000D03*
X131237500Y-73450000D03*
%TD*%
%TO.C,C48*%
X121712500Y-81250000D03*
X123437500Y-81250000D03*
%TD*%
D10*
%TO.C,U33*%
X123125000Y-74850000D03*
X123125000Y-75950000D03*
X122025000Y-75950000D03*
X122025000Y-74850000D03*
%TD*%
D11*
%TO.C,C112*%
X137312500Y-96850000D03*
X139037500Y-96850000D03*
%TD*%
%TO.C,C218*%
X141212500Y-124150000D03*
X142937500Y-124150000D03*
%TD*%
D10*
%TO.C,U87*%
X158225000Y-86550000D03*
X158225000Y-87650000D03*
X157125000Y-87650000D03*
X157125000Y-86550000D03*
%TD*%
D11*
%TO.C,C37*%
X137312500Y-77350000D03*
X139037500Y-77350000D03*
%TD*%
%TO.C,C262*%
X137312500Y-135850000D03*
X139037500Y-135850000D03*
%TD*%
%TO.C,C199*%
X125612500Y-120250000D03*
X127337500Y-120250000D03*
%TD*%
%TO.C,C101*%
X152912500Y-92950000D03*
X154637500Y-92950000D03*
%TD*%
%TO.C,C66*%
X133412500Y-85150000D03*
X135137500Y-85150000D03*
%TD*%
D10*
%TO.C,U162*%
X158225000Y-106050000D03*
X158225000Y-107150000D03*
X157125000Y-107150000D03*
X157125000Y-106050000D03*
%TD*%
D14*
%TO.C,R1*%
X176075000Y-65662500D03*
X176075000Y-63837500D03*
%TD*%
D10*
%TO.C,U102*%
X158225000Y-90450000D03*
X158225000Y-91550000D03*
X157125000Y-91550000D03*
X157125000Y-90450000D03*
%TD*%
%TO.C,U61*%
X115325000Y-82650000D03*
X115325000Y-83750000D03*
X114225000Y-83750000D03*
X114225000Y-82650000D03*
%TD*%
D11*
%TO.C,C83*%
X141212500Y-89050000D03*
X142937500Y-89050000D03*
%TD*%
%TO.C,C2*%
X117822500Y-69540000D03*
X119547500Y-69540000D03*
%TD*%
D12*
%TO.C,R6*%
X178865000Y-81517500D03*
X178865000Y-83342500D03*
%TD*%
D10*
%TO.C,U240*%
X169925000Y-125550000D03*
X169925000Y-126650000D03*
X168825000Y-126650000D03*
X168825000Y-125550000D03*
%TD*%
%TO.C,U18*%
X123125000Y-70950000D03*
X123125000Y-72050000D03*
X122025000Y-72050000D03*
X122025000Y-70950000D03*
%TD*%
%TO.C,U51*%
X134825000Y-78750000D03*
X134825000Y-79850000D03*
X133725000Y-79850000D03*
X133725000Y-78750000D03*
%TD*%
%TO.C,U90*%
X169925000Y-86550000D03*
X169925000Y-87650000D03*
X168825000Y-87650000D03*
X168825000Y-86550000D03*
%TD*%
%TO.C,U242*%
X119225000Y-129450000D03*
X119225000Y-130550000D03*
X118125000Y-130550000D03*
X118125000Y-129450000D03*
%TD*%
D11*
%TO.C,C246*%
X133412500Y-131950000D03*
X135137500Y-131950000D03*
%TD*%
D10*
%TO.C,U243*%
X123125000Y-129450000D03*
X123125000Y-130550000D03*
X122025000Y-130550000D03*
X122025000Y-129450000D03*
%TD*%
%TO.C,U265*%
X150425000Y-133350000D03*
X150425000Y-134450000D03*
X149325000Y-134450000D03*
X149325000Y-133350000D03*
%TD*%
%TO.C,U119*%
X166025000Y-94350000D03*
X166025000Y-95450000D03*
X164925000Y-95450000D03*
X164925000Y-94350000D03*
%TD*%
%TO.C,U139*%
X127025000Y-102150000D03*
X127025000Y-103250000D03*
X125925000Y-103250000D03*
X125925000Y-102150000D03*
%TD*%
D11*
%TO.C,C72*%
X156812500Y-85150000D03*
X158537500Y-85150000D03*
%TD*%
D10*
%TO.C,U133*%
X162125000Y-98250000D03*
X162125000Y-99350000D03*
X161025000Y-99350000D03*
X161025000Y-98250000D03*
%TD*%
%TO.C,U45*%
X169925000Y-74850000D03*
X169925000Y-75950000D03*
X168825000Y-75950000D03*
X168825000Y-74850000D03*
%TD*%
D11*
%TO.C,C285*%
X168512500Y-139750000D03*
X170237500Y-139750000D03*
%TD*%
%TO.C,C253*%
X160712500Y-131950000D03*
X162437500Y-131950000D03*
%TD*%
D10*
%TO.C,U63*%
X123125000Y-82650000D03*
X123125000Y-83750000D03*
X122025000Y-83750000D03*
X122025000Y-82650000D03*
%TD*%
%TO.C,U97*%
X138725000Y-90450000D03*
X138725000Y-91550000D03*
X137625000Y-91550000D03*
X137625000Y-90450000D03*
%TD*%
%TO.C,U23*%
X142625000Y-70950000D03*
X142625000Y-72050000D03*
X141525000Y-72050000D03*
X141525000Y-70950000D03*
%TD*%
D11*
%TO.C,C268*%
X160712500Y-135850000D03*
X162437500Y-135850000D03*
%TD*%
%TO.C,C198*%
X121712500Y-120250000D03*
X123437500Y-120250000D03*
%TD*%
D10*
%TO.C,U205*%
X150425000Y-117750000D03*
X150425000Y-118850000D03*
X149325000Y-118850000D03*
X149325000Y-117750000D03*
%TD*%
D11*
%TO.C,C204*%
X145112500Y-120250000D03*
X146837500Y-120250000D03*
%TD*%
%TO.C,C76*%
X113912500Y-89050000D03*
X115637500Y-89050000D03*
%TD*%
D10*
%TO.C,U219*%
X146525000Y-121650000D03*
X146525000Y-122750000D03*
X145425000Y-122750000D03*
X145425000Y-121650000D03*
%TD*%
D11*
%TO.C,C231*%
X133412500Y-128050000D03*
X135137500Y-128050000D03*
%TD*%
%TO.C,C140*%
X129512500Y-104650000D03*
X131237500Y-104650000D03*
%TD*%
%TO.C,C174*%
X145112500Y-112450000D03*
X146837500Y-112450000D03*
%TD*%
D10*
%TO.C,U26*%
X154325000Y-70950000D03*
X154325000Y-72050000D03*
X153225000Y-72050000D03*
X153225000Y-70950000D03*
%TD*%
D11*
%TO.C,C162*%
X156812500Y-108550000D03*
X158537500Y-108550000D03*
%TD*%
%TO.C,C142*%
X137312500Y-104650000D03*
X139037500Y-104650000D03*
%TD*%
%TO.C,C93*%
X121712500Y-92950000D03*
X123437500Y-92950000D03*
%TD*%
%TO.C,C243*%
X121712500Y-131950000D03*
X123437500Y-131950000D03*
%TD*%
%TO.C,C11*%
X152912500Y-69560000D03*
X154637500Y-69560000D03*
%TD*%
%TO.C,C160*%
X149012500Y-108550000D03*
X150737500Y-108550000D03*
%TD*%
D14*
%TO.C,R2*%
X177475000Y-65662500D03*
X177475000Y-63837500D03*
%TD*%
D10*
%TO.C,U116*%
X154325000Y-94350000D03*
X154325000Y-95450000D03*
X153225000Y-95450000D03*
X153225000Y-94350000D03*
%TD*%
%TO.C,U228*%
X123125000Y-125550000D03*
X123125000Y-126650000D03*
X122025000Y-126650000D03*
X122025000Y-125550000D03*
%TD*%
%TO.C,U245*%
X130925000Y-129450000D03*
X130925000Y-130550000D03*
X129825000Y-130550000D03*
X129825000Y-129450000D03*
%TD*%
D11*
%TO.C,C259*%
X125612500Y-135850000D03*
X127337500Y-135850000D03*
%TD*%
%TO.C,C249*%
X145112500Y-131975000D03*
X146837500Y-131975000D03*
%TD*%
%TO.C,C261*%
X133412500Y-135850000D03*
X135137500Y-135850000D03*
%TD*%
D10*
%TO.C,U221*%
X154325000Y-121650000D03*
X154325000Y-122750000D03*
X153225000Y-122750000D03*
X153225000Y-121650000D03*
%TD*%
D11*
%TO.C,C234*%
X145112500Y-128050000D03*
X146837500Y-128050000D03*
%TD*%
D10*
%TO.C,U256*%
X115325000Y-133350000D03*
X115325000Y-134450000D03*
X114225000Y-134450000D03*
X114225000Y-133350000D03*
%TD*%
D11*
%TO.C,C145*%
X149012500Y-104650000D03*
X150737500Y-104650000D03*
%TD*%
%TO.C,C35*%
X129512500Y-77350000D03*
X131237500Y-77350000D03*
%TD*%
%TO.C,C52*%
X137312500Y-81250000D03*
X139037500Y-81250000D03*
%TD*%
D10*
%TO.C,U137*%
X119225000Y-102150000D03*
X119225000Y-103250000D03*
X118125000Y-103250000D03*
X118125000Y-102150000D03*
%TD*%
D11*
%TO.C,C208*%
X160712500Y-120250000D03*
X162437500Y-120250000D03*
%TD*%
D10*
%TO.C,U68*%
X142625000Y-82650000D03*
X142625000Y-83750000D03*
X141525000Y-83750000D03*
X141525000Y-82650000D03*
%TD*%
D11*
%TO.C,C185*%
X129512500Y-116350000D03*
X131237500Y-116350000D03*
%TD*%
%TO.C,C156*%
X133412500Y-108550000D03*
X135137500Y-108550000D03*
%TD*%
D10*
%TO.C,U153*%
X123125000Y-106050000D03*
X123125000Y-107150000D03*
X122025000Y-107150000D03*
X122025000Y-106050000D03*
%TD*%
D11*
%TO.C,C58*%
X160712500Y-81250000D03*
X162437500Y-81250000D03*
%TD*%
%TO.C,C42*%
X156812500Y-77350000D03*
X158537500Y-77350000D03*
%TD*%
D10*
%TO.C,U76*%
X115325000Y-86550000D03*
X115325000Y-87650000D03*
X114225000Y-87650000D03*
X114225000Y-86550000D03*
%TD*%
D11*
%TO.C,C34*%
X125612500Y-77350000D03*
X127337500Y-77350000D03*
%TD*%
D15*
%TO.C,U286*%
X176175000Y-70750000D03*
D16*
X176575000Y-70750000D03*
X176975000Y-70750000D03*
X177375000Y-70750000D03*
D17*
X177775000Y-70750000D03*
D18*
X178425000Y-70100000D03*
D19*
X178425000Y-69700000D03*
X178425000Y-69300000D03*
X178425000Y-68900000D03*
D20*
X178425000Y-68500000D03*
D21*
X177775000Y-67850000D03*
D16*
X177375000Y-67850000D03*
X176975000Y-67850000D03*
X176575000Y-67850000D03*
D22*
X176175000Y-67850000D03*
D23*
X175525000Y-68500000D03*
D19*
X175525000Y-68900000D03*
X175525000Y-69300000D03*
X175525000Y-69700000D03*
D24*
X175525000Y-70100000D03*
D25*
X176975000Y-69300000D03*
%TD*%
D10*
%TO.C,U65*%
X130925000Y-82650000D03*
X130925000Y-83750000D03*
X129825000Y-83750000D03*
X129825000Y-82650000D03*
%TD*%
%TO.C,U108*%
X123125000Y-94350000D03*
X123125000Y-95450000D03*
X122025000Y-95450000D03*
X122025000Y-94350000D03*
%TD*%
D11*
%TO.C,C281*%
X152912500Y-139750000D03*
X154637500Y-139750000D03*
%TD*%
D10*
%TO.C,U166*%
X115325000Y-109950000D03*
X115325000Y-111050000D03*
X114225000Y-111050000D03*
X114225000Y-109950000D03*
%TD*%
D11*
%TO.C,C64*%
X125612500Y-85150000D03*
X127337500Y-85150000D03*
%TD*%
%TO.C,C167*%
X117837500Y-112450000D03*
X119562500Y-112450000D03*
%TD*%
D10*
%TO.C,U130*%
X150425000Y-98250000D03*
X150425000Y-99350000D03*
X149325000Y-99350000D03*
X149325000Y-98250000D03*
%TD*%
%TO.C,U131*%
X154325000Y-98250000D03*
X154325000Y-99350000D03*
X153225000Y-99350000D03*
X153225000Y-98250000D03*
%TD*%
%TO.C,U272*%
X119225000Y-137250000D03*
X119225000Y-138350000D03*
X118125000Y-138350000D03*
X118125000Y-137250000D03*
%TD*%
%TO.C,U257*%
X119225000Y-133350000D03*
X119225000Y-134450000D03*
X118125000Y-134450000D03*
X118125000Y-133350000D03*
%TD*%
D11*
%TO.C,C26*%
X152912500Y-73450000D03*
X154637500Y-73450000D03*
%TD*%
D10*
%TO.C,U92*%
X119225000Y-90450000D03*
X119225000Y-91550000D03*
X118125000Y-91550000D03*
X118125000Y-90450000D03*
%TD*%
%TO.C,U78*%
X123125000Y-86550000D03*
X123125000Y-87650000D03*
X122025000Y-87650000D03*
X122025000Y-86550000D03*
%TD*%
D11*
%TO.C,C122*%
X117812500Y-100750000D03*
X119537500Y-100750000D03*
%TD*%
%TO.C,C31*%
X113912500Y-77350000D03*
X115637500Y-77350000D03*
%TD*%
D10*
%TO.C,U262*%
X138725000Y-133350000D03*
X138725000Y-134450000D03*
X137625000Y-134450000D03*
X137625000Y-133350000D03*
%TD*%
%TO.C,U135*%
X169925000Y-98250000D03*
X169925000Y-99350000D03*
X168825000Y-99350000D03*
X168825000Y-98250000D03*
%TD*%
%TO.C,U98*%
X142625000Y-90450000D03*
X142625000Y-91550000D03*
X141525000Y-91550000D03*
X141525000Y-90450000D03*
%TD*%
%TO.C,U3*%
X123125000Y-67050000D03*
X123125000Y-68150000D03*
X122025000Y-68150000D03*
X122025000Y-67050000D03*
%TD*%
%TO.C,U250*%
X150425000Y-129450000D03*
X150425000Y-130550000D03*
X149325000Y-130550000D03*
X149325000Y-129450000D03*
%TD*%
D12*
%TO.C,R5*%
X178105000Y-78010000D03*
X178105000Y-79835000D03*
%TD*%
D11*
%TO.C,C86*%
X152912500Y-89050000D03*
X154637500Y-89050000D03*
%TD*%
D10*
%TO.C,U183*%
X123125000Y-113850000D03*
X123125000Y-114950000D03*
X122025000Y-114950000D03*
X122025000Y-113850000D03*
%TD*%
%TO.C,U253*%
X162125000Y-129450000D03*
X162125000Y-130550000D03*
X161025000Y-130550000D03*
X161025000Y-129450000D03*
%TD*%
%TO.C,U285*%
X169925000Y-137250000D03*
X169925000Y-138350000D03*
X168825000Y-138350000D03*
X168825000Y-137250000D03*
%TD*%
%TO.C,U239*%
X166024999Y-125550000D03*
X166024999Y-126650000D03*
X164924999Y-126650000D03*
X164924999Y-125550000D03*
%TD*%
%TO.C,U6*%
X134825000Y-67050000D03*
X134825000Y-68150000D03*
X133725000Y-68150000D03*
X133725000Y-67050000D03*
%TD*%
%TO.C,U284*%
X166024999Y-137250000D03*
X166024999Y-138350000D03*
X164924999Y-138350000D03*
X164924999Y-137250000D03*
%TD*%
D11*
%TO.C,C239*%
X164612500Y-128050000D03*
X166337500Y-128050000D03*
%TD*%
D10*
%TO.C,U120*%
X169925000Y-94350000D03*
X169925000Y-95450000D03*
X168825000Y-95450000D03*
X168825000Y-94350000D03*
%TD*%
D11*
%TO.C,C181*%
X113912500Y-116350000D03*
X115637500Y-116350000D03*
%TD*%
%TO.C,C109*%
X125612500Y-96850000D03*
X127337500Y-96850000D03*
%TD*%
D10*
%TO.C,U64*%
X127025000Y-82650000D03*
X127025000Y-83750000D03*
X125925000Y-83750000D03*
X125925000Y-82650000D03*
%TD*%
D11*
%TO.C,C202*%
X137312500Y-120250000D03*
X139037500Y-120250000D03*
%TD*%
%TO.C,C283*%
X160712500Y-139750000D03*
X162437500Y-139750000D03*
%TD*%
%TO.C,C238*%
X160712500Y-128050000D03*
X162437500Y-128050000D03*
%TD*%
D10*
%TO.C,U158*%
X142625000Y-106050000D03*
X142625000Y-107150000D03*
X141525000Y-107150000D03*
X141525000Y-106050000D03*
%TD*%
%TO.C,U58*%
X162125000Y-78750000D03*
X162125000Y-79850000D03*
X161025000Y-79850000D03*
X161025000Y-78750000D03*
%TD*%
D11*
%TO.C,C108*%
X121712500Y-96850000D03*
X123437500Y-96850000D03*
%TD*%
D10*
%TO.C,U126*%
X134825000Y-98250000D03*
X134825000Y-99350000D03*
X133725000Y-99350000D03*
X133725000Y-98250000D03*
%TD*%
%TO.C,U223*%
X162125000Y-121650000D03*
X162125000Y-122750000D03*
X161025000Y-122750000D03*
X161025000Y-121650000D03*
%TD*%
%TO.C,U99*%
X146525000Y-90450000D03*
X146525000Y-91550000D03*
X145425000Y-91550000D03*
X145425000Y-90450000D03*
%TD*%
%TO.C,U56*%
X154325000Y-78750000D03*
X154325000Y-79850000D03*
X153225000Y-79850000D03*
X153225000Y-78750000D03*
%TD*%
%TO.C,U254*%
X166024999Y-129450000D03*
X166024999Y-130550000D03*
X164924999Y-130550000D03*
X164924999Y-129450000D03*
%TD*%
D11*
%TO.C,C245*%
X129512500Y-131950000D03*
X131237500Y-131950000D03*
%TD*%
D10*
%TO.C,U74*%
X166025000Y-82650000D03*
X166025000Y-83750000D03*
X164925000Y-83750000D03*
X164925000Y-82650000D03*
%TD*%
D11*
%TO.C,C119*%
X164612500Y-96850000D03*
X166337500Y-96850000D03*
%TD*%
D10*
%TO.C,U89*%
X166025000Y-86550000D03*
X166025000Y-87650000D03*
X164925000Y-87650000D03*
X164925000Y-86550000D03*
%TD*%
%TO.C,U235*%
X150425000Y-125550000D03*
X150425000Y-126650000D03*
X149325000Y-126650000D03*
X149325000Y-125550000D03*
%TD*%
D11*
%TO.C,C233*%
X141212500Y-128050000D03*
X142937500Y-128050000D03*
%TD*%
D10*
%TO.C,U37*%
X138725000Y-74850000D03*
X138725000Y-75950000D03*
X137625000Y-75950000D03*
X137625000Y-74850000D03*
%TD*%
M02*
