M48
; DRILL file {KiCad 7.0.9} date Fri Dec 22 09:19:35 2023
; FORMAT={-:-/ absolute / inch / decimal}
; #@! TF.CreationDate,2023-12-22T09:19:35+01:00
; #@! TF.GenerationSoftware,Kicad,Pcbnew,7.0.9
; #@! TF.FileFunction,MixedPlating,1,2
FMAT,2
INCH
; #@! TA.AperFunction,Plated,PTH,ViaDrill
T1C0.0157
%
G90
G05
T1
X4.0522Y-2.8839
X4.0522Y-2.9232
X4.0522Y-2.9626
X4.0522Y-3.0417
X4.0526Y-2.687
X4.0526Y-2.7264
X4.0526Y-2.8445
X4.0526Y-3.002
X4.053Y-2.5693
X4.0533Y-2.6154
X4.1482Y-3.0807
X4.4537Y-4.7067
X4.4557Y-2.8632
X4.4616Y-2.7949
X4.4616Y-3.0256
X4.4616Y-3.7933
X4.4616Y-3.8681
X4.4616Y-3.9469
X4.4616Y-4.0217
X4.4616Y-4.565
X4.4616Y-4.6368
X4.4616Y-4.8681
X4.4626Y-2.9469
X4.4626Y-4.4882
X4.4631Y-4.7908
X4.4638Y-5.0984
X4.4646Y-3.1024
X4.4646Y-5.4104
X4.4649Y-4.3337
X4.4655Y-3.7144
X4.4656Y-3.4862
X4.4656Y-3.5669
X4.4656Y-3.6398
X4.4656Y-4.1004
X4.4656Y-4.1673
X4.4656Y-4.2539
X4.4656Y-5.0177
X4.4656Y-5.1713
X4.4656Y-5.3248
X4.4695Y-3.1791
X4.4695Y-3.2628
X4.4695Y-3.3327
X4.4695Y-3.4114
X4.4695Y-4.9469
X4.4695Y-5.2549
X4.4695Y-5.5531
X4.4734Y-4.4075
X4.5561Y-4.2421
X4.56Y-3.1713
X4.56Y-3.3248
X4.56Y-4.7067
X4.56Y-4.8563
X4.564Y-3.4744
X4.564Y-3.628
X4.564Y-4.0886
X4.564Y-4.3996
X4.564Y-4.5492
X4.564Y-5.0138
X4.564Y-5.1634
X4.564Y-5.313
X4.5679Y-3.0177
X4.5679Y-3.7815
X4.5679Y-3.939
X4.5679Y-5.4705
X4.5709Y-2.8465
X4.5797Y-2.6831
X4.6033Y-2.7096
X4.6033Y-3.7175
X4.6063Y-3.564
X4.6073Y-3.1053
X4.6073Y-3.1752
X4.6073Y-3.2608
X4.6073Y-3.3327
X4.6079Y-4.4875
X4.6083Y-3.4085
X4.6093Y-4.7963
X4.6112Y-2.798
X4.6112Y-2.8612
X4.6112Y-3.0256
X4.6112Y-3.4862
X4.6112Y-3.6398
X4.6122Y-2.9498
X4.6132Y-4.3366
X4.6132Y-5.0984
X4.6142Y-5.2569
X4.6152Y-3.9469
X4.6152Y-4.0256
X4.6152Y-4.1713
X4.6152Y-4.2539
X4.6152Y-4.561
X4.6152Y-4.6358
X4.6152Y-5.0217
X4.6152Y-5.1752
X4.6152Y-5.3287
X4.6152Y-5.4065
X4.6191Y-3.7972
X4.6191Y-3.872
X4.6191Y-4.4075
X4.6191Y-4.7106
X4.6191Y-4.872
X4.6191Y-4.9508
X4.6191Y-5.5531
X4.623Y-4.1043
X4.7136Y-3.3248
X4.7136Y-4.2421
X4.7136Y-4.8602
X4.7136Y-5.4705
X4.7175Y-3.1752
X4.7175Y-3.4744
X4.7175Y-3.7815
X4.7175Y-4.0886
X4.7175Y-4.3996
X4.7175Y-4.7067
X4.7175Y-5.0138
X4.7175Y-5.1673
X4.7175Y-5.3169
X4.7215Y-3.0177
X4.7215Y-3.628
X4.7215Y-3.939
X4.7215Y-4.5492
X4.7274Y-2.8553
X4.7283Y-2.6732
X4.7589Y-2.7047
X4.7598Y-3.7175
X4.7608Y-4.7943
X4.7618Y-4.6398
X4.7628Y-3.563
X4.7628Y-5.2549
X4.7638Y-5.4065
X4.7648Y-4.3415
X4.7667Y-4.0276
X4.7667Y-4.9478
X4.7667Y-5.1004
X4.7677Y-3.1053
X4.7687Y-3.0217
X4.7687Y-3.1791
X4.7687Y-3.3327
X4.7687Y-3.4075
X4.7687Y-3.4862
X4.7687Y-3.7972
X4.7687Y-3.872
X4.7687Y-4.1594
X4.7687Y-4.4882
X4.7687Y-5.1752
X4.7687Y-5.3248
X4.7697Y-2.9488
X4.7726Y-2.7933
X4.7726Y-2.8612
X4.7726Y-3.2618
X4.7726Y-3.6398
X4.7726Y-3.9469
X4.7726Y-4.1043
X4.7726Y-4.2539
X4.7726Y-4.4035
X4.7726Y-4.7106
X4.7726Y-4.8681
X4.7726Y-5.0217
X4.7726Y-5.5492
X4.7766Y-4.561
X4.8632Y-4.8602
X4.8671Y-3.1752
X4.8671Y-3.3248
X4.8671Y-4.0925
X4.8711Y-2.7067
X4.8711Y-3.4744
X4.8711Y-4.2421
X4.8711Y-4.3996
X4.8711Y-4.7067
X4.8711Y-5.0138
X4.8711Y-5.3169
X4.875Y-3.0177
X4.875Y-3.628
X4.875Y-3.7815
X4.875Y-3.935
X4.875Y-4.5531
X4.875Y-5.1634
X4.875Y-5.4705
X4.8799Y-2.8553
X4.9113Y-2.7075
X4.9124Y-3.7185
X4.9144Y-4.6388
X4.9154Y-4.0285
X4.9173Y-4.7913
X4.9183Y-4.9478
X4.9183Y-5.1752
X4.9193Y-5.252
X4.9213Y-5.1014
X4.9222Y-2.9469
X4.9222Y-3.1791
X4.9222Y-3.2608
X4.9222Y-3.3287
X4.9222Y-3.565
X4.9222Y-4.1713
X4.9222Y-4.3386
X4.9222Y-4.4862
X4.9222Y-5.4055
X4.9242Y-2.7929
X4.9242Y-3.1063
X4.9242Y-3.8711
X4.9262Y-3.4075
X4.9262Y-3.4862
X4.9262Y-3.6398
X4.9262Y-3.9469
X4.9262Y-4.4035
X4.9262Y-4.561
X4.9262Y-4.7146
X4.9262Y-4.8681
X4.9262Y-5.0217
X4.9262Y-5.3287
X4.9263Y-2.8612
X4.9301Y-3.0256
X4.9301Y-3.7933
X4.9301Y-4.1043
X4.9301Y-4.2539
X4.9301Y-5.5492
X5.0207Y-3.1791
X5.0207Y-4.8563
X5.0246Y-3.0177
X5.0246Y-3.3209
X5.0246Y-3.4705
X5.0246Y-4.2421
X5.0246Y-4.3996
X5.0246Y-4.5531
X5.0246Y-4.7028
X5.0246Y-5.0098
X5.0246Y-5.1673
X5.0246Y-5.4744
X5.0285Y-3.628
X5.0285Y-3.7854
X5.0285Y-3.935
X5.0285Y-4.0925
X5.0285Y-5.3248
X5.0335Y-2.8573
X5.0354Y-2.685
X5.0612Y-3.7164
X5.0689Y-4.7943
X5.0699Y-2.7037
X5.0709Y-4.0276
X5.0709Y-4.9439
X5.0728Y-4.4892
X5.0728Y-4.6398
X5.0738Y-3.8701
X5.0748Y-3.4124
X5.0748Y-5.0984
X5.0748Y-5.2589
X5.0758Y-3.1831
X5.0758Y-3.565
X5.0758Y-4.1791
X5.0758Y-4.3366
X5.0766Y-2.7945
X5.0768Y-2.9478
X5.0778Y-3.1033
X5.0778Y-3.2628
X5.0778Y-5.4114
X5.0789Y-2.8612
X5.0797Y-3.0256
X5.0797Y-3.3287
X5.0797Y-3.4862
X5.0797Y-3.6398
X5.0797Y-3.7933
X5.0797Y-4.2539
X5.0797Y-4.7185
X5.0797Y-5.0217
X5.0797Y-5.1713
X5.0797Y-5.3248
X5.0837Y-3.9469
X5.0837Y-4.1043
X5.0837Y-4.4075
X5.0837Y-4.561
X5.0837Y-5.5492
X5.0876Y-4.8681
X5.1781Y-3.1791
X5.1781Y-3.3209
X5.1781Y-3.4744
X5.1781Y-4.3996
X5.1781Y-4.5531
X5.1781Y-4.8602
X5.1781Y-5.0098
X5.1821Y-2.8642
X5.1821Y-3.0177
X5.1821Y-3.628
X5.1821Y-3.7854
X5.1821Y-3.939
X5.1821Y-4.0925
X5.1821Y-4.2421
X5.1821Y-4.7067
X5.1821Y-5.1673
X5.1821Y-5.3209
X5.1821Y-5.4744
X5.189Y-2.6831
X5.2152Y-3.7169
X5.2215Y-4.4882
X5.2224Y-4.6407
X5.2234Y-4.0236
X5.2246Y-4.3365
X5.2254Y-5.0974
X5.2264Y-2.7028
X5.2264Y-4.7943
X5.2274Y-3.4104
X5.2281Y-2.7961
X5.2293Y-2.8612
X5.2293Y-3.1831
X5.2293Y-3.4823
X5.2293Y-4.1791
X5.2293Y-4.9429
X5.2303Y-3.5669
X5.2313Y-3.2608
X5.2313Y-3.872
X5.2313Y-5.4085
X5.2333Y-2.9469
X5.2333Y-3.0217
X5.2333Y-3.3287
X5.2333Y-3.6398
X5.2333Y-4.25
X5.2333Y-4.7146
X5.2333Y-5.0217
X5.2333Y-5.1791
X5.2333Y-5.2539
X5.2333Y-5.3248
X5.2352Y-3.1033
X5.2372Y-3.7933
X5.2372Y-3.9469
X5.2372Y-4.561
X5.2372Y-5.5492
X5.2411Y-4.1004
X5.2411Y-4.4075
X5.2411Y-4.872
X5.3278Y-3.3209
X5.3317Y-3.1752
X5.3317Y-3.7854
X5.3317Y-4.0886
X5.3317Y-4.2421
X5.3317Y-4.3957
X5.3317Y-4.5492
X5.3317Y-4.7028
X5.3317Y-4.8563
X5.3317Y-5.0138
X5.3317Y-5.1673
X5.3356Y-3.0177
X5.3356Y-3.4783
X5.3356Y-3.628
X5.3356Y-3.939
X5.3356Y-5.3287
X5.3356Y-5.4744
X5.3376Y-2.7047
X5.3435Y-2.8642
X5.3711Y-3.7175
X5.377Y-2.7028
X5.377Y-3.565
X5.377Y-4.0276
X5.3789Y-3.4114
X5.3789Y-4.9449
X5.3796Y-4.7907
X5.3799Y-4.4921
X5.3799Y-5.0974
X5.3809Y-4.6427
X5.3829Y-2.7933
X5.3829Y-3.0256
X5.3829Y-3.6398
X5.3829Y-4.3346
X5.3829Y-4.4075
X5.3829Y-5.0217
X5.3858Y-5.4075
X5.3868Y-2.9469
X5.3868Y-3.1043
X5.3868Y-3.1791
X5.3868Y-3.3287
X5.3868Y-3.4862
X5.3868Y-3.7933
X5.3868Y-4.1752
X5.3868Y-4.2539
X5.3868Y-4.561
X5.3868Y-5.1713
X5.3868Y-5.25
X5.3868Y-5.3248
X5.3878Y-3.873
X5.3883Y-3.2594
X5.3891Y-2.8625
X5.3907Y-3.9469
X5.3907Y-4.1043
X5.3907Y-4.7185
X5.3907Y-4.8681
X5.3907Y-5.5492
X5.4813Y-3.7815
X5.4852Y-3.1791
X5.4852Y-3.3209
X5.4852Y-4.2421
X5.4852Y-4.3996
X5.4852Y-4.7067
X5.4852Y-4.8602
X5.4892Y-3.0217
X5.4892Y-3.4744
X5.4892Y-3.6319
X5.4892Y-3.9311
X5.4892Y-4.0886
X5.4892Y-4.5492
X5.4892Y-5.0138
X5.4892Y-5.1673
X5.4892Y-5.3287
X5.4892Y-5.4783
X5.497Y-2.8642
X5.5Y-2.6998
X5.5276Y-3.564
X5.5285Y-5.1024
X5.5295Y-4.0285
X5.5313Y-2.7953
X5.5325Y-3.4114
X5.5325Y-3.7972
X5.5325Y-4.9478
X5.5325Y-5.1752
X5.5325Y-5.25
X5.5335Y-4.3376
X5.5335Y-4.7943
X5.5344Y-3.7175
X5.5344Y-5.4065
X5.5352Y-2.7033
X5.5354Y-3.874
X5.5354Y-4.6437
X5.5364Y-2.8612
X5.5364Y-2.9469
X5.5364Y-3.0217
X5.5364Y-3.1752
X5.5364Y-3.2628
X5.5364Y-3.4862
X5.5364Y-3.6398
X5.5364Y-4.1752
X5.5364Y-4.25
X5.5364Y-4.4075
X5.5364Y-4.4911
X5.5364Y-4.561
X5.5364Y-5.3248
X5.5364Y-5.5492
X5.5374Y-3.1053
X5.5404Y-3.3327
X5.5404Y-3.9469
X5.5404Y-4.1043
X5.5404Y-4.7146
X5.5404Y-4.872
X5.5404Y-5.0217
X5.6152Y-3.1713
X5.6348Y-4.7067
X5.6388Y-4.2421
X5.6388Y-4.5531
X5.6388Y-4.8563
X5.6388Y-5.0138
X5.6388Y-5.1673
X5.6427Y-3.0217
X5.6427Y-3.3169
X5.6427Y-3.4744
X5.6427Y-3.6319
X5.6427Y-3.7854
X5.6427Y-3.939
X5.6427Y-4.0925
X5.6427Y-4.3957
X5.6427Y-5.3287
X5.6427Y-5.4744
X5.6476Y-2.8553
X5.6486Y-2.7028
X5.6821Y-4.4882
X5.6831Y-3.4094
X5.685Y-4.3317
X5.686Y-4.0295
X5.687Y-2.8622
X5.687Y-4.9469
X5.687Y-5.0994
X5.6872Y-3.7164
X5.688Y-4.6407
X5.688Y-4.7913
X5.689Y-2.7087
X5.69Y-2.7961
X5.69Y-2.9469
X5.69Y-3.564
X5.69Y-4.1752
X5.69Y-4.5571
X5.69Y-5.1713
X5.69Y-5.25
X5.69Y-5.3248
X5.69Y-5.4065
X5.6909Y-3.875
X5.6929Y-3.2628
X5.6939Y-3.0217
X5.6939Y-3.1033
X5.6939Y-3.1831
X5.6939Y-3.4862
X5.6939Y-3.6398
X5.6939Y-3.7933
X5.6939Y-4.2539
X5.6939Y-4.4075
X5.6939Y-4.7185
X5.6939Y-5.0217
X5.6939Y-5.5492
X5.6978Y-3.3327
X5.6978Y-3.9508
X5.6978Y-4.1004
X5.6978Y-4.8681
X5.7923Y-3.3209
X5.7923Y-3.628
X5.7923Y-4.5492
X5.7923Y-4.7067
X5.7923Y-5.0138
X5.7923Y-5.4744
X5.7963Y-3.0217
X5.7963Y-3.4744
X5.7963Y-3.939
X5.7963Y-4.0925
X5.7963Y-4.2421
X5.7963Y-4.3957
X5.7963Y-4.8563
X5.7963Y-5.1713
X5.7963Y-5.3287
X5.7982Y-2.8602
X5.8012Y-2.7008
X5.8041Y-3.1791
X5.8071Y-3.7766
X5.8356Y-4.4882
X5.8386Y-3.7175
X5.8386Y-4.6407
X5.8405Y-2.7075
X5.8406Y-5.1014
X5.8406Y-5.4134
X5.8406Y-2.795
X5.8425Y-4.0256
X5.8425Y-4.9459
X5.8432Y-2.8608
X5.8435Y-2.9469
X5.8435Y-3.1004
X5.8435Y-4.3366
X5.8435Y-5.2539
X5.8455Y-3.4094
X5.8455Y-3.564
X5.8455Y-3.872
X5.8474Y-3.0217
X5.8474Y-3.1791
X5.8474Y-3.3327
X5.8474Y-3.4862
X5.8474Y-3.7933
X5.8474Y-4.1043
X5.8474Y-4.1791
X5.8474Y-4.561
X5.8474Y-4.7185
X5.8474Y-4.7933
X5.8474Y-5.1752
X5.8484Y-3.2579
X5.8514Y-3.6398
X5.8514Y-3.9469
X5.8514Y-4.2539
X5.8514Y-4.4075
X5.8514Y-4.8681
X5.8514Y-5.0217
X5.8514Y-5.3287
X5.8514Y-5.5492
X5.9419Y-3.7854
X5.9419Y-4.8563
X5.9459Y-3.0177
X5.9459Y-3.3209
X5.9459Y-3.4744
X5.9459Y-3.939
X5.9459Y-4.2421
X5.9459Y-4.5531
X5.9459Y-4.7067
X5.9459Y-5.0138
X5.9459Y-5.1713
X5.9459Y-5.3248
X5.9498Y-3.6319
X5.9498Y-4.0925
X5.9498Y-4.3996
X5.9498Y-5.4744
X5.9528Y-2.8573
X5.9567Y-2.689
X5.9577Y-3.1791
X5.9852Y-4.4882
X5.9858Y-2.7092
X5.9911Y-3.5659
X5.9911Y-3.7165
X5.9911Y-4.3346
X5.9911Y-4.6417
X5.9911Y-5.1024
X5.9931Y-3.4114
X5.9931Y-3.4862
X5.9931Y-3.6398
X5.9931Y-3.7972
X5.9931Y-3.874
X5.9931Y-3.9469
X5.994Y-4.0311
X5.9951Y-4.9469
X5.9961Y-2.9488
X5.9963Y-2.7961
X5.997Y-2.8602
X5.997Y-3.0295
X5.997Y-3.1004
X5.997Y-3.1791
X5.997Y-3.2579
X5.997Y-3.3327
X5.997Y-4.1043
X5.997Y-4.1791
X5.997Y-4.2539
X5.997Y-4.4075
X5.997Y-4.561
X5.997Y-4.7146
X5.997Y-4.7894
X5.997Y-5.1752
X5.997Y-5.2539
X5.997Y-5.4075
X6.001Y-4.8681
X6.001Y-5.0177
X6.001Y-5.3248
X6.0049Y-5.5492
X6.0955Y-3.3209
X6.0994Y-3.4744
X6.0994Y-3.7854
X6.0994Y-3.939
X6.0994Y-4.3996
X6.0994Y-4.5531
X6.0994Y-4.7067
X6.0994Y-4.8602
X6.0994Y-5.0138
X6.0994Y-5.1713
X6.1033Y-3.0217
X6.1033Y-3.6319
X6.1033Y-4.0886
X6.1033Y-4.2421
X6.1033Y-5.3248
X6.1033Y-5.4744
X6.1102Y-2.6919
X6.1112Y-2.8602
X6.1112Y-3.1791
X6.1413Y-2.709
X6.1437Y-3.7185
X6.1447Y-4.6457
X6.1447Y-5.4114
X6.1457Y-4.4872
X6.1467Y-4.0305
X6.1467Y-4.561
X6.1467Y-4.9449
X6.1476Y-3.5659
X6.1486Y-5.2549
X6.1496Y-4.3297
X6.1496Y-5.1004
X6.1506Y-2.9469
X6.1506Y-3.2579
X6.1506Y-3.9469
X6.1526Y-3.874
X6.153Y-2.7953
X6.1535Y-2.8622
X6.1545Y-3.1004
X6.1545Y-3.1791
X6.1545Y-3.4075
X6.1545Y-4.1043
X6.1545Y-4.1673
X6.1545Y-4.7146
X6.1545Y-4.7894
X6.1545Y-5.0217
X6.1545Y-5.1791
X6.1545Y-5.3287
X6.1585Y-3.0295
X6.1585Y-3.3327
X6.1585Y-3.4862
X6.1585Y-3.6398
X6.1585Y-3.7972
X6.1585Y-4.2539
X6.1585Y-4.4075
X6.1585Y-4.8681
X6.1585Y-5.5492
X6.253Y-3.3169
X6.253Y-3.4744
X6.253Y-3.7854
X6.253Y-3.939
X6.253Y-4.0886
X6.253Y-4.3957
X6.253Y-4.7067
X6.253Y-5.0138
X6.253Y-5.1713
X6.2569Y-3.0256
X6.2569Y-3.1791
X6.2569Y-3.6319
X6.2569Y-4.2421
X6.2569Y-4.5531
X6.2569Y-4.8563
X6.2569Y-5.3287
X6.2569Y-5.4744
X6.2598Y-2.7018
X6.2648Y-2.8642
X6.2951Y-2.6987
X6.2953Y-4.6437
X6.3002Y-3.7195
X6.3012Y-4.0315
X6.3012Y-4.4872
X6.3012Y-5.1024
X6.3012Y-5.4085
X6.3041Y-3.7933
X6.3041Y-4.3327
X6.3071Y-3.5679
X6.3071Y-3.875
X6.3081Y-2.9469
X6.3081Y-3.0256
X6.3081Y-3.1043
X6.3081Y-3.1791
X6.3081Y-3.2579
X6.3081Y-3.3327
X6.3081Y-3.4075
X6.3081Y-3.4902
X6.3081Y-3.6398
X6.3081Y-3.9469
X6.3081Y-4.1004
X6.3081Y-4.1791
X6.3081Y-4.2539
X6.3081Y-4.4075
X6.3081Y-4.9429
X6.3081Y-5.1713
X6.3081Y-5.2539
X6.3093Y-2.7965
X6.3114Y-2.8638
X6.312Y-4.561
X6.312Y-4.7146
X6.312Y-4.7894
X6.312Y-4.8681
X6.312Y-5.0217
X6.312Y-5.3287
X6.312Y-5.5492
X6.4026Y-4.5531
X6.4065Y-3.3169
X6.4065Y-3.935
X6.4065Y-4.0886
X6.4065Y-4.2421
X6.4065Y-4.3957
X6.4065Y-4.7067
X6.4065Y-4.8602
X6.4065Y-5.0098
X6.4104Y-3.0256
X6.4104Y-3.1831
X6.4104Y-3.4783
X6.4104Y-3.6319
X6.4104Y-3.7854
X6.4104Y-5.1713
X6.4104Y-5.3287
X6.4104Y-5.4783
X6.4163Y-2.686
X6.4203Y-2.8573
X6.4478Y-2.7096
X6.4508Y-4.6437
X6.4537Y-3.1791
X6.4537Y-4.4852
X6.4547Y-3.7205
X6.4557Y-3.5669
X6.4567Y-4.0276
X6.4577Y-2.9469
X6.4577Y-3.2579
X6.4577Y-3.4075
X6.4577Y-3.4862
X6.4577Y-3.7894
X6.4577Y-3.875
X6.4577Y-4.1791
X6.4577Y-4.9429
X6.4577Y-5.0177
X6.4577Y-5.4104
X6.4587Y-3.1053
X6.4612Y-2.7949
X6.4615Y-2.8609
X6.4616Y-3.0256
X6.4616Y-3.6398
X6.4616Y-4.1043
X6.4616Y-4.2539
X6.4616Y-4.3287
X6.4616Y-4.4035
X6.4616Y-4.561
X6.4616Y-4.7933
X6.4616Y-5.1004
X6.4616Y-5.1713
X6.4616Y-5.25
X6.4616Y-5.3287
X6.4656Y-3.3327
X6.4656Y-3.9469
X6.4656Y-4.7146
X6.4656Y-4.8681
X6.4656Y-5.5492
X6.56Y-3.7854
X6.56Y-4.2421
X6.56Y-4.3957
X6.56Y-4.8563
X6.56Y-5.0098
X6.56Y-5.1713
X6.56Y-5.3287
X6.564Y-3.0295
X6.564Y-3.3209
X6.564Y-3.4744
X6.564Y-3.6319
X6.564Y-3.935
X6.564Y-4.0925
X6.564Y-4.5531
X6.564Y-4.7067
X6.564Y-5.4744
X6.5699Y-2.6929
X6.5738Y-2.8602
X6.5758Y-3.1791
X6.6028Y-2.7077
X6.6083Y-4.0246
X6.6093Y-3.7205
X6.6093Y-4.4843
X6.6093Y-5.4124
X6.6102Y-3.1063
X6.6102Y-4.6398
X6.6142Y-3.2638
X6.6142Y-3.876
X6.6142Y-5.252
X6.6152Y-2.9469
X6.6152Y-3.0256
X6.6152Y-3.4114
X6.6152Y-3.4823
X6.6152Y-3.6398
X6.6152Y-4.1791
X6.6152Y-4.2539
X6.6152Y-4.3287
X6.6152Y-4.4075
X6.6152Y-4.561
X6.6152Y-4.7146
X6.6152Y-4.7894
X6.6152Y-4.9429
X6.6152Y-5.0965
X6.6152Y-5.1752
X6.6152Y-5.3287
X6.6161Y-3.5689
X6.6179Y-2.8632
X6.6191Y-3.1831
X6.6191Y-3.3327
X6.6191Y-3.7933
X6.6191Y-3.9469
X6.6191Y-4.1043
X6.6191Y-4.8681
X6.6191Y-5.0217
X6.6191Y-5.5492
X6.6207Y-2.7957
X6.7136Y-3.3209
X6.7136Y-3.4783
X6.7136Y-3.7854
X6.7136Y-4.3996
X6.7136Y-4.8602
X6.7136Y-5.0098
X6.7136Y-5.3248
X6.7175Y-3.6319
X6.7175Y-3.935
X6.7175Y-4.0925
X6.7175Y-4.2421
X6.7175Y-4.5492
X6.7175Y-4.7067
X6.7175Y-5.1752
X6.7175Y-5.4705
X6.7244Y-2.8593
X6.7254Y-3.0217
X6.7254Y-3.1831
X6.7292Y-2.699
X6.8258Y-2.7303
X6.8778Y-2.5886
X6.9695Y-2.7303
X7.0443Y-2.6457
X7.2573Y-2.7295
X7.2573Y-2.9181
X7.4341Y-2.6752
X7.4656Y-2.6752
X7.497Y-2.6752
X7.5285Y-2.6752
X7.56Y-2.6752
X7.5915Y-2.6752
T0
M30
