%TF.GenerationSoftware,KiCad,Pcbnew,7.0.9*%
%TF.CreationDate,2023-12-22T09:19:41+01:00*%
%TF.ProjectId,flexAddressLedsV2,666c6578-4164-4647-9265-73734c656473,rev?*%
%TF.SameCoordinates,Original*%
%TF.FileFunction,Other,User*%
%FSLAX46Y46*%
G04 Gerber Fmt 4.6, Leading zero omitted, Abs format (unit mm)*
G04 Created by KiCad (PCBNEW 7.0.9) date 2023-12-22 09:19:41*
%MOMM*%
%LPD*%
G01*
G04 APERTURE LIST*
%ADD10C,0.150000*%
G04 APERTURE END LIST*
D10*
X99525000Y-62150000D02*
X104525000Y-62150000D01*
X104525000Y-79250000D01*
X99525000Y-79250000D01*
X99525000Y-62150000D01*
X87764819Y-74813220D02*
X86764819Y-74813220D01*
X86764819Y-74813220D02*
X86764819Y-74432268D01*
X86764819Y-74432268D02*
X86812438Y-74337030D01*
X86812438Y-74337030D02*
X86860057Y-74289411D01*
X86860057Y-74289411D02*
X86955295Y-74241792D01*
X86955295Y-74241792D02*
X87098152Y-74241792D01*
X87098152Y-74241792D02*
X87193390Y-74289411D01*
X87193390Y-74289411D02*
X87241009Y-74337030D01*
X87241009Y-74337030D02*
X87288628Y-74432268D01*
X87288628Y-74432268D02*
X87288628Y-74813220D01*
X87764819Y-73813220D02*
X86764819Y-73813220D01*
X87717200Y-72622744D02*
X87764819Y-72527506D01*
X87764819Y-72527506D02*
X87764819Y-72337030D01*
X87764819Y-72337030D02*
X87717200Y-72241792D01*
X87717200Y-72241792D02*
X87621961Y-72194173D01*
X87621961Y-72194173D02*
X87574342Y-72194173D01*
X87574342Y-72194173D02*
X87479104Y-72241792D01*
X87479104Y-72241792D02*
X87431485Y-72337030D01*
X87431485Y-72337030D02*
X87431485Y-72479887D01*
X87431485Y-72479887D02*
X87383866Y-72575125D01*
X87383866Y-72575125D02*
X87288628Y-72622744D01*
X87288628Y-72622744D02*
X87241009Y-72622744D01*
X87241009Y-72622744D02*
X87145771Y-72575125D01*
X87145771Y-72575125D02*
X87098152Y-72479887D01*
X87098152Y-72479887D02*
X87098152Y-72337030D01*
X87098152Y-72337030D02*
X87145771Y-72241792D01*
X87098152Y-71908458D02*
X87098152Y-71527506D01*
X86764819Y-71765601D02*
X87621961Y-71765601D01*
X87621961Y-71765601D02*
X87717200Y-71717982D01*
X87717200Y-71717982D02*
X87764819Y-71622744D01*
X87764819Y-71622744D02*
X87764819Y-71527506D01*
X87764819Y-71194172D02*
X87098152Y-71194172D01*
X86764819Y-71194172D02*
X86812438Y-71241791D01*
X86812438Y-71241791D02*
X86860057Y-71194172D01*
X86860057Y-71194172D02*
X86812438Y-71146553D01*
X86812438Y-71146553D02*
X86764819Y-71194172D01*
X86764819Y-71194172D02*
X86860057Y-71194172D01*
X87098152Y-70860839D02*
X87098152Y-70479887D01*
X87764819Y-70717982D02*
X86907676Y-70717982D01*
X86907676Y-70717982D02*
X86812438Y-70670363D01*
X86812438Y-70670363D02*
X86764819Y-70575125D01*
X86764819Y-70575125D02*
X86764819Y-70479887D01*
X87098152Y-70289410D02*
X87098152Y-69908458D01*
X87764819Y-70146553D02*
X86907676Y-70146553D01*
X86907676Y-70146553D02*
X86812438Y-70098934D01*
X86812438Y-70098934D02*
X86764819Y-70003696D01*
X86764819Y-70003696D02*
X86764819Y-69908458D01*
X87717200Y-69194172D02*
X87764819Y-69289410D01*
X87764819Y-69289410D02*
X87764819Y-69479886D01*
X87764819Y-69479886D02*
X87717200Y-69575124D01*
X87717200Y-69575124D02*
X87621961Y-69622743D01*
X87621961Y-69622743D02*
X87241009Y-69622743D01*
X87241009Y-69622743D02*
X87145771Y-69575124D01*
X87145771Y-69575124D02*
X87098152Y-69479886D01*
X87098152Y-69479886D02*
X87098152Y-69289410D01*
X87098152Y-69289410D02*
X87145771Y-69194172D01*
X87145771Y-69194172D02*
X87241009Y-69146553D01*
X87241009Y-69146553D02*
X87336247Y-69146553D01*
X87336247Y-69146553D02*
X87431485Y-69622743D01*
X87098152Y-68717981D02*
X87764819Y-68717981D01*
X87193390Y-68717981D02*
X87145771Y-68670362D01*
X87145771Y-68670362D02*
X87098152Y-68575124D01*
X87098152Y-68575124D02*
X87098152Y-68432267D01*
X87098152Y-68432267D02*
X87145771Y-68337029D01*
X87145771Y-68337029D02*
X87241009Y-68289410D01*
X87241009Y-68289410D02*
X87764819Y-68289410D01*
X87717200Y-67432267D02*
X87764819Y-67527505D01*
X87764819Y-67527505D02*
X87764819Y-67717981D01*
X87764819Y-67717981D02*
X87717200Y-67813219D01*
X87717200Y-67813219D02*
X87621961Y-67860838D01*
X87621961Y-67860838D02*
X87241009Y-67860838D01*
X87241009Y-67860838D02*
X87145771Y-67813219D01*
X87145771Y-67813219D02*
X87098152Y-67717981D01*
X87098152Y-67717981D02*
X87098152Y-67527505D01*
X87098152Y-67527505D02*
X87145771Y-67432267D01*
X87145771Y-67432267D02*
X87241009Y-67384648D01*
X87241009Y-67384648D02*
X87336247Y-67384648D01*
X87336247Y-67384648D02*
X87431485Y-67860838D01*
X87764819Y-66956076D02*
X87098152Y-66956076D01*
X87288628Y-66956076D02*
X87193390Y-66908457D01*
X87193390Y-66908457D02*
X87145771Y-66860838D01*
X87145771Y-66860838D02*
X87098152Y-66765600D01*
X87098152Y-66765600D02*
X87098152Y-66670362D01*
X87717200Y-66289409D02*
X87764819Y-66289409D01*
X87764819Y-66289409D02*
X87860057Y-66337028D01*
X87860057Y-66337028D02*
X87907676Y-66384647D01*
X88374819Y-74956077D02*
X88374819Y-74384649D01*
X89374819Y-74670363D02*
X88374819Y-74670363D01*
X88851009Y-73289410D02*
X88851009Y-72527506D01*
X89136723Y-72527506D02*
X89136723Y-73289410D01*
X88374819Y-71098934D02*
X88374819Y-71003696D01*
X88374819Y-71003696D02*
X88422438Y-70908458D01*
X88422438Y-70908458D02*
X88470057Y-70860839D01*
X88470057Y-70860839D02*
X88565295Y-70813220D01*
X88565295Y-70813220D02*
X88755771Y-70765601D01*
X88755771Y-70765601D02*
X88993866Y-70765601D01*
X88993866Y-70765601D02*
X89184342Y-70813220D01*
X89184342Y-70813220D02*
X89279580Y-70860839D01*
X89279580Y-70860839D02*
X89327200Y-70908458D01*
X89327200Y-70908458D02*
X89374819Y-71003696D01*
X89374819Y-71003696D02*
X89374819Y-71098934D01*
X89374819Y-71098934D02*
X89327200Y-71194172D01*
X89327200Y-71194172D02*
X89279580Y-71241791D01*
X89279580Y-71241791D02*
X89184342Y-71289410D01*
X89184342Y-71289410D02*
X88993866Y-71337029D01*
X88993866Y-71337029D02*
X88755771Y-71337029D01*
X88755771Y-71337029D02*
X88565295Y-71289410D01*
X88565295Y-71289410D02*
X88470057Y-71241791D01*
X88470057Y-71241791D02*
X88422438Y-71194172D01*
X88422438Y-71194172D02*
X88374819Y-71098934D01*
X89279580Y-70337029D02*
X89327200Y-70289410D01*
X89327200Y-70289410D02*
X89374819Y-70337029D01*
X89374819Y-70337029D02*
X89327200Y-70384648D01*
X89327200Y-70384648D02*
X89279580Y-70337029D01*
X89279580Y-70337029D02*
X89374819Y-70337029D01*
X88470057Y-69908458D02*
X88422438Y-69860839D01*
X88422438Y-69860839D02*
X88374819Y-69765601D01*
X88374819Y-69765601D02*
X88374819Y-69527506D01*
X88374819Y-69527506D02*
X88422438Y-69432268D01*
X88422438Y-69432268D02*
X88470057Y-69384649D01*
X88470057Y-69384649D02*
X88565295Y-69337030D01*
X88565295Y-69337030D02*
X88660533Y-69337030D01*
X88660533Y-69337030D02*
X88803390Y-69384649D01*
X88803390Y-69384649D02*
X89374819Y-69956077D01*
X89374819Y-69956077D02*
X89374819Y-69337030D01*
X89374819Y-68908458D02*
X88708152Y-68908458D01*
X88803390Y-68908458D02*
X88755771Y-68860839D01*
X88755771Y-68860839D02*
X88708152Y-68765601D01*
X88708152Y-68765601D02*
X88708152Y-68622744D01*
X88708152Y-68622744D02*
X88755771Y-68527506D01*
X88755771Y-68527506D02*
X88851009Y-68479887D01*
X88851009Y-68479887D02*
X89374819Y-68479887D01*
X88851009Y-68479887D02*
X88755771Y-68432268D01*
X88755771Y-68432268D02*
X88708152Y-68337030D01*
X88708152Y-68337030D02*
X88708152Y-68194173D01*
X88708152Y-68194173D02*
X88755771Y-68098934D01*
X88755771Y-68098934D02*
X88851009Y-68051315D01*
X88851009Y-68051315D02*
X89374819Y-68051315D01*
X89374819Y-67575125D02*
X88708152Y-67575125D01*
X88803390Y-67575125D02*
X88755771Y-67527506D01*
X88755771Y-67527506D02*
X88708152Y-67432268D01*
X88708152Y-67432268D02*
X88708152Y-67289411D01*
X88708152Y-67289411D02*
X88755771Y-67194173D01*
X88755771Y-67194173D02*
X88851009Y-67146554D01*
X88851009Y-67146554D02*
X89374819Y-67146554D01*
X88851009Y-67146554D02*
X88755771Y-67098935D01*
X88755771Y-67098935D02*
X88708152Y-67003697D01*
X88708152Y-67003697D02*
X88708152Y-66860840D01*
X88708152Y-66860840D02*
X88755771Y-66765601D01*
X88755771Y-66765601D02*
X88851009Y-66717982D01*
X88851009Y-66717982D02*
X89374819Y-66717982D01*
X89327200Y-66194173D02*
X89374819Y-66194173D01*
X89374819Y-66194173D02*
X89470057Y-66241792D01*
X89470057Y-66241792D02*
X89517676Y-66289411D01*
X89984819Y-74337030D02*
X89984819Y-74813220D01*
X89984819Y-74813220D02*
X90461009Y-74860839D01*
X90461009Y-74860839D02*
X90413390Y-74813220D01*
X90413390Y-74813220D02*
X90365771Y-74717982D01*
X90365771Y-74717982D02*
X90365771Y-74479887D01*
X90365771Y-74479887D02*
X90413390Y-74384649D01*
X90413390Y-74384649D02*
X90461009Y-74337030D01*
X90461009Y-74337030D02*
X90556247Y-74289411D01*
X90556247Y-74289411D02*
X90794342Y-74289411D01*
X90794342Y-74289411D02*
X90889580Y-74337030D01*
X90889580Y-74337030D02*
X90937200Y-74384649D01*
X90937200Y-74384649D02*
X90984819Y-74479887D01*
X90984819Y-74479887D02*
X90984819Y-74717982D01*
X90984819Y-74717982D02*
X90937200Y-74813220D01*
X90937200Y-74813220D02*
X90889580Y-74860839D01*
X90889580Y-73860839D02*
X90937200Y-73813220D01*
X90937200Y-73813220D02*
X90984819Y-73860839D01*
X90984819Y-73860839D02*
X90937200Y-73908458D01*
X90937200Y-73908458D02*
X90889580Y-73860839D01*
X90889580Y-73860839D02*
X90984819Y-73860839D01*
X89984819Y-73194173D02*
X89984819Y-73098935D01*
X89984819Y-73098935D02*
X90032438Y-73003697D01*
X90032438Y-73003697D02*
X90080057Y-72956078D01*
X90080057Y-72956078D02*
X90175295Y-72908459D01*
X90175295Y-72908459D02*
X90365771Y-72860840D01*
X90365771Y-72860840D02*
X90603866Y-72860840D01*
X90603866Y-72860840D02*
X90794342Y-72908459D01*
X90794342Y-72908459D02*
X90889580Y-72956078D01*
X90889580Y-72956078D02*
X90937200Y-73003697D01*
X90937200Y-73003697D02*
X90984819Y-73098935D01*
X90984819Y-73098935D02*
X90984819Y-73194173D01*
X90984819Y-73194173D02*
X90937200Y-73289411D01*
X90937200Y-73289411D02*
X90889580Y-73337030D01*
X90889580Y-73337030D02*
X90794342Y-73384649D01*
X90794342Y-73384649D02*
X90603866Y-73432268D01*
X90603866Y-73432268D02*
X90365771Y-73432268D01*
X90365771Y-73432268D02*
X90175295Y-73384649D01*
X90175295Y-73384649D02*
X90080057Y-73337030D01*
X90080057Y-73337030D02*
X90032438Y-73289411D01*
X90032438Y-73289411D02*
X89984819Y-73194173D01*
X90984819Y-72432268D02*
X90318152Y-72432268D01*
X90413390Y-72432268D02*
X90365771Y-72384649D01*
X90365771Y-72384649D02*
X90318152Y-72289411D01*
X90318152Y-72289411D02*
X90318152Y-72146554D01*
X90318152Y-72146554D02*
X90365771Y-72051316D01*
X90365771Y-72051316D02*
X90461009Y-72003697D01*
X90461009Y-72003697D02*
X90984819Y-72003697D01*
X90461009Y-72003697D02*
X90365771Y-71956078D01*
X90365771Y-71956078D02*
X90318152Y-71860840D01*
X90318152Y-71860840D02*
X90318152Y-71717983D01*
X90318152Y-71717983D02*
X90365771Y-71622744D01*
X90365771Y-71622744D02*
X90461009Y-71575125D01*
X90461009Y-71575125D02*
X90984819Y-71575125D01*
X90984819Y-71098935D02*
X90318152Y-71098935D01*
X90413390Y-71098935D02*
X90365771Y-71051316D01*
X90365771Y-71051316D02*
X90318152Y-70956078D01*
X90318152Y-70956078D02*
X90318152Y-70813221D01*
X90318152Y-70813221D02*
X90365771Y-70717983D01*
X90365771Y-70717983D02*
X90461009Y-70670364D01*
X90461009Y-70670364D02*
X90984819Y-70670364D01*
X90461009Y-70670364D02*
X90365771Y-70622745D01*
X90365771Y-70622745D02*
X90318152Y-70527507D01*
X90318152Y-70527507D02*
X90318152Y-70384650D01*
X90318152Y-70384650D02*
X90365771Y-70289411D01*
X90365771Y-70289411D02*
X90461009Y-70241792D01*
X90461009Y-70241792D02*
X90984819Y-70241792D01*
X90984819Y-69098935D02*
X90318152Y-68575126D01*
X90318152Y-69098935D02*
X90984819Y-68575126D01*
X90984819Y-66908459D02*
X90984819Y-67479887D01*
X90984819Y-67194173D02*
X89984819Y-67194173D01*
X89984819Y-67194173D02*
X90127676Y-67289411D01*
X90127676Y-67289411D02*
X90222914Y-67384649D01*
X90222914Y-67384649D02*
X90270533Y-67479887D01*
X89984819Y-66575125D02*
X89984819Y-65908459D01*
X89984819Y-65908459D02*
X90984819Y-66337030D01*
X90889580Y-65527506D02*
X90937200Y-65479887D01*
X90937200Y-65479887D02*
X90984819Y-65527506D01*
X90984819Y-65527506D02*
X90937200Y-65575125D01*
X90937200Y-65575125D02*
X90889580Y-65527506D01*
X90889580Y-65527506D02*
X90984819Y-65527506D01*
X90984819Y-64527507D02*
X90984819Y-65098935D01*
X90984819Y-64813221D02*
X89984819Y-64813221D01*
X89984819Y-64813221D02*
X90127676Y-64908459D01*
X90127676Y-64908459D02*
X90222914Y-65003697D01*
X90222914Y-65003697D02*
X90270533Y-65098935D01*
X90984819Y-64098935D02*
X90318152Y-64098935D01*
X90413390Y-64098935D02*
X90365771Y-64051316D01*
X90365771Y-64051316D02*
X90318152Y-63956078D01*
X90318152Y-63956078D02*
X90318152Y-63813221D01*
X90318152Y-63813221D02*
X90365771Y-63717983D01*
X90365771Y-63717983D02*
X90461009Y-63670364D01*
X90461009Y-63670364D02*
X90984819Y-63670364D01*
X90461009Y-63670364D02*
X90365771Y-63622745D01*
X90365771Y-63622745D02*
X90318152Y-63527507D01*
X90318152Y-63527507D02*
X90318152Y-63384650D01*
X90318152Y-63384650D02*
X90365771Y-63289411D01*
X90365771Y-63289411D02*
X90461009Y-63241792D01*
X90461009Y-63241792D02*
X90984819Y-63241792D01*
X90984819Y-62765602D02*
X90318152Y-62765602D01*
X90413390Y-62765602D02*
X90365771Y-62717983D01*
X90365771Y-62717983D02*
X90318152Y-62622745D01*
X90318152Y-62622745D02*
X90318152Y-62479888D01*
X90318152Y-62479888D02*
X90365771Y-62384650D01*
X90365771Y-62384650D02*
X90461009Y-62337031D01*
X90461009Y-62337031D02*
X90984819Y-62337031D01*
X90461009Y-62337031D02*
X90365771Y-62289412D01*
X90365771Y-62289412D02*
X90318152Y-62194174D01*
X90318152Y-62194174D02*
X90318152Y-62051317D01*
X90318152Y-62051317D02*
X90365771Y-61956078D01*
X90365771Y-61956078D02*
X90461009Y-61908459D01*
X90461009Y-61908459D02*
X90984819Y-61908459D01*
X90937200Y-61384650D02*
X90984819Y-61384650D01*
X90984819Y-61384650D02*
X91080057Y-61432269D01*
X91080057Y-61432269D02*
X91127676Y-61479888D01*
X91594819Y-74956077D02*
X91594819Y-74384649D01*
X92594819Y-74670363D02*
X91594819Y-74670363D01*
X92594819Y-73908458D02*
X92547200Y-74003696D01*
X92547200Y-74003696D02*
X92499580Y-74051315D01*
X92499580Y-74051315D02*
X92404342Y-74098934D01*
X92404342Y-74098934D02*
X92118628Y-74098934D01*
X92118628Y-74098934D02*
X92023390Y-74051315D01*
X92023390Y-74051315D02*
X91975771Y-74003696D01*
X91975771Y-74003696D02*
X91928152Y-73908458D01*
X91928152Y-73908458D02*
X91928152Y-73765601D01*
X91928152Y-73765601D02*
X91975771Y-73670363D01*
X91975771Y-73670363D02*
X92023390Y-73622744D01*
X92023390Y-73622744D02*
X92118628Y-73575125D01*
X92118628Y-73575125D02*
X92404342Y-73575125D01*
X92404342Y-73575125D02*
X92499580Y-73622744D01*
X92499580Y-73622744D02*
X92547200Y-73670363D01*
X92547200Y-73670363D02*
X92594819Y-73765601D01*
X92594819Y-73765601D02*
X92594819Y-73908458D01*
X91928152Y-73146553D02*
X92928152Y-73146553D01*
X91975771Y-73146553D02*
X91928152Y-73051315D01*
X91928152Y-73051315D02*
X91928152Y-72860839D01*
X91928152Y-72860839D02*
X91975771Y-72765601D01*
X91975771Y-72765601D02*
X92023390Y-72717982D01*
X92023390Y-72717982D02*
X92118628Y-72670363D01*
X92118628Y-72670363D02*
X92404342Y-72670363D01*
X92404342Y-72670363D02*
X92499580Y-72717982D01*
X92499580Y-72717982D02*
X92547200Y-72765601D01*
X92547200Y-72765601D02*
X92594819Y-72860839D01*
X92594819Y-72860839D02*
X92594819Y-73051315D01*
X92594819Y-73051315D02*
X92547200Y-73146553D01*
X92594819Y-71337029D02*
X92547200Y-71432267D01*
X92547200Y-71432267D02*
X92451961Y-71479886D01*
X92451961Y-71479886D02*
X91594819Y-71479886D01*
X92594819Y-70527505D02*
X92071009Y-70527505D01*
X92071009Y-70527505D02*
X91975771Y-70575124D01*
X91975771Y-70575124D02*
X91928152Y-70670362D01*
X91928152Y-70670362D02*
X91928152Y-70860838D01*
X91928152Y-70860838D02*
X91975771Y-70956076D01*
X92547200Y-70527505D02*
X92594819Y-70622743D01*
X92594819Y-70622743D02*
X92594819Y-70860838D01*
X92594819Y-70860838D02*
X92547200Y-70956076D01*
X92547200Y-70956076D02*
X92451961Y-71003695D01*
X92451961Y-71003695D02*
X92356723Y-71003695D01*
X92356723Y-71003695D02*
X92261485Y-70956076D01*
X92261485Y-70956076D02*
X92213866Y-70860838D01*
X92213866Y-70860838D02*
X92213866Y-70622743D01*
X92213866Y-70622743D02*
X92166247Y-70527505D01*
X91928152Y-70146552D02*
X92594819Y-69908457D01*
X91928152Y-69670362D02*
X92594819Y-69908457D01*
X92594819Y-69908457D02*
X92832914Y-70003695D01*
X92832914Y-70003695D02*
X92880533Y-70051314D01*
X92880533Y-70051314D02*
X92928152Y-70146552D01*
X92547200Y-68908457D02*
X92594819Y-69003695D01*
X92594819Y-69003695D02*
X92594819Y-69194171D01*
X92594819Y-69194171D02*
X92547200Y-69289409D01*
X92547200Y-69289409D02*
X92451961Y-69337028D01*
X92451961Y-69337028D02*
X92071009Y-69337028D01*
X92071009Y-69337028D02*
X91975771Y-69289409D01*
X91975771Y-69289409D02*
X91928152Y-69194171D01*
X91928152Y-69194171D02*
X91928152Y-69003695D01*
X91928152Y-69003695D02*
X91975771Y-68908457D01*
X91975771Y-68908457D02*
X92071009Y-68860838D01*
X92071009Y-68860838D02*
X92166247Y-68860838D01*
X92166247Y-68860838D02*
X92261485Y-69337028D01*
X92594819Y-68432266D02*
X91928152Y-68432266D01*
X92118628Y-68432266D02*
X92023390Y-68384647D01*
X92023390Y-68384647D02*
X91975771Y-68337028D01*
X91975771Y-68337028D02*
X91928152Y-68241790D01*
X91928152Y-68241790D02*
X91928152Y-68146552D01*
X92499580Y-67813218D02*
X92547200Y-67765599D01*
X92547200Y-67765599D02*
X92594819Y-67813218D01*
X92594819Y-67813218D02*
X92547200Y-67860837D01*
X92547200Y-67860837D02*
X92499580Y-67813218D01*
X92499580Y-67813218D02*
X92594819Y-67813218D01*
X94829819Y-74747618D02*
X94829819Y-75319046D01*
X94829819Y-75033332D02*
X93829819Y-75033332D01*
X93829819Y-75033332D02*
X93972676Y-75128570D01*
X93972676Y-75128570D02*
X94067914Y-75223808D01*
X94067914Y-75223808D02*
X94115533Y-75319046D01*
X93829819Y-74414284D02*
X93829819Y-73747618D01*
X93829819Y-73747618D02*
X94829819Y-74176189D01*
X94734580Y-73366665D02*
X94782200Y-73319046D01*
X94782200Y-73319046D02*
X94829819Y-73366665D01*
X94829819Y-73366665D02*
X94782200Y-73414284D01*
X94782200Y-73414284D02*
X94734580Y-73366665D01*
X94734580Y-73366665D02*
X94829819Y-73366665D01*
X94829819Y-72366666D02*
X94829819Y-72938094D01*
X94829819Y-72652380D02*
X93829819Y-72652380D01*
X93829819Y-72652380D02*
X93972676Y-72747618D01*
X93972676Y-72747618D02*
X94067914Y-72842856D01*
X94067914Y-72842856D02*
X94115533Y-72938094D01*
X93829819Y-71747618D02*
X93829819Y-71652380D01*
X93829819Y-71652380D02*
X93877438Y-71557142D01*
X93877438Y-71557142D02*
X93925057Y-71509523D01*
X93925057Y-71509523D02*
X94020295Y-71461904D01*
X94020295Y-71461904D02*
X94210771Y-71414285D01*
X94210771Y-71414285D02*
X94448866Y-71414285D01*
X94448866Y-71414285D02*
X94639342Y-71461904D01*
X94639342Y-71461904D02*
X94734580Y-71509523D01*
X94734580Y-71509523D02*
X94782200Y-71557142D01*
X94782200Y-71557142D02*
X94829819Y-71652380D01*
X94829819Y-71652380D02*
X94829819Y-71747618D01*
X94829819Y-71747618D02*
X94782200Y-71842856D01*
X94782200Y-71842856D02*
X94734580Y-71890475D01*
X94734580Y-71890475D02*
X94639342Y-71938094D01*
X94639342Y-71938094D02*
X94448866Y-71985713D01*
X94448866Y-71985713D02*
X94210771Y-71985713D01*
X94210771Y-71985713D02*
X94020295Y-71938094D01*
X94020295Y-71938094D02*
X93925057Y-71890475D01*
X93925057Y-71890475D02*
X93877438Y-71842856D01*
X93877438Y-71842856D02*
X93829819Y-71747618D01*
X93829819Y-70795237D02*
X93829819Y-70699999D01*
X93829819Y-70699999D02*
X93877438Y-70604761D01*
X93877438Y-70604761D02*
X93925057Y-70557142D01*
X93925057Y-70557142D02*
X94020295Y-70509523D01*
X94020295Y-70509523D02*
X94210771Y-70461904D01*
X94210771Y-70461904D02*
X94448866Y-70461904D01*
X94448866Y-70461904D02*
X94639342Y-70509523D01*
X94639342Y-70509523D02*
X94734580Y-70557142D01*
X94734580Y-70557142D02*
X94782200Y-70604761D01*
X94782200Y-70604761D02*
X94829819Y-70699999D01*
X94829819Y-70699999D02*
X94829819Y-70795237D01*
X94829819Y-70795237D02*
X94782200Y-70890475D01*
X94782200Y-70890475D02*
X94734580Y-70938094D01*
X94734580Y-70938094D02*
X94639342Y-70985713D01*
X94639342Y-70985713D02*
X94448866Y-71033332D01*
X94448866Y-71033332D02*
X94210771Y-71033332D01*
X94210771Y-71033332D02*
X94020295Y-70985713D01*
X94020295Y-70985713D02*
X93925057Y-70938094D01*
X93925057Y-70938094D02*
X93877438Y-70890475D01*
X93877438Y-70890475D02*
X93829819Y-70795237D01*
X93829819Y-69842856D02*
X93829819Y-69747618D01*
X93829819Y-69747618D02*
X93877438Y-69652380D01*
X93877438Y-69652380D02*
X93925057Y-69604761D01*
X93925057Y-69604761D02*
X94020295Y-69557142D01*
X94020295Y-69557142D02*
X94210771Y-69509523D01*
X94210771Y-69509523D02*
X94448866Y-69509523D01*
X94448866Y-69509523D02*
X94639342Y-69557142D01*
X94639342Y-69557142D02*
X94734580Y-69604761D01*
X94734580Y-69604761D02*
X94782200Y-69652380D01*
X94782200Y-69652380D02*
X94829819Y-69747618D01*
X94829819Y-69747618D02*
X94829819Y-69842856D01*
X94829819Y-69842856D02*
X94782200Y-69938094D01*
X94782200Y-69938094D02*
X94734580Y-69985713D01*
X94734580Y-69985713D02*
X94639342Y-70033332D01*
X94639342Y-70033332D02*
X94448866Y-70080951D01*
X94448866Y-70080951D02*
X94210771Y-70080951D01*
X94210771Y-70080951D02*
X94020295Y-70033332D01*
X94020295Y-70033332D02*
X93925057Y-69985713D01*
X93925057Y-69985713D02*
X93877438Y-69938094D01*
X93877438Y-69938094D02*
X93829819Y-69842856D01*
X94829819Y-68319046D02*
X94163152Y-68319046D01*
X94258390Y-68319046D02*
X94210771Y-68271427D01*
X94210771Y-68271427D02*
X94163152Y-68176189D01*
X94163152Y-68176189D02*
X94163152Y-68033332D01*
X94163152Y-68033332D02*
X94210771Y-67938094D01*
X94210771Y-67938094D02*
X94306009Y-67890475D01*
X94306009Y-67890475D02*
X94829819Y-67890475D01*
X94306009Y-67890475D02*
X94210771Y-67842856D01*
X94210771Y-67842856D02*
X94163152Y-67747618D01*
X94163152Y-67747618D02*
X94163152Y-67604761D01*
X94163152Y-67604761D02*
X94210771Y-67509522D01*
X94210771Y-67509522D02*
X94306009Y-67461903D01*
X94306009Y-67461903D02*
X94829819Y-67461903D01*
X94829819Y-66985713D02*
X94163152Y-66985713D01*
X94258390Y-66985713D02*
X94210771Y-66938094D01*
X94210771Y-66938094D02*
X94163152Y-66842856D01*
X94163152Y-66842856D02*
X94163152Y-66699999D01*
X94163152Y-66699999D02*
X94210771Y-66604761D01*
X94210771Y-66604761D02*
X94306009Y-66557142D01*
X94306009Y-66557142D02*
X94829819Y-66557142D01*
X94306009Y-66557142D02*
X94210771Y-66509523D01*
X94210771Y-66509523D02*
X94163152Y-66414285D01*
X94163152Y-66414285D02*
X94163152Y-66271428D01*
X94163152Y-66271428D02*
X94210771Y-66176189D01*
X94210771Y-66176189D02*
X94306009Y-66128570D01*
X94306009Y-66128570D02*
X94829819Y-66128570D01*
X104025000Y-62150000D02*
X94938580Y-62150000D01*
X104025000Y-79250000D02*
X94938580Y-79250000D01*
X95525000Y-62150000D02*
X95525000Y-79250000D01*
X95525000Y-62150000D02*
X95525000Y-79250000D01*
X95525000Y-62150000D02*
X96111421Y-63276504D01*
X95525000Y-62150000D02*
X94938579Y-63276504D01*
X95525000Y-79250000D02*
X94938579Y-78123496D01*
X95525000Y-79250000D02*
X96111421Y-78123496D01*
X98405952Y-58454819D02*
X97929762Y-58454819D01*
X97929762Y-58454819D02*
X97882143Y-58931009D01*
X97882143Y-58931009D02*
X97929762Y-58883390D01*
X97929762Y-58883390D02*
X98025000Y-58835771D01*
X98025000Y-58835771D02*
X98263095Y-58835771D01*
X98263095Y-58835771D02*
X98358333Y-58883390D01*
X98358333Y-58883390D02*
X98405952Y-58931009D01*
X98405952Y-58931009D02*
X98453571Y-59026247D01*
X98453571Y-59026247D02*
X98453571Y-59264342D01*
X98453571Y-59264342D02*
X98405952Y-59359580D01*
X98405952Y-59359580D02*
X98358333Y-59407200D01*
X98358333Y-59407200D02*
X98263095Y-59454819D01*
X98263095Y-59454819D02*
X98025000Y-59454819D01*
X98025000Y-59454819D02*
X97929762Y-59407200D01*
X97929762Y-59407200D02*
X97882143Y-59359580D01*
X98882143Y-59359580D02*
X98929762Y-59407200D01*
X98929762Y-59407200D02*
X98882143Y-59454819D01*
X98882143Y-59454819D02*
X98834524Y-59407200D01*
X98834524Y-59407200D02*
X98882143Y-59359580D01*
X98882143Y-59359580D02*
X98882143Y-59454819D01*
X99548809Y-58454819D02*
X99644047Y-58454819D01*
X99644047Y-58454819D02*
X99739285Y-58502438D01*
X99739285Y-58502438D02*
X99786904Y-58550057D01*
X99786904Y-58550057D02*
X99834523Y-58645295D01*
X99834523Y-58645295D02*
X99882142Y-58835771D01*
X99882142Y-58835771D02*
X99882142Y-59073866D01*
X99882142Y-59073866D02*
X99834523Y-59264342D01*
X99834523Y-59264342D02*
X99786904Y-59359580D01*
X99786904Y-59359580D02*
X99739285Y-59407200D01*
X99739285Y-59407200D02*
X99644047Y-59454819D01*
X99644047Y-59454819D02*
X99548809Y-59454819D01*
X99548809Y-59454819D02*
X99453571Y-59407200D01*
X99453571Y-59407200D02*
X99405952Y-59359580D01*
X99405952Y-59359580D02*
X99358333Y-59264342D01*
X99358333Y-59264342D02*
X99310714Y-59073866D01*
X99310714Y-59073866D02*
X99310714Y-58835771D01*
X99310714Y-58835771D02*
X99358333Y-58645295D01*
X99358333Y-58645295D02*
X99405952Y-58550057D01*
X99405952Y-58550057D02*
X99453571Y-58502438D01*
X99453571Y-58502438D02*
X99548809Y-58454819D01*
X100501190Y-58454819D02*
X100596428Y-58454819D01*
X100596428Y-58454819D02*
X100691666Y-58502438D01*
X100691666Y-58502438D02*
X100739285Y-58550057D01*
X100739285Y-58550057D02*
X100786904Y-58645295D01*
X100786904Y-58645295D02*
X100834523Y-58835771D01*
X100834523Y-58835771D02*
X100834523Y-59073866D01*
X100834523Y-59073866D02*
X100786904Y-59264342D01*
X100786904Y-59264342D02*
X100739285Y-59359580D01*
X100739285Y-59359580D02*
X100691666Y-59407200D01*
X100691666Y-59407200D02*
X100596428Y-59454819D01*
X100596428Y-59454819D02*
X100501190Y-59454819D01*
X100501190Y-59454819D02*
X100405952Y-59407200D01*
X100405952Y-59407200D02*
X100358333Y-59359580D01*
X100358333Y-59359580D02*
X100310714Y-59264342D01*
X100310714Y-59264342D02*
X100263095Y-59073866D01*
X100263095Y-59073866D02*
X100263095Y-58835771D01*
X100263095Y-58835771D02*
X100310714Y-58645295D01*
X100310714Y-58645295D02*
X100358333Y-58550057D01*
X100358333Y-58550057D02*
X100405952Y-58502438D01*
X100405952Y-58502438D02*
X100501190Y-58454819D01*
X101453571Y-58454819D02*
X101548809Y-58454819D01*
X101548809Y-58454819D02*
X101644047Y-58502438D01*
X101644047Y-58502438D02*
X101691666Y-58550057D01*
X101691666Y-58550057D02*
X101739285Y-58645295D01*
X101739285Y-58645295D02*
X101786904Y-58835771D01*
X101786904Y-58835771D02*
X101786904Y-59073866D01*
X101786904Y-59073866D02*
X101739285Y-59264342D01*
X101739285Y-59264342D02*
X101691666Y-59359580D01*
X101691666Y-59359580D02*
X101644047Y-59407200D01*
X101644047Y-59407200D02*
X101548809Y-59454819D01*
X101548809Y-59454819D02*
X101453571Y-59454819D01*
X101453571Y-59454819D02*
X101358333Y-59407200D01*
X101358333Y-59407200D02*
X101310714Y-59359580D01*
X101310714Y-59359580D02*
X101263095Y-59264342D01*
X101263095Y-59264342D02*
X101215476Y-59073866D01*
X101215476Y-59073866D02*
X101215476Y-58835771D01*
X101215476Y-58835771D02*
X101263095Y-58645295D01*
X101263095Y-58645295D02*
X101310714Y-58550057D01*
X101310714Y-58550057D02*
X101358333Y-58502438D01*
X101358333Y-58502438D02*
X101453571Y-58454819D01*
X102405952Y-58454819D02*
X102501190Y-58454819D01*
X102501190Y-58454819D02*
X102596428Y-58502438D01*
X102596428Y-58502438D02*
X102644047Y-58550057D01*
X102644047Y-58550057D02*
X102691666Y-58645295D01*
X102691666Y-58645295D02*
X102739285Y-58835771D01*
X102739285Y-58835771D02*
X102739285Y-59073866D01*
X102739285Y-59073866D02*
X102691666Y-59264342D01*
X102691666Y-59264342D02*
X102644047Y-59359580D01*
X102644047Y-59359580D02*
X102596428Y-59407200D01*
X102596428Y-59407200D02*
X102501190Y-59454819D01*
X102501190Y-59454819D02*
X102405952Y-59454819D01*
X102405952Y-59454819D02*
X102310714Y-59407200D01*
X102310714Y-59407200D02*
X102263095Y-59359580D01*
X102263095Y-59359580D02*
X102215476Y-59264342D01*
X102215476Y-59264342D02*
X102167857Y-59073866D01*
X102167857Y-59073866D02*
X102167857Y-58835771D01*
X102167857Y-58835771D02*
X102215476Y-58645295D01*
X102215476Y-58645295D02*
X102263095Y-58550057D01*
X102263095Y-58550057D02*
X102310714Y-58502438D01*
X102310714Y-58502438D02*
X102405952Y-58454819D01*
X103929762Y-59454819D02*
X103929762Y-58788152D01*
X103929762Y-58883390D02*
X103977381Y-58835771D01*
X103977381Y-58835771D02*
X104072619Y-58788152D01*
X104072619Y-58788152D02*
X104215476Y-58788152D01*
X104215476Y-58788152D02*
X104310714Y-58835771D01*
X104310714Y-58835771D02*
X104358333Y-58931009D01*
X104358333Y-58931009D02*
X104358333Y-59454819D01*
X104358333Y-58931009D02*
X104405952Y-58835771D01*
X104405952Y-58835771D02*
X104501190Y-58788152D01*
X104501190Y-58788152D02*
X104644047Y-58788152D01*
X104644047Y-58788152D02*
X104739286Y-58835771D01*
X104739286Y-58835771D02*
X104786905Y-58931009D01*
X104786905Y-58931009D02*
X104786905Y-59454819D01*
X105263095Y-59454819D02*
X105263095Y-58788152D01*
X105263095Y-58883390D02*
X105310714Y-58835771D01*
X105310714Y-58835771D02*
X105405952Y-58788152D01*
X105405952Y-58788152D02*
X105548809Y-58788152D01*
X105548809Y-58788152D02*
X105644047Y-58835771D01*
X105644047Y-58835771D02*
X105691666Y-58931009D01*
X105691666Y-58931009D02*
X105691666Y-59454819D01*
X105691666Y-58931009D02*
X105739285Y-58835771D01*
X105739285Y-58835771D02*
X105834523Y-58788152D01*
X105834523Y-58788152D02*
X105977380Y-58788152D01*
X105977380Y-58788152D02*
X106072619Y-58835771D01*
X106072619Y-58835771D02*
X106120238Y-58931009D01*
X106120238Y-58931009D02*
X106120238Y-59454819D01*
X99525000Y-58750000D02*
X99525000Y-60736420D01*
X104525000Y-58750000D02*
X104525000Y-60736420D01*
X99525000Y-60150000D02*
X104525000Y-60150000D01*
X99525000Y-60150000D02*
X104525000Y-60150000D01*
X99525000Y-60150000D02*
X100651504Y-59563579D01*
X99525000Y-60150000D02*
X100651504Y-60736421D01*
X104525000Y-60150000D02*
X103398496Y-60736421D01*
X104525000Y-60150000D02*
X103398496Y-59563579D01*
M02*
